<svg width="22" height="16" viewBox="0 0 22 16" fill="none" xmlns="http://www.w3.org/2000/svg">
<path d="M14 8C16.2091 8 18 6.20914 18 4C18 1.79086 16.2091 0 14 0C11.7909 0 10 1.79086 10 4C10 6.20914 11.7909 8 14 8Z" fill="#BF735A"/>
<path d="M14 16C14 16 22 16 22 14C22 11.6 18.1 9 14 9C9.9 9 6 11.6 6 14C6 16 14 16 14 16ZM5 6V4C5 3.44772 4.55228 3 4 3C3.44772 3 3 3.44772 3 4V6H1C0.447715 6 0 6.44772 0 7C0 7.55228 0.447715 8 1 8H3V10C3 10.5523 3.44772 11 4 11C4.55228 11 5 10.5523 5 10V8H7C7.55228 8 8 7.55228 8 7C8 6.44772 7.55228 6 7 6H5Z" fill="#BF735A"/>
</svg>
