<svg width="22" height="16" viewBox="0 0 22 16" fill="none" xmlns="http://www.w3.org/2000/svg">
<path fill-rule="evenodd" clip-rule="evenodd" d="M16.5 14.5C16.7652 14.5 17.0196 14.3946 17.2071 14.2071C17.3946 14.0196 17.5 13.7652 17.5 13.5V1C17.5 0.734783 17.3946 0.480431 17.2071 0.292894C17.0196 0.105358 16.7652 0 16.5 0C16.2348 0 15.9804 0.105358 15.7929 0.292894C15.6054 0.480431 15.5 0.734783 15.5 1V13.5C15.5 13.7652 15.6054 14.0196 15.7929 14.2071C15.9804 14.3946 16.2348 14.5 16.5 14.5Z" fill="#4E413D"/>
<path fill-rule="evenodd" clip-rule="evenodd" d="M16.5002 16C16.7654 15.9999 17.0197 15.8945 17.2072 15.707L21.7072 11.207C21.8948 11.0195 22.0003 10.7651 22.0004 10.4999C22.0005 10.2346 21.8952 9.98014 21.7077 9.7925C21.5202 9.60486 21.2658 9.49939 21.0006 9.4993C20.7353 9.4992 20.4808 9.60449 20.2932 9.792L16.5002 13.586L12.7072 9.793C12.5196 9.60549 12.2651 9.5002 11.9998 9.5003C11.7346 9.50039 11.4802 9.60586 11.2927 9.7935C11.1052 9.98114 10.9999 10.2356 11 10.5009C11.0001 10.7661 11.1056 11.0205 11.2932 11.208L15.7932 15.708C15.9809 15.8952 16.2352 16.0002 16.5002 16Z" fill="#4E413D"/>
<path fill-rule="evenodd" clip-rule="evenodd" d="M5.5 1.5C5.76522 1.5 6.01957 1.60536 6.20711 1.79289C6.39464 1.98043 6.5 2.23478 6.5 2.5V15C6.5 15.2652 6.39464 15.5196 6.20711 15.7071C6.01957 15.8946 5.76522 16 5.5 16C5.23478 16 4.98043 15.8946 4.79289 15.7071C4.60536 15.5196 4.5 15.2652 4.5 15V2.5C4.5 2.23478 4.60536 1.98043 4.79289 1.79289C4.98043 1.60536 5.23478 1.5 5.5 1.5Z" fill="#4E413D"/>
<path fill-rule="evenodd" clip-rule="evenodd" d="M5.5002 3.10333e-07C5.7654 5.69477e-05 6.01971 0.105451 6.2072 0.293L10.7072 4.793C10.8948 4.98051 11.0003 5.23488 11.0004 5.50015C11.0005 5.76542 10.8952 6.01986 10.7077 6.2075C10.5202 6.39514 10.2658 6.50061 10.0006 6.5007C9.73529 6.5008 9.48084 6.39551 9.2932 6.208L5.5002 2.414L1.7072 6.207C1.51956 6.39451 1.26512 6.4998 0.999849 6.4997C0.734579 6.49961 0.480211 6.39414 0.292703 6.2065C0.105195 6.01886 -9.37056e-05 5.76442 6.25777e-08 5.49915C9.38308e-05 5.23388 0.105562 4.97951 0.293203 4.792L4.7932 0.292C4.98086 0.104817 5.23515 -0.000208353 5.5002 3.10333e-07Z" fill="#4E413D"/>
</svg>
