<svg width="129" height="113" viewBox="0 0 129 113" fill="none" xmlns="http://www.w3.org/2000/svg">
<path d="M99.9072 41.5503C98.4614 43.5732 96.4355 45.2016 95.3783 47.4543C93.9355 50.5285 94.5597 54.1976 93.479 57.4161C92.6987 59.7453 91.0055 61.7535 88.8441 62.9196C86.7181 64.0651 84.1651 64.3831 81.827 63.7971C81.7829 63.7883 81.7416 63.7765 81.6975 63.7647L80.6521 62.316C79.4802 60.6257 79.1769 58.4143 79.6362 56.409C80.0956 54.4037 81.2734 52.6074 82.7811 51.2087C83.8912 50.1811 85.1751 49.3536 86.3 48.3436C87.4248 47.3336 88.4201 46.0762 88.691 44.5862C88.8913 43.4908 88.6851 42.363 88.6616 41.247C88.6056 38.7234 89.5303 36.1881 91.1999 34.2917C92.0244 33.3524 93.0167 32.575 93.9031 31.6916C95.5285 30.0691 96.7918 28.0873 97.575 25.9289C97.9284 24.9572 98.2023 23.9236 98.8736 23.1374C99.0474 22.9312 99.2594 22.7398 99.5185 22.6662C99.5774 22.6515 99.6334 22.6397 99.6893 22.6397C100.219 22.6073 100.72 23.0932 100.861 23.6262C101.02 24.2181 100.873 24.8423 100.77 25.446C100.493 27.0714 100.537 28.7499 100.897 30.3577C101.203 31.7092 101.727 33.0108 101.91 34.383C102.245 36.9007 101.382 39.4831 99.9072 41.5503Z" fill="#FFC741"/>
<path d="M99.9072 41.5502C98.4614 43.5732 96.4354 45.2016 95.3783 47.4543C93.9354 50.5285 94.5597 54.1975 93.479 57.416C92.6987 59.7452 91.0055 61.7535 88.8441 62.9196C86.7181 64.0651 84.1651 64.3831 81.827 63.7971L82.7104 62.6281C81.7505 59.4125 82.9342 55.8848 84.8688 53.1404C86.8005 50.393 89.4242 48.2258 91.7976 45.8494C94.1681 43.4702 96.3736 40.7287 97.1127 37.4513C97.7988 34.4095 97.1598 31.1586 98.0344 28.1639C98.3936 26.93 99.0002 25.7787 99.3565 24.5419C99.5332 23.9206 99.6451 23.2846 99.6893 22.6397C100.219 22.6073 100.72 23.0932 100.861 23.6261C101.02 24.218 100.873 24.8423 100.77 25.4459C100.493 27.0714 100.537 28.7498 100.897 30.3576C101.203 31.7092 101.727 33.0108 101.91 34.383C102.245 36.9006 101.382 39.4831 99.9072 41.5502Z" fill="#FFAA41"/>
<path d="M86.3201 61.0842C86.2718 61.0842 86.2244 61.0604 86.1962 61.0168C86.1576 60.957 82.331 54.9166 81.9591 45.5768C81.7409 40.0939 82.7371 34.5608 84.92 29.1315C87.6461 22.3506 92.2418 15.7139 98.5787 9.40586C98.6359 9.34844 98.7295 9.34873 98.7869 9.40645C98.8443 9.46387 98.844 9.55722 98.7863 9.61464C90.9073 17.4574 81.6431 30.0582 82.2527 45.5488C82.6172 54.813 86.4055 60.7977 86.4435 60.8572C86.4874 60.9255 86.468 61.0165 86.3993 61.0607C86.3752 61.0769 86.3475 61.0842 86.3201 61.0842Z" fill="white"/>
<path d="M97.6775 10.5292C97.6775 10.5292 97.282 6.00383 102.907 5.33215C101.982 9.81598 97.6775 10.5292 97.6775 10.5292Z" fill="white"/>
<path d="M94.8255 13.6364C94.8255 13.6364 91.9503 10.3958 96.2321 5.33246C96.9038 10.6378 94.8255 13.6364 94.8255 13.6364Z" fill="white"/>
<path d="M93.9294 14.6909C93.9294 14.6909 98.7928 17.4088 102.907 13.4777C98.2893 12.0651 93.9294 14.6909 93.9294 14.6909Z" fill="white"/>
<path d="M91.3698 17.9706C91.3698 17.9706 87.3748 14.1223 90.1872 8.66495C92.8321 13.1985 91.3698 17.9706 91.3698 17.9706Z" fill="white"/>
<path d="M90.4786 19.2253C90.4786 19.2253 95.7287 22.3717 100.389 18.3307C95.7705 17.2707 90.4786 19.2253 90.4786 19.2253Z" fill="white"/>
<path d="M88.1138 22.9497C88.1138 22.9497 82.8405 18.9014 85.6954 12.6705C87.9624 16.4311 88.1138 22.9497 88.1138 22.9497Z" fill="white"/>
<path d="M86.9136 25.1402C86.9136 25.1402 91.8665 27.9217 97.8276 22.5121C93.6715 21.7624 86.9136 25.1402 86.9136 25.1402Z" fill="white"/>
<path d="M84.7396 29.9998C84.7396 29.9998 78.3073 26.9106 81.0358 19.1732C84.8559 22.644 84.7396 29.9998 84.7396 29.9998Z" fill="white"/>
<path d="M83.5649 33.5499C83.5649 33.5499 91.7537 35.2274 94.4339 28.0122C87.7943 27.7236 83.6636 33.1947 83.5649 33.5499Z" fill="white"/>
<path d="M82.9622 52.1156C82.9622 52.1156 82.5844 46.0307 88.7413 44.13C88.4686 50.9251 82.9622 52.1156 82.9622 52.1156Z" fill="white"/>
<path d="M83.7972 55.1872C83.7972 55.1872 80.5754 47.6507 73.9821 49.4484C75.9402 55.5544 83.7972 55.1872 83.7972 55.1872Z" fill="white"/>
<path d="M84.8484 58.0114C84.8484 58.0114 83.4659 51.4572 90.7686 48.8382C90.7071 55.6218 84.8484 58.2962 84.8484 58.2962" fill="white"/>
<path d="M97.9223 47.6026C101.018 46.7507 104.531 46.519 106.824 44.271C107.439 43.6674 107.935 42.9407 108.61 42.4038C109.285 41.867 110.233 41.544 111.015 41.9091C111.947 42.3449 112.241 43.6023 111.928 44.5829C111.615 45.5635 110.858 46.3279 110.127 47.0523C111.305 46.6662 112.386 45.9545 113.616 45.7955C114.846 45.6365 116.343 46.35 116.386 47.5891C116.422 48.6 115.505 49.3688 114.628 49.8724C113.581 50.4737 112.458 50.943 111.295 51.2661C112.23 50.9843 113.086 52.1727 112.838 53.1183C112.591 54.0635 111.68 54.6769 110.78 55.0579C109.091 55.7734 107.199 55.9802 105.385 55.7043C106.266 55.8432 106.859 56.8129 106.763 57.6998C106.667 58.5868 106.017 59.3418 105.236 59.7732C104.455 60.2049 103.554 60.36 102.668 60.459C99.6764 60.7932 96.652 60.5626 93.6452 60.6969C91.126 60.8097 88.5401 61.1963 86.2694 62.3509C84.9305 63.0317 83.7638 63.8842 84.3248 61.7479C85.3654 57.7835 87.8325 53.7879 90.9891 51.2031C93.0171 49.5426 95.3937 48.2985 97.9223 47.6026Z" fill="#499ECE"/>
<path d="M103.845 53.8623C103.836 53.8623 103.826 53.8614 103.816 53.8594L98.6177 52.7961L102.579 46.5275C102.623 46.4592 102.714 46.4389 102.782 46.4819C102.851 46.5251 102.872 46.6161 102.828 46.685L99.0947 52.5932L103.875 53.5708C103.955 53.5873 104.006 53.665 103.99 53.7448C103.975 53.8143 103.914 53.8623 103.845 53.8623Z" fill="#49C3DC"/>
<path d="M92.1716 59.6492C92.143 59.6492 92.1144 59.6412 92.0891 59.6238C92.0217 59.5782 92.004 59.4866 92.0496 59.4195C94.3524 56.0178 97.704 53.2622 101.487 51.66C103.387 50.855 105.417 50.322 107.38 49.8064C109.471 49.2572 111.633 48.6895 113.629 47.7934C113.703 47.7595 113.791 47.7931 113.824 47.8673C113.857 47.9415 113.824 48.0287 113.75 48.062C111.732 48.968 109.558 49.539 107.455 50.0911C105.503 50.6041 103.483 51.1344 101.602 51.9309C97.8709 53.5113 94.5653 56.2295 92.294 59.5844C92.2652 59.6265 92.2187 59.6492 92.1716 59.6492Z" fill="#49C3DC"/>
<path d="M110.272 51.996C110.259 51.996 110.245 51.9943 110.231 51.9905L105.226 50.5679L107.649 46.3217C107.689 46.2513 107.779 46.2269 107.85 46.2669C107.921 46.3076 107.945 46.3971 107.905 46.4681L105.668 50.3877L110.312 51.7072C110.39 51.7296 110.435 51.8111 110.413 51.8891C110.395 51.9536 110.336 51.996 110.272 51.996Z" fill="#49C3DC"/>
<path d="M48.1278 74.2781L45.5082 80.2244L69.5859 94.1851L88.4587 81.2586L89.2343 76.9927L86.1319 71.9621L48.1278 74.2781Z" fill="#2D1D3D"/>
<path opacity="0.2" d="M50.8119 79.2426C50.8119 79.2426 68.803 86.3025 82.7144 80.3886C79.8074 88.026 69.4399 91.1397 69.4399 91.1397L50.8119 86.879" fill="#38284C"/>
<path d="M117.548 42.8839C117.548 42.8839 117.548 42.8869 117.545 42.8897C117.419 43.2601 111.927 59.2161 105.778 67.0498C99.5567 74.9739 93.9735 72.5482 89.0525 65.2074C85.3034 59.6128 82.4522 53.3096 81.7234 51.648C82.1167 52.6568 82.9712 55.3098 82.0325 57.5109C81.4988 58.7645 80.3852 59.8723 78.2745 60.4467C76.7556 60.9044 68.0356 57.8752 66.2716 58.0066C65.6216 58.0706 64.9626 58.1144 64.292 58.1291C60.5514 58.2164 53.1754 62.1203 50.4553 60.9659C49.3445 60.5637 48.4904 59.9191 47.8314 59.1527C45.3154 56.2316 45.6478 51.5202 45.6478 51.5202C45.6478 51.5202 43.7003 58.6368 39.3387 65.144C34.4175 72.4878 28.8318 74.9135 22.6101 66.9894C16.4616 59.1557 10.9718 43.1997 10.8465 42.8293C10.8438 42.8263 10.8438 42.8235 10.8438 42.8235C2.27849 41.9023 -0.228996 39.1706 0.0160855 38.2405C0.25504 37.3337 3.87029 38.78 4.04522 38.8498C3.84977 38.7129 -0.412501 35.6984 0.546686 35.2465C1.52609 34.783 5.12082 36.71 5.12082 36.71C5.12082 36.71 1.76811 33.1676 2.93715 32.7568C4.33932 32.2611 6.12351 34.3691 8.2404 35.71C8.22875 34.1678 8.45331 32.2522 10.3132 31.4361C12.1703 30.6227 12.7327 31.3748 12.6803 31.9434C12.628 32.509 10.0215 32.9201 10.8438 34.9812C11.2577 36.0161 13.9777 36.2173 14.4734 35.2698C14.9691 34.3222 12.2459 32.6839 13.1966 31.7363C13.8555 31.0774 17.3801 33.0687 17.7679 35.0627C18.1558 37.054 16.6602 39.6923 16.6602 39.6923L29.3131 56.8146C29.3131 56.8146 37.5987 39.7974 39.3449 37.742C41.0883 35.6895 49.6888 33.92 49.6888 33.92L52.4031 34.9346L57.0443 30.9202L57.1114 30.8589H74.3618L76.6998 34.1593L79.9824 33.652C79.9824 33.652 87.3002 35.7511 89.0464 37.8033C90.7899 39.8586 99.0782 56.8758 99.0782 56.8758L111.728 39.7536C111.728 39.7536 110.232 37.1153 110.62 35.124C111.008 33.1327 114.536 31.1386 115.195 31.7976C116.145 32.7452 113.422 34.3835 113.918 35.3311C114.41 36.2786 117.131 36.0773 117.548 35.0425C118.37 32.9813 115.763 32.5702 115.711 32.0047C115.659 31.4361 116.218 30.684 118.078 31.4974C119.938 32.3138 120.16 34.2291 120.151 35.7713C122.267 34.4301 124.052 32.3224 125.451 32.8181C126.62 33.2292 123.267 36.7712 123.267 36.7712C123.267 36.7712 126.862 34.8443 127.845 35.3078C128.801 35.7596 124.542 38.7741 124.346 38.9111C124.521 38.8412 128.136 37.395 128.375 38.3018C128.62 39.2309 126.11 41.9627 117.548 42.8839Z" fill="#FFCBB4"/>
<path d="M46.6592 47.8369L45.6477 51.519C45.6477 51.519 43.7002 58.6355 39.3387 65.1427C34.4174 72.4866 28.8317 74.9123 22.61 66.9882C16.4616 59.1545 10.9717 43.1984 10.8464 42.8281C11.0621 43.2275 25.2456 69.7168 31.9685 68.1192C38.642 66.5394 46.4172 48.4027 46.6592 47.8369Z" fill="#FF9688"/>
<path d="M117.544 42.8897C117.419 43.2601 111.927 59.2161 105.778 67.0498C99.5563 74.9739 93.9731 72.5482 89.0522 65.2074C85.303 59.6128 82.4518 53.3096 81.723 51.648C82.1164 52.6568 82.9708 55.3098 82.0321 57.5109L81.5423 51.2283L80.376 47.2255C80.376 47.2255 92.3378 70.3912 99.0579 68.7207C105.725 67.0611 117.364 43.2598 117.544 42.8897Z" fill="#FF9688"/>
<path d="M87.6191 73.5395C87.6191 73.5395 77.7086 78.1593 66.8423 78.8853C55.976 79.6114 42.5394 74.6944 42.5394 74.6944L45.3762 53.5286L45.6458 51.519C45.6458 51.519 46.0288 52.8271 46.7518 53.2774C47.3798 53.6695 48.2651 53.4122 49.3772 51.0809C52.8022 43.9 49.6897 33.9191 49.6897 33.9191L50.2717 33.6525L54.3248 31.796L55.6268 31.1987C55.6268 31.1987 54.9896 40.619 64.6151 40.9314C74.3877 41.2501 73.7812 30.8586 73.7812 30.8586C73.7812 30.8586 74.3602 31.0363 75.2853 31.3978C76.3024 31.793 77.7423 32.4118 79.2955 33.2604C79.5222 33.386 79.7519 33.5147 79.9817 33.6495C76.5598 39.2496 77.9291 48.5198 79.0228 51.4087C80.2727 54.7081 81.541 51.2279 81.541 51.2279L81.9669 52.7842V52.7872L85.3184 65.0934L87.6191 73.5395Z" fill="#49C3DC"/>
<path d="M8.17505 36.5553C8.17505 36.5553 6.02538 37.6514 6.48828 39.9285C6.84732 38.3137 8.17505 36.5553 8.17505 36.5553Z" fill="#FF9688"/>
<path d="M13.6202 36.5008C13.6202 36.5008 10.4072 36.6693 10.4234 40.219C9.81103 38.4798 10.2917 36.056 13.6202 36.5008Z" fill="#FF9688"/>
<path d="M120.067 36.5553C120.067 36.5553 122.217 37.6514 121.754 39.9285C121.395 38.3137 120.067 36.5553 120.067 36.5553Z" fill="#FF9688"/>
<path d="M114.622 36.5008C114.622 36.5008 117.835 36.6693 117.819 40.219C118.431 38.4798 117.95 36.056 114.622 36.5008Z" fill="#FF9688"/>
<path d="M75.6618 90.1775L73.003 94.9382L70.49 99.4397C70.49 99.4397 59.3734 100.39 40.89 97.5446C22.4032 94.702 13.485 81.9035 15.6834 76.2621C16.838 73.2972 19.7416 71.4021 23.9166 70.7229C27.6863 70.105 32.4908 70.4809 37.9806 71.9563C49.5515 75.0612 75.6618 90.1775 75.6618 90.1775Z" fill="#34254D"/>
<path opacity="0.2" d="M73.003 94.9384L70.49 99.44C70.49 99.44 59.3734 100.39 40.89 97.5449C22.4032 94.7023 13.485 81.9038 15.6834 76.2623C16.838 73.2975 19.7416 71.4024 23.9166 70.7232C22.9194 71.5831 22.0246 72.5601 21.2547 73.6271C20.8203 74.2306 20.4181 74.8749 20.2373 75.5951C20.0042 76.531 20.1613 77.5368 20.5375 78.4289C21.762 81.3355 24.9864 82.8339 28.0419 83.6123C31.1002 84.3908 34.3684 84.7581 36.9981 86.4985C37.9515 87.128 38.7881 87.9212 39.7562 88.5216C43.1965 90.6529 47.5752 90.0436 51.6043 90.4369C56.6567 90.9295 61.3886 93.093 66.3564 94.1309C68.548 94.5886 70.7697 94.8245 73.003 94.9384Z" fill="#38284C"/>
<path d="M57.1605 95.9087L49.938 97.5458L51.2305 103.096H59.2952L57.1605 95.9087Z" fill="#FFCBB4"/>
<path d="M52.6534 103.096C52.1608 104.769 50.455 106.466 48.5164 107.396C46.6271 108.303 46.2191 112.562 42.7147 112.79C42.6271 112.796 42.534 112.799 42.4406 112.799C40.3705 112.81 39.983 109.44 42.0205 105.56C43.8047 102.163 43.9913 95.4343 46.9651 94.8308C47.2858 94.7668 47.6007 94.7404 47.9068 94.7463C50.4372 94.7901 52.3847 96.9912 52.3847 96.9912C49.9391 98.1921 50.429 102.201 52.6534 103.096Z" fill="#49C3DC"/>
<path d="M47.9071 94.7461C46.8924 95.4342 45.4728 96.9209 44.8604 100.002C43.9012 104.854 39.7906 109.346 42.7147 112.79C42.6271 112.795 42.534 112.798 42.4406 112.798C40.3705 112.81 39.983 109.44 42.0205 105.559C43.8047 102.163 43.9913 95.4342 46.9651 94.8307C47.2861 94.7663 47.601 94.74 47.9071 94.7461Z" fill="#FFC741"/>
<path d="M49.3943 97.6062C49.3943 98.3218 48.8144 98.9018 48.0988 98.9018C47.3834 98.9018 46.8032 98.3218 46.8032 97.6062C46.8032 96.8909 47.3831 96.3106 48.0988 96.3106C48.8144 96.3109 49.3943 96.8909 49.3943 97.6062Z" fill="#FFC741"/>
<path d="M50.8119 106.443C50.7758 106.443 50.739 106.437 50.7032 106.423C49.1061 105.817 49.0878 104.201 49.0878 104.132C49.0878 103.963 49.225 103.826 49.3941 103.826C49.5629 103.826 49.7002 103.963 49.7005 104.132C49.7011 104.19 49.729 105.398 50.9204 105.85C51.0787 105.91 51.1581 106.087 51.0984 106.245C51.0521 106.368 50.9357 106.443 50.8119 106.443Z" fill="#FFC741"/>
<path d="M49.5168 107.727C49.4806 107.727 49.4438 107.721 49.408 107.707C47.811 107.101 47.7926 105.485 47.7926 105.416C47.7926 105.247 47.9298 105.11 48.099 105.11C48.2678 105.11 48.405 105.247 48.4053 105.415C48.4059 105.474 48.4338 106.682 49.6252 107.134C49.7836 107.194 49.8629 107.371 49.8032 107.529C49.7566 107.652 49.6402 107.727 49.5168 107.727Z" fill="#FFC741"/>
<path d="M69.0775 94.4365L76.4196 95.408L75.6387 101.053L67.6077 101.789L69.0775 94.4365Z" fill="#FFCBB4"/>
<path d="M74.2215 101.182C74.8648 102.804 76.7179 104.338 78.7334 105.087C80.6974 105.818 81.4924 110.022 85.0029 109.929C85.0905 109.927 85.1836 109.921 85.2765 109.913C87.3388 109.735 87.4175 106.344 85.0341 102.666C82.9476 99.4462 82.1477 92.7626 79.1313 92.4329C78.806 92.3983 78.4902 92.4011 78.1856 92.4348C75.6696 92.7093 73.931 95.0789 73.931 95.0789C76.4771 96.0512 76.3549 100.088 74.2215 101.182Z" fill="#49C3DC"/>
<path d="M78.1862 92.4345C79.2593 93.0269 80.8088 94.3783 81.6997 97.3912C83.0976 102.135 87.601 106.233 85.0031 109.929C85.0907 109.927 85.1838 109.921 85.2767 109.913C87.339 109.735 87.4178 106.344 85.0343 102.666C82.9478 99.4462 82.1479 92.7626 79.1316 92.4329C78.8065 92.398 78.4904 92.4008 78.1862 92.4345Z" fill="#FFC741"/>
<path d="M76.9661 95.4184C77.0313 96.131 77.6618 96.6554 78.3744 96.5902C79.0869 96.5249 79.6114 95.8945 79.5461 95.1819C79.4809 94.4693 78.8504 93.9448 78.1379 94.0101C77.4256 94.0757 76.9008 94.7061 76.9661 95.4184Z" fill="#FFC741"/>
<path d="M76.3328 104.349C76.2195 104.349 76.1104 104.286 76.0574 104.177C75.9833 104.026 76.0464 103.842 76.1984 103.768C77.3576 103.202 77.2577 101.958 77.2565 101.946C77.2409 101.777 77.3649 101.628 77.5334 101.613C77.7044 101.598 77.8511 101.721 77.8664 101.89C77.8729 101.958 78.0018 103.569 76.467 104.318C76.4238 104.339 76.3782 104.349 76.3328 104.349Z" fill="#FFC741"/>
<path d="M77.7399 105.51C77.6265 105.51 77.5175 105.446 77.4642 105.338C77.39 105.186 77.4531 105.002 77.6054 104.928C78.7646 104.362 78.6645 103.119 78.6635 103.106C78.6479 102.937 78.772 102.789 78.9405 102.773C79.1117 102.756 79.2582 102.882 79.2735 103.05C79.2796 103.119 79.4089 104.73 77.8741 105.479C77.8309 105.499 77.7852 105.51 77.7399 105.51Z" fill="#FFC741"/>
<path d="M92.5946 97.0287C82.6473 101.215 71.4667 102.81 64.8924 103.411C64.1489 103.478 63.4639 103.533 62.8488 103.577C60.5514 103.749 59.1869 103.772 59.1869 103.772C59.1869 103.772 57.4524 102.323 57.0296 99.9559C57.0063 99.8334 56.9858 99.7081 56.9683 99.5828C56.6243 97.3029 56.8109 94.7376 56.8109 94.7376C56.8109 94.7376 58.289 93.8016 60.6709 92.2944C61.2306 91.9387 61.843 91.5539 62.4958 91.1398C69.114 86.9562 80.1166 80.0146 87.7959 75.2334C99.4575 67.9741 107.845 68.875 110.379 74.1109C110.659 74.6911 110.863 75.3121 110.985 75.968C112.136 82.0932 106.376 91.2298 92.5946 97.0287Z" fill="#34254D"/>
<path d="M64.8925 103.411C64.149 103.478 63.464 103.533 62.8489 103.577C60.3328 99.1744 60.33 94.8714 60.671 92.294C61.2307 91.9384 61.8431 91.5536 62.4959 91.1394C61.9479 97.23 63.426 101.122 64.8925 103.411Z" fill="#FFC741"/>
<path opacity="0.2" d="M92.5946 97.0287C77.3383 103.448 59.187 103.772 59.187 103.772C59.187 103.772 57.4524 102.323 57.0297 99.9559C57.0064 99.8334 56.9858 99.708 56.9684 99.5828C62.5164 99.9295 68.1432 99.0142 73.289 96.9123C76.1693 95.7374 78.9068 94.1953 81.8895 93.3148C84.805 92.4549 87.8691 92.2505 90.8398 91.6093C94.7755 90.7552 98.5424 89.1254 101.857 86.8367C104.426 85.0641 106.857 82.659 107.35 79.5774C107.414 79.181 107.452 78.7524 107.705 78.4375C107.939 78.1458 108.309 78.0058 108.65 77.8514C109.568 77.4286 110.376 76.7727 110.985 75.968C112.136 82.0931 106.376 91.2298 92.5946 97.0287Z" fill="#38284C"/>
<path d="M29.3132 56.8136L30.9357 58.0207L34.0932 47.2242L29.3132 56.8136Z" fill="#FF9688"/>
<path d="M99.0774 56.8749L97.7662 58.0206L94.5709 47.8237L99.0774 56.8749Z" fill="#FF9688"/>
<path d="M17.3782 40.6634C17.0943 40.8742 12.1274 45.6713 12.0045 46.6379C11.8817 47.6044 12.6932 49.3855 14.05 48.0728C15.4066 46.7598 18.8641 42.9525 18.8641 42.2083C18.8637 41.4642 17.8191 40.3362 17.3782 40.6634Z" fill="#4D1F5C"/>
<path d="M13.7317 47.1979C14.1313 47.1979 14.4553 46.8739 14.4553 46.4743C14.4553 46.0746 14.1313 45.7507 13.7317 45.7507C13.332 45.7507 13.0081 46.0746 13.0081 46.4743C13.0081 46.8739 13.332 47.1979 13.7317 47.1979Z" fill="#49C3DC"/>
<path d="M16.1516 44.5716C16.1516 44.1718 15.8274 43.848 15.428 43.848C15.0282 43.848 14.7043 44.1721 14.7043 44.5716C14.7043 44.9714 15.0285 45.2952 15.428 45.2952C15.8277 45.2955 16.1516 44.9714 16.1516 44.5716Z" fill="#49C3DC"/>
<path d="M17.8376 42.8284C17.8376 42.4286 17.5135 42.1048 17.114 42.1048C16.7142 42.1048 16.3904 42.4289 16.3904 42.8284C16.3904 43.2282 16.7145 43.552 17.114 43.552C17.5135 43.552 17.8376 43.2282 17.8376 42.8284Z" fill="#49C3DC"/>
<path d="M49.2272 53.9116C47.0585 55.7733 45.9523 54.9103 45.3763 53.5287L45.6459 51.519C45.6459 51.519 46.9878 56.0928 49.3773 51.0809C52.8023 43.9 49.6898 33.9191 49.6898 33.9191L50.2718 33.6526C51.6078 36.7274 54.6986 49.2149 49.2272 53.9116Z" fill="#34254D"/>
<path d="M81.967 52.7843V52.7873C79.0229 57.0732 76.906 51.6507 76.7038 44.2615C76.5445 38.4501 78.3061 34.8259 79.2956 33.2605C79.5223 33.3861 79.752 33.5147 79.9818 33.6495C76.5598 39.2496 77.9292 48.5198 79.0229 51.4087C80.2728 54.7081 81.5411 51.228 81.5411 51.228L81.967 52.7843Z" fill="#34254D"/>
<path d="M75.2854 31.3978C75.2057 34.8963 73.9895 42.4724 64.9338 42.5949C55.636 42.7205 54.4229 35.0434 54.3248 31.796L55.6268 31.1987C55.6268 31.1987 54.9896 40.619 64.6152 40.9315C74.3878 41.2501 73.7812 30.8586 73.7812 30.8586C73.7812 30.8586 74.3602 31.0363 75.2854 31.3978Z" fill="#34254D"/>
<path d="M58.1869 33.0233C58.1869 33.0233 60.2159 36.6361 64.8022 36.4112C69.3886 36.1864 70.293 33.0233 70.293 33.0233" fill="#FF9688"/>
<path d="M54.3093 18.1065C54.3093 18.1065 53.4696 16.4378 51.8548 17.0836C50.24 17.7297 49.7658 24.6737 54.3093 23.1126" fill="#FFCBB4"/>
<path d="M52.9451 21.9117C52.3578 21.9117 51.9133 21.6638 51.7556 21.249C51.6263 20.9084 51.7237 20.5273 52.004 20.2782C52.1725 20.1284 52.4102 20.0784 52.64 20.0297C53.0159 19.9507 53.3406 19.8824 53.4065 19.436C53.4675 19.0252 53.3379 18.4015 53.0162 18.0691C52.856 17.9037 52.666 17.8323 52.4507 17.8568C51.7332 17.9395 51.6931 19.2504 51.6928 19.2636C51.6906 19.3481 51.6208 19.4293 51.5359 19.4131C51.4514 19.4112 51.3843 19.3411 51.3864 19.2565C51.3879 19.1916 51.4339 17.6656 52.4154 17.5526C52.727 17.5167 53.0095 17.6218 53.2362 17.8559C53.6384 18.2713 53.7802 19.0032 53.7095 19.4808C53.6124 20.1379 53.1081 20.2439 52.7028 20.3294C52.5034 20.3713 52.315 20.4111 52.2071 20.5067C52.0227 20.6706 51.9578 20.9194 52.0417 21.1396C52.1523 21.431 52.4899 21.605 52.9448 21.605C53.0294 21.605 53.098 21.6736 53.098 21.7582C53.0983 21.8433 53.03 21.9117 52.9451 21.9117Z" fill="#FF9688"/>
<path d="M52.3415 19.4795C52.3108 19.4795 52.2796 19.4703 52.2526 19.451C52.1837 19.402 52.1678 19.3064 52.2168 19.2375C52.4799 18.868 52.7673 18.6631 53.0709 18.6285C53.414 18.5886 53.6404 18.7872 53.6499 18.7954C53.7133 18.8515 53.7194 18.9483 53.6634 19.0117C53.6076 19.0748 53.5114 19.081 53.4483 19.0258C53.4403 19.0194 53.3052 18.9069 53.1009 18.9336C52.8917 18.9596 52.6726 19.1263 52.4668 19.4155C52.4364 19.4575 52.3893 19.4795 52.3415 19.4795Z" fill="#FF9688"/>
<path d="M52.4296 23.0756L52.9458 22.5594L52.4296 22.0431L51.9134 22.5594L52.4296 23.0756Z" fill="white"/>
<path d="M74.3844 18.1065C74.3844 18.1065 75.2241 16.4378 76.8389 17.0836C78.4537 17.7297 78.9279 24.6737 74.3844 23.1126" fill="#FFCBB4"/>
<path d="M75.7482 21.9116C75.6636 21.9116 75.595 21.843 75.595 21.7585C75.595 21.6739 75.6636 21.6053 75.7482 21.6053C76.2031 21.6053 76.5407 21.4316 76.6513 21.14C76.7352 20.9194 76.6703 20.6709 76.4859 20.507C76.378 20.4111 76.1896 20.3716 75.9902 20.3296C75.5849 20.2445 75.0806 20.1385 74.9835 19.4811C74.9131 19.0032 75.0549 18.2713 75.4571 17.8562C75.6838 17.6221 75.9663 17.5167 76.2778 17.5529C77.2597 17.6659 77.3057 19.1919 77.3069 19.2568C77.3087 19.3414 77.2419 19.4112 77.1574 19.4134C77.0744 19.4192 77.0027 19.3484 77.0005 19.2639C77.0002 19.2507 76.9601 17.9398 76.2426 17.8571C76.0269 17.8323 75.8373 17.904 75.6771 18.0694C75.3551 18.4015 75.2258 19.0255 75.2865 19.4363C75.3524 19.8824 75.6771 19.9507 76.0533 20.03C76.2831 20.0784 76.5208 20.1284 76.6893 20.2785C76.9696 20.5276 77.067 20.9087 76.9377 21.2493C76.7803 21.6641 76.3354 21.9116 75.7482 21.9116Z" fill="#FF9688"/>
<path d="M76.3522 19.4795C76.3044 19.4795 76.2572 19.4571 76.2272 19.4152C76.0213 19.1263 75.8019 18.9596 75.593 18.9333C75.3881 18.9072 75.2511 19.0209 75.2453 19.0258C75.1813 19.0806 75.0848 19.073 75.0299 19.0095C74.9751 18.9458 74.9806 18.8505 75.0437 18.7951C75.0532 18.7868 75.2821 18.5883 75.6227 18.6281C75.9263 18.6628 76.2137 18.8677 76.4768 19.2372C76.5259 19.3061 76.5099 19.4017 76.441 19.4507C76.4137 19.4703 76.3828 19.4795 76.3522 19.4795Z" fill="#FF9688"/>
<path d="M71.4085 8.20019L64.8605 7.23763C64.8605 7.23763 61.5945 5.57568 63.5163 2.05631C63.7696 1.59433 64.1418 1.21262 64.6008 0.914233C67.501 -0.99158 73.8278 0.237195 74.7934 3.16653C74.8384 3.29183 74.8672 3.41988 74.8896 3.55161C75.608 8.04946 71.4085 8.20019 71.4085 8.20019Z" fill="#4D1F5C"/>
<path d="M64.6511 7.18714C63.7317 7.05908 62.9254 6.39675 62.5434 5.55061C62.1613 4.70446 62.1846 3.703 62.5253 2.8394C62.6739 2.46289 62.8813 2.10691 63.1561 1.80975C63.4244 1.51963 63.7516 1.28987 64.092 1.08921C64.7601 0.694936 65.5202 0.398693 66.294 0.454448C65.779 0.518782 65.2947 0.73323 64.8355 0.975247C64.4305 1.18877 64.0359 1.42712 63.6867 1.72336C63.2192 2.12008 62.8307 2.63598 62.6913 3.23306C62.6101 3.58015 62.6157 3.94257 62.6598 4.2964C62.7186 4.76849 62.8497 5.23997 63.1135 5.63577C63.5978 6.36274 64.4544 6.73864 65.2809 7.0214C65.6556 7.14946 66.0339 7.26648 66.4156 7.37187" fill="#4D1F5C"/>
<path opacity="0.3" d="M74.8892 3.55162C75.6079 8.04948 71.4081 8.20051 71.4081 8.20051L64.8602 7.23795C64.8602 7.23795 61.5942 5.57599 63.5159 2.05663C63.7693 1.59465 64.1415 1.21294 64.6004 0.914551C64.5747 1.06528 64.5587 1.21937 64.5428 1.37346C64.408 2.72417 64.4916 4.22866 65.4217 5.21358C65.9735 5.79442 66.7531 6.10874 67.5423 6.24353C68.3315 6.37496 69.1399 6.3431 69.9229 6.19207C71.8447 5.82322 73.5866 4.70014 74.793 3.16654C74.8381 3.29184 74.8668 3.4202 74.8892 3.55162Z" fill="#4D1F5C"/>
<path d="M64.7528 7.89265C64.7528 7.89265 65.4476 5.43877 68.724 6.07905C72.0002 6.71932 71.8289 9.49303 71.8289 9.49303" fill="#FF9AB4"/>
<path d="M54.992 10.8346C53.9633 13.0544 53.8131 23.1787 57.3494 26.5041C60.8856 29.8296 69.1362 30.6117 72.201 25.3881C75.2657 20.1645 74.7866 13.6214 73.8513 10.8346C72.2007 5.91914 57.3494 5.7482 54.992 10.8346Z" fill="#FFCBB4"/>
<path d="M74.6446 19.614C74.735 16.2012 74.6204 10.3876 72.9165 8.68365C70.4571 6.22426 57.9895 5.79996 55.4063 9.1971C53.4396 11.7836 53.9717 17.9483 54.3378 20.7447C54.1145 23.5279 53.8151 29.431 54.3534 30.9266C55.1168 33.0469 58.9223 34.3265 63.6717 34.4114C68.4211 34.4962 74.2644 33.0469 75.0278 30.9266C75.6044 29.3253 74.9831 22.4254 74.6446 19.614ZM70.2285 25.7848C68.9416 25.7848 67.3115 23.7803 64.5163 23.7803C61.7212 23.7803 60.364 25.616 59.2615 25.6151C57.7144 25.6139 55.8695 23.6961 55.3601 22.0694C54.6267 19.7273 55.3601 15.1265 55.3601 14.6269C55.3601 13.785 56.5475 9.02308 58.9223 10.8042C61.2972 12.5853 66.2163 13.0942 68.9302 10.8891C71.6442 8.68396 73.2556 12.7551 73.5102 13.9422C73.6526 14.6067 74.1615 20.0983 73.4189 22.7832C72.9664 24.4182 71.3544 25.7848 70.2285 25.7848Z" fill="#4D1F5C"/>
<path d="M66.734 23.5965C66.7211 23.7889 66.6859 23.9366 66.6283 24.0297C65.9225 25.1941 63.1056 24.9631 62.5955 24.113C62.5345 24.0104 62.4993 23.8532 62.4831 23.651C62.4383 22.9838 62.6274 21.8512 62.9515 20.8023C63.0477 20.491 63.1567 20.1862 63.2722 19.9041C63.6445 19.0153 64.1031 18.3447 64.5684 18.3447C65.1076 18.3447 65.6014 19.0313 65.9801 19.9295C66.0891 20.1862 66.1887 20.4619 66.2751 20.7444C66.6056 21.8001 66.7855 22.9421 66.734 23.5965Z" fill="#FF9688"/>
<path d="M58.2612 18.731C57.9273 18.8646 58.7437 20.3718 60.1272 20.3397C61.5104 20.3075 62.1191 18.538 61.8618 18.5059C61.6044 18.4737 60.9317 19.5674 59.7158 19.53C58.6203 19.4963 58.5829 18.6023 58.2612 18.731Z" fill="#4D1F5C"/>
<path d="M70.6914 18.731C71.0253 18.8646 70.2089 20.3718 68.8254 20.3397C67.4419 20.3075 66.8335 18.538 67.0909 18.5059C67.3482 18.4737 68.0209 19.5674 69.2369 19.53C70.3324 19.4963 70.3697 18.6023 70.6914 18.731Z" fill="#4D1F5C"/>
<path d="M60.1593 22.7831C60.1593 23.636 59.4678 24.3271 58.6149 24.3271C57.7621 24.3271 57.0709 23.6357 57.0709 22.7831C57.0709 21.9305 57.7624 21.2391 58.6149 21.2391C59.4675 21.2391 60.1593 21.9302 60.1593 22.7831Z" fill="#FF9AB4"/>
<path d="M70.293 24.3275C71.1459 24.3275 71.8373 23.6361 71.8373 22.7831C71.8373 21.9302 71.1459 21.2388 70.293 21.2388C69.4401 21.2388 68.7487 21.9302 68.7487 22.7831C68.7487 23.6361 69.4401 24.3275 70.293 24.3275Z" fill="#FF9AB4"/>
<path d="M57.8143 15.8749C57.9932 16.253 61.9663 15.1455 61.7396 14.3377C61.5129 13.5301 57.4176 15.0355 57.8143 15.8749Z" fill="#4D1F5C"/>
<path d="M71.129 15.8749C70.9501 16.253 66.977 15.1455 67.2037 14.3377C67.4304 13.5301 71.526 15.0355 71.129 15.8749Z" fill="#4D1F5C"/>
<path d="M64.6647 25.1849C64.6647 25.1849 63.5095 25.6754 62.0381 25.6463C63.6881 26.9651 66.4352 26.5314 67.0984 25.5685C66.0675 25.8255 64.6647 25.1849 64.6647 25.1849Z" fill="white"/>
<path d="M66.734 23.5965C66.7211 23.7889 66.6859 23.9366 66.6283 24.0297C65.9224 25.1942 63.1055 24.9632 62.5955 24.113C62.5345 24.0104 62.4993 23.8533 62.483 23.6511C62.5281 23.6704 62.5728 23.6832 62.6212 23.6927C62.9934 23.773 63.3751 23.6382 63.728 23.4905C64.081 23.3429 64.4403 23.1793 64.822 23.1922C65.3097 23.2115 65.7429 23.5227 66.2242 23.6027C66.3939 23.6321 66.5673 23.6287 66.734 23.5965Z" fill="#FF766C"/>
<path d="M76.7806 22.5587L76.2644 22.0425L75.7482 22.5587L76.2644 23.0749L76.7806 22.5587Z" fill="white"/>
<path d="M55.3196 25.4892C55.0914 25.8369 55.2483 26.373 55.6278 26.5427L55.3196 25.4892Z" fill="#5C326A"/>
<path d="M57.2935 26.4925C57.1967 26.6898 57.2733 26.9548 57.4604 27.07L57.2935 26.4925Z" fill="#5C326A"/>
<path d="M55.4069 28.1728C55.2541 28.5033 55.3227 28.9237 55.5724 29.1883L55.4069 28.1728Z" fill="#5C326A"/>
<path d="M56.6998 29.0037C56.6912 29.2726 56.9161 29.5281 57.1842 29.5542L56.6998 29.0037Z" fill="#5C326A"/>
<path d="M58.8211 28.0386C58.7329 28.2224 58.7203 28.4412 58.7874 28.6336C58.8542 28.8263 58.9997 28.9902 59.1829 29.0793" fill="#5C326A"/>
<path d="M58.0723 30.7731C58.0487 30.9909 58.0576 31.2192 58.152 31.4168C58.2463 31.6144 58.4399 31.7749 58.659 31.7816" fill="#5C326A"/>
<path d="M72.1205 27.2082C72.2903 27.6337 72.2088 28.1487 71.9165 28.5013L72.1205 27.2082Z" fill="#5C326A"/>
<path d="M73.071 26.4388C73.3397 26.6625 73.4328 27.0727 73.287 27.3904L73.071 26.4388Z" fill="#5C326A"/>
<path d="M73.2485 28.844C73.2911 28.8253 73.3428 28.8477 73.3713 28.8845C73.3998 28.9212 73.4096 28.9687 73.4158 29.0147C73.4694 29.4135 73.2862 29.8354 72.9584 30.0688" fill="#5C326A"/>
<path d="M71.0254 30.6341C71.1213 30.9475 71.0006 31.3154 70.7374 31.5105L71.0254 30.6341Z" fill="#5C326A"/>
<path d="M70.5948 26.8696C70.8258 27.0703 70.9478 27.3895 70.9098 27.6931L70.5948 26.8696Z" fill="#5C326A"/>
<path d="M74.0331 24.9038C74.2984 25.1973 74.4016 25.6286 74.2981 26.0103L74.0331 24.9038Z" fill="#5C326A"/>
<path d="M72.02 29.2549C72.0325 29.4599 71.8947 29.644 71.7415 29.7806C71.6006 29.9062 71.4404 30.0098 71.2682 30.0867" fill="#5C326A"/>
<path d="M69.4246 31.267C69.4671 31.4566 69.4178 31.6582 69.325 31.8288C69.2322 31.9998 69.0989 32.1447 68.9629 32.2835" fill="#5C326A"/>
<path d="M60.8458 27.5004C60.7116 27.7366 60.742 28.0555 60.9184 28.262L60.8458 27.5004Z" fill="#5C326A"/>
<path d="M60.545 30.7076C60.534 30.994 60.7843 31.2645 61.0707 31.2758L60.545 30.7076Z" fill="#5C326A"/>
<path opacity="0.2" d="M87.6191 73.5395C87.6191 73.5395 77.7086 78.1593 66.8423 78.8854C55.976 79.6114 42.5394 74.6945 42.5394 74.6945L45.3762 53.5286L45.6458 51.519C45.6458 51.519 46.0288 52.8271 46.7518 53.2774C46.3321 55.5506 46.2555 57.885 46.5343 60.1765C46.8222 62.5446 47.5697 64.9985 49.3588 66.57C52.7961 69.5907 58.3257 68.1202 62.4155 70.1697C64.8633 71.3981 66.6095 73.8061 69.1522 74.8231C71.2201 75.6472 73.6065 75.4297 75.6622 74.575C77.7178 73.7233 79.4824 72.2804 81.0356 70.6874C82.6776 68.9994 84.1144 67.1153 85.3184 65.0934L87.6191 73.5395Z" fill="#38284C"/>
<path d="M64.5684 63.3576C60.3307 63.3576 56.8833 59.91 56.8833 55.6725C56.8833 51.4351 60.3307 47.9874 64.5684 47.9874C68.8062 47.9874 72.2539 51.4351 72.2539 55.6725C72.2539 59.91 68.8062 63.3576 64.5684 63.3576ZM64.5684 49.2128C61.0065 49.2128 58.1087 52.1106 58.1087 55.6725C58.1087 59.2345 61.0065 62.1322 64.5684 62.1322C68.1304 62.1322 71.0285 59.2345 71.0285 55.6725C71.0285 52.1106 68.1304 49.2128 64.5684 49.2128Z" fill="#FFC741"/>
<path d="M65.1811 48.6H63.9557V62.7449H65.1811V48.6Z" fill="#FFC741"/>
<path d="M69.8735 60.39L64.5685 56.4365L59.2637 60.39L58.5315 59.4075L64.5685 54.9084L70.6057 59.4075L69.8735 60.39Z" fill="#FFC741"/>
<path opacity="0.2" d="M105.203 75.8123C105.338 76.1374 105.501 76.5166 105.843 76.6006C106.073 76.6573 106.31 76.5552 106.525 76.4557C106.911 76.2777 107.303 76.0951 107.618 75.8105C107.933 75.5256 108.165 75.1172 108.135 74.6935C108.034 73.2718 105.957 71.7152 104.606 72.0608C103.601 72.3178 103.101 72.6508 103.74 73.5083C104.298 74.2588 104.837 74.9368 105.203 75.8123Z" fill="#38284C"/>
<path opacity="0.2" d="M22.9857 75.7216C22.9156 76.3821 23.1845 77.0445 23.5932 77.568C24.0019 78.0916 24.542 78.4957 25.0873 78.8746C25.2515 78.9889 25.4424 79.1068 25.6378 79.0645C25.8366 79.0217 25.9625 78.8305 26.0664 78.6556C26.6206 77.7224 27.1748 76.7893 27.729 75.8561C27.8984 75.5709 28.0715 75.2759 28.118 74.9475C28.2991 73.6752 26.6019 72.9204 25.5484 73.1434C24.4323 73.3799 23.1083 74.5655 22.9857 75.7216Z" fill="#38284C"/>
</svg>
