<svg width="24" height="24" viewBox="0 0 24 24" fill="none" xmlns="http://www.w3.org/2000/svg">
<path d="M7.7411 19.3012C8.12657 19.7886 8.61777 20.1821 9.17759 20.4519C9.73741 20.7216 10.3512 20.8607 10.9727 20.8585C11.5941 20.8607 12.2079 20.7216 12.7677 20.4519C13.3275 20.1821 13.8187 19.7886 14.2042 19.3012C12.0596 19.5914 9.88569 19.5914 7.7411 19.3012ZM16.9521 9.34251V9.96615C16.9521 10.7147 17.1647 11.4464 17.5651 12.0691L18.5466 13.5955C19.4422 14.9898 18.7583 16.8846 17.2001 17.3249C13.1285 18.4779 8.81677 18.4779 4.74517 17.3249C3.18697 16.8846 2.5031 14.9898 3.39869 13.5955L4.3802 12.0691C4.78168 11.4413 4.99472 10.7114 4.99409 9.96615V9.34251C4.99409 5.91784 7.67111 3.1416 10.9727 3.1416C14.2742 3.1416 16.9521 5.91784 16.9521 9.34251Z" fill="white"/>
</svg>
