<svg width="440" height="923" viewBox="0 0 440 923" fill="none" xmlns="http://www.w3.org/2000/svg">
<path d="M80.4101 731.397C80.6938 731.914 80.9701 732.435 81.239 732.96C81.0693 735.098 80.7655 737.225 80.3894 739.337C79.1417 746.341 77.6247 753.319 77.0322 760.429C76.5938 765.69 77.0603 771.065 78.0142 776.243C78.7997 780.506 80.3369 784.66 82.5071 788.38C84.4793 791.761 86.9843 794.752 89.9339 797.246C91.362 799.369 93.0571 801.293 94.9755 802.918C98.5092 805.912 102.614 807.78 106.822 809.471C108.365 811.2 109.663 813.15 110.658 815.34C112.474 819.333 113.098 823.86 112.507 828.22C111.301 837.115 106.268 844.873 104.842 853.698C103.826 851.308 103.406 848.683 103.678 845.89C104.177 840.755 106.396 835.974 107.388 830.943C108.317 826.234 108.059 821.361 105.351 817.293C100.316 809.732 90.9072 807.618 84.5642 801.614C80.8417 798.09 78.097 793.417 76.6208 788.446C75.0547 783.174 74.8509 777.854 75.7355 772.421C75.8155 771.929 75.1039 771.501 74.8745 772.047C71.1234 780.981 73.3171 792.115 78.8985 799.73C81.7863 803.669 85.4752 806.517 89.5861 808.986C93.292 811.213 97.2842 813.189 100.462 816.211C103.87 819.451 105.341 823.631 104.845 828.378C104.299 833.596 102.069 838.463 101.237 843.628C100.389 848.889 101.209 853.957 104.371 858.282C104.404 858.328 104.441 858.371 104.475 858.417C104.526 862.211 105.473 865.999 107.671 869.099C110.072 872.486 113.48 874.891 117.19 876.538C134.302 884.131 154.228 877.463 171.175 885.715C174.227 888.617 176.936 891.985 179.553 895.148C184.843 901.542 190.337 907.922 196.702 913.215C201.171 916.931 206.144 920.108 211.754 921.597C217.177 923.036 222.807 922.779 228.266 921.695C231.43 921.067 234.895 920.36 237.815 918.868C240.513 917.489 242.655 915.126 244.623 912.837C249.235 907.475 253.373 901.698 257.738 896.127C259.246 894.203 261.016 892.524 262.949 891.044C277.863 882.576 295.936 886.463 311.427 879.657C318.585 876.512 324.705 871.006 326.833 863.067C328.413 857.176 327.822 851.2 326.61 845.308C326.028 839.752 324.458 834.301 322.95 828.836C323.583 823.903 324.938 819.097 327.31 814.616C329.881 809.758 333.52 805.572 338.107 802.661C340.682 801.027 343.439 799.741 346.155 798.383C348.942 796.988 351.691 795.517 354.409 793.984C360.53 790.531 366.42 786.647 371.999 782.327C372.168 782.195 372.013 781.898 371.827 782.025C366.483 785.692 360.904 789.004 355.095 791.829C349.318 794.638 343.062 796.468 337.535 799.807C329.799 804.482 324.578 812.168 322.062 820.816C322.074 819.877 322.124 818.936 322.224 817.995C322.684 813.652 324.339 809.563 326.722 805.975C331.342 799.019 338.423 793.924 345.416 789.761C352.72 785.412 360.266 781.402 366.661 775.647C373.339 769.636 377.93 761.772 378.854 752.588C379.326 747.896 378.789 743.08 377.284 738.624C375.747 734.075 373.358 729.876 371.955 725.276C370.782 721.429 370.602 717.536 371.75 713.659C372.802 710.104 374.936 707.142 377.38 704.463C378.562 703.168 380.342 702.178 381.921 701.497C382.55 701.225 382.318 700.351 381.641 700.449C378.096 700.962 374.584 702.966 372.355 705.852C369.969 708.942 368.552 712.775 368.09 716.675C367.694 720.018 368.22 723.125 369.153 726.134C367.544 722.643 366.104 718.985 365.706 715.119C365.535 713.452 365.538 711.785 365.688 710.133C366.095 709.409 366.528 708.699 366.994 708.006C372.597 699.669 382.042 695.471 390.118 690.232C393.421 688.09 396.579 685.704 399.336 682.865V678.627C396.313 682.291 392.655 685.211 388.736 687.798C381.11 692.832 372.621 696.931 366.809 704.276C366.867 704.076 366.925 703.876 366.986 703.677C370.195 700.384 373.675 697.376 377.15 694.385C381.546 690.6 385.975 686.823 389.893 682.503C393.58 678.437 396.618 673.867 399.336 669.082L449.148 663.077C449.107 663.154 449.067 663.231 449.027 663.307C446.08 668.88 393.101 674.371 388.997 679.135C385.19 683.555 380.805 687.389 376.411 691.169C374.146 693.117 371.87 695.061 369.654 697.073C376.863 682.642 440.673 672.68 447.315 657.74C447.993 656.216 448.601 654.673 449.147 653.115V590.446V-14.9881H-9.14761V629.395C-8.99616 629.23 -8.84437 629.067 -8.69226 628.904C-8.11936 628.292 -7.53994 627.686 42.8555 627.086C-7.70249 628.048 -8.43353 629.023 -9.14761 630.012V695.843C0.177382 704.45 61.8496 709.614 70.8742 718.614C71.9841 719.722 73.0417 720.881 74.051 722.082C73.9428 721.996 73.8358 721.909 73.7272 721.824C63.1632 713.562 1.0933 707.825 -9.14761 699.109V702.032C-1.13797 708.539 57.7411 713.609 66.2245 719.455C71.3109 722.961 76.2008 726.813 80.4101 731.397ZM319.605 809.027C319.788 801.259 323.04 794.865 328.702 789.832C334.225 784.923 340.979 781.613 347.541 778.46C359.233 772.842 373.991 764.682 375.999 750.131C375.799 756.751 373.453 763.253 369.342 768.432C363.975 775.192 356.579 779.674 349.393 784.082C342.254 788.462 334.962 792.79 329.089 798.942C326.252 801.913 323.744 805.319 322.075 809.132C321.108 811.343 320.436 813.64 320.041 815.989C319.721 813.69 319.55 811.372 319.605 809.027ZM294.757 879.288C306.9 877.895 320.198 872.552 324.953 860.543C324.547 862.804 323.834 864.997 322.712 867.036C320.896 870.336 318.192 872.989 315.089 874.997C308.355 879.356 300.316 880.896 292.528 881.769C287.132 882.374 281.558 882.804 276.191 883.994C282.155 881.673 288.426 880.015 294.757 879.288ZM154.892 879.219C158.227 879.387 161.493 879.059 164.524 880.718C165.319 881.153 166.089 881.634 166.838 882.15C162.941 880.699 158.872 879.876 154.766 879.342C153.975 879.239 153.182 879.15 152.388 879.069C153.222 879.126 154.057 879.176 154.892 879.219ZM123.699 870.289C129.521 874.787 136.65 877.021 143.767 878.132C145.403 878.388 147.044 878.591 148.69 878.757C140.842 878.21 132.928 878.25 125.229 876.469C117.419 874.662 109.024 870.469 107.414 861.65C110.182 864.167 113.492 865.999 116.973 867.379C118.731 868.076 120.527 868.658 122.338 869.188C122.787 869.569 123.242 869.936 123.699 870.289ZM119.848 817.523C127.486 829.489 114.918 841.784 114.208 853.749C113.95 858.105 115.726 861.935 118.342 865.158C114.698 863.736 111.229 861.855 108.436 859.005C107.959 858.518 107.515 858.012 107.104 857.49C107.3 849.093 112.111 841.252 114.332 833.35C115.596 828.851 116.014 824.209 115.102 819.598C114.545 816.781 113.515 814.077 112.1 811.605C115.12 812.943 118.018 814.655 119.848 817.523ZM83.64 738.282C84.7106 741.031 85.5566 743.858 86.2157 746.734C86.6179 750.183 86.8118 753.653 86.7674 757.111C86.6505 766.238 83.9727 775.281 85.105 784.429C85.2444 785.555 85.4544 786.677 85.7294 787.784C81.7553 781.426 80.2042 773.827 79.9403 766.224C79.6683 758.391 81.3611 750.556 82.8087 742.905C83.0984 741.374 83.3869 739.832 83.64 738.282Z" fill="#FFECDC"/>
</svg>
