<svg width="19" height="16" viewBox="0 0 19 16" fill="none" xmlns="http://www.w3.org/2000/svg">
<path d="M7.04683 0.983909C5.67977 0.331215 3.76898 0.0114897 1.2108 0.000138454C0.969534 -0.00313936 0.733005 0.0672122 0.532752 0.201812C0.368382 0.312913 0.233831 0.462703 0.140934 0.638006C0.0480376 0.813309 -0.000358835 1.00875 2.00306e-06 1.20715V12.0324C2.00306e-06 12.7642 0.520644 13.3162 1.2108 13.3162C3.8999 13.3162 6.59732 13.5675 8.21297 15.0946C8.23508 15.1156 8.26286 15.1296 8.29287 15.1349C8.32287 15.1403 8.35379 15.1367 8.38176 15.1246C8.40974 15.1125 8.43354 15.0924 8.45022 15.0669C8.4669 15.0414 8.47571 15.0116 8.47557 14.9811V2.22573C8.47561 2.13968 8.45719 2.05461 8.42155 1.97629C8.38591 1.89796 8.33388 1.82819 8.26897 1.77168C7.89889 1.4553 7.4878 1.19032 7.04683 0.983909ZM17.6292 0.200676C17.4288 0.066412 17.1923 -0.00354674 16.9511 0.000138454C14.3929 0.0114897 12.4822 0.329702 11.1151 0.983909C10.6741 1.18994 10.2629 1.4544 9.89258 1.77017C9.8278 1.82676 9.77588 1.89655 9.74031 1.97487C9.70474 2.05318 9.68635 2.1382 9.68636 2.22422V14.9803C9.68634 15.0096 9.69497 15.0382 9.71117 15.0626C9.72737 15.087 9.75041 15.1061 9.7774 15.1175C9.8044 15.1288 9.83415 15.132 9.86292 15.1265C9.89168 15.121 9.91819 15.1071 9.93911 15.0866C10.9104 14.1218 12.615 13.3151 16.9526 13.3155C17.2738 13.3155 17.5817 13.1879 17.8088 12.9608C18.0359 12.7338 18.1634 12.4258 18.1634 12.1047V1.20753C18.1639 1.00874 18.1154 0.812901 18.0222 0.637303C17.929 0.461705 17.794 0.311749 17.6292 0.200676Z" fill="white"/>
</svg>
