<svg width="20" height="17" viewBox="0 0 20 17" fill="none" xmlns="http://www.w3.org/2000/svg">
<path d="M9.90747 15.8873C8.56998 14.9458 7.02163 14.3459 5.39804 14.1439C4.24652 13.91 3.07334 13.7995 1.8984 13.8143C1.74806 13.8156 1.59895 13.7871 1.45967 13.7305C1.3204 13.6738 1.19372 13.5902 1.08695 13.4843C0.98018 13.3785 0.895433 13.2525 0.8376 13.1138C0.779767 12.975 0.749994 12.8261 0.75 12.6758L0.77079 1.89174C0.770157 1.60239 0.879724 1.32365 1.07722 1.11218C1.27472 0.900707 1.54533 0.772368 1.83405 0.753246C3.0301 0.72947 4.22518 0.836363 5.39804 1.07203C7.01987 1.28127 8.56702 1.87975 9.90747 2.8164M9.90747 15.8873V2.8164M9.90747 15.8873C11.245 14.9458 12.7933 14.3459 14.4169 14.1439C15.5684 13.91 16.7416 13.7995 17.9165 13.8143C18.0669 13.8156 18.216 13.7871 18.3553 13.7305C18.4945 13.6738 18.6212 13.5902 18.728 13.4843C18.8348 13.3785 18.9195 13.2525 18.9773 13.1138C19.0352 12.975 19.0649 12.8261 19.0649 12.6758L19.0432 1.89174C19.0438 1.60255 18.9344 1.32395 18.7371 1.1125C18.5398 0.901053 18.2694 0.772609 17.9809 0.753246C16.7848 0.72947 15.5898 0.836363 14.4169 1.07203C12.7951 1.28127 11.2479 1.87975 9.90747 2.8164" stroke="#664C2F" stroke-width="1.5" stroke-linecap="round" stroke-linejoin="round"/>
</svg>
