<svg width="20" height="17" viewBox="0 0 20 17" fill="none" xmlns="http://www.w3.org/2000/svg">
<path d="M9.5 17C8.96667 17 8.471 16.8667 8.013 16.6C7.555 16.3333 7.184 15.9667 6.9 15.5C6.71667 15.1667 6.71267 14.8333 6.888 14.5C7.06334 14.1667 7.334 14 7.7 14C7.91667 14 8.10834 14.0667 8.275 14.2C8.44167 14.3333 8.59167 14.4833 8.725 14.65C8.80834 14.7667 8.921 14.8543 9.063 14.913C9.205 14.9717 9.35067 15.0007 9.5 15C9.78334 15 10.021 14.904 10.213 14.712C10.405 14.52 10.5007 14.2827 10.5 14C10.4993 13.7173 10.4033 13.48 10.212 13.288C10.0207 13.096 9.78334 13 9.5 13H1C0.71667 13 0.479337 12.904 0.288004 12.712C0.0966702 12.52 0.000670115 12.2827 3.44827e-06 12C-0.000663218 11.7173 0.0953369 11.48 0.288004 11.288C0.48067 11.096 0.718003 11 1 11H9.5C10.3333 11 11.0417 11.2917 11.625 11.875C12.2083 12.4583 12.5 13.1667 12.5 14C12.5 14.8333 12.2083 15.5417 11.625 16.125C11.0417 16.7083 10.3333 17 9.5 17ZM1 7C0.71667 7 0.479337 6.904 0.288004 6.712C0.0966702 6.52 0.000670115 6.28267 3.44827e-06 6C-0.000663218 5.71733 0.0953369 5.48 0.288004 5.288C0.48067 5.096 0.718003 5 1 5H13.5C13.9167 5 14.271 4.85433 14.563 4.563C14.855 4.27167 15.0007 3.91733 15 3.5C14.9993 3.08267 14.8537 2.72867 14.563 2.438C14.2723 2.14733 13.918 2.00133 13.5 2C13.2333 2 12.9833 2.06267 12.75 2.188C12.5167 2.31333 12.3333 2.49233 12.2 2.725C12.0833 2.925 11.9417 3.10433 11.775 3.263C11.6083 3.42167 11.4083 3.50067 11.175 3.5C10.8417 3.5 10.571 3.375 10.363 3.125C10.155 2.875 10.1007 2.60833 10.2 2.325C10.4333 1.625 10.8543 1.06267 11.463 0.638C12.0717 0.213333 12.7507 0.000666667 13.5 0C14.4667 0 15.2917 0.341667 15.975 1.025C16.6583 1.70833 17 2.53333 17 3.5C17 4.46667 16.6583 5.29167 15.975 5.975C15.2917 6.65833 14.4667 7 13.5 7H1ZM17.95 14.7C17.6167 14.85 17.2917 14.8293 16.975 14.638C16.6583 14.4467 16.5 14.1673 16.5 13.8C16.5 13.5667 16.5793 13.371 16.738 13.213C16.8967 13.055 17.0757 12.9173 17.275 12.8C17.5083 12.6667 17.6877 12.4833 17.813 12.25C17.9383 12.0167 18.0007 11.7667 18 11.5C18 11.0833 17.8543 10.7293 17.563 10.438C17.2717 10.1467 16.9173 10.0007 16.5 10H1C0.71667 10 0.479337 9.904 0.288004 9.712C0.0966702 9.52 0.000670115 9.28267 3.44827e-06 9C-0.000663218 8.71733 0.0953369 8.48 0.288004 8.288C0.48067 8.096 0.718003 8 1 8H16.5C17.4667 8 18.2917 8.34167 18.975 9.025C19.6583 9.70833 20 10.5333 20 11.5C20 12.2 19.8167 12.8377 19.45 13.413C19.0833 13.9883 18.5833 14.4173 17.95 14.7Z" fill="#5BBCE0"/>
</svg>
