<svg width="16" height="15" viewBox="0 0 16 15" fill="none" xmlns="http://www.w3.org/2000/svg">
<path fill-rule="evenodd" clip-rule="evenodd" d="M1.21226 10.0357C-0.74033 5.24369 2.78528 0 7.95948 0H8.2383C10.0967 0.000460523 11.8789 0.738927 13.193 2.05304C14.5072 3.36716 15.2456 5.14935 15.2461 7.00779C15.2463 8.03239 15.0447 9.04699 14.6527 9.99364C14.2607 10.9403 13.686 11.8004 12.9615 12.5249C12.237 13.2494 11.3769 13.8241 10.4303 14.2161C9.48361 14.6081 8.469 14.8097 7.44441 14.8095H0.652022C0.517061 14.8096 0.385394 14.7678 0.275215 14.6899C0.165037 14.6119 0.081787 14.5017 0.0369689 14.3744C-0.00784917 14.2471 -0.0120226 14.109 0.0250255 13.9792C0.0620736 13.8494 0.138514 13.7344 0.243784 13.6499L1.95578 12.2749C1.99238 12.2456 2.01851 12.2052 2.03025 12.1598C2.04199 12.1144 2.03872 12.0664 2.02092 12.023L1.21226 10.0357ZM7.95948 1.30289C3.70946 1.30289 0.814449 5.60849 2.41787 9.54408L3.2274 11.5323C3.35074 11.8354 3.37298 12.1702 3.29082 12.4869C3.20867 12.8036 3.02649 13.0854 2.77138 13.2903L2.50299 13.5066H7.44441C8.29791 13.5068 9.14309 13.3389 9.93166 13.0124C10.7202 12.6859 11.4367 12.2072 12.0403 11.6037C12.6438 11.0001 13.1225 10.2836 13.449 9.49505C13.7755 8.70647 13.9434 7.86129 13.9432 7.00779C13.9427 5.4949 13.3415 4.0441 12.2718 2.97432C11.202 1.90455 9.75119 1.30335 8.2383 1.30289H7.95948Z" fill="#6C4A40"/>
</svg>
