<svg width="14" height="12" viewBox="0 0 14 12" fill="none" xmlns="http://www.w3.org/2000/svg">
<path fill-rule="evenodd" clip-rule="evenodd" d="M5.23471 3.77058L6.60595 1.57675L7.97719 3.77058C8.0241 3.84567 8.08596 3.91031 8.15894 3.96045C8.23191 4.0106 8.31442 4.04519 8.40134 4.06206C8.48826 4.07893 8.57772 4.07772 8.66416 4.05852C8.75059 4.03931 8.83215 4.00252 8.90374 3.95043L11.8481 1.80896L10.7174 7.7477C10.7091 7.79097 10.686 7.83001 10.6521 7.85812C10.6182 7.88623 10.5755 7.90165 10.5315 7.90175H2.68119C2.637 7.90183 2.59418 7.88648 2.5601 7.85836C2.52602 7.83024 2.50282 7.7911 2.49451 7.7477L1.36383 1.8082L4.30816 3.94967C4.37973 4.00163 4.46123 4.03833 4.54758 4.05746C4.63394 4.0766 4.72331 4.07777 4.81013 4.0609C4.89696 4.04403 4.97939 4.00949 5.0523 3.95941C5.12521 3.90934 5.18704 3.84481 5.23395 3.76982M7.15232 0.303405C7.09436 0.210567 7.01372 0.134006 6.918 0.0809281C6.82229 0.0278498 6.71464 0 6.60519 0C6.49574 0 6.3881 0.0278498 6.29238 0.0809281C6.19666 0.134006 6.11603 0.210567 6.05806 0.303405L4.54947 2.71882L1.02539 0.155429C0.552623 -0.188329 -0.0977093 0.223726 0.0123236 0.797415L1.37597 7.96094C1.43392 8.26461 1.59599 8.53854 1.83425 8.73553C2.07252 8.93251 2.37204 9.0402 2.68119 9.04002H10.5315C10.8406 9.03999 11.14 8.93211 11.3781 8.73499C11.6163 8.53787 11.7782 8.26386 11.8359 7.96018L13.1996 0.797415C13.3096 0.223726 12.66 -0.189087 12.1873 0.155429L8.66243 2.71882L7.15232 0.303405ZM2.05286 10.1783C1.90192 10.1783 1.75716 10.2383 1.65043 10.345C1.54369 10.4517 1.48373 10.5965 1.48373 10.7474C1.48373 10.8984 1.54369 11.0431 1.65043 11.1499C1.75716 11.2566 1.90192 11.3166 2.05286 11.3166H11.159C11.31 11.3166 11.4547 11.2566 11.5615 11.1499C11.6682 11.0431 11.7282 10.8984 11.7282 10.7474C11.7282 10.5965 11.6682 10.4517 11.5615 10.345C11.4547 10.2383 11.31 10.1783 11.159 10.1783H2.05286Z" fill="#0F041B" fill-opacity="0.77"/>
</svg>
