<svg width="440" height="48" viewBox="0 0 440 48" fill="none" xmlns="http://www.w3.org/2000/svg">
<path d="M-8.40377 36.0693C-6.76128 36.8423 -5.63271 38.2712 -4.01593 39.0899C4.36436 43.3338 3.88424 28.0143 3.8496 23.587C3.77626 14.2654 4.17896 2.29136 15.769 0.214493C23.1593 -1.10974 30.2389 3.83994 32.0422 11.1336C34.3004 20.2663 30.6744 46.1305 47.688 42.599C52.2174 41.6588 55.59 37.9302 58.3497 34.2176C61.845 29.5156 65.2596 24.2682 71.4445 23.1524C80.818 21.4611 90.2838 26.875 96.7036 33.2815C100.974 37.5432 104.326 43.0169 106.473 48.6529C106.476 48.6594 106.509 48.7638 106.515 48.7638C100.479 48.7557 94.443 48.75 88.407 48.743C80.4058 48.7335 72.4045 48.7187 64.4033 48.7065C57.5768 48.6962 -20.2117 48.5928 -20.2117 48.6439C-19.737 42.8864 -16.5445 32.2387 -8.40377 36.0693Z" fill="#FFE1C9"/>
<path d="M447.728 43.2525C446.086 44.0255 444.957 45.4544 443.341 46.2731C434.96 50.517 435.44 35.1976 435.475 30.7702C435.548 21.4487 435.146 9.47459 423.556 7.39772C416.165 6.07349 409.086 11.0232 407.283 18.3168C405.024 27.4495 408.65 53.3138 391.637 49.7822C387.107 48.842 383.735 45.1135 380.975 41.4009C377.48 36.6988 374.065 31.4514 367.88 30.3356C358.507 28.6444 349.041 34.0582 342.621 40.4647C338.35 44.7265 334.998 50.2001 332.851 55.8361C332.849 55.8426 332.816 55.9471 332.81 55.9471C338.846 55.9389 344.882 55.9332 350.918 55.9262C358.919 55.9167 366.92 55.9019 374.921 55.8897C381.748 55.8794 459.536 55.776 459.536 55.8272C459.062 50.0696 455.869 39.4219 447.728 43.2525Z" fill="#FFE1C9"/>
</svg>
