<svg width="98" height="138" viewBox="0 0 98 138" fill="none" xmlns="http://www.w3.org/2000/svg">
<path d="M3.75586 24.7751C3.80069 25.1435 3.84113 25.5136 3.8341 25.8855C3.80949 29.8704 3.83762 33.8563 3.84113 37.8413C3.80157 39.3647 3.81212 40.8891 3.8341 42.4126C3.83058 43.5264 3.82355 44.6394 3.82882 45.7532C3.79102 50.0898 3.83762 54.4273 3.81915 58.7639C3.81476 61.8118 3.82091 64.8587 3.81915 67.9066C3.8341 71.8916 3.79102 75.8765 3.83498 79.8615C3.80597 84.9023 3.82531 89.9422 3.8297 94.983C3.86135 96.8581 3.78663 98.7332 3.83234 100.609C3.78311 102.983 3.84641 105.356 3.8174 107.729C3.83586 109.078 3.88509 110.425 3.87014 111.774C3.85783 112.419 3.89212 113.063 3.93432 113.708H3.75586V24.7751Z" fill="#EFEEED"/>
<path d="M79.6949 52.8586C79.732 50.0228 79.0913 47.2445 78.4237 44.5066C77.7156 41.627 76.5794 38.8588 75.1632 36.2591C73.3088 32.5096 70.6955 29.0872 67.4519 26.4369C64.4105 23.3517 60.5025 21.2207 56.372 20.0035C51.3716 18.7727 46.0475 18.4592 41.0437 19.8281C34.1045 21.5275 27.3035 25.7726 24.2824 32.4657C21.713 36.4984 20.9578 41.4482 21.4467 46.1451C21.5883 47.6456 22.121 49.0651 22.8156 50.3936C25.5367 50.3027 28.2645 50.424 30.9788 50.2217C31.0968 47.8108 31.2553 45.3764 31.9229 43.043C32.8232 40.2107 34.5766 37.7189 36.6502 35.6183C38.3733 34.5225 40.049 33.3221 41.9508 32.5432C43.9705 31.6463 46.1588 31.2248 48.3471 30.9922C50.7883 31.1068 53.27 30.9416 55.6708 31.4878C60.7656 32.5162 65.4053 35.3688 68.9187 39.1554C70.4226 40.8244 71.6363 42.7194 72.9683 44.5199C73.8686 46.2733 74.6306 48.1008 75.3016 49.9553C76.3064 52.8247 76.6604 55.8627 77.183 58.8401C77.5877 61.4565 78.0732 64.1034 77.8135 66.7571C78.2553 65.0341 78.6531 63.301 79.0645 61.5678C79.8028 58.729 79.6814 55.7685 79.6949 52.8586Z" fill="#FB7563"/>
<path d="M47.9221 62.8258C49.7024 62.5088 51.5198 62.2761 53.3271 62.4953C56.9418 62.9167 59.9932 65.068 63.301 66.3965L63.5742 66.5111C65.9075 72.9479 64.9633 80.4604 61.1802 86.1587C60.4384 87.1939 59.5043 88.0672 58.6918 89.045C57.4847 90.5286 55.728 91.3783 54.0724 92.2584C51.7694 93.4521 49.1967 93.9679 46.6442 94.2916C44.8032 94.5006 43.1139 95.3133 41.3066 95.6741C41.6438 93.1148 42.5542 90.6568 43.9738 88.5022C46.0778 85.3394 47.1365 81.6203 47.7873 77.9113C48.0739 75.4128 48.0503 72.894 48.02 70.3853C48.003 67.8632 47.5478 65.3411 47.9221 62.8258Z" fill="#FF7158"/>
<path d="M61.2616 61.6422C59.3128 59.2246 57.0941 56.9082 54.282 55.5055C51.7396 54.4063 49.1231 53.3745 46.3549 53.0306C43.4956 52.4776 40.5688 52.6226 37.6758 52.6933C34.8232 52.7675 32.0179 53.5093 29.1586 53.3913C27.6885 53.3441 26.2217 53.3745 24.755 53.4183C25.7733 55.7145 27.9144 57.1509 29.6509 58.8638C31.8393 60.742 33.6971 62.9809 35.2684 65.3951C36.0709 66.6022 36.3609 68.0419 36.897 69.367C36.7521 71.1372 37.0824 72.9546 36.5835 74.6878C35.7236 77.7225 34.3412 80.7469 31.9101 82.851C29.9342 84.6549 27.3479 85.626 25.4193 87.4873C23.1939 89.453 21.8182 92.2045 21.0595 95.0368C20.7055 97.5016 20.7055 100.256 22.2431 102.35C23.4907 104.05 25.2575 105.833 27.5301 105.722C29.1452 105.81 30.9862 105.641 32.0551 104.262C34.5469 100.958 37.2409 97.4307 41.2602 95.937L41.3074 95.674C41.6446 93.1148 42.5549 90.6567 43.9745 88.5021C46.0786 85.3394 47.1373 81.6202 47.7881 77.9112C48.0746 75.4127 48.0511 72.8939 48.0208 70.3853C48.0039 67.8631 47.5487 65.341 47.923 62.8257C49.7034 62.5088 51.5207 62.2761 53.3281 62.4952C56.9427 62.9167 59.9941 65.0679 63.3019 66.3964C63.1565 64.6365 62.4552 62.9472 61.2616 61.6422Z" fill="#FE513B"/>
<path d="M89.2635 48.1381C89.0511 44.5505 88.2081 41.0404 87.3921 37.5539C86.7717 34.8834 85.6657 32.3681 84.5935 29.8594C83.4673 27.1956 81.7376 24.859 80.3113 22.3571C77.8465 18.1423 74.151 14.7604 72.1211 10.2758C70.8635 9.43627 69.5552 8.67417 68.2402 7.93238C63.233 5.06967 57.4841 3.75137 51.7924 3.13432C47.9721 2.68923 44.1013 2.92861 40.3147 3.53221C36.2921 4.1998 32.4348 5.59915 28.6718 7.13337C26.1126 8.33035 23.6815 9.81736 21.419 11.5133C20.8424 11.9382 20.2827 12.3866 19.7297 12.8385C14.4866 16.942 10.12 22.2627 7.45632 28.386C5.86145 31.66 5.1129 35.2544 4.34412 38.7847C3.50792 43.2759 3.23144 47.8482 3.01562 52.4035C2.97518 57.505 3.15724 62.6033 3.16401 67.7048C3.11346 75.4196 2.95496 83.1377 3.04938 90.8557C3.20788 93.9275 3.02916 97.0026 3.25166 100.071C3.36972 101.464 3.47759 102.863 3.48093 104.265L3.54502 103.976C3.56858 104.239 3.61587 104.768 3.63943 105.031C3.71363 105.382 3.79451 105.732 3.87881 106.086C5.72317 108.356 7.39224 110.763 9.30745 112.982C10.029 113.4 10.8955 113.403 11.6947 113.579C11.8767 113.629 12.2375 113.734 12.4197 113.788C13.1243 116.374 13.8426 118.96 14.9688 121.408C15.7848 122.986 16.7356 124.496 17.8584 125.876C19.4162 127.949 21.5303 129.521 23.6579 130.97C24.5279 131.466 25.4551 131.857 26.3689 132.279C26.8376 131.54 27.1613 130.384 28.2301 130.404C30.7286 130.192 33.2339 130.65 35.7392 130.481C39.4515 130.003 42.9346 128.573 46.4515 127.373C47.7833 126.722 49.1153 126.058 50.3595 125.248C58.4721 119.547 65.3338 112.237 71.2176 104.289C72.8327 101.956 74.2691 99.5012 75.9044 97.178C78.14 93.9781 79.5224 90.2961 81.4747 86.931C82.5065 83.8728 84.0777 81.0236 84.9545 77.908C88.1845 68.3555 89.8502 58.2266 89.2635 48.1381ZM82.8772 55.9034C82.7491 59.2112 82.0444 62.4548 81.4813 65.7086C81.0801 67.8261 80.7226 70.0313 79.5189 71.8723C78.9154 72.7321 77.9477 73.0895 76.9225 73.0086C76.6865 71.1676 77.0675 69.3502 77.6037 67.6036C77.6576 67.3912 77.7622 66.9697 77.8127 66.7573C78.0723 64.1037 77.5868 61.4568 77.1822 58.8403C76.6596 55.8629 76.3056 52.8249 75.3008 49.9555C74.6298 48.1011 73.8677 46.2735 72.9675 44.5201C71.6356 42.7196 70.4217 40.8246 68.9179 39.1556C65.4044 35.369 60.7648 32.5164 55.6699 31.488C53.2692 30.9418 50.7875 31.107 48.3463 30.9924C46.158 31.2251 43.9697 31.6465 41.95 32.5434C40.0482 33.3223 38.3724 34.5227 36.6494 35.6185C34.5758 37.7191 32.8224 40.2109 31.9221 43.0432C31.2545 45.3766 31.096 47.811 30.978 50.2219C35.1084 49.8443 39.2659 49.588 43.4132 49.8207C46.9165 49.9184 50.3019 50.9637 53.5591 52.181C57.9492 53.8736 61.7492 56.9757 64.413 60.8398C66.3686 63.6452 67.3599 67.0102 67.7545 70.3787C68.0208 72.5737 67.9062 74.7891 67.7882 76.9942C67.5522 78.1103 67.2926 79.223 66.979 80.3188C66.4429 82.3419 65.2256 84.0784 64.3692 85.9666C63.7757 87.2648 62.835 88.3505 61.9111 89.416C60.6501 91.0716 59.0754 92.4574 57.4165 93.7016C56.5769 94.2782 55.7002 94.8041 54.7864 95.256C50.4536 97.3634 45.3655 97.0094 41.0732 99.228C37.8532 100.934 35.9717 104.124 33.6822 106.804C31.6321 108.484 28.7998 108.919 26.2338 108.571C22.3764 107.87 19.3991 104.599 18.3234 100.931C17.5951 98.2399 17.5951 95.3369 18.4482 92.6731C19.6115 88.6404 22.9968 85.7912 26.2573 83.4006C29.4741 81.3 32.529 78.4744 33.4562 74.5967C34.0227 71.7577 33.5911 68.7162 32.0974 66.2211C30.6071 63.8304 28.3007 62.1176 26.2911 60.1956C23.7151 57.9769 21.8471 55.0738 20.1881 52.1403C18.1988 47.9693 17.9054 43.1173 18.7146 38.6125C20.0229 32.6849 23.3374 27.2157 27.9096 23.2268C32.7887 19.1537 38.9051 16.581 45.2375 15.9943C50.5346 15.6537 55.9869 16.3349 60.8456 18.5468C66.0314 20.6778 70.4283 24.4137 73.9215 28.7499C77.9306 33.5953 80.5876 39.4656 81.9937 45.5719C82.5839 48.9811 83.0863 52.4372 82.8772 55.9034Z" fill="#EDAEA0"/>
<path d="M26.2585 83.4007C22.998 85.7913 19.6126 88.6405 18.4493 92.6732C17.5962 95.337 17.5962 98.2401 18.3246 100.931C19.4001 104.599 22.3775 107.87 26.2349 108.571C28.8008 108.919 31.6332 108.484 33.6833 106.805C35.9727 104.124 37.8542 100.934 41.0743 99.228C45.3666 97.0094 50.4548 97.3635 54.7876 95.2561C55.7013 94.8042 56.578 94.2783 57.4176 93.7017C59.0765 92.4575 60.6512 91.0716 61.9122 89.4161C62.8361 88.3506 63.7768 87.2649 64.3703 85.9667C65.2267 84.0785 66.444 82.342 66.9801 80.3189C67.2937 79.2231 67.5534 78.1103 67.7893 76.9943C67.9073 74.7891 68.0219 72.5738 67.7556 70.3788C67.361 67.0103 66.3698 63.6453 64.4141 60.8399C61.7503 56.9758 57.9503 53.8737 53.5602 52.1811C50.303 50.9639 46.9176 49.9185 43.4143 49.8208C39.267 49.5882 35.1095 49.8443 30.9791 50.222C28.2647 50.4243 25.537 50.303 22.8159 50.3939C22.1213 49.0654 21.5886 47.646 21.447 46.1454C20.958 41.4485 21.7133 36.4987 24.2827 32.466C27.3038 25.7729 34.1048 21.5277 41.044 19.8284C46.0478 18.4595 51.3719 18.773 56.3723 20.0038C60.5028 21.221 64.4108 23.352 67.4522 26.4372C70.6959 29.0875 73.309 32.5099 75.1635 36.2594C76.5797 38.8591 77.716 41.6274 78.424 44.5069C79.0916 47.2447 79.7323 50.0231 79.6952 52.8589C79.6817 55.7688 79.8031 58.7292 79.0647 61.5683C78.6534 63.3015 78.2555 65.0345 77.8137 66.7576C77.7632 66.97 77.6587 67.3915 77.6047 67.6039C77.0685 69.3505 76.6875 71.1679 76.9236 73.0089C77.9486 73.0898 78.9163 72.7324 79.5199 71.8725C80.7237 70.0315 81.0811 67.8264 81.4823 65.7089C82.0454 62.4551 82.7502 59.2113 82.8783 55.9036C83.0873 52.4374 82.5849 48.9813 81.9948 45.5723C80.5888 39.466 77.9318 33.5956 73.9227 28.7503C70.4294 24.4142 66.0326 20.6782 60.8467 18.5472C55.9879 16.3353 50.5356 15.6542 45.2386 15.9947C38.9063 16.5814 32.7898 19.1541 27.9107 23.2273C23.3385 27.2161 20.024 32.6853 18.7158 38.6129C17.9065 43.1177 18.1999 47.9697 20.1892 52.1407C21.8482 55.0742 23.7162 57.9774 26.2922 60.196C28.3018 62.1179 30.6082 63.8309 32.0985 66.2215C33.5922 68.7167 34.0238 71.7581 33.4573 74.5972C32.5301 78.4744 29.4752 81.3 26.2585 83.4007ZM29.6506 58.8638C27.9141 57.151 25.7729 55.7145 24.7547 53.4183C26.2214 53.3745 27.6881 53.3441 29.1583 53.3913C32.0176 53.5094 34.8229 52.7675 37.6755 52.6933C40.5685 52.6226 43.4952 52.4775 46.3545 53.0306C49.1228 53.3745 51.7393 54.4063 54.2816 55.5055C57.0937 56.9082 59.3124 59.2246 61.2613 61.6422C62.4549 62.9472 63.1563 64.6365 63.3012 66.3965L63.5744 66.5112C65.9077 72.948 64.9635 80.4604 61.1804 86.1588C60.4386 87.1939 59.5046 88.0672 58.692 89.045C57.4849 90.5286 55.7282 91.3784 54.0726 92.2584C51.7696 93.4521 49.1969 93.9679 46.6444 94.2916C44.8034 94.5007 43.1141 95.3133 41.3069 95.6741L41.2597 95.9371C37.2404 97.4308 34.5464 100.958 32.0546 104.262C30.9857 105.641 29.1446 105.81 27.5296 105.722C25.2569 105.833 23.4901 104.05 22.2425 102.35C20.705 100.256 20.705 97.5017 21.059 95.0368C21.8177 92.2045 23.1934 89.4531 25.4187 87.4874C27.3474 85.6261 29.9336 84.6551 31.9095 82.851C34.3406 80.747 35.7231 77.7225 36.5829 74.6879C37.082 72.9547 36.7515 71.1374 36.8965 69.3671C36.3603 68.0419 36.0704 66.6022 35.2679 65.3951C33.6967 62.9809 31.8389 60.742 29.6506 58.8638Z" fill="#2C2C2C"/>
<path d="M94.4329 52.8755C94.234 42.5138 91.6208 32.0039 85.71 23.3855C82.2842 18.021 77.4929 13.6409 72.1215 10.2759C74.1514 14.7604 77.8469 18.1424 80.3117 22.3571C81.738 24.8591 83.4678 27.1957 84.5939 29.8595C85.6661 32.3681 86.7722 34.8835 87.3925 37.554C88.2085 41.0404 89.0515 44.5505 89.2639 48.1382C89.8506 58.2267 88.1849 68.3556 84.9547 77.908C84.078 81.0236 82.5067 83.8727 81.4749 86.931C79.5226 90.2961 78.1402 93.9781 75.9047 97.178C74.2694 99.5013 72.8329 101.956 71.2178 104.289C65.334 112.237 58.4723 119.547 50.3597 125.248C49.1155 126.058 47.7837 126.722 46.4517 127.373C42.9349 128.573 39.4518 130.003 35.7394 130.482C33.2341 130.65 30.7289 130.192 28.2304 130.404C27.1615 130.384 26.8378 131.54 26.3691 132.279C27.5527 132.839 28.7665 133.334 30.0377 133.668C34.964 135.081 40.2409 134.713 45.1132 133.257C51.1656 131.416 56.3852 127.626 61.072 123.482C65.4251 119.506 69.2959 115.049 73.1162 110.571C76.9263 105.736 80.2846 100.543 83.4003 95.2359C85.2446 91.6517 86.9609 87.9933 88.4445 84.2471C89.6786 81.3103 90.4912 78.2318 91.3207 75.1635C93.745 68.0184 94.7634 60.4081 94.4329 52.8755Z" fill="#FAA48F"/>
<path d="M97.4413 50.1813C97.067 43.994 95.8532 37.8269 93.5468 32.0611C92.7342 29.3367 91.3417 26.8584 89.912 24.4206C86.4627 18.8537 82.2175 13.7016 76.809 9.93525C74.7388 8.5831 72.7898 7.05232 70.669 5.78113C68.9021 4.8303 67.1488 3.84236 65.2943 3.06682C61.4943 2.00468 57.7245 0.74695 53.7829 0.322167C50.9067 -0.0891649 47.9901 -0.00485846 45.0971 0.0355803C43.3378 0.133688 41.5921 0.354431 39.8548 0.634777C39.7781 0.647963 39.6965 0.66115 39.6102 0.674424C39.2411 0.735171 38.8723 0.798729 38.5038 0.864047C33.1192 1.88583 27.9959 4.2646 27.528 4.48499C24.81 5.83687 22.2242 7.43719 19.751 9.1968C19.397 9.45649 19.0531 9.73297 18.7159 10.0128C13.0984 14.6929 8.37112 20.4755 5.11061 27.0337C3.20893 30.9619 2.07595 35.2239 1.39482 39.523C0.619272 43.7849 0.292246 48.1144 0.187721 52.4404C-0.0988669 55.6099 0.0326448 58.7963 0.0157661 61.9725C0.0224472 71.8689 -0.0246722 81.7652 0.0393265 91.6614C0.0831938 93.4283 0.278707 95.1884 0.325915 96.9586C0.386573 97.5216 0.477648 98.0847 0.565294 98.6478C0.592283 101.814 0.551755 104.994 0.973285 108.14C1.08115 108.932 1.38805 109.954 2.29845 110.126C2.80419 110.082 3.29649 109.954 3.79556 109.852C3.5393 108.254 3.60005 106.639 3.64049 105.031C3.61693 104.768 3.56963 104.238 3.54607 103.975L3.48198 104.265C3.47864 102.863 3.37069 101.463 3.25271 100.071C3.03021 97.0023 3.20885 93.9272 3.05043 90.8555C2.95602 83.1374 3.11452 75.4193 3.16507 67.7046C3.1583 62.603 2.97624 57.5048 3.01667 52.4032C3.23249 47.8479 3.50897 43.2757 4.34518 38.7844C5.11395 35.2541 5.86251 31.6597 7.45738 28.3857C10.1211 22.2625 14.4877 16.9417 19.7308 12.8382C20.2838 12.3864 20.8435 11.9379 21.4201 11.5131C23.6826 9.81701 26.1137 8.33009 28.6729 7.13311C32.4358 5.5989 36.2932 4.19963 40.3158 3.53204C44.1024 2.92845 47.9732 2.68907 51.7935 3.13416C57.4851 3.7512 63.2341 5.06959 68.2412 7.93221C69.5563 8.674 70.8645 9.4361 72.1222 10.2756C77.4935 13.6408 82.2849 18.0207 85.7107 23.3853C91.6215 32.0036 94.2346 42.5136 94.4336 52.8752C94.764 60.4079 93.7458 68.018 91.3214 75.1629C90.4919 78.2313 89.6793 81.3098 88.4452 84.2466C86.9616 87.9928 85.2454 91.6512 83.4009 95.2354C80.2854 100.543 76.927 105.735 73.1168 110.571C69.2965 115.048 65.4257 119.506 61.0727 123.481C56.3858 127.625 51.1662 131.415 45.1139 133.256C40.2416 134.713 34.9646 135.08 30.0384 133.667C28.7672 133.334 27.5533 132.838 26.3698 132.278C25.456 131.857 24.5288 131.466 23.6588 130.97C21.5312 129.52 19.4171 127.949 17.8593 125.875C16.7365 124.496 15.7856 122.985 14.9696 121.407C13.8434 118.96 13.1252 116.373 12.4204 113.787C11.3381 113.77 10.2625 113.895 9.21716 114.155C9.23404 114.728 9.25092 115.304 9.2947 115.881C9.76001 117.779 10.5659 119.57 11.3448 121.357C13.641 126.55 17.5017 131.021 22.4684 133.812C22.5696 133.876 22.7651 134.005 22.8663 134.069C26.4034 136.038 30.4091 136.881 34.4014 137.302C40.3189 137.778 46.2905 136.395 51.6381 133.893C55.5461 131.941 59.0629 129.345 62.4043 126.55C66.4606 122.723 70.345 118.71 74.027 114.519C75.8073 112.556 77.2067 110.291 78.7881 108.17C82.841 102.539 86.6478 96.6717 89.4431 90.3024C92.3395 83.906 94.2041 77.1185 95.9507 70.3377C97.5189 63.7496 97.6841 56.9216 97.4413 50.1813Z" fill="#2C2C2C"/>
</svg>
