<svg width="80" height="33" viewBox="0 0 80 33" fill="none" xmlns="http://www.w3.org/2000/svg">
<path d="M0.00012207 -9.07755C0.00012207 -9.07755 64.2591 -9.04669 64.3296 -9.07755H79.7231C79.8931 -8.09122 79.9509 -7.08488 79.8948 -6.08029V-6.07857C79.8892 -5.99728 79.884 -5.91597 79.8787 -5.83469C79.8731 -5.75513 79.8679 -5.70124 79.8661 -5.6795C79.6692 -4.33715 79.3728 -3.00914 78.9789 -1.71199C78.4277 0.103745 77.6635 1.89427 76.6428 3.5057C75.4305 5.43011 73.8551 7.09934 71.8511 8.26086C69.9054 9.38847 67.7515 10.1922 65.5493 10.5683C61.9031 11.1951 58.1233 10.653 54.9326 8.47954C53.0139 7.17326 51.2399 5.15494 48.8221 4.84065C45.1254 4.35987 44.1517 8.42867 43.8517 11.2455C43.0423 18.8319 42.399 30.6518 33.1468 32.8344C31.5115 33.2209 30.1222 32.9031 28.9533 32.1676C26.6533 30.7205 25.197 27.6524 24.3659 25.1359C23.0235 21.0706 22.2863 16.6658 20.6114 12.7292C19.3703 9.81493 16.9073 8.04786 13.6719 8.48126C12.586 8.62775 11.5344 8.53169 10.5372 8.25348C8.23376 7.61013 6.21197 5.98262 4.69052 4.0456C4.14671 3.35182 3.66594 2.61804 3.25949 1.87775C1.482 -1.36467 0.72303 -5.44955 0.00012207 -9.07755Z" fill="#FBCCB4" fill-opacity="0.74"/>
</svg>
