<svg width="130" height="69" viewBox="0 0 130 69" fill="none" xmlns="http://www.w3.org/2000/svg">
<path d="M129.581 0C129.581 0 25.3865 0.0500412 25.2723 0H0.31203C0.0364318 1.59931 -0.0573061 3.23106 0.0336201 4.85999V4.86278C0.0427832 4.99459 0.0512325 5.12642 0.0596908 5.25823C0.0688539 5.38722 0.0773063 5.47461 0.0801257 5.50986C0.399425 7.68645 0.880146 9.83979 1.51874 11.9431C2.4125 14.8872 3.65163 17.7905 5.30662 20.4034C7.27246 23.5238 9.82686 26.2304 13.0762 28.1138C16.2312 29.9422 19.7237 31.2455 23.2945 31.8552C29.2068 32.8716 35.3355 31.9927 40.5091 28.4684C43.6204 26.3503 46.4969 23.0776 50.4173 22.568C56.4113 21.7885 57.9902 28.3859 58.4766 32.9534C59.789 45.2545 60.8322 64.4202 75.8343 67.9592C78.486 68.5858 80.7387 68.0706 82.634 66.878C86.3634 64.5315 88.7247 59.5566 90.0724 55.4762C92.249 48.8845 93.4444 41.7422 96.1602 35.359C98.1726 30.6337 102.166 27.7684 107.412 28.4712C109.173 28.7087 110.878 28.553 112.495 28.1018C116.23 27.0587 119.508 24.4197 121.975 21.2789C122.857 20.1539 123.637 18.9641 124.296 17.7638C127.178 12.5062 128.409 5.88271 129.581 0Z" fill="url(#paint0_linear_40_5)" fill-opacity="0.22"/>
<defs>
<linearGradient id="paint0_linear_40_5" x1="64.7904" y1="68.2276" x2="64.7904" y2="0" gradientUnits="userSpaceOnUse">
<stop stop-color="#FBCCB4"/>
<stop offset="1" stop-color="#FBCCB4" stop-opacity="0"/>
</linearGradient>
</defs>
</svg>
