<svg width="80" height="42" viewBox="0 0 80 42" fill="none" xmlns="http://www.w3.org/2000/svg">
<path d="M79.9154 -0.872063C79.9154 -0.872063 15.6564 -0.841198 15.586 -0.872063H0.192436C0.0224683 0.114269 -0.0353419 1.12061 0.0207343 2.1252V2.12692C0.0263854 2.20821 0.0315963 2.28952 0.0368126 2.3708C0.0424637 2.45036 0.0476765 2.50425 0.0494153 2.52599C0.246334 3.86834 0.542806 5.19635 0.936644 6.4935C1.48784 8.30923 2.25204 10.0998 3.27272 11.7112C4.48509 13.6356 6.06045 15.3048 8.06441 16.4663C10.0101 17.594 12.1641 18.3977 14.3662 18.7738C18.0125 19.4006 21.7922 18.8585 24.9829 16.685C26.9017 15.3788 28.6757 13.3604 31.0935 13.0461C34.7901 12.5654 35.7639 16.6342 36.0638 19.451C36.8732 27.0374 37.5166 38.8573 46.7687 41.0399C48.4041 41.4264 49.7934 41.1086 50.9623 40.3731C53.2623 38.926 54.7185 35.8579 55.5497 33.3414C56.892 29.2761 57.6293 24.8713 59.3042 20.9346C60.5452 18.0204 63.0082 16.2534 66.2437 16.6868C67.3296 16.8332 68.3811 16.7372 69.3783 16.459C71.6818 15.8156 73.7036 14.1881 75.225 12.2511C75.7688 11.5573 76.2496 10.8235 76.6561 10.0832C78.4336 6.84082 79.1925 2.75594 79.9154 -0.872063Z" fill="#FBCCB4" fill-opacity="0.74"/>
</svg>
