<svg width="124" height="84" viewBox="0 0 124 84" fill="none" xmlns="http://www.w3.org/2000/svg">
<path d="M123.237 44.0938C123.405 44.3204 123.405 44.5814 123.237 44.8081C121.418 47.2664 113.988 56.9176 103.064 65.952C92.1308 74.9924 77.7531 83.3683 62.0309 83.3714C46.3087 83.3746 31.9276 75.0044 20.9911 65.9684C10.0628 56.9384 2.62925 47.2901 0.809767 44.8325C0.641529 44.6059 0.641477 44.3449 0.809625 44.1183C2.62813 41.66 10.0578 32.0087 20.9825 22.9744C31.9154 13.934 46.2932 5.55806 62.0154 5.55492C77.7376 5.55178 92.1187 13.922 103.055 22.958C113.984 31.988 121.417 41.6363 123.237 44.0938Z" fill="#2C2C2C" stroke="#2C2C2C" stroke-width="0.819121"/>
<path d="M122.963 38.9484C123.131 39.175 123.131 39.4361 122.963 39.6627C121.145 42.121 113.715 51.7723 102.79 60.8066C91.8574 69.847 77.4797 78.2229 61.7575 78.2261C46.0353 78.2292 31.6542 69.859 20.7177 60.823C9.78935 51.793 2.35582 42.1447 0.53633 39.6872C0.368092 39.4606 0.36804 39.1996 0.536187 38.9729C2.35469 36.5146 9.78437 26.8634 20.7091 17.829C31.642 8.78863 46.0197 0.412704 61.7419 0.409564C77.4642 0.406424 91.8452 8.77661 102.782 17.8126C113.71 26.8426 121.144 36.4909 122.963 38.9484Z" fill="#EDAEA0" stroke="#2C2C2C" stroke-width="0.819121"/>
<path fill-rule="evenodd" clip-rule="evenodd" d="M50.5503 13.3349L50.5543 33.3135L38.7245 23.0805C35.5101 27.6836 33.6256 33.2835 33.6268 39.3238C33.6299 55.0069 46.3459 67.7178 62.0289 67.7146C77.712 67.7115 90.4229 54.9955 90.4198 39.3124C90.4167 23.6294 77.7007 10.9185 62.0176 10.9216C57.9367 10.9224 54.0569 11.7838 50.5503 13.3349Z" fill="#2C2C2C"/>
<path d="M50.5532 33.3134L50.0171 33.9328L51.3727 35.1055L51.3724 33.3133L50.5532 33.3134ZM50.5492 13.3348L50.2182 12.5857L49.73 12.8015L49.7301 13.335L50.5492 13.3348ZM38.7235 23.0805L39.2591 22.4606L38.572 21.866L38.0517 22.6115L38.7235 23.0805ZM51.3724 33.3133L51.3684 13.3347L49.7301 13.335L49.7341 33.3136L51.3724 33.3133ZM38.1874 23.6999L50.0171 33.9328L51.0894 32.694L39.2591 22.4606L38.1874 23.6999ZM34.4449 39.3236C34.4437 33.4564 36.2736 28.0192 39.3953 23.5494L38.0517 22.6115C34.745 27.3478 32.8054 33.1105 32.8066 39.3239L34.4449 39.3236ZM62.0278 66.8955C46.7974 66.8985 34.4479 54.554 34.4449 39.3236L32.8066 39.3239C32.8098 55.4591 45.8929 68.537 62.0281 68.5337L62.0278 66.8955ZM89.5996 39.3126C89.6027 54.5429 77.2581 66.8924 62.0278 66.8955L62.0281 68.5337C78.1633 68.5305 91.2411 55.4475 91.2379 39.3123L89.5996 39.3126ZM62.0168 11.7407C77.2471 11.7377 89.5966 24.0822 89.5996 39.3126L91.2379 39.3123C91.2347 23.177 78.1516 10.0992 62.0164 10.1024L62.0168 11.7407ZM50.8803 14.084C54.2849 12.5783 58.0522 11.7415 62.0168 11.7407L62.0164 10.1024C57.8192 10.1033 53.8269 10.9898 50.2182 12.5857L50.8803 14.084Z" fill="#2C2C2C"/>
<path fill-rule="evenodd" clip-rule="evenodd" d="M50.5507 20.2553L50.5533 33.3134L41.6795 25.6262C38.7111 28.8788 36.9011 33.2069 36.9021 37.9578C36.9041 48.0615 45.096 56.2501 55.1997 56.2481C65.3034 56.2461 73.4919 48.0542 73.4899 37.9505C73.4879 27.8468 65.296 19.6582 55.1923 19.6603C53.5885 19.6606 52.0327 19.8673 50.5507 20.2553Z" fill="white"/>
<path d="M50.5543 33.3134L50.0181 33.9327L51.3738 35.1071L51.3734 33.3132L50.5543 33.3134ZM50.5517 20.2553L50.344 19.463L49.7324 19.6231L49.7325 20.2555L50.5517 20.2553ZM41.6805 25.6262L42.2171 25.0068L41.6136 24.4844L41.0758 25.0737L41.6805 25.6262ZM51.3734 33.3132L51.3708 20.2552L49.7325 20.2555L49.7351 33.3135L51.3734 33.3132ZM41.1443 26.245L50.0181 33.9327L51.0904 32.694L42.2171 25.0068L41.1443 26.245ZM37.7222 37.9577C37.7212 33.4191 39.4493 29.286 42.2856 26.1782L41.0758 25.0737C37.9747 28.4715 36.0829 32.9951 36.0839 37.958L37.7222 37.9577ZM55.2004 55.4289C45.5494 55.4309 37.7241 47.6086 37.7222 37.9577L36.0839 37.958C36.086 48.5138 44.6449 57.0693 55.2007 57.0672L55.2004 55.4289ZM72.6717 37.9507C72.6736 47.6017 64.8514 55.427 55.2004 55.4289L55.2007 57.0672C65.7566 57.0651 74.3121 48.5062 74.31 37.9503L72.6717 37.9507ZM55.1934 20.4794C64.8444 20.4775 72.6698 28.2997 72.6717 37.9507L74.31 37.9503C74.3079 27.3945 65.749 18.839 55.1931 18.8411L55.1934 20.4794ZM50.7593 21.0477C52.1742 20.6771 53.66 20.4797 55.1934 20.4794L55.1931 18.8411C53.5188 18.8415 51.8937 19.0575 50.344 19.463L50.7593 21.0477Z" fill="#2C2C2C"/>
</svg>
