<svg width="45" height="71" viewBox="0 0 45 71" fill="none" xmlns="http://www.w3.org/2000/svg">
<path d="M16.4672 40.1951C21.7874 43.1773 24.8579 47.8111 23.3255 50.5449C21.7931 53.2786 16.2379 53.0775 10.9177 50.0953C7.23711 48.032 5.3665 43.8698 4.5633 41.5004C4.23297 40.5256 4.81565 39.4861 5.8196 39.2594C8.25995 38.7082 12.7866 38.1318 16.4672 40.1951Z" fill="#44D4F4"/>
<path d="M37.969 41.8549C34.9651 44.8995 31.2616 46.1165 29.697 44.5729C28.1323 43.0293 29.2992 39.3098 32.3032 36.2651C34.3813 34.1586 37.5434 33.6659 39.2947 33.5622C40.0151 33.5196 40.6101 34.1067 40.5772 34.8275C40.4975 36.5802 40.0474 39.7486 37.969 41.8549Z" fill="#44D4F4"/>
<path d="M25.3439 70.3849C25.0405 70.3849 24.7948 70.1391 24.7948 69.8358C24.7948 57.9069 22.9371 45.3735 19.2732 32.5838C19.1897 32.2924 19.3584 31.9882 19.6498 31.9047C19.9417 31.8219 20.2453 31.9899 20.329 32.2814C24.021 45.1695 25.8929 57.8048 25.8929 69.8358C25.8929 70.1391 25.6472 70.3849 25.3439 70.3849Z" fill="#240448"/>
<path d="M18.5521 28.4132C18.3195 28.4132 18.1036 28.2641 18.0291 28.0308C13.5539 14.0068 8.47465 4.83315 8.42392 4.742C8.2761 4.47735 8.37098 4.14262 8.63585 3.99503C8.90029 3.84722 9.23523 3.94231 9.38283 4.20718C9.43422 4.29921 14.5671 13.5695 19.0755 27.6972C19.1675 27.986 19.0081 28.295 18.7192 28.3873C18.6637 28.4046 18.6072 28.4132 18.5521 28.4132Z" fill="#240448"/>
<path d="M21.5556 12.3024C22.117 6.63071 17.9743 1.57776 12.3026 1.01634C6.63086 0.454923 1.57789 4.59764 1.01647 10.2694C0.455057 15.9411 4.59779 20.9941 10.2695 21.5555C15.9412 22.1169 20.9942 17.9742 21.5556 12.3024Z" fill="#FC346C"/>
<path d="M27.6748 70.3846C27.3765 70.3846 27.1318 70.1459 27.1259 69.8465C27.1195 69.5265 26.5836 37.5831 34.6545 14.6129C34.7551 14.3265 35.0685 14.1758 35.3547 14.2771C35.6409 14.3775 35.7911 14.6911 35.6905 14.9773C27.6864 37.7579 28.2177 69.5068 28.2239 69.825C28.2298 70.1283 27.9891 70.3787 27.6858 70.3849C27.6822 70.3846 27.6783 70.3846 27.6748 70.3846Z" fill="#44D4F4"/>
<path d="M43.9942 16.9847L36.6969 9.68738L26.7284 12.3583L24.0572 22.3268L31.3547 29.6244L41.3232 26.9532L43.9942 16.9847Z" fill="#C97B27"/>
<path d="M11.3008 12.6338C5.76998 12.6338 0.171082 11.3351 0.171082 8.85304C0.171082 8.54972 0.416851 8.30396 0.720165 8.30396C1.02348 8.30396 1.26925 8.54972 1.26925 8.85304C1.26925 9.97339 5.0856 11.5357 11.3008 11.5357C17.516 11.5357 21.3325 9.97339 21.3325 8.85304C21.3325 8.54972 21.5783 8.30396 21.8816 8.30396C22.1849 8.30396 22.4307 8.54972 22.4307 8.85304C22.4305 11.3349 16.8316 12.6338 11.3008 12.6338Z" fill="white"/>
<path d="M11.3008 12.6338C5.76998 12.6338 0.171082 11.3351 0.171082 8.85304C0.171082 8.54972 0.416851 8.30396 0.720165 8.30396C1.02348 8.30396 1.26925 8.54972 1.26925 8.85304C1.26925 9.97339 5.0856 11.5357 11.3008 11.5357C17.516 11.5357 21.3325 9.97339 21.3325 8.85304C21.3325 8.54972 21.5783 8.30396 21.8816 8.30396C22.1849 8.30396 22.4307 8.54972 22.4307 8.85304C22.4305 11.3349 16.8316 12.6338 11.3008 12.6338Z" fill="white"/>
<path d="M19.8467 15.3849C19.2372 15.3849 18.5247 15.2922 17.7162 15.1057C15.6286 14.624 13.1055 13.5665 10.6115 12.1279C5.82068 9.36424 1.61952 5.44203 2.85958 3.29204C3.0109 3.02936 3.34673 2.93931 3.60963 3.09064C3.87231 3.24219 3.96236 3.57802 3.81103 3.8407C3.25141 4.81104 5.77675 8.07128 11.1604 11.1765C13.5628 12.5623 15.9787 13.5777 17.9633 14.0356C20.0013 14.5059 20.9754 14.2381 21.1904 13.8654C21.3419 13.6027 21.6775 13.5129 21.9402 13.664C22.2029 13.8156 22.2932 14.1514 22.1416 14.4141C21.7696 15.0589 20.9892 15.3849 19.8467 15.3849Z" fill="white"/>
<path d="M19.8467 15.3849C19.2372 15.3849 18.5247 15.2922 17.7162 15.1057C15.6286 14.624 13.1055 13.5665 10.6115 12.1279C5.82068 9.36424 1.61952 5.44203 2.85958 3.29204C3.0109 3.02936 3.34673 2.93931 3.60963 3.09064C3.87231 3.24219 3.96236 3.57802 3.81103 3.8407C3.25141 4.81104 5.77675 8.07128 11.1604 11.1765C13.5628 12.5623 15.9787 13.5777 17.9633 14.0356C20.0013 14.5059 20.9754 14.2381 21.1904 13.8654C21.3419 13.6027 21.6775 13.5129 21.9402 13.664C22.2029 13.8156 22.2932 14.1514 22.1416 14.4141C21.7696 15.0589 20.9892 15.3849 19.8467 15.3849Z" fill="white"/>
<path d="M24.057 22.8762C23.8145 22.8762 23.5926 22.7144 23.5268 22.469C23.4483 22.176 23.6221 21.8749 23.9151 21.7963L43.8521 16.4542C44.1446 16.3768 44.4462 16.5497 44.5248 16.8425C44.6032 17.1355 44.4293 17.4366 44.1365 17.5152L24.1993 22.8574C24.1516 22.8701 24.104 22.8762 24.057 22.8762Z" fill="white"/>
<path d="M34.0257 20.2046C33.8851 20.2046 33.7448 20.151 33.6374 20.0438L26.3401 12.7465C26.1255 12.5319 26.1255 12.1845 26.3401 11.9701C26.5544 11.7556 26.9023 11.7556 27.1165 11.9701L34.4138 19.2675C34.6284 19.482 34.6284 19.8295 34.4138 20.0438C34.3066 20.151 34.166 20.2046 34.0257 20.2046Z" fill="white"/>
</svg>
