<svg width="47" height="70" viewBox="0 0 47 70" fill="none" xmlns="http://www.w3.org/2000/svg">
<path d="M46.5123 7.37141C47.2508 5.99977 46.6139 4.58761 45.0968 4.23357C43.5797 3.87952 41.7341 4.71195 40.9956 6.08359L35.9646 15.4277C35.3074 16.6482 33.914 17.2769 32.5641 16.9617C31.2142 16.6465 30.2431 15.4659 30.1943 14.0806L29.8206 3.47481C29.7657 1.9178 28.4796 0.354258 26.9625 0C25.4534 0.053202 24.2732 1.31948 24.3264 2.82856C24.3264 2.82856 24.7987 16.834 24.8298 17.1144L24.8458 17.2448C25.1534 19.5311 26.835 21.498 29.2149 22.0537L33.3032 23.0082C35.684 23.564 38.0635 22.5439 39.3514 20.6289L39.3691 20.6384L46.5123 7.37141Z" fill="#A01FEC"/>
<path d="M14.6887 58.8257C18.2084 62.3931 22.548 63.819 24.3811 62.0102C26.2143 60.2015 24.8471 55.8432 21.3273 52.2757C18.8923 49.8075 15.1873 49.2303 13.135 49.1089C12.2908 49.0589 11.5936 49.7467 11.6323 50.5916C11.726 52.6452 12.2534 56.3575 14.6887 58.8257Z" fill="#44D4F4"/>
<path d="M28.897 69.9109C28.6584 69.9109 28.4574 69.726 28.4407 69.4845C28.4344 69.3909 27.804 59.9691 28.3485 47.3558C28.8511 35.7069 30.4875 18.8693 35.4277 4.80917C35.5113 4.5706 35.7717 4.44458 36.0113 4.52924C36.2496 4.61284 36.3752 4.87419 36.2912 5.11276C26.9038 31.8307 29.328 69.0494 29.3538 69.422C29.3711 69.6741 29.1807 69.8926 28.9284 69.9101C28.9181 69.9105 28.9075 69.9109 28.897 69.9109Z" fill="#240448"/>
<path d="M25.352 69.9109C25.3499 69.9109 25.348 69.9109 25.3463 69.9109C25.0936 69.9077 24.8913 69.7004 24.894 69.4477C25.1043 52.1332 20.2672 41.7276 16.6104 35.4071C16.4837 35.1881 16.5584 34.9084 16.7772 34.7817C16.9957 34.6544 17.2758 34.7298 17.4025 34.9485C21.1136 41.363 26.0223 51.9189 25.8095 69.4589C25.8063 69.7097 25.602 69.9109 25.352 69.9109Z" fill="#240448"/>
<path d="M35.7595 15.8088C35.0704 18.7608 33.2818 20.867 31.7649 20.5129C30.248 20.1589 29.5769 17.4785 30.266 14.5264C30.7429 12.4841 32.4717 11.0162 33.4921 10.3053C33.9118 10.0129 34.4887 10.1476 34.7355 10.5956C35.3358 11.6848 36.2362 13.7664 35.7595 15.8088Z" fill="#44D4F4"/>
<path d="M12.6761 26.3137L15.9273 19.9795C16.6901 18.4932 15.7645 16.6976 14.1112 16.4569C12.4582 16.2163 11.0589 17.6732 11.3661 19.3153L12.6761 26.3137Z" fill="#C97B27"/>
<path d="M9.88289 28.3968L2.88449 29.7066C1.2424 30.014 -0.214519 28.6147 0.0261573 26.9614C0.266833 25.3082 2.06239 24.3826 3.54867 25.1454L9.88289 28.3968Z" fill="#C97B27"/>
<path d="M11.8774 31.0714L8.62617 37.4056C7.8634 38.8918 8.78895 40.6874 10.4422 40.9281C12.0953 41.1688 13.4946 39.7118 13.1874 38.0697L11.8774 31.0714Z" fill="#C97B27"/>
<path d="M14.6706 28.988L21.6688 27.6782C23.3109 27.3708 24.7678 28.7701 24.5271 30.4234C24.2865 32.0767 22.4907 33.0022 21.0046 32.2394L14.6706 28.988Z" fill="#C97B27"/>
<path d="M10.8769 26.7279L8.69691 19.9501C8.18537 18.3598 6.26125 17.7446 4.92212 18.7434C3.58299 19.7422 3.62371 21.762 5.00232 22.7057L10.8769 26.7279Z" fill="#C97B27"/>
<path d="M10.3748 30.176L6.35258 36.0508C5.40887 37.4292 3.38911 37.4702 2.3903 36.1311C1.3915 34.7919 2.00671 32.8676 3.59707 32.3563L10.3748 30.176Z" fill="#C97B27"/>
<path d="M13.6765 30.6567L15.8565 37.4345C16.368 39.0249 18.2921 39.6401 19.6315 38.6413C20.9706 37.6425 20.9299 35.6229 19.5513 34.679L13.6765 30.6567Z" fill="#C97B27"/>
<path d="M14.1784 27.2087L18.2006 21.3339C19.1444 19.9555 21.1641 19.9145 22.1629 21.2536C23.1615 22.5928 22.5465 24.5171 20.9562 25.0284L14.1784 27.2087Z" fill="#C97B27"/>
</svg>
