<svg width="14" height="17" viewBox="0 0 14 17" fill="none" xmlns="http://www.w3.org/2000/svg">
<path d="M2.59999 5.12878C2.5204 5.97771 2.46455 7.4801 2.96582 8.1196C2.96582 8.1196 2.72985 6.4692 4.8452 4.39852C5.69693 3.56495 5.89381 2.43117 5.5964 1.58084C5.42745 1.09913 5.11887 0.701189 4.85079 0.42333C4.6944 0.259966 4.81448 -0.00951526 5.04208 0.000258669C6.4188 0.0616948 8.65005 0.444274 9.59812 2.82353C10.0142 3.86794 10.0449 4.94726 9.84666 6.04473C9.72099 6.74566 9.27419 8.30391 10.2935 8.4952C11.0209 8.63203 11.3728 8.05397 11.5306 7.63788C11.5962 7.46475 11.8238 7.42146 11.9467 7.55969C13.1754 8.95736 13.2801 10.6036 13.026 12.0208C12.5345 14.7603 9.76009 16.7542 7.00384 16.7542C3.56063 16.7542 0.819741 14.784 0.109037 11.2179C-0.177199 9.77837 -0.0319862 6.92997 2.18809 4.91934C2.35285 4.76854 2.62233 4.90258 2.59999 5.12878Z" fill="url(#paint0_radial_133_15284)"/>
<defs>
<radialGradient id="paint0_radial_133_15284" cx="0" cy="0" r="1" gradientTransform="matrix(-9.85589 -0.0427745 -0.0702725 16.1715 6.32187 16.7976)" gradientUnits="userSpaceOnUse">
<stop offset="0.314" stop-color="#FF9800"/>
<stop offset="0.662" stop-color="#FF6D00"/>
<stop offset="0.972" stop-color="#F44336"/>
</radialGradient>
</defs>
</svg>
