<svg width="201" height="235" viewBox="0 0 201 235" fill="none" xmlns="http://www.w3.org/2000/svg">
<path d="M155.811 176.127C155.811 176.127 66.1328 176.17 66.0346 176.127H44.5518C44.3146 177.504 44.2339 178.908 44.3121 180.31V180.312C44.32 180.426 44.3273 180.539 44.3346 180.653C44.3425 180.764 44.3497 180.839 44.3522 180.869C44.627 182.743 45.0407 184.596 45.5904 186.406C46.3596 188.94 47.4261 191.439 48.8505 193.688C50.5425 196.374 52.741 198.703 55.5377 200.324C58.253 201.898 61.259 203.019 64.3323 203.544C69.4209 204.419 74.6958 203.663 79.1486 200.629C81.8264 198.806 84.3021 195.99 87.6763 195.551C92.8353 194.88 94.1942 200.558 94.6128 204.489C95.7424 215.077 96.6402 231.572 109.552 234.618C111.834 235.158 113.773 234.714 115.405 233.688C118.614 231.668 120.647 227.386 121.807 223.874C123.68 218.201 124.709 212.054 127.046 206.56C128.778 202.493 132.216 200.027 136.731 200.632C138.246 200.836 139.714 200.702 141.105 200.314C144.32 199.416 147.142 197.145 149.265 194.441C150.024 193.473 150.695 192.449 151.262 191.416C153.743 186.891 154.802 181.19 155.811 176.127Z" fill="#FFCAD1"/>
<circle cx="100.046" cy="100.047" r="96.4995" transform="rotate(2.14733 100.046 100.047)" fill="#FFCAD1"/>
<path d="M54.8477 87.594C54.8477 109.573 73.0168 121.284 86.3137 131.769C91.0051 135.466 95.5248 138.951 100.044 138.951C104.564 138.951 109.084 135.471 113.775 131.765C127.077 121.288 145.241 109.573 145.241 87.5985C145.241 65.6239 120.383 50.0265 100.044 71.1605C79.7059 50.0265 54.8477 65.6148 54.8477 87.594Z" fill="#E84F62"/>
</svg>
