<svg width="459" height="971" viewBox="0 0 459 971" fill="none" xmlns="http://www.w3.org/2000/svg">
<path d="M89.5577 746.385C89.8414 746.902 90.1178 747.423 90.3866 747.948C90.2169 750.086 89.9132 752.213 89.537 754.325C88.2893 761.329 86.7723 768.307 86.1799 775.417C85.7415 780.678 86.2079 786.053 87.1618 791.231C87.9473 795.494 89.4845 799.648 91.6547 803.368C93.6269 806.749 96.1319 809.74 99.0815 812.234C100.51 814.357 102.205 816.281 104.123 817.906C107.657 820.9 111.761 822.768 115.97 824.459C117.513 826.188 118.81 828.138 119.806 830.328C121.622 834.321 122.246 838.848 121.655 843.208C120.449 852.103 115.415 859.861 113.99 868.686C112.973 866.296 112.554 863.671 112.825 860.878C113.325 855.743 115.543 850.962 116.536 845.931C117.465 841.222 117.207 836.349 114.499 832.281C109.464 824.72 100.055 822.606 93.7118 816.602C89.9893 813.078 87.2446 808.405 85.7684 803.434C84.2023 798.162 83.9985 792.842 84.8831 787.409C84.9631 786.917 84.2515 786.489 84.0221 787.035C80.2711 795.969 82.4647 807.103 88.0461 814.718C90.9339 818.657 94.6228 821.505 98.7337 823.975C102.44 826.201 106.432 828.178 109.61 831.199C113.018 834.439 114.489 838.619 113.992 843.366C113.446 848.584 111.217 853.451 110.384 858.616C109.536 863.877 110.357 868.945 113.518 873.27C113.552 873.316 113.588 873.359 113.622 873.405C113.673 877.199 114.621 880.987 116.818 884.087C119.22 887.474 122.628 889.879 126.337 891.526C143.45 899.119 163.375 892.451 180.323 900.703C183.374 903.605 186.084 906.973 188.7 910.136C193.99 916.53 199.485 922.91 205.85 928.203C210.318 931.919 215.292 935.096 220.901 936.585C226.325 938.024 231.954 937.767 237.414 936.683C240.578 936.055 244.043 935.348 246.963 933.856C249.66 932.477 251.803 930.114 253.771 927.825C258.382 922.463 262.521 916.686 266.885 911.115C268.393 909.191 270.164 907.512 272.097 906.032C287.01 897.564 305.084 901.451 320.575 894.645C327.733 891.5 333.852 885.994 335.981 878.055C337.561 872.164 336.97 866.189 335.758 860.296C335.176 854.74 333.606 849.289 332.098 843.824C332.73 838.891 334.086 834.085 336.457 829.604C339.028 824.746 342.668 820.56 347.255 817.649C349.829 816.015 352.587 814.729 355.302 813.371C358.09 811.976 360.839 810.505 363.556 808.972C369.678 805.519 375.568 801.635 381.146 797.315C381.316 797.183 381.161 796.886 380.975 797.013C375.631 800.68 370.052 803.992 364.243 806.817C358.465 809.626 352.21 811.456 346.683 814.795C338.947 819.47 333.725 827.156 331.21 835.804C331.221 834.865 331.272 833.924 331.372 832.983C331.832 828.64 333.486 824.552 335.869 820.963C340.49 814.007 347.571 808.912 354.563 804.749C361.867 800.4 369.414 796.39 375.808 790.635C382.486 784.624 387.078 776.76 388.002 767.576C388.474 762.884 387.937 758.068 386.431 753.613C384.894 749.063 382.506 744.864 381.103 740.264C379.929 736.417 379.75 732.524 380.897 728.647C381.949 725.092 384.084 722.13 386.528 719.451C387.71 718.156 389.489 717.166 391.069 716.485C391.698 716.213 391.466 715.339 390.788 715.437C387.244 715.95 383.731 717.954 381.502 720.84C379.116 723.93 377.7 727.763 377.238 731.663C376.842 735.006 377.367 738.113 378.3 741.122C376.692 737.631 375.251 733.973 374.854 730.107C374.682 728.44 374.686 726.773 374.836 725.121C375.242 724.397 375.676 723.687 376.141 722.994C381.745 714.657 391.19 710.459 399.265 705.22C402.568 703.078 405.727 700.692 408.484 697.853V693.615C405.461 697.28 401.803 700.199 397.884 702.786C390.258 707.82 381.769 711.919 375.957 719.264C376.014 719.064 376.072 718.864 376.133 718.665C379.343 715.372 382.823 712.364 386.298 709.373C390.693 705.588 395.123 701.811 399.04 697.491C402.728 693.425 405.766 688.855 408.484 684.07L458.295 678.065C458.255 678.142 458.215 678.219 458.174 678.295C455.228 683.868 402.249 689.359 398.145 694.123C394.337 698.543 389.952 702.377 385.559 706.157C383.294 708.105 381.017 710.049 378.801 712.061C386.011 697.63 449.821 687.668 456.463 672.728C457.141 671.204 457.749 669.661 458.295 668.103V605.434V0H0V644.383C0.151458 644.218 0.303242 644.055 0.455351 643.892C1.02825 643.28 1.60767 642.675 52.0031 642.074C1.44512 643.036 0.714084 644.011 0 645V710.832C9.325 719.438 70.9973 724.602 80.0218 733.603C81.1317 734.71 82.1893 735.869 83.1986 737.07C83.0904 736.984 82.9834 736.897 82.8749 736.812C72.3108 728.55 10.2409 722.813 0 714.097V717.02C8.00965 723.527 66.8887 728.597 75.3721 734.443C80.4585 737.949 85.3484 741.801 89.5577 746.385ZM328.753 824.015C328.936 816.247 332.187 809.853 337.85 804.82C343.373 799.911 350.126 796.601 356.689 793.448C368.381 787.83 383.139 779.671 385.147 765.119C384.947 771.739 382.6 778.241 378.489 783.42C373.123 790.18 365.726 794.662 358.541 799.07C351.401 803.45 344.11 807.778 338.236 813.93C335.4 816.902 332.891 820.307 331.223 824.12C330.256 826.331 329.584 828.628 329.188 830.977C328.868 828.678 328.698 826.36 328.753 824.015ZM303.905 894.276C316.048 892.883 329.346 887.54 334.101 875.531C333.695 877.792 332.982 879.985 331.859 882.024C330.043 885.324 327.339 887.977 324.237 889.985C317.503 894.344 309.463 895.884 301.676 896.757C296.28 897.362 290.706 897.792 285.338 898.982C291.303 896.661 297.573 895.003 303.905 894.276ZM164.04 894.207C167.375 894.376 170.64 894.047 173.672 895.706C174.467 896.141 175.237 896.622 175.986 897.138C172.089 895.687 168.019 894.864 163.913 894.33C163.122 894.227 162.329 894.138 161.535 894.057C162.37 894.114 163.204 894.164 164.04 894.207ZM132.847 885.277C138.668 889.775 145.798 892.009 152.915 893.12C154.55 893.376 156.192 893.579 157.837 893.745C149.99 893.198 142.075 893.238 134.377 891.457C126.566 889.65 118.172 885.457 116.562 876.638C119.33 879.155 122.64 880.987 126.12 882.367C127.879 883.064 129.675 883.646 131.486 884.177C131.935 884.557 132.39 884.924 132.847 885.277ZM128.996 832.511C136.634 844.477 124.065 856.772 123.356 868.737C123.097 873.093 124.874 876.923 127.489 880.146C123.846 878.724 120.377 876.843 117.584 873.993C117.107 873.506 116.663 873 116.251 872.478C116.448 864.082 121.259 856.24 123.479 848.338C124.743 843.839 125.162 839.197 124.25 834.586C123.693 831.769 122.662 829.065 121.248 826.593C124.267 827.932 127.165 829.643 128.996 832.511ZM92.7876 753.27C93.8582 756.02 94.7042 758.846 95.3633 761.722C95.7655 765.171 95.9594 768.642 95.915 772.099C95.7982 781.226 93.1203 790.269 94.2526 799.417C94.392 800.544 94.602 801.665 94.877 802.772C90.9029 796.414 89.3518 788.815 89.0879 781.212C88.8159 773.379 90.5087 765.544 91.9563 757.893C92.246 756.362 92.5346 754.82 92.7876 753.27Z" fill="#FFECDC"/>
<path d="M266.847 830.046C266.847 859.546 239.793 880.65 230.509 881.183C216.651 881.978 194.171 859.546 194.171 830.046C194.171 800.547 194.958 783.529 228.03 783.529C248.099 783.529 266.847 800.547 266.847 830.046Z" fill="#FFC7CF"/>
<path d="M322.368 970.988C322.223 969.264 322.081 967.581 321.944 965.986C320.858 953.313 316.153 919.313 301.175 914.903C287.684 910.93 230.707 886.233 228.393 886.234C227.85 886.029 167.132 910.93 153.641 914.903C138.663 919.313 133.958 953.313 132.872 965.986C132.735 967.581 132.593 969.264 132.448 970.988H322.368Z" fill="#FFA846"/>
<path d="M250.268 895.962C250.164 894.602 247.815 894.026 247.846 895.356C247.846 895.356 207.099 893.632 206.496 895.03C205.017 898.457 205.528 902.627 205.983 906.306C206.388 909.584 207.468 912.924 209.961 915.154C214.877 919.552 222.421 916.692 226.672 912.682C227.859 911.562 228.903 910.256 229.747 908.844C230.114 908.229 230.435 907.59 230.721 906.934C231.262 908.195 232.071 909.33 233.063 910.389C234.828 912.274 236.973 914.039 239.278 915.161C241.5 916.243 244.574 916.989 246.832 915.595C249.11 914.188 249.587 910.935 250.031 908.482C250.672 904.935 250.543 899.557 250.268 895.962Z" fill="white"/>
<path d="M207.219 865.804V895.346C207.219 895.346 228.392 909.355 249.565 896.152L248.117 863.573L207.219 865.804Z" fill="#FFC7CF"/>
<path d="M249.104 888.513C249.104 888.513 220.128 899.164 207.099 866.735L248.296 863.574L249.104 888.513Z" fill="#EB88A1"/>
<path d="M194.176 830.046C194.374 859.296 215.182 880.769 230.509 880.227C250.444 879.523 256.6 859.213 256.798 829.963L194.176 830.046Z" fill="#FFC7CF"/>
<path d="M224.828 818.013C224.012 816.95 222.055 816.833 220.647 816.626C218.703 816.342 216.754 816.079 214.801 815.836C212.868 815.597 210.955 815.332 209.008 815.649C207.173 815.948 205.45 816.557 203.886 817.336C202.427 818.063 200.821 818.896 199.699 819.929C199.21 820.155 199.417 820.722 199.977 820.732C200.465 820.742 200.908 820.673 201.391 820.637C201.864 820.603 202.316 820.672 202.784 820.652C203.791 820.61 204.79 820.484 205.801 820.451C207.781 820.386 209.765 820.42 211.744 820.499C213.732 820.58 215.716 820.71 217.704 820.793C219.528 820.87 221.683 820.974 223.392 820.395C224.586 819.991 225.597 819.017 224.828 818.013Z" fill="#002C6B"/>
<path d="M233.917 818.013C234.716 816.95 236.635 816.833 238.017 816.626C239.922 816.342 241.833 816.079 243.748 815.836C245.644 815.597 247.52 815.332 249.43 815.649C251.229 815.948 252.918 816.557 254.453 817.336C255.883 818.063 257.458 818.896 258.558 819.929C259.038 820.155 258.835 820.722 258.285 820.732C257.807 820.742 257.372 820.673 256.898 820.637C256.435 820.603 255.992 820.672 255.532 820.652C254.546 820.61 253.565 820.484 252.575 820.451C250.632 820.386 248.687 820.42 246.746 820.499C244.797 820.58 242.851 820.71 240.902 820.793C239.113 820.87 237 820.974 235.324 820.395C234.154 819.991 233.162 819.017 233.917 818.013Z" fill="#002C6B"/>
<path d="M257.898 842.809C256.832 841.61 255.037 841.45 253.68 842.203C253.001 842.58 250.005 845.138 249.133 845.985C247.259 847.806 246.392 851.033 248.493 853.074C250.894 855.407 254.126 853 255.895 851.122C257.746 849.158 260.191 845.39 257.898 842.809Z" fill="#EB88A1"/>
<path d="M211.463 848.742C210.496 847.46 207.162 844.869 206.767 844.525C205.698 843.595 204.046 843.35 202.797 844.036C201.503 844.747 200.916 846.315 201.087 847.764C201.275 849.36 202.222 850.718 203.188 851.929C204.775 853.919 207.887 856.984 210.602 855.531C213.101 854.195 212.995 850.772 211.463 848.742Z" fill="#EB88A1"/>
<path d="M162.293 969.697C162.819 970.225 163.463 970.661 164.168 970.988H169.874C171.607 970.008 172.764 968.039 172.406 965.95C172.004 963.599 169.755 962.005 167.718 961.25C165.574 960.455 162.788 961.001 161.784 963.328C161.496 963.994 161.439 964.707 161.595 965.379C160.763 966.622 161.208 968.61 162.293 969.697ZM164.547 964.043C165.967 962.937 168.475 964.471 169.364 965.716C169.869 966.423 169.821 967.259 169.277 967.933C168.583 968.794 167.436 968.992 166.407 968.824C165.635 968.697 164.746 968.378 164.128 967.811C164.462 967.834 164.791 967.756 165.083 967.531C165.418 967.273 165.64 966.847 165.519 966.412C165.366 965.863 164.898 965.776 164.51 965.483C163.969 965.073 164.022 964.452 164.547 964.043Z" fill="white"/>
<path d="M219.77 940.075C219.639 938.818 218.049 939.706 217.631 940.247C216.776 941.354 216.543 943.152 216.647 944.525C216.864 947.4 219.11 950.017 222.087 949.49C224.68 949.032 226.928 946.49 227.367 943.861C227.819 941.153 226.477 938.31 223.959 937.249C221.287 936.124 217.859 937.825 217.316 940.825C217.194 941.501 217.498 942.2 218.181 942.394C218.784 942.564 219.581 942.183 219.704 941.503C219.941 940.193 221.201 939.245 222.505 939.448C223.918 939.668 224.954 941.185 225.008 942.596C225.07 944.233 224.104 945.779 222.768 946.614C222.09 947.038 221.294 947.32 220.53 946.973C219.894 946.684 219.389 946.062 219.118 945.413C218.669 944.334 218.8 943.09 219.021 941.973C219.102 941.56 219.182 941.064 219.397 940.701C219.502 940.526 219.793 940.296 219.77 940.075Z" fill="white"/>
<path d="M182.16 925.249C180.75 925.155 179.947 926.664 179.826 927.912C179.694 929.285 180.313 930.564 181.181 931.565C182.98 933.639 186.019 934.86 188.582 933.655C190.706 932.657 192.153 930.154 192.015 927.752C191.867 925.19 190.179 922.918 187.941 921.86C185.571 920.739 182.551 920.758 180.892 923.094C180.238 924.015 179.889 925.281 180.016 926.417C180.123 927.37 181.121 929.42 182.289 928.333C182.946 927.721 182.504 926.329 182.711 925.572C182.936 924.747 183.487 924.127 184.305 923.977C186.244 923.623 188.494 925.053 189.111 926.963C189.761 928.978 188.286 931.609 186.047 931.331C184.865 931.184 183.579 930.39 182.852 929.422C182.042 928.345 182.553 927.468 182.991 926.372C183.22 925.8 182.654 925.282 182.16 925.249Z" fill="white"/>
<path d="M263.63 970.988H266.379C266.512 970.672 266.523 970.289 266.334 969.887C266.088 969.364 266.391 968.751 266.818 968.44C267.489 967.952 268.458 967.983 269.222 968.158C270.676 968.493 272.116 969.459 272.531 970.988H275.066C275.05 970.86 275.031 970.732 275.006 970.603C274.49 967.874 271.942 965.97 269.382 965.571C267.798 965.324 266.014 965.558 264.84 966.79C263.966 967.708 263.529 969.105 263.847 970.343C263.751 970.565 263.679 970.777 263.638 970.951C263.635 970.963 263.633 970.976 263.63 970.988Z" fill="white"/>
<path d="M276.715 916.652C275.75 916.52 274.832 917.576 274.348 918.315C273.784 919.176 273.504 920.268 273.444 921.296C273.318 923.444 274.454 925.46 276.167 926.628C277.927 927.828 280.554 928.096 282.148 926.465C283.598 924.981 284.06 922.431 283.802 920.413C283.532 918.307 282.23 916.37 280.112 915.942C279.17 915.752 278.176 915.823 277.316 916.291C276.899 916.518 276.422 916.878 276.241 917.341C276.027 917.891 276.115 918.634 276.653 918.959C277.571 919.512 278.145 918.493 278.952 918.381C279.566 918.296 280.274 918.549 280.694 919.021C281.863 920.335 281.612 922.829 280.796 924.267C279.669 926.252 276.959 924.687 276.134 923.201C275.659 922.344 275.588 921.34 275.851 920.399C275.996 919.877 276.247 919.379 276.539 918.928C276.827 918.484 277.25 918.065 277.368 917.535C277.477 917.048 277.159 916.712 276.715 916.652Z" fill="white"/>
<path d="M148.12 923.595C145.837 924.808 144.359 928.03 145.283 930.591C146.237 933.235 149.317 933.835 151.756 933.427C152.956 933.227 154.104 932.598 154.774 931.527C155.469 930.414 155.556 928.937 155.62 927.648C155.746 925.148 155.052 922.308 152.462 921.461C151.039 920.996 149.376 921.349 148.182 922.246C147.528 922.736 146.994 923.329 146.544 924.022C146.145 924.636 145.706 925.644 145.988 926.379C146.234 927.023 146.818 927.293 147.439 926.987C148.23 926.598 148.527 925.494 149.106 924.853C149.664 924.235 150.386 923.801 151.228 923.827C152.873 923.879 153.205 925.686 153.216 927.053C153.226 928.495 153.293 930.501 151.667 930.974C150.464 931.325 148.092 931.317 147.48 929.945C147.13 929.16 147.246 928.236 147.532 927.453C147.94 926.338 148.67 925.436 148.98 924.276C149.121 923.748 148.564 923.359 148.12 923.595Z" fill="white"/>
<path d="M305.513 944.809C304.36 944.175 303.089 945.3 302.47 946.226C301.699 947.381 301.455 948.848 301.664 950.218C302.111 953.165 304.882 955.085 307.612 955.344C309.094 955.484 310.736 955.045 311.827 953.967C313.047 952.761 313.266 950.94 313.026 949.297C312.62 946.516 310.581 943.744 307.773 943.277C306.143 943.006 304.498 943.604 303.318 944.783C302.125 945.974 301.499 947.792 302.579 949.279C302.906 949.73 303.794 949.808 303.909 949.1C304.161 947.559 305.212 945.842 306.883 945.772C308.666 945.698 310.014 947.503 310.456 949.1C310.69 949.949 310.829 951.07 310.333 951.853C309.856 952.605 308.915 952.825 308.093 952.839C306.389 952.869 304.497 951.893 303.949 950.134C303.681 949.272 303.811 948.318 304.176 947.506C304.556 946.658 305.319 946.047 305.666 945.198C305.721 945.064 305.631 944.874 305.513 944.809Z" fill="white"/>
<path d="M249.302 926.813C250.263 925.713 251.793 924.509 253.288 924.47C253.987 924.452 254.656 924.694 255.065 925.301C255.348 925.72 255.474 926.292 255.181 926.739C254.566 927.677 252.753 927.732 251.816 927.493C251.589 927.436 251.359 927.377 251.207 927.184C251.337 927.349 251.242 927.145 251.233 927.196C251.357 926.451 251.528 925.914 251.068 925.43C250.519 924.852 249.611 925.09 249.105 925.592C248.493 926.2 248.441 927.179 248.651 927.985C249.121 929.788 251.08 930.349 252.681 930.259C254.134 930.177 255.732 929.756 256.728 928.586C257.793 927.335 257.822 925.542 256.887 924.204C255.808 922.66 253.885 922.202 252.164 922.76C250.403 923.33 249.169 924.627 248.743 926.477C248.67 926.795 249.068 927.081 249.302 926.813Z" fill="white"/>
<path d="M196.976 905.67C195.953 906.599 196.154 908.252 197.071 909.174C198.147 910.256 199.901 909.936 200.646 908.623C201.33 907.42 201.074 905.708 199.83 904.994C198.329 904.133 195.561 905.234 196.469 907.327C196.662 907.774 197.16 907.941 197.585 907.987C197.875 908.018 198.167 907.908 198.41 907.754C198.739 907.488 198.788 907.451 198.557 907.642C198.606 907.602 198.658 907.566 198.712 907.533C198.849 907.462 198.823 907.472 198.634 907.563C198.787 907.526 198.755 907.523 198.54 907.556C198.602 907.55 198.665 907.548 198.728 907.551C198.514 907.513 198.483 907.512 198.634 907.547C198.449 907.458 198.425 907.446 198.562 907.513C198.687 907.592 198.672 907.572 198.517 907.454C198.617 907.559 198.605 907.534 198.481 907.379C198.412 907.189 198.399 907.164 198.442 907.303C198.424 907.092 198.42 907.061 198.43 907.212C198.425 907.36 198.434 907.333 198.458 907.128C198.54 907.197 198.214 907.601 198.447 907.246C198.42 907.301 198.39 907.353 198.357 907.403C198.471 907.259 198.481 907.238 198.387 907.342C198.537 907.234 198.554 907.219 198.439 907.296C198.615 907.231 198.636 907.221 198.503 907.265C198.694 907.249 198.718 907.243 198.574 907.248C198.762 907.282 198.788 907.282 198.652 907.248C198.817 907.327 198.839 907.333 198.719 907.266C198.852 907.382 198.869 907.393 198.767 907.299C198.677 907.197 198.685 907.213 198.792 907.348C198.758 907.297 198.728 907.244 198.701 907.189C198.922 907.542 198.61 906.877 198.717 907.304C198.665 906.917 198.658 906.858 198.697 907.124C198.699 906.986 198.69 907.006 198.669 907.183C198.704 907.057 198.691 907.067 198.633 907.213C198.658 907.158 198.688 907.106 198.723 907.058C199.029 906.588 198.855 905.901 198.437 905.58C197.977 905.226 197.402 905.282 196.976 905.67Z" fill="white"/>
<path d="M166.991 919.636C166.525 921.077 167.665 922.464 169.034 922.654C170.507 922.858 171.671 921.67 171.755 920.195C171.836 918.758 170.782 917.477 169.389 917.369C168.049 917.264 166.365 918.512 166.481 920.014C166.53 920.646 166.891 921.292 167.538 921.443C168.109 921.577 168.904 921.372 169.162 920.762C169.226 920.612 169.501 919.977 169.303 920.38C169.454 920.074 169.192 920.665 169.315 920.353C169.433 920.245 169.414 920.258 169.258 920.393C169.374 920.33 169.376 920.323 169.265 920.371C169.151 920.415 169.156 920.414 169.28 920.37C169.44 920.331 169.41 920.33 169.19 920.366C169.256 920.361 169.323 920.362 169.389 920.368C169.326 920.361 169.262 920.354 169.199 920.347C169.265 920.357 169.329 920.375 169.392 920.398C169.276 920.372 169.175 920.316 169.09 920.23C168.868 920 169.127 920.163 169.079 920.253C169.002 920.059 168.986 920.037 169.03 920.185C169.012 919.984 169.006 919.938 169.013 920.049C169.017 920.097 169.018 920.146 169.015 920.195C169.052 919.982 169.055 919.953 169.025 920.108C168.988 920.226 168.991 920.231 169.034 920.121C169.083 920.015 169.079 920.016 169.024 920.126C169.151 919.976 169.166 919.956 169.067 920.067C169.224 919.956 169.241 919.941 169.116 920.022C169.188 919.993 169.567 919.943 169.309 919.952C169.614 919.942 169.384 919.964 169.27 919.926C169.428 919.997 169.442 919.997 169.312 919.925C169.438 920.035 169.447 920.04 169.339 919.94C169.257 919.846 169.249 919.838 169.314 919.916C169.378 919.995 169.372 919.985 169.297 919.886C169.227 919.762 169.223 919.776 169.285 919.928C169.251 919.791 169.247 919.8 169.274 919.954C169.177 918.615 167.416 918.32 166.991 919.636Z" fill="white"/>
<path d="M166.654 937.714C166.615 937.765 166.584 937.821 166.559 937.88C166.689 937.747 166.818 937.614 166.947 937.481C166.036 938.056 166.229 939.264 166.841 939.987C167.281 940.508 167.935 940.821 168.603 940.855C170.09 940.93 171.153 939.442 171.073 938.006C171.029 937.228 170.721 936.357 170.035 935.952C169.304 935.521 168.435 935.58 167.7 935.96C166.339 936.664 165.571 938.547 166.604 939.853C167.233 940.648 168.739 940.234 168.908 939.226C168.94 939.036 168.969 938.849 168.969 938.657C168.97 938.428 168.98 938.464 168.94 938.662C168.996 938.383 168.779 938.863 168.935 938.644C169.096 938.419 168.709 938.818 168.98 938.576C169.222 938.36 168.915 938.631 169.003 938.553C169.044 938.526 169.087 938.502 169.131 938.48C168.954 938.552 168.916 938.573 169.018 938.541C169.114 938.513 168.707 938.505 169.015 938.545C169.123 938.546 169.078 938.538 168.879 938.52C168.943 938.536 169.004 938.558 169.064 938.586C168.862 938.465 168.66 938.344 168.459 938.223C168.394 938.146 168.325 938.066 168.419 938.2C168.268 937.985 168.401 938.095 168.408 938.217C168.418 938.411 168.37 937.974 168.404 938.166C168.409 938.195 168.426 938.447 168.418 938.249C168.409 938.053 168.387 938.325 168.382 938.376C168.39 938.294 168.469 938.178 168.392 938.335C168.325 938.473 168.349 938.385 168.416 938.306C168.452 938.281 168.488 938.255 168.525 938.23C168.417 938.293 168.408 938.303 168.499 938.259C168.538 938.252 168.775 938.234 168.653 938.223C168.478 938.208 168.86 938.301 168.692 938.236C168.545 938.178 168.896 938.416 168.663 938.23C168.511 938.109 168.667 938.212 168.673 938.246C168.649 938.222 168.626 938.198 168.603 938.173C168.625 938.207 168.647 938.242 168.67 938.276C168.677 938.184 168.585 938.178 168.667 938.31C168.457 937.976 168.41 937.698 168.039 937.481C168.205 937.703 168.371 937.925 168.536 938.147C168.538 938.178 168.539 938.209 168.54 938.241C168.426 937.225 167.245 936.807 166.654 937.714Z" fill="white"/>
<path d="M230.404 922.776C229.473 923.217 229.108 924.315 229.376 925.304C229.703 926.513 231.064 927.179 232.192 926.776C233.278 926.388 234.082 925.237 233.981 924.037C233.943 923.586 233.812 923.06 233.475 922.741C233.096 922.383 232.664 922.314 232.171 922.281C231.486 922.235 230.676 922.111 230.014 922.305C229.448 922.47 228.967 923.058 228.994 923.684C229.023 924.345 229.412 924.847 230.014 925.063C230.46 925.223 230.971 925.177 231.439 925.185C231.925 925.193 232.381 925.2 232.864 925.124C232.342 924.906 231.821 924.687 231.3 924.469C231.476 924.747 231.257 924.29 231.31 924.46C231.347 924.578 231.302 924.252 231.315 924.177C231.274 924.423 231.397 924.056 231.327 924.194C231.266 924.313 231.164 924.345 231.328 924.225C231.211 924.312 231.278 924.287 231.364 924.226C231.275 924.289 231.145 924.302 231.253 924.3C231.339 924.299 231.562 924.285 231.363 924.254C231.421 924.263 231.697 924.367 231.6 924.307C231.455 924.218 231.841 924.504 231.623 924.315C231.71 924.39 231.699 924.492 231.671 924.356C231.669 924.347 231.53 924.088 231.61 924.265C231.686 924.434 231.593 924.198 231.583 924.155C231.567 924.083 231.552 924.009 231.537 923.938C231.51 923.803 231.51 924.183 231.537 923.928C231.543 923.873 231.529 923.816 231.533 923.761C231.551 923.537 231.478 923.901 231.562 923.692C231.678 923.401 231.503 923.011 231.279 922.839C231.008 922.631 230.704 922.633 230.404 922.776Z" fill="white"/>
<path d="M206.339 931.927C206.195 931.98 206.054 932.036 205.926 932.123C205.737 932.271 205.698 932.303 205.808 932.218C205.709 932.258 205.623 932.32 205.549 932.404C205.263 932.699 205.112 933.164 205.11 933.573C205.107 934.365 205.543 935.108 206.198 935.511C207.757 936.472 209.568 934.885 209.565 933.217C209.561 931.427 207.664 930.259 206.096 930.823C205.384 931.079 204.879 931.55 204.804 932.366C204.746 932.996 204.733 933.742 205.198 934.222C205.738 934.777 206.581 934.781 207.124 934.222C207.589 933.743 207.579 932.996 207.609 932.366C207.378 932.782 207.146 933.198 206.915 933.613C207.108 933.477 207.104 933.566 206.935 933.571C207.088 933.532 207.062 933.529 206.857 933.56C206.907 933.554 206.957 933.552 207.008 933.554C207.127 933.581 206.714 933.476 207.036 933.552C207.082 933.562 207.392 933.659 207.21 933.577C207.112 933.531 207.117 933.538 207.225 933.598C207.028 933.439 207.08 933.479 207.379 933.718C207.29 933.635 207.201 933.552 207.112 933.469C207.059 933.317 207.053 933.312 207.094 933.454C207.087 933.41 207.079 933.366 207.072 933.322C207.065 933.471 207.067 933.464 207.078 933.299C207.068 933.333 207.058 933.368 207.048 933.402C207.107 933.267 207.103 933.263 207.037 933.391C207.115 933.298 207.125 933.285 207.067 933.35C207.006 933.411 207.022 933.405 207.118 933.331C207.013 933.39 207.001 933.403 207.082 933.369C207.165 933.339 207.149 933.343 207.036 933.379C207.138 933.373 207.33 933.429 207.177 933.357C207.225 933.38 207.493 933.539 207.317 933.415C207.484 933.533 207.344 933.443 207.288 933.346C207.415 933.567 207.29 933.342 207.269 933.272C207.261 933.244 207.18 932.92 207.212 933.064C207.232 933.206 207.222 933.134 207.184 932.849C207.15 932.747 207.109 932.65 207.06 932.556C207.101 932.715 207.143 932.873 207.185 933.031C207.187 933.079 207.091 933.235 207.189 933.066C207.508 932.516 206.971 931.691 206.339 931.927Z" fill="white"/>
<path d="M225.131 968.863C225.134 968.799 225.137 968.735 225.139 968.671C225.135 968.702 225.131 968.732 225.127 968.763C225.127 968.793 225.129 968.826 225.131 968.863Z" fill="white"/>
<path d="M225.151 968.234C225.127 968.051 225.102 967.889 225.04 967.717C224.632 966.594 223.569 965.842 222.387 966.184C221.848 966.34 221.464 966.797 221.357 967.333C221.248 967.438 221.159 967.574 221.103 967.742C221.096 967.764 221.083 967.841 221.077 967.878C221.072 967.89 221.069 967.897 221.064 967.911C221.016 967.995 220.992 968.086 220.992 968.183C220.96 968.404 220.989 968.644 221.045 968.861C221.166 969.325 221.527 969.73 221.902 969.994C222.592 970.481 223.5 970.57 224.253 970.186C224.694 969.961 224.993 969.515 225.094 969.02C225.105 968.935 225.116 968.849 225.127 968.763C225.126 968.547 225.181 968.466 225.151 968.234ZM223.079 967.89C223.072 967.886 223.066 967.882 223.059 967.878C223.055 967.875 223.049 967.871 223.043 967.867C223.084 967.89 223.091 967.896 223.079 967.89ZM221.083 967.866C221.084 967.858 221.085 967.852 221.088 967.84C221.129 967.752 221.126 967.764 221.083 967.866Z" fill="white"/>
<path d="M251.351 954.299C251.337 954.054 251.297 953.811 251.21 953.583C251.169 953.482 251.128 953.382 251.087 953.281C251.183 953.474 251.186 953.469 251.098 953.267C251.054 953.161 251.014 953.06 250.954 952.963C250.593 952.377 249.978 951.998 249.302 951.969C248.688 951.942 248.093 952.188 247.645 952.617C247.238 953.009 246.848 953.687 246.917 954.28C246.93 954.393 246.954 954.504 246.984 954.614C246.82 954.939 246.794 955.342 247.007 955.657C247.624 956.572 248.711 957.004 249.767 956.67C250.767 956.355 251.411 955.369 251.351 954.299Z" fill="white"/>
<path d="M263.542 909.051C263.437 909.022 263.329 909.013 263.221 908.998C263.348 909.033 263.474 909.069 263.6 909.104C263.576 909.092 263.554 909.077 263.533 909.06C263.268 908.848 262.868 908.919 262.596 909.06C261.809 909.465 261.676 910.596 262 911.354C262.442 912.389 265.847 910.934 265.819 910.018C265.803 909.473 265.643 908.935 265.319 908.503C264.832 907.854 264.086 907.829 263.352 907.75C262.936 907.705 262.521 907.983 262.281 908.303C261.993 908.687 261.975 909.062 262.037 909.527C261.98 909.099 262.042 909.819 262.025 909.592C262.059 909.421 262.047 909.518 261.991 909.885C262.001 910.061 262.03 910.234 262.077 910.403C262.077 910.201 262.077 909.999 262.077 909.797C262.07 909.835 262.062 909.872 262.054 909.909C261.856 910.883 262.761 911.533 263.601 911.134C263.784 911.047 263.998 910.985 264.166 910.813C264.342 910.632 264.461 910.407 264.556 910.176C264.751 909.7 264.734 909.29 264.666 908.781C264.228 909.373 263.79 909.966 263.352 910.558C263.649 910.59 263.932 910.613 264.232 910.601C263.923 910.469 263.613 910.337 263.304 910.205C263.518 910.443 263.123 909.977 263.311 910.236C263.254 910.157 263.256 910.02 263.276 910.182C263.3 910.301 263.303 910.305 263.285 910.194C263.272 910.081 263.269 910.086 263.276 910.208C263.275 910.239 263.274 910.27 263.272 910.302C263.301 910.127 263.304 910.089 263.284 910.187C263.272 910.372 263.211 910.291 263.304 910.178C263.119 910.403 263.44 910.045 263.322 910.168C263.248 910.245 263.484 910.076 263.538 910.053C263.422 910.083 263.423 910.087 263.539 910.064C263.628 910.04 263.717 910.043 263.807 910.073C263.86 910.097 263.912 910.12 263.965 910.144C263.884 910.091 263.886 910.096 263.971 910.158C264.053 910.226 264.058 910.225 263.987 910.154C264.02 910.196 264.051 910.238 264.084 910.28C264.048 910.228 264.014 910.175 263.978 910.124C263.874 909.978 263.974 910.057 263.98 910.164C263.968 910.13 263.959 910.095 263.952 910.06C263.933 909.976 263.938 910.015 263.967 910.177C263.98 910.132 263.971 910.065 263.973 910.019C263.974 909.964 263.972 909.979 263.966 910.064C263.952 910.224 263.96 910.164 263.993 909.885C263.993 909.726 263.946 909.517 263.858 909.391C263.898 909.541 263.937 909.691 263.976 909.841C263.975 909.818 263.974 909.795 263.972 909.772C263.899 909.954 263.826 910.137 263.752 910.319C263.779 910.286 263.81 910.257 263.844 910.232C264.257 909.888 264.002 909.179 263.542 909.051Z" fill="white"/>
<path d="M296.607 935.586C296.497 934.362 295.577 933.332 294.332 933.384C293.305 933.426 292.31 934.201 292.167 935.223C291.916 935.538 291.802 935.968 291.923 936.373C292.293 937.611 293.564 938.454 294.819 938.165C295.95 937.906 296.713 936.766 296.607 935.586Z" fill="white"/>
<path d="M274.245 943.297C273.419 943.068 272.588 943.321 271.995 943.871C271.745 943.919 271.513 944.067 271.369 944.331C270.757 945.456 271.109 946.944 272.19 947.636C273.373 948.393 274.885 947.808 275.519 946.595C276.18 945.33 275.642 943.685 274.245 943.297Z" fill="white"/>
<path d="M291.541 966.973C291.48 966.777 291.508 966.969 291.517 967.104C291.528 967.281 291.574 967.424 291.643 967.584C291.768 967.876 291.962 968.135 292.172 968.368C292.542 968.778 293.019 969.124 293.542 969.289C294.571 969.614 295.769 969.14 296.275 968.151C296.838 967.048 296.188 965.783 295.12 965.365C293.928 964.898 292.802 965.537 291.948 966.381C290.792 967.524 292.652 969.407 293.694 968.18C293.837 968.011 293.988 967.799 294.176 967.679C294.038 967.767 294.615 967.428 294.53 967.587C294.51 967.626 294.451 967.745 294.423 967.517C294.357 966.978 294.522 967.27 294.283 967.262C294.007 967.253 293.875 967.178 293.655 966.981C293.46 966.807 293.3 966.592 293.092 966.433C292.977 966.315 292.841 966.234 292.685 966.188C292.399 966.153 292.358 966.145 292.561 966.166C292.068 965.795 291.365 966.409 291.541 966.973Z" fill="white"/>
<path d="M294.764 916.142C294.725 916.177 294.689 916.213 294.654 916.252C294.779 916.113 294.587 916.316 294.553 916.351C294.415 916.493 294.335 916.693 294.294 916.887C294.227 917.202 294.225 917.543 294.317 917.853C294.487 918.43 294.921 918.973 295.454 919.229C296.16 919.569 297.059 919.555 297.469 918.764C297.81 918.107 297.715 917.413 297.435 916.758C297.471 917.039 297.506 917.32 297.542 917.601C297.666 917.035 297.522 916.541 297.129 916.132C296.787 915.776 296.377 915.681 295.917 915.635C295.323 915.575 294.807 916.153 294.734 916.711C294.653 917.332 295.02 917.882 295.597 918.072C295.498 918.039 295.381 917.964 295.545 918.06C295.6 918.091 295.657 918.116 295.712 918.147C295.975 918.299 296.215 918.374 296.518 918.404C296.212 918.223 295.906 918.043 295.6 917.862C295.656 917.941 295.7 918.095 295.645 917.882C295.658 917.931 295.665 918.119 295.675 917.971C295.687 917.791 295.578 918.179 295.683 917.865C295.616 918.065 295.784 917.704 295.665 917.905C295.861 917.75 296.056 917.595 296.252 917.44C296.026 917.507 296.392 917.383 296.199 917.452C296.326 917.474 296.335 917.471 296.226 917.445C296.254 917.458 296.281 917.471 296.309 917.485C296.246 917.454 296.112 917.351 296.235 917.457C296.206 917.432 296.037 917.23 296.09 917.31C296.181 917.444 295.981 917.082 296.052 917.233C296.1 917.335 296.009 917.107 296 917.08C295.984 917.014 295.983 917.029 295.996 917.124C295.992 917.085 295.991 917.045 295.994 917.006C295.981 916.799 295.944 916.661 295.855 916.476C295.891 916.614 295.927 916.752 295.964 916.889C295.966 916.796 295.967 916.788 295.966 916.863C296.125 916.127 295.306 915.647 294.764 916.142Z" fill="white"/>
<path d="M319.506 970.988C319.425 970.68 319.276 970.387 319.053 970.133C318.284 969.26 316.861 969.053 315.878 969.663C315.346 969.993 314.985 970.457 314.755 970.988H319.506Z" fill="white"/>
<path d="M203.981 961.188C203.973 961.057 203.946 960.928 203.93 960.797C203.948 960.881 203.937 960.792 203.896 960.529C203.835 960.286 203.698 960.065 203.551 959.868C202.869 958.95 201.733 958.753 200.848 959.506C200.068 960.17 199.835 961.482 200.631 962.24C200.866 962.465 201.203 962.591 201.527 962.568C201.641 962.615 201.758 962.654 201.881 962.683C202.346 962.794 203.017 962.839 203.446 962.58C203.891 962.312 204.009 961.68 203.981 961.188Z" fill="white"/>
<path d="M143.227 956.896C142.763 957.097 142.358 957.404 142.08 957.844C141.957 958.039 141.86 958.258 141.8 958.482C141.717 958.793 141.738 959.06 141.829 959.313C141.833 959.326 141.84 959.342 141.845 959.359C141.849 959.367 141.851 959.376 141.855 959.385C141.905 959.527 141.961 959.668 142.032 959.8C142.037 959.81 142.044 959.817 142.049 959.826C142.027 960.186 142.144 960.553 142.455 960.841C144.401 962.649 147.619 959.71 145.979 957.525C145.328 956.656 144.175 956.483 143.227 956.896Z" fill="white"/>
<path d="M182.189 949.714C181.566 950.128 181.177 950.987 181.353 951.745C181.247 952.354 181.456 953.054 181.885 953.481C182.766 954.359 184.096 953.922 184.616 952.874C185.063 951.975 184.927 950.732 184.218 950.009C183.657 949.436 182.881 949.255 182.189 949.714Z" fill="white"/>
<path d="M207.574 780.868C207.915 781.902 207.928 783.114 207.975 784.202C208.02 785.256 207.975 786.325 207.851 787.372C207.589 789.583 206.945 791.791 206.075 793.826C204.295 797.99 201.581 801.59 198.673 804.976C195.728 808.404 192.593 811.66 189.909 815.318C187.198 819.014 184.856 823.243 184.623 827.97C184.491 830.662 185.029 833.361 185.856 835.903C186.285 837.221 186.794 838.51 187.337 839.781C187.595 840.385 187.856 840.988 188.135 841.582C188.455 842.259 188.895 842.825 189.275 843.466C189.593 844.002 190.526 843.657 190.299 843.021C190.103 842.47 189.992 841.894 189.777 841.352C189.551 840.782 189.289 840.228 189.046 839.665C188.553 838.526 188.093 837.372 187.691 836.196C186.911 833.918 186.342 831.546 186.296 829.121C186.205 824.3 188.571 820.041 191.304 816.298C196.58 809.073 203.803 803.388 207.21 794.83C208.1 792.592 208.714 790.244 208.864 787.825C208.937 786.653 208.893 785.486 208.714 784.326C208.633 783.8 208.549 783.25 208.385 782.745C208.175 782.099 207.852 781.498 207.639 780.849C207.625 780.808 207.56 780.826 207.574 780.868Z" fill="white"/>
<path d="M197.753 792.501C195.925 794.772 193.847 796.831 191.959 799.054C190.097 801.247 188.289 803.491 186.465 805.717C183.23 809.667 179.882 813.608 177.465 818.166C175.268 822.311 173.939 826.985 174.408 831.739C174.632 834.009 175.243 836.236 176.349 838.222C177.335 839.994 178.713 841.481 180.184 842.833C181.811 844.328 183.561 845.683 185.124 847.253C186.647 848.783 187.831 850.544 188.664 852.559C188.775 852.827 189.213 852.69 189.194 852.411C188.931 848.583 185.673 845.886 183.035 843.594C181.583 842.331 180.114 841.065 178.879 839.569C177.489 837.885 176.558 835.877 176.077 833.728C173.847 823.775 180.468 814.986 186.167 807.771C188.126 805.29 190.084 802.81 192.027 800.317C194.009 797.772 195.747 795.022 197.765 792.513C197.773 792.505 197.76 792.491 197.753 792.501Z" fill="white"/>
<path d="M259.842 798.618C261.945 801.925 262.98 806.006 263.864 809.808C264.752 813.63 265.302 817.522 266.1 821.363C267.608 828.63 269.907 836.152 275.552 841.168C276.902 842.367 278.394 843.41 280.021 844.167C281.606 844.904 283.524 845.612 285.271 845.149C285.617 845.058 285.731 844.484 285.377 844.315C283.993 843.653 282.455 843.393 281.051 842.763C279.615 842.119 278.264 841.248 277.058 840.219C274.529 838.059 272.567 835.294 271.123 832.268C267.795 825.297 267.105 817.38 265.056 809.984C264.498 807.968 263.823 806 262.989 804.088C262.134 802.127 261.054 800.367 259.915 798.575C259.885 798.528 259.813 798.571 259.842 798.618Z" fill="white"/>
<path d="M273.669 822.209C273.708 824.65 274.592 826.704 276.049 828.597C277.605 830.619 279.532 832.305 281.368 834.048C285.159 837.647 289.102 841.528 290.842 846.664C291.297 848.008 291.609 849.413 291.684 850.837C291.761 852.288 291.593 853.764 291.485 855.21C291.454 855.627 292.046 855.762 292.233 855.419C293.461 853.171 293.266 850.415 292.712 847.976C292.128 845.403 290.973 842.964 289.493 840.815C286.436 836.376 282.168 833.153 278.431 829.38C276.485 827.415 274.363 825.031 273.834 822.186C273.816 822.09 273.668 822.113 273.669 822.209Z" fill="white"/>
<path d="M297.249 851.516C297.58 852.148 297.476 852.91 297.411 853.584C297.352 854.2 297.271 854.81 297.083 855.401C296.699 856.611 296.014 857.659 295.085 858.495C292.98 860.39 290.241 860.81 287.628 861.48C287.219 861.585 287.331 862.183 287.723 862.208C290.712 862.397 294.316 861.474 296.4 859.128C297.339 858.071 298.038 856.739 298.268 855.319C298.376 854.657 298.435 853.925 298.225 853.276C298.012 852.616 297.578 852.105 297.265 851.507C297.259 851.497 297.244 851.506 297.249 851.516Z" fill="white"/>
<path d="M291.911 823.226C291.426 807.551 286.988 789.815 285.564 786.392C282.184 778.268 276.5 771.484 270.253 765.522C270.206 765.46 270.159 765.397 270.112 765.335C267.435 761.843 264.285 758.751 260.795 756.132C257.334 753.535 253.529 751.434 249.509 749.917C247.335 749.096 245.048 748.341 242.743 748.06C240.177 747.747 237.783 748.497 235.543 749.75C233.367 750.967 231.114 752.421 229.32 754.195C228.082 755.418 226.931 756.994 226.771 758.75C219.74 753.59 209.323 753.682 202.126 758.408C199.708 759.996 197.625 762.051 195.577 764.098C193.335 766.34 176.129 794.379 174.696 797.398C171.807 803.492 168.925 809.59 166.048 815.692C163.434 821.237 194.18 834.007 194.177 830.869C194.172 826.27 199.816 824.863 207.039 810.925C212.468 800.449 212.744 795 213.731 794.298C216.679 798.139 222.105 799.27 226.702 798.702C231.167 798.149 235.612 796.682 239.793 794.776C240.996 795.682 261.472 820.289 263.828 826.928C265.113 830.543 257.559 852.703 272.714 854.008C270.735 857.95 292.273 834.921 291.911 823.226ZM245.378 750.671C239.466 749.952 231.981 752.242 228.279 757.375C229.718 754.547 232.904 752.639 235.487 751.102C237.601 749.844 239.866 748.944 242.347 749.183C244.578 749.398 246.816 750.166 248.915 750.946C251.197 751.793 253.405 752.839 255.519 754.059C252.35 752.347 248.979 751.109 245.378 750.671Z" fill="#FFECDC"/>
<path d="M195.687 842.288C195.672 842.247 195.632 842.219 195.592 842.219L194.999 830.376C195.184 830.359 195.335 830.127 195.299 829.933C194.832 827.394 192.684 824.656 189.962 825.245C187.461 825.787 185.603 828.192 184.725 830.53C183.724 833.194 183.94 836.172 185.012 838.775C186.033 841.254 187.921 843.983 190.425 845.032C191.638 845.54 192.984 845.606 194.163 844.965C195.016 844.501 196.112 843.368 195.687 842.288Z" fill="#FFC7CF"/>
<path d="M193.602 841.815C192.606 841.038 191.494 839.892 191.988 838.818C192.525 837.654 193.515 836.719 193.323 835.429C193.032 833.476 191.396 831.072 189.306 829.732C189.119 829.613 188.768 829.583 188.587 829.732C186.127 831.767 189.518 834.618 189.479 836.854C189.457 838.164 188.884 839.384 189.712 840.644C190.377 841.654 191.66 842.319 193.303 842.312C193.687 842.311 193.84 842.001 193.602 841.815Z" fill="#EB88A1"/>
<path d="M241.803 863.129C241.803 862.201 240.309 862.15 238.489 861.415C237.093 860.85 235.515 859.833 234.139 859.217C233.351 858.865 232.586 859.062 231.988 859.798C231.084 860.911 230.593 860.686 229.796 860.529C229.217 860.415 228.661 860.168 228.136 859.897C227.532 859.585 226.905 859.029 226.205 859.022C225.55 859.015 224.912 859.555 224.348 859.852C223.763 860.159 223.194 860.494 222.607 860.796C221.46 861.388 220.194 861.819 219.248 862.74C219.2 862.787 219.203 862.893 219.27 862.923C221.284 863.809 223.969 863.035 226.023 862.246C227.387 863.13 228.908 863.865 230.55 863.804C231.763 863.759 232.902 863.338 233.781 862.551C234.954 863.045 236.575 863.129 237.795 863.491C239.245 863.921 241.803 863.524 241.803 863.129Z" fill="#EB88A1"/>
<path d="M232.535 868.746C231.692 867.834 230.069 868.252 228.994 868.429C228.58 868.498 226.913 868.633 227.025 869.397C227.163 870.323 228.754 870.537 229.463 870.595C230.511 870.68 232.134 870.67 232.632 869.522C232.749 869.252 232.741 868.968 232.535 868.746Z" fill="#EB88A1"/>
<path d="M243.753 861.35C243.628 861.217 243.437 861.117 243.271 861.22C243.209 861.258 243.157 861.3 243.114 861.351C243.067 861.386 243.024 861.425 242.984 861.472C242.973 861.485 242.967 861.492 242.96 861.5C242.954 861.51 242.944 861.527 242.918 861.565C242.859 861.651 242.807 861.74 242.776 861.843C242.765 861.882 242.764 861.891 242.765 861.891C242.691 862.046 242.606 862.172 242.534 862.311C242.498 862.352 242.462 862.395 242.438 862.437C242.423 862.473 242.409 862.509 242.394 862.545C242.376 862.673 242.372 862.705 242.382 862.639C242.391 862.566 242.378 862.759 242.386 862.789C242.404 862.854 242.444 862.913 242.488 862.962C242.588 863.073 242.727 863.125 242.874 863.122C243.009 863.118 243.144 863.12 243.308 863.049C243.898 862.791 244.335 861.818 243.753 861.35Z" fill="#EB88A1"/>
<path d="M242.96 862.535C242.982 862.496 242.892 862.612 242.96 862.535Z" fill="#EB88A1"/>
<path d="M217.676 861.808C217.591 861.655 217.49 861.496 217.375 861.367C217.256 861.234 217.066 861.135 216.915 861.039C216.597 860.836 216.167 860.885 215.879 861.114C215.575 861.356 215.462 861.74 215.545 862.124C215.578 862.273 215.607 862.413 215.665 862.554C215.748 862.758 215.9 862.938 216.04 863.108C216.237 863.349 216.549 863.476 216.85 863.49C217.041 863.498 217.196 863.441 217.37 863.36C217.308 863.389 217.245 863.417 217.183 863.445C217.291 863.418 217.386 863.367 217.466 863.291C217.512 863.255 217.622 863.118 217.662 863.07C217.727 862.977 217.779 862.885 217.814 862.752C217.9 862.425 217.838 862.096 217.676 861.808Z" fill="#EB88A1"/>
<path d="M217.663 864.104C217.632 864.149 217.6 864.193 217.563 864.242C217.683 864.082 217.694 864.066 217.663 864.104Z" fill="#EB88A1"/>
<path d="M226.2 852.521C228.697 853.715 231.641 853.882 234.249 852.976L226.2 852.521Z" fill="#002C6B"/>
<path d="M226.058 852.663C227.191 853.598 228.748 853.983 230.183 854.119C231.43 854.238 233.649 854.322 234.499 853.226C234.658 853.021 234.622 852.715 234.343 852.635C233.794 852.476 233.303 852.631 232.751 852.726C232.018 852.853 231.271 852.942 230.526 852.953C229.046 852.976 227.691 852.572 226.253 852.327C226.079 852.298 225.887 852.521 226.058 852.663Z" fill="#002C6B"/>
<path d="M257.109 832.122C256.181 832.277 255.212 832.401 254.27 832.461C254.412 832.243 254.516 832.001 254.567 831.733C254.609 831.514 254.509 831.298 254.291 831.232C253.024 830.848 251.61 831.815 250.435 832.216C249.059 832.686 247.632 832.967 246.188 833.082C244.755 833.197 243.319 833.108 241.893 832.942C240.605 832.793 239.217 832.259 237.921 832.5C237.848 832.513 237.819 832.611 237.854 832.671C238.584 833.949 240.332 834.494 241.641 834.86C242.72 835.16 243.845 835.298 244.967 835.325C246.049 836.911 248.103 838.372 249.806 838.312C249.967 838.306 250.122 838.103 250.009 837.947C249.398 837.105 248.529 836.559 247.691 835.986C247.369 835.766 247.052 835.523 246.733 835.28C246.947 835.264 247.16 835.243 247.373 835.218C248.068 836.013 249.069 836.536 250.028 836.902C250.926 837.244 252.225 837.774 253.132 837.251C253.188 837.219 253.203 837.129 253.153 837.084C252.462 836.452 251.399 836.397 250.577 835.98C250.012 835.693 249.513 835.316 249.014 834.942C249.044 834.935 249.075 834.93 249.105 834.923C249.969 835.439 251.081 835.642 252.001 835.782C253.34 835.986 254.524 835.878 255.766 835.303C255.935 835.225 255.889 834.932 255.715 834.895C254.536 834.647 253.373 834.544 252.181 834.409C251.904 834.377 251.623 834.325 251.34 834.265C251.737 834.125 252.179 833.961 252.607 833.757C254.093 834.35 256.145 833.446 257.298 832.583C257.526 832.412 257.387 832.076 257.109 832.122Z" fill="#002C6B"/>
<path d="M201.9 832.122C202.828 832.277 203.798 832.401 204.739 832.461C204.597 832.243 204.493 832.001 204.442 831.733C204.4 831.514 204.501 831.298 204.718 831.232C205.986 830.848 207.399 831.815 208.575 832.216C209.95 832.686 211.378 832.967 212.822 833.082C214.254 833.197 215.691 833.108 217.116 832.942C218.404 832.793 219.793 832.259 221.088 832.5C221.161 832.513 221.19 832.611 221.156 832.671C220.425 833.949 218.678 834.494 217.368 834.86C216.289 835.16 215.165 835.298 214.042 835.325C212.96 836.911 210.906 838.372 209.204 838.312C209.043 838.306 208.887 838.103 209 837.947C209.612 837.105 210.481 836.559 211.318 835.986C211.64 835.766 211.957 835.523 212.276 835.28C212.063 835.264 211.85 835.243 211.637 835.218C210.942 836.013 209.941 836.536 208.982 836.902C208.083 837.244 206.784 837.774 205.877 837.251C205.822 837.219 205.807 837.129 205.856 837.084C206.548 836.452 207.611 836.397 208.433 835.98C208.998 835.693 209.496 835.316 209.996 834.942C209.966 834.935 209.935 834.93 209.905 834.923C209.041 835.439 207.929 835.642 207.008 835.782C205.669 835.986 204.485 835.878 203.243 835.303C203.075 835.225 203.12 834.932 203.295 834.895C204.473 834.647 205.636 834.544 206.828 834.409C207.106 834.377 207.387 834.325 207.669 834.265C207.273 834.125 206.831 833.961 206.403 833.757C204.916 834.35 202.865 833.446 201.712 832.583C201.483 832.412 201.622 832.076 201.9 832.122Z" fill="#002C6B"/>
<path d="M319.358 844.842C316.523 837.391 315.31 829.41 316.028 821.459C316.056 821.154 315.562 821.09 315.495 821.387C314.031 827.849 314.007 834.769 315.79 841.178C317.545 847.486 321.202 853.369 321.826 859.972C322.962 871.99 312.907 881.681 302.573 885.811C295.829 888.506 288.518 889.624 281.359 890.609C281.186 890.633 281.227 890.923 281.401 890.914C293.879 890.26 307.539 888.153 316.684 878.793C320.634 874.75 323.432 869.449 324.046 863.799C324.778 857.06 321.684 850.955 319.358 844.842Z" fill="white"/>
<path d="M360.109 756.72C359.635 754.924 358.61 752.415 356.919 751.46C356.54 751.246 355.891 751.508 355.956 752.013C356.17 753.678 357.114 755.298 357.587 756.921C358.098 758.677 358.419 760.422 358.445 762.256C358.496 765.948 357.555 769.61 355.781 772.843C352.198 779.377 346.012 783.61 339.438 786.744C335.919 788.421 332.441 790.102 330.446 793.62C330.373 793.749 330.56 793.909 330.66 793.785C333.044 790.819 336.808 789.228 340.211 787.755C343.701 786.244 347.035 784.507 350.047 782.164C356.041 777.501 360.393 770.788 360.763 763.06C360.865 760.937 360.652 758.776 360.109 756.72Z" fill="white"/>
<path d="M143.824 824.516C140.468 814.899 128.631 813.699 121.113 808.716C113.545 803.698 108.87 794.863 109.006 785.789C109.086 780.388 110.657 774.888 113.405 770.236C113.513 770.053 113.241 769.825 113.1 770.001C110.071 773.776 108.178 778.148 107.557 782.963C106.949 787.676 107.546 792.553 109.31 796.967C110.978 801.142 113.565 804.94 116.899 807.964C120.688 811.401 125.281 813.353 129.894 815.415C132.382 816.528 134.856 817.705 137.088 819.284C139.222 820.794 141.376 822.744 142.795 824.95C143.124 825.461 144.043 825.146 143.824 824.516Z" fill="white"/>
<path d="M185.147 884.33C177.508 877.162 166.053 879.043 156.527 877.217C151.628 876.277 146.811 874.289 143.736 870.181C140.671 866.086 139.725 860.844 140.107 855.83C140.338 852.809 141.18 849.942 142.371 847.17C143.683 844.119 144.852 841.125 144.259 837.746C144.24 837.637 144.068 837.665 144.069 837.772C144.082 841.098 142.149 844.136 140.804 847.073C139.706 849.471 138.893 851.958 138.506 854.572C137.757 859.625 138.458 864.993 141.031 869.462C146.576 879.094 158.139 879.546 167.978 880.45C170.9 880.718 173.823 881.036 176.676 881.75C179.519 882.461 182.334 883.191 184.912 884.634C185.1 884.74 185.312 884.484 185.147 884.33Z" fill="white"/>
<path d="M186.375 871.166C181.961 867.488 176.602 865.356 171.565 862.702C166.34 859.948 161.95 856.355 159.36 850.94C156.934 845.866 156.258 839.936 157.235 834.416C158.417 827.732 161.634 821.243 165.767 815.896C166.077 815.494 165.571 814.935 165.19 815.32C160.899 819.657 157.488 824.734 155.779 830.643C154.152 836.267 154.002 842.339 155.717 847.962C157.418 853.537 160.786 858.301 165.535 861.683C170.433 865.171 176.186 867.033 181.419 869.91C186.93 872.94 192.46 877.663 193.226 884.302C193.237 884.399 193.378 884.405 193.381 884.302C193.545 878.936 190.347 874.476 186.375 871.166Z" fill="white"/>
<path d="M306.136 837.131C305.179 833.766 303.654 830.294 301.616 827.441C299.469 824.435 297.128 821.571 295.047 818.518C290.701 812.145 288.222 804.778 288.291 797.026C288.329 792.697 289.023 788.388 290.495 784.313C290.583 784.068 290.178 783.893 290.069 784.134C286.886 791.173 286.152 798.95 287.791 806.493C288.611 810.264 290.081 813.858 292.058 817.169C294.038 820.484 296.435 823.519 298.71 826.63C301.228 830.073 303.951 833.391 305.71 837.31C305.82 837.554 306.207 837.38 306.136 837.131Z" fill="white"/>
<path d="M283.377 870.468C281.864 871.636 280.293 872.707 278.785 873.881C277.176 875.134 275.501 876.28 273.81 877.417C272.206 878.495 270.608 879.568 268.942 880.549C267.241 881.55 265.402 882.418 263.919 883.732C263.416 884.178 263.965 884.874 264.524 884.77C266.42 884.418 268.173 883.383 269.824 882.417C271.587 881.385 273.351 880.301 274.991 879.079C276.552 877.916 278.053 876.662 279.505 875.367C281.063 873.977 282.351 872.456 283.659 870.834C283.809 870.648 283.604 870.292 283.377 870.468Z" fill="white"/>
<path d="M100.323 734.158C94.8509 726.333 87.5524 720.054 81.0581 713.122C74.8728 706.521 69.7775 699.23 66.8 690.63C64.0394 682.657 62.9771 674.049 63.5697 665.637C64.2528 655.943 67.2919 646.864 72.1066 638.46C72.2082 638.283 71.9543 638.146 71.8384 638.304C66.871 645.067 63.8257 653.422 62.5369 661.676C61.2413 669.974 61.5973 678.44 63.7039 686.575C65.897 695.046 69.9451 702.788 75.4899 709.54C81.6047 716.986 89.0188 723.228 95.2558 730.564C102.131 738.649 107.445 748.468 107.364 759.339C107.363 759.488 107.601 759.529 107.631 759.375C109.349 750.3 105.437 741.472 100.323 734.158Z" fill="white"/>
<path d="M78.0805 633.139C75.1886 637.068 72.9834 641.421 71.6435 646.116C70.3531 650.637 69.5563 655.563 70.2235 660.256C70.2686 660.574 70.7393 660.472 70.7572 660.184C71.0517 655.45 71.3487 650.8 72.6505 646.208C73.9372 641.67 75.8362 637.29 78.3487 633.296C78.4573 633.123 78.1964 632.982 78.0805 633.139Z" fill="white"/>
<path d="M391.279 639.045C391.165 638.5 390.33 638.637 390.326 639.174C390.253 648.421 389.656 657.628 386.909 666.512C384.141 675.462 379.6 683.644 373.706 690.904C367.859 698.107 360.92 704.349 355.184 711.655C350.11 718.118 346.188 725.338 344.787 733.512C343.425 741.459 344.474 751.095 350.948 756.67C351.056 756.763 351.261 756.636 351.161 756.505C348.859 753.515 347.012 750.24 346.12 746.552C345.198 742.737 345.134 738.717 345.695 734.843C346.904 726.484 350.835 719.051 356.014 712.485C361.683 705.296 368.354 698.954 374.374 692.067C380.353 685.227 385.216 677.651 388.273 669.061C389.99 664.238 391.154 659.252 391.76 654.17C392.064 651.626 392.226 649.064 392.242 646.502C392.258 643.996 391.791 641.489 391.279 639.045Z" fill="white"/>
<path d="M374.638 633.157C373.911 627.876 372.487 622.812 370.347 617.93C370.277 617.77 370.006 617.884 370.063 618.049C376.169 635.601 374.914 655.437 366.183 671.893C363.74 676.498 360.835 680.825 357.73 685.005C357.377 685.48 358.121 685.992 358.523 685.616C365.469 679.118 369.886 670.201 372.52 661.161C375.16 652.1 375.924 642.511 374.638 633.157Z" fill="white"/>
<path d="M370.512 755.397C367.428 748.411 362.757 741.175 363.641 733.195C363.658 733.039 363.417 733.018 363.374 733.159C361.128 740.651 364.635 747.907 367.721 754.604C369.248 757.917 370.374 761.268 371.221 764.811C372.079 768.404 372.021 771.807 370.769 775.291C370.659 775.598 371.1 775.738 371.265 775.501C375.505 769.418 373.227 761.547 370.512 755.397Z" fill="white"/>
<path d="M316.529 800.515C314.983 803.981 314.415 807.655 315.276 811.388C315.341 811.668 315.771 811.603 315.772 811.321C315.779 807.756 316.012 804.127 316.848 800.65C316.892 800.467 316.613 800.327 316.529 800.515Z" fill="white"/>
<path d="M383.774 615.848C382.898 613.835 381.799 611.968 380.488 610.208C377.943 606.793 374.84 603.943 371.031 602.007C370.81 601.894 370.532 602.197 370.749 602.373C373.884 604.912 376.802 607.872 379.049 611.233C380.138 612.862 381.1 614.599 381.933 616.373C382.785 618.187 383.26 620.328 384.373 622.002C384.652 622.423 385.226 622.231 385.277 621.757C385.489 619.76 384.551 617.634 383.774 615.848Z" fill="white"/>
<path d="M150.536 839.64C151.088 836.927 151.402 834.142 151.125 831.377C151.111 831.231 150.888 831.224 150.893 831.377C151.081 837.363 147.866 842.827 146.536 848.543C145.481 853.079 145.171 858.696 148.859 862.177C149.198 862.497 149.715 862.094 149.499 861.683C147.187 857.298 147.264 852.288 148.408 847.564C149.052 844.903 149.99 842.325 150.536 839.64Z" fill="white"/>
<path d="M308.12 850.927C308.07 850.835 307.948 850.886 307.939 850.975C307.849 851.896 307.958 852.828 307.888 853.755C307.818 854.68 307.651 855.593 307.401 856.486C306.896 858.289 306.257 859.983 305.235 861.563C303.231 864.661 300.202 866.93 296.888 868.487C296.531 868.655 296.696 869.287 297.094 869.247C301.258 868.824 304.641 865.966 306.699 862.419C307.684 860.721 308.485 858.763 308.723 856.804C308.943 854.988 309.029 852.583 308.12 850.927Z" fill="white"/>
<path d="M272.398 859.807C267.572 861.67 263.251 865.197 259.947 869.126C257.107 872.503 252.662 877.912 254.818 882.616C254.874 882.739 255.078 882.677 255.071 882.547C254.802 877.613 258.58 873.136 261.771 869.744C263.372 868.041 265.072 866.451 266.86 864.948C268.74 863.368 270.728 861.991 272.713 860.552C273.053 860.304 272.865 859.627 272.398 859.807Z" fill="white"/>
<path d="M316.52 776.783C316.37 776.783 316.37 777.016 316.52 777.016C316.67 777.016 316.67 776.783 316.52 776.783Z" fill="white"/>
<path d="M314.841 777.473C313.417 777.473 313.415 779.685 314.841 779.685C316.264 779.686 316.266 777.473 314.841 777.473Z" fill="white"/>
<path d="M329.955 760.912C328.831 760.912 328.829 762.659 329.955 762.659C331.079 762.659 331.081 760.912 329.955 760.912Z" fill="white"/>
<path d="M346.748 765.543C345.1 765.543 345.097 768.105 346.748 768.105C348.397 768.105 348.4 765.543 346.748 765.543Z" fill="white"/>
<path d="M111.385 711.239C110.938 710.977 110.34 711.057 109.974 711.421C109.834 711.56 109.698 711.706 109.546 711.833C109.319 712.021 109.32 712.468 109.546 712.656C109.698 712.782 109.834 712.928 109.974 713.068C110.308 713.4 110.817 713.489 111.246 713.308C111.654 713.136 111.982 712.706 111.962 712.244C111.944 711.838 111.743 711.448 111.385 711.239Z" fill="white"/>
<path d="M134.309 793.699C133.235 793.699 133.233 795.368 134.309 795.368C135.382 795.368 135.384 793.699 134.309 793.699Z" fill="white"/>
<path d="M292.221 871.732C291.664 871.175 290.627 871.267 290.24 871.987C290.127 872.197 290.006 872.404 289.913 872.624C289.827 872.828 289.801 873.046 289.76 873.263C289.649 873.854 290.1 874.304 290.691 874.194C290.907 874.153 291.126 874.126 291.33 874.04C291.549 873.948 291.756 873.826 291.966 873.713C292.687 873.326 292.779 872.289 292.221 871.732Z" fill="white"/>
<path d="M267.694 891.553C267.575 891.487 267.458 891.417 267.336 891.357C267.066 891.226 266.836 891.247 266.577 891.379C266.519 891.409 266.463 891.442 266.406 891.474C266.248 891.562 266.115 891.637 265.977 891.775C265.42 892.331 265.458 893.212 265.977 893.778C266.232 894.056 266.612 894.177 266.978 894.193C267.356 894.21 267.71 894.026 267.98 893.778C268.646 893.166 268.467 891.983 267.694 891.553Z" fill="white"/>
<path d="M390.412 601.955C390.037 601.955 390.037 602.537 390.412 602.537C390.787 602.537 390.787 601.955 390.412 601.955Z" fill="white"/>
<path d="M399.036 613.521C397.937 613.521 397.935 615.228 399.036 615.228C400.135 615.228 400.136 613.521 399.036 613.521Z" fill="white"/>
<path d="M147.743 760.602C146.22 760.602 146.217 762.969 147.743 762.969C149.267 762.97 149.269 760.602 147.743 760.602Z" fill="white"/>
<path d="M104.176 800.153C104.115 799.969 104.063 799.767 103.972 799.596C103.911 799.481 103.822 799.381 103.743 799.278C103.459 798.908 103.021 798.908 102.737 799.278C102.658 799.382 102.572 799.482 102.508 799.596C102.415 799.765 102.365 799.971 102.304 800.153C102.102 800.758 102.637 801.382 103.24 801.382C103.844 801.381 104.378 800.757 104.176 800.153Z" fill="white"/>
<path d="M134.308 756.01C133.359 756.01 133.358 757.485 134.308 757.485C135.257 757.485 135.259 756.01 134.308 756.01Z" fill="white"/>
<path d="M197.285 867.455C196.036 867.455 196.034 869.396 197.285 869.396C198.533 869.396 198.535 867.455 197.285 867.455Z" fill="white"/>
<path d="M364.221 719.801C364.186 719.449 363.934 719.105 363.542 719.122C363.144 719.14 362.901 719.422 362.863 719.801C362.83 720.129 362.735 720.519 362.831 720.837C363.042 721.538 364.042 721.539 364.253 720.837C364.349 720.519 364.254 720.128 364.221 719.801Z" fill="white"/>
<path d="M337.037 692.164C335.614 692.164 335.611 694.376 337.037 694.376C338.461 694.376 338.463 692.164 337.037 692.164Z" fill="white"/>
<path d="M113.452 685.704C113.411 685.35 113.29 685.062 113.119 684.839C113.108 684.812 113.097 684.786 113.085 684.759C112.723 683.907 111.203 683.907 110.84 684.759C110.829 684.785 110.818 684.811 110.807 684.837C110.636 685.06 110.515 685.349 110.473 685.704C110.454 685.781 110.448 685.858 110.457 685.935C110.526 686.954 111.23 687.388 111.936 687.369C112.659 687.415 113.397 686.987 113.468 685.935C113.477 685.858 113.471 685.781 113.452 685.704Z" fill="white"/>
<path d="M78.8892 678.681C77.8402 678.681 77.8384 680.312 78.8892 680.312C79.9381 680.312 79.9398 678.681 78.8892 678.681Z" fill="white"/>
<path d="M103.768 633.245C103.51 633.412 103.273 633.586 103.055 633.804C102.796 634.063 102.795 634.504 103.055 634.764C103.273 634.982 103.51 635.156 103.768 635.323C104.545 635.826 105.578 635.165 105.578 634.284C105.578 633.403 104.545 632.742 103.768 633.245Z" fill="white"/>
<path d="M184.036 779.588L178.121 781.201C177.456 780.902 169.036 777.168 167.654 779.383C167.514 779.607 167.498 779.829 167.606 780.042C168.268 781.346 173.778 781.94 175.485 782.093C173.71 782.61 167.631 784.517 166.597 786.648C166.413 787.028 166.396 787.399 166.547 787.753C166.65 787.994 166.836 788.149 167.101 788.214C169.04 788.692 174.966 784.074 176.307 783.002C175.692 784.596 173.451 790.6 174.255 791.424C174.334 791.504 174.48 791.581 174.729 791.49C176.573 790.813 178.18 782.616 178.338 781.788L184.242 780.177L184.036 779.588Z" fill="#4DBCC0"/>
<path d="M348.815 706.159C348.784 705.863 348.644 705.655 348.4 705.541C346.908 704.841 341.607 708.135 339.985 709.183C341.202 707.493 345.276 701.586 344.716 698.977C344.616 698.513 344.373 698.171 343.994 697.961C343.736 697.819 343.463 697.81 343.182 697.936C341.13 698.856 339.072 707.065 338.625 708.946C338.066 707.105 335.892 700.221 334.606 700.048C334.481 700.031 334.297 700.064 334.14 700.317C332.973 702.197 337.23 710.588 337.664 711.432L333.54 716.955L334.131 717.336L338.263 711.803C339.061 711.607 349.125 709.083 348.815 706.159Z" fill="#4DBCC0"/>
<path d="M363.471 848.351C363.44 848.055 363.3 847.847 363.056 847.733C361.563 847.034 356.263 850.328 354.641 851.375C355.858 849.685 359.932 843.778 359.372 841.17C359.272 840.705 359.029 840.363 358.65 840.154C358.392 840.011 358.119 840.002 357.838 840.128C355.786 841.049 353.728 849.257 353.281 851.138C352.722 849.297 350.548 842.413 349.262 842.24C349.137 842.223 348.954 842.256 348.796 842.509C347.629 844.389 351.886 852.78 352.32 853.624L348.196 859.147L348.787 859.528L352.919 853.995C353.717 853.8 363.781 851.275 363.471 848.351Z" fill="#3AB0C2"/>
<path d="M121.285 905.615L117.153 900.082L116.562 900.463L120.686 905.986C120.252 906.83 115.995 915.221 117.162 917.101C117.32 917.354 117.503 917.387 117.628 917.37C118.914 917.197 121.088 910.313 121.647 908.472C122.094 910.353 124.152 918.562 126.204 919.482C126.485 919.608 126.758 919.599 127.016 919.456C127.395 919.247 127.638 918.905 127.738 918.44C128.298 915.832 124.224 909.925 123.007 908.235C124.629 909.283 129.929 912.576 131.422 911.877C131.666 911.763 131.806 911.555 131.837 911.259C132.147 908.335 122.084 905.811 121.285 905.615Z" fill="#3AB0C2"/>
<path d="M113.644 722.739L109.512 717.206L108.92 717.587L113.045 723.11C112.611 723.954 108.354 732.345 109.521 734.225C109.678 734.478 109.861 734.511 109.987 734.494C111.272 734.321 113.447 727.437 114.006 725.596C114.453 727.477 116.511 735.686 118.563 736.606C118.844 736.732 119.117 736.723 119.375 736.58C119.754 736.371 119.997 736.029 120.097 735.564C120.657 732.956 116.583 727.049 115.366 725.359C116.988 726.407 122.288 729.701 123.781 729.001C124.025 728.887 124.165 728.679 124.196 728.383C124.506 725.459 114.442 722.935 113.644 722.739Z" fill="#4DBCC0"/>
<path d="M138.745 642.682C135.188 640.062 132.76 647.361 132.76 647.361C132.76 647.361 128.449 640.715 126.398 643.896C124.347 647.077 132.476 653.062 132.476 653.062C132.476 653.062 142.303 645.302 138.745 642.682Z" fill="#FF8341"/>
<path d="M283.728 763.4L290.145 763.475C290.145 763.475 294.465 754.828 296.567 754.672C298.67 754.516 292.211 762.961 292.211 762.961C292.211 762.961 303.363 758.157 303.688 760.752C304.09 763.953 292.551 763.801 292.551 763.801C292.551 763.801 301.939 767.247 300.171 768.845C298.125 770.695 290.172 763.944 290.172 763.944L283.755 763.869L283.728 763.4Z" fill="#4DBCC0"/>
<path d="M283.666 763.962L283.628 763.304L290.087 763.38C290.487 762.585 294.493 754.73 296.561 754.577C296.839 754.557 296.965 754.677 297.022 754.782C297.6 755.851 293.586 761.296 292.501 762.736C294.172 762.036 301.524 759.065 303.354 760.112C303.604 760.255 303.748 760.466 303.782 760.74C303.833 761.143 303.708 761.516 303.411 761.848C301.745 763.711 295.023 763.886 293.072 763.896C294.76 764.547 300.18 766.744 300.474 768.26C300.522 768.508 300.442 768.728 300.235 768.915C298.191 770.764 290.726 764.535 290.137 764.039L283.666 763.962ZM283.828 763.496L283.844 763.776L290.207 763.85L290.233 763.872C290.312 763.939 298.146 770.549 300.108 768.775C300.264 768.633 300.323 768.477 300.288 768.296C299.968 766.642 292.593 763.917 292.519 763.89L292 763.699L292.552 763.706C292.641 763.708 301.413 763.798 303.27 761.722C303.533 761.429 303.639 761.115 303.595 760.764C303.568 760.549 303.458 760.389 303.26 760.276C301.317 759.164 292.339 763.009 292.249 763.048L291.916 763.191L292.136 762.903C293.613 760.973 297.339 755.766 296.855 754.872C296.839 754.842 296.789 754.75 296.575 754.766C294.549 754.916 290.272 763.432 290.23 763.517L290.203 763.57L283.828 763.496Z" fill="#4DBCC0"/>
<path d="M308.011 749.009C305.441 746.947 297.786 754.706 301.699 760.577C305.612 766.448 316.599 762.873 315.617 759.524C315.231 758.206 310.874 759.359 310.307 758.108C309.672 756.705 313.939 753.835 313.039 752.586C312.256 751.5 308.715 754.231 307.734 753.32C306.943 752.584 308.853 749.685 308.011 749.009Z" fill="#FF8341"/>
<path d="M305.881 752.677C304.224 751.299 299.114 756.703 301.602 760.669C304.09 764.635 311.33 762.051 310.729 759.773C310.492 758.876 307.625 759.72 307.27 758.871C306.871 757.92 309.702 755.903 309.128 755.06C308.629 754.327 306.276 756.24 305.645 755.629C305.137 755.136 306.424 753.128 305.881 752.677Z" fill="#FDA183"/>
<path d="M305.697 752.919C305.653 753.025 305.604 753.127 305.555 753.229C305.505 753.331 305.453 753.431 305.401 753.53C305.296 753.729 305.185 753.924 305.071 754.116C304.843 754.501 304.599 754.874 304.345 755.239C304.091 755.603 303.825 755.959 303.544 756.304C303.403 756.476 303.26 756.646 303.11 756.812C303.035 756.895 302.96 756.977 302.882 757.057C302.804 757.138 302.725 757.217 302.642 757.294C302.686 757.188 302.734 757.085 302.784 756.983C302.833 756.881 302.885 756.781 302.938 756.682C303.043 756.483 303.154 756.288 303.267 756.096C303.496 755.711 303.739 755.338 303.994 754.974C304.249 754.61 304.514 754.253 304.795 753.909C304.936 753.736 305.08 753.567 305.229 753.401C305.304 753.318 305.379 753.236 305.457 753.155C305.535 753.075 305.614 752.995 305.697 752.919Z" fill="#FF8341"/>
<path d="M307.791 756.061C307.717 756.147 307.64 756.228 307.561 756.309C307.483 756.389 307.404 756.467 307.324 756.544C307.164 756.698 307 756.846 306.833 756.991C306.501 757.28 306.158 757.552 305.807 757.814C305.456 758.074 305.098 758.323 304.728 758.555C304.544 758.672 304.357 758.784 304.166 758.891C304.07 758.944 303.974 758.996 303.877 759.047C303.78 759.097 303.681 759.145 303.58 759.19C303.654 759.103 303.731 759.022 303.809 758.942C303.887 758.861 303.966 758.783 304.046 758.706C304.207 758.552 304.371 758.404 304.537 758.259C304.869 757.97 305.212 757.698 305.563 757.437C305.915 757.177 306.273 756.928 306.642 756.696C306.827 756.58 307.014 756.467 307.205 756.36C307.3 756.307 307.396 756.254 307.494 756.204C307.591 756.154 307.69 756.105 307.791 756.061Z" fill="#FF8341"/>
<path d="M309.767 759.856C309.666 759.899 309.564 759.937 309.462 759.974C309.359 760.011 309.257 760.044 309.154 760.077C308.949 760.142 308.742 760.2 308.536 760.254C308.122 760.362 307.707 760.449 307.289 760.522C306.872 760.595 306.452 760.653 306.031 760.691C305.82 760.71 305.609 760.725 305.397 760.733C305.291 760.736 305.185 760.739 305.078 760.739C304.972 760.738 304.865 760.737 304.758 760.729C304.859 760.685 304.962 760.647 305.064 760.61C305.166 760.574 305.269 760.54 305.371 760.507C305.577 760.442 305.783 760.384 305.99 760.33C306.403 760.223 306.819 760.135 307.236 760.062C307.654 759.99 308.073 759.932 308.494 759.894C308.705 759.875 308.916 759.86 309.128 759.852C309.234 759.849 309.34 759.846 309.447 759.846C309.554 759.846 309.66 759.848 309.767 759.856Z" fill="#FF8341"/>
<path d="M310.903 750.861C310.77 751.22 310.391 751.409 310.056 751.285C309.722 751.16 309.559 750.769 309.692 750.41C309.826 750.052 310.205 749.862 310.54 749.986C310.874 750.111 311.037 750.503 310.903 750.861Z" fill="#FDCA52"/>
<path d="M313.755 756.784C313.898 756.401 313.724 755.983 313.367 755.85C313.01 755.717 312.605 755.92 312.462 756.302C312.32 756.685 312.494 757.103 312.851 757.236C313.208 757.369 313.613 757.167 313.755 756.784Z" fill="#FDCA52"/>
<path d="M315.226 752.746C315.069 753.166 314.626 753.388 314.235 753.242C313.844 753.096 313.653 752.638 313.809 752.219C313.966 751.8 314.409 751.578 314.8 751.724C315.191 751.869 315.382 752.327 315.226 752.746Z" fill="#FDCA52"/>
<path d="M312.677 751.684C312.631 751.806 312.503 751.87 312.39 751.828C312.276 751.786 312.221 751.653 312.266 751.532C312.312 751.41 312.44 751.346 312.553 751.388C312.667 751.43 312.722 751.563 312.677 751.684Z" fill="#FDCA52"/>
<path d="M313.462 754.533C313.417 754.654 313.288 754.719 313.175 754.676C313.062 754.634 313.006 754.501 313.052 754.38C313.097 754.258 313.226 754.194 313.339 754.236C313.452 754.278 313.507 754.411 313.462 754.533Z" fill="#FDCA52"/>
<path d="M316.012 750.446C315.94 750.64 315.734 750.743 315.553 750.676C315.372 750.608 315.283 750.396 315.356 750.201C315.428 750.007 315.634 749.904 315.815 749.971C315.996 750.039 316.085 750.251 316.012 750.446Z" fill="#FDCA52"/>
<path d="M311.896 757.608C311.86 757.705 311.757 757.757 311.667 757.723C311.576 757.689 311.532 757.583 311.568 757.486C311.604 757.389 311.707 757.337 311.798 757.371C311.888 757.404 311.933 757.511 311.896 757.608Z" fill="#FDCA52"/>
<path d="M309.164 751.955C309.11 752.101 308.955 752.178 308.819 752.127C308.683 752.076 308.617 751.917 308.671 751.771C308.726 751.626 308.88 751.548 309.016 751.599C309.152 751.65 309.218 751.809 309.164 751.955Z" fill="#FDCA52"/>
<path d="M313.43 749.535C313.367 749.705 313.187 749.795 313.028 749.736C312.87 749.677 312.792 749.491 312.856 749.321C312.919 749.15 313.099 749.06 313.258 749.12C313.416 749.179 313.494 749.364 313.43 749.535Z" fill="#FDCA52"/>
<path d="M139.562 792.798C139.562 792.798 133.208 794.768 134.444 791.02C136.358 785.215 139.668 792.253 139.668 792.253C139.668 792.253 136.861 786.221 140.279 786.661C144.867 787.252 140.273 792.225 140.273 792.225C140.273 792.225 145.024 786.364 146.055 791.218C146.831 794.872 140.643 793.078 140.643 793.078C140.643 793.078 146.965 794.92 143.663 797.367C139.904 800.153 139.929 793.585 139.929 793.585C139.929 793.585 139.437 800.307 136.21 797.24C132.877 794.073 139.562 792.798 139.562 792.798Z" fill="#F3B6CF"/>
<path d="M140.826 792.734C140.843 793.101 140.559 793.413 140.191 793.43C139.824 793.447 139.512 793.163 139.495 792.795C139.478 792.428 139.762 792.116 140.13 792.099C140.497 792.082 140.808 792.366 140.826 792.734Z" fill="#FC8645"/>
<path d="M143.462 791.584C143.416 791.612 143.37 791.638 143.323 791.663C143.277 791.688 143.229 791.712 143.182 791.736C143.087 791.783 142.992 791.826 142.895 791.868C142.702 791.951 142.506 792.025 142.308 792.093C142.11 792.16 141.909 792.221 141.706 792.273C141.604 792.299 141.502 792.323 141.398 792.344C141.346 792.354 141.294 792.364 141.242 792.372C141.19 792.381 141.137 792.388 141.083 792.394C141.129 792.365 141.175 792.339 141.222 792.314C141.269 792.289 141.316 792.265 141.363 792.241C141.458 792.194 141.554 792.151 141.65 792.109C141.843 792.026 142.039 791.952 142.237 791.884C142.435 791.817 142.636 791.756 142.839 791.704C142.941 791.679 143.044 791.655 143.147 791.634C143.199 791.624 143.251 791.614 143.303 791.605C143.356 791.597 143.408 791.589 143.462 791.584Z" fill="#FC8645"/>
<path d="M142.252 795.773C142.209 795.739 142.169 795.705 142.13 795.669C142.09 795.634 142.052 795.598 142.013 795.561C141.937 795.488 141.864 795.413 141.792 795.336C141.648 795.183 141.512 795.024 141.381 794.861C141.25 794.697 141.125 794.529 141.007 794.355C140.948 794.268 140.891 794.18 140.836 794.09C140.809 794.044 140.782 793.999 140.756 793.952C140.73 793.906 140.705 793.859 140.682 793.811C140.724 793.844 140.764 793.879 140.804 793.914C140.844 793.949 140.882 793.986 140.92 794.022C140.997 794.095 141.07 794.171 141.142 794.247C141.286 794.4 141.422 794.559 141.553 794.723C141.683 794.887 141.809 795.054 141.926 795.228C141.985 795.315 142.043 795.403 142.097 795.494C142.125 795.539 142.151 795.585 142.177 795.631C142.203 795.677 142.228 795.724 142.252 795.773Z" fill="#FC8645"/>
<path d="M139.238 792.417C139.184 792.411 139.132 792.403 139.08 792.394C139.027 792.384 138.975 792.374 138.924 792.363C138.82 792.341 138.718 792.316 138.617 792.289C138.414 792.234 138.214 792.171 138.017 792.101C137.819 792.031 137.624 791.955 137.433 791.87C137.337 791.827 137.242 791.782 137.148 791.734C137.101 791.71 137.054 791.685 137.007 791.66C136.961 791.634 136.915 791.607 136.87 791.578C136.923 791.584 136.976 791.593 137.028 791.602C137.08 791.611 137.132 791.621 137.184 791.632C137.287 791.654 137.389 791.679 137.491 791.706C137.694 791.761 137.893 791.824 138.091 791.894C138.288 791.964 138.483 792.041 138.675 792.126C138.771 792.169 138.866 792.214 138.96 792.262C139.007 792.286 139.054 792.31 139.1 792.336C139.146 792.362 139.193 792.388 139.238 792.417Z" fill="#FC8645"/>
<path d="M139.601 793.257C139.576 793.305 139.55 793.351 139.523 793.397C139.497 793.443 139.469 793.488 139.441 793.532C139.384 793.622 139.325 793.709 139.264 793.794C139.143 793.966 139.014 794.131 138.881 794.292C138.747 794.453 138.607 794.609 138.46 794.76C138.387 794.835 138.312 794.908 138.234 794.98C138.195 795.016 138.156 795.051 138.116 795.086C138.076 795.12 138.035 795.154 137.992 795.187C138.016 795.138 138.042 795.092 138.069 795.046C138.095 795 138.123 794.956 138.151 794.911C138.208 794.821 138.267 794.734 138.327 794.649C138.449 794.477 138.577 794.312 138.711 794.151C138.846 793.99 138.985 793.834 139.132 793.684C139.205 793.609 139.28 793.535 139.358 793.463C139.397 793.428 139.436 793.392 139.476 793.358C139.517 793.323 139.558 793.289 139.601 793.257Z" fill="#FC8645"/>
<path d="M140.392 789.378C140.398 789.431 140.402 789.484 140.404 789.537C140.407 789.59 140.409 789.643 140.41 789.696C140.412 789.801 140.41 789.907 140.407 790.012C140.4 790.222 140.384 790.43 140.361 790.638C140.337 790.847 140.307 791.054 140.267 791.26C140.247 791.363 140.225 791.466 140.2 791.569C140.187 791.62 140.174 791.671 140.159 791.722C140.144 791.773 140.129 791.824 140.111 791.875C140.104 791.821 140.101 791.768 140.098 791.715C140.095 791.662 140.093 791.609 140.092 791.557C140.09 791.451 140.092 791.346 140.095 791.241C140.102 791.031 140.119 790.822 140.142 790.614C140.166 790.406 140.196 790.198 140.236 789.992C140.256 789.889 140.278 789.786 140.303 789.684C140.316 789.633 140.329 789.581 140.344 789.53C140.358 789.479 140.374 789.428 140.392 789.378Z" fill="#FC8645"/>
<path d="M330.816 776.072C330.816 776.072 324.462 778.042 325.698 774.294C327.612 768.49 330.923 775.527 330.923 775.527C330.923 775.527 328.116 769.495 331.533 769.935C336.122 770.526 331.527 775.499 331.527 775.499C331.527 775.499 336.278 769.638 337.309 774.492C338.085 778.147 331.898 776.352 331.898 776.352C331.898 776.352 338.219 778.194 334.918 780.641C331.158 783.427 331.183 776.859 331.183 776.859C331.183 776.859 330.691 783.581 327.464 780.514C324.131 777.347 330.816 776.072 330.816 776.072Z" fill="#F3B6CF"/>
<path d="M332.08 776.008C332.097 776.375 331.813 776.687 331.446 776.704C331.078 776.721 330.767 776.437 330.75 776.069C330.732 775.702 331.016 775.39 331.384 775.373C331.751 775.356 332.063 775.64 332.08 776.008Z" fill="#FC8645"/>
<path d="M334.716 774.858C334.671 774.886 334.624 774.912 334.577 774.937C334.531 774.963 334.484 774.987 334.436 775.01C334.342 775.057 334.246 775.1 334.15 775.142C333.957 775.225 333.761 775.299 333.563 775.367C333.364 775.434 333.164 775.495 332.96 775.547C332.859 775.573 332.756 775.597 332.653 775.618C332.601 775.628 332.549 775.638 332.496 775.646C332.444 775.655 332.391 775.663 332.338 775.668C332.384 775.639 332.43 775.613 332.477 775.588C332.523 775.563 332.571 775.539 332.618 775.515C332.713 775.468 332.808 775.425 332.905 775.383C333.097 775.3 333.293 775.226 333.492 775.158C333.69 775.091 333.89 775.03 334.094 774.978C334.196 774.953 334.298 774.929 334.402 774.908C334.454 774.897 334.505 774.888 334.558 774.879C334.61 774.871 334.663 774.863 334.716 774.858Z" fill="#FC8645"/>
<path d="M333.506 779.047C333.463 779.013 333.423 778.978 333.384 778.943C333.344 778.908 333.306 778.871 333.268 778.835C333.191 778.762 333.118 778.686 333.046 778.61C332.902 778.457 332.766 778.298 332.635 778.134C332.504 777.971 332.379 777.803 332.261 777.629C332.202 777.542 332.145 777.454 332.09 777.364C332.063 777.318 332.036 777.273 332.01 777.226C331.984 777.18 331.959 777.133 331.936 777.084C331.978 777.118 332.019 777.152 332.058 777.188C332.098 777.223 332.136 777.26 332.175 777.296C332.251 777.369 332.324 777.444 332.396 777.521C332.54 777.674 332.676 777.833 332.807 777.997C332.937 778.16 333.063 778.328 333.181 778.502C333.239 778.589 333.297 778.677 333.351 778.768C333.379 778.813 333.406 778.859 333.431 778.905C333.457 778.951 333.483 778.998 333.506 779.047Z" fill="#FC8645"/>
<path d="M330.492 775.691C330.439 775.685 330.386 775.677 330.334 775.668C330.282 775.659 330.23 775.648 330.178 775.637C330.075 775.615 329.973 775.59 329.871 775.563C329.668 775.509 329.469 775.445 329.271 775.375C329.074 775.306 328.879 775.229 328.687 775.143C328.591 775.101 328.496 775.056 328.402 775.008C328.355 774.984 328.308 774.959 328.262 774.933C328.215 774.908 328.169 774.881 328.124 774.852C328.177 774.858 328.23 774.866 328.282 774.876C328.334 774.885 328.386 774.895 328.438 774.906C328.541 774.928 328.643 774.953 328.745 774.98C328.948 775.035 329.147 775.098 329.345 775.168C329.542 775.238 329.737 775.315 329.929 775.4C330.025 775.443 330.12 775.488 330.214 775.536C330.261 775.56 330.308 775.584 330.354 775.61C330.401 775.636 330.447 775.662 330.492 775.691Z" fill="#FC8645"/>
<path d="M330.855 776.531C330.831 776.579 330.804 776.625 330.778 776.671C330.751 776.717 330.723 776.762 330.695 776.807C330.638 776.896 330.579 776.983 330.519 777.069C330.397 777.24 330.269 777.405 330.135 777.566C330.001 777.727 329.861 777.884 329.714 778.034C329.641 778.109 329.566 778.183 329.488 778.254C329.449 778.29 329.41 778.325 329.37 778.36C329.33 778.394 329.289 778.428 329.246 778.461C329.27 778.413 329.296 778.366 329.323 778.321C329.35 778.275 329.377 778.23 329.405 778.185C329.462 778.096 329.521 778.009 329.581 777.923C329.703 777.751 329.831 777.586 329.965 777.425C330.1 777.265 330.239 777.108 330.386 776.958C330.459 776.883 330.534 776.809 330.612 776.738C330.651 776.702 330.69 776.666 330.73 776.632C330.771 776.597 330.812 776.563 330.855 776.531Z" fill="#FC8645"/>
<path d="M331.646 772.652C331.652 772.705 331.656 772.758 331.659 772.811C331.662 772.864 331.663 772.917 331.664 772.97C331.666 773.075 331.665 773.18 331.661 773.285C331.655 773.495 331.638 773.704 331.615 773.912C331.591 774.12 331.561 774.328 331.521 774.534C331.501 774.637 331.479 774.74 331.454 774.842C331.441 774.894 331.428 774.945 331.413 774.996C331.399 775.047 331.383 775.098 331.365 775.148C331.359 775.095 331.355 775.042 331.352 774.989C331.349 774.936 331.348 774.883 331.347 774.83C331.345 774.725 331.346 774.62 331.349 774.515C331.356 774.305 331.373 774.096 331.396 773.888C331.42 773.68 331.45 773.472 331.49 773.266C331.51 773.163 331.532 773.06 331.557 772.958C331.57 772.907 331.583 772.855 331.598 772.804C331.612 772.753 331.628 772.702 331.646 772.652Z" fill="#FC8645"/>
<path d="M96.0987 670.673C96.0987 670.673 89.7452 672.643 90.981 668.895C92.8947 663.09 96.2055 670.128 96.2055 670.128C96.2055 670.128 93.3986 664.096 96.8158 664.536C101.404 665.126 96.8102 670.1 96.8102 670.1C96.8102 670.1 101.561 664.239 102.592 669.093C103.368 672.747 97.1805 670.953 97.1805 670.953C97.1805 670.953 103.502 672.795 100.2 675.242C96.441 678.028 96.4659 671.46 96.4659 671.46C96.4659 671.46 95.9743 678.181 92.7468 675.115C89.4141 671.948 96.0987 670.673 96.0987 670.673Z" fill="#F3B6CF"/>
<path d="M97.3628 670.608C97.3799 670.976 97.0959 671.287 96.7286 671.304C96.3613 671.322 96.0496 671.038 96.0325 670.67C96.0154 670.303 96.2994 669.991 96.6667 669.974C97.0341 669.957 97.3457 670.241 97.3628 670.608Z" fill="#FC8645"/>
<path d="M99.9993 669.458C99.9536 669.487 99.9071 669.513 99.8604 669.538C99.8137 669.563 99.7664 669.587 99.7192 669.611C99.6244 669.657 99.5287 669.701 99.4324 669.742C99.2395 669.826 99.0436 669.9 98.8455 669.967C98.6472 670.035 98.4469 670.096 98.2432 670.148C98.1415 670.173 98.0389 670.198 97.9354 670.218C97.8836 670.228 97.8317 670.238 97.7792 670.247C97.7269 670.255 97.6742 670.263 97.6206 670.268C97.6663 670.24 97.7126 670.214 97.7593 670.189C97.806 670.163 97.8533 670.139 97.9004 670.116C97.9951 670.069 98.0908 670.025 98.1871 669.984C98.38 669.901 98.576 669.826 98.7742 669.759C98.9725 669.692 99.173 669.631 99.3765 669.579C99.4782 669.553 99.5807 669.529 99.6843 669.508C99.7361 669.498 99.788 669.488 99.8405 669.48C99.8931 669.471 99.9458 669.464 99.9993 669.458Z" fill="#FC8645"/>
<path d="M98.7889 673.647C98.7467 673.614 98.7066 673.579 98.667 673.544C98.6274 673.508 98.5889 673.472 98.5507 673.436C98.4746 673.362 98.4012 673.287 98.3292 673.211C98.1854 673.058 98.0492 672.898 97.9182 672.735C97.7874 672.572 97.6619 672.404 97.5442 672.23C97.4853 672.143 97.4279 672.055 97.3733 671.964C97.3461 671.919 97.3192 671.873 97.2934 671.827C97.2675 671.781 97.2424 671.734 97.2192 671.685C97.2615 671.718 97.3017 671.753 97.3413 671.789C97.381 671.824 97.4194 671.86 97.4578 671.897C97.5339 671.97 97.6074 672.045 97.6793 672.122C97.8231 672.275 97.9592 672.434 98.0902 672.597C98.2208 672.761 98.3461 672.929 98.464 673.103C98.5229 673.19 98.5802 673.278 98.6349 673.368C98.6621 673.414 98.689 673.459 98.7147 673.506C98.7405 673.552 98.7658 673.599 98.7889 673.647Z" fill="#FC8645"/>
<path d="M95.7749 670.292C95.7214 670.286 95.6689 670.277 95.6167 670.268C95.5644 670.259 95.5126 670.249 95.4609 670.238C95.3577 670.216 95.2555 670.19 95.154 670.163C94.9511 670.109 94.7515 670.046 94.5539 669.976C94.3566 669.906 94.1615 669.83 93.9696 669.744C93.8737 669.701 93.7785 669.656 93.6845 669.609C93.6375 669.584 93.5906 669.56 93.5443 669.534C93.4978 669.508 93.4517 669.482 93.4065 669.453C93.46 669.459 93.5125 669.467 93.5648 669.476C93.6171 669.485 93.669 669.496 93.7207 669.506C93.824 669.528 93.9261 669.554 94.0275 669.581C94.2305 669.635 94.43 669.699 94.6274 669.768C94.8247 669.839 95.0197 669.915 95.2116 670.001C95.3075 670.044 95.4027 670.088 95.4967 670.136C95.5437 670.16 95.5906 670.185 95.6369 670.21C95.6836 670.236 95.7297 670.263 95.7749 670.292Z" fill="#FC8645"/>
<path d="M96.1376 671.131C96.1135 671.18 96.0872 671.226 96.0605 671.272C96.0338 671.317 96.0059 671.362 95.9778 671.407C95.9214 671.496 95.8623 671.583 95.8016 671.669C95.6803 671.841 95.5515 672.006 95.4177 672.167C95.2837 672.328 95.1443 672.484 94.9974 672.634C94.9238 672.709 94.849 672.783 94.7714 672.855C94.7324 672.89 94.6933 672.926 94.6529 672.96C94.6126 672.995 94.5717 673.029 94.5288 673.061C94.5529 673.013 94.579 672.967 94.6058 672.921C94.6325 672.875 94.6602 672.83 94.6883 672.785C94.7447 672.696 94.8038 672.609 94.8645 672.523C94.9858 672.352 95.1146 672.187 95.2486 672.026C95.3829 671.865 95.5222 671.709 95.6691 671.559C95.7426 671.484 95.8174 671.41 95.895 671.338C95.934 671.302 95.9731 671.267 96.0135 671.233C96.0538 671.198 96.0947 671.164 96.1376 671.131Z" fill="#FC8645"/>
<path d="M96.9288 667.252C96.9351 667.306 96.9387 667.359 96.9415 667.412C96.9444 667.465 96.9459 667.518 96.947 667.57C96.949 667.676 96.9475 667.781 96.9441 667.886C96.9373 668.096 96.9208 668.305 96.8977 668.513C96.8742 668.721 96.844 668.928 96.8041 669.135C96.784 669.238 96.7622 669.341 96.7367 669.443C96.7239 669.494 96.7107 669.546 96.696 669.597C96.6815 669.648 96.666 669.699 96.6479 669.749C96.6415 669.696 96.6378 669.643 96.635 669.59C96.6321 669.537 96.6304 669.484 96.6293 669.431C96.6273 669.325 96.6288 669.22 96.6321 669.115C96.6389 668.905 96.6555 668.696 96.6789 668.488C96.7025 668.28 96.7328 668.073 96.7728 667.867C96.7928 667.764 96.8148 667.661 96.8401 667.558C96.853 667.507 96.8662 667.456 96.8809 667.405C96.8954 667.354 96.9109 667.303 96.9288 667.252Z" fill="#FC8645"/>
<path d="M252.373 784.282C252.373 784.282 260.498 781.97 258.903 786.314C257.307 790.659 250.81 787.694 250.81 787.694C250.81 787.694 258.215 794.939 252.345 795.641C246.475 796.344 246.882 789.759 246.882 789.759C246.882 789.759 245.309 798.715 242.112 795.29C238.915 791.866 244.195 787.286 244.195 787.286C244.195 787.286 236.332 787.227 238.288 783.799C240.244 780.37 245.428 783.833 245.428 783.833C245.428 783.833 241.385 777.848 246.357 777.838C251.33 777.828 249.318 782.881 249.318 782.881C249.318 782.881 254.012 775.178 255.705 778.52C257.398 781.863 252.373 784.282 252.373 784.282Z" fill="#FCC257"/>
<path d="M240.411 782.308C240.412 782.281 240.423 782.254 240.445 782.235C240.488 782.196 240.553 782.2 240.591 782.242C242.308 784.155 248.492 785.041 248.554 785.05L249.755 785.161C252.112 785.344 258.345 783.993 258.408 783.98C258.464 783.967 258.519 784.003 258.531 784.058C258.543 784.114 258.508 784.169 258.452 784.181C258.195 784.237 252.127 785.552 249.737 785.366L248.53 785.255C248.268 785.218 242.205 784.349 240.437 782.38C240.419 782.36 240.41 782.334 240.411 782.308Z" fill="white"/>
<path d="M238.769 783.045C238.77 783.008 238.791 782.974 238.825 782.956C238.876 782.93 238.938 782.95 238.964 783.001C239.741 784.512 246.915 785.593 247.263 785.645C247.468 785.624 249.576 785.422 250.697 785.767C253.398 786.598 259.001 784.933 259.057 784.916C259.112 784.9 259.169 784.931 259.186 784.985C259.202 785.04 259.171 785.098 259.116 785.114C258.884 785.184 253.398 786.814 250.637 785.964C249.522 785.622 247.294 785.849 247.272 785.851C247.263 785.852 247.255 785.852 247.246 785.851C246.935 785.806 239.621 784.73 238.781 783.095C238.772 783.079 238.768 783.062 238.769 783.045Z" fill="white"/>
<path d="M237.889 784.31C237.89 784.286 237.899 784.262 237.916 784.244C237.954 784.202 238.019 784.199 238.062 784.237C240.053 786.062 247.471 786.072 247.546 786.072C247.551 786.072 247.556 786.072 247.561 786.073L249.475 786.338C249.5 786.343 251.518 786.726 254.021 787.087C256.495 787.445 258.832 786.235 258.855 786.223C258.905 786.196 258.968 786.216 258.994 786.266C259.021 786.317 259.002 786.379 258.951 786.406C258.927 786.418 256.531 787.658 253.992 787.292C251.484 786.929 249.462 786.545 249.442 786.542L247.539 786.278C247.14 786.278 239.958 786.256 237.922 784.389C237.899 784.368 237.888 784.339 237.889 784.31Z" fill="white"/>
<path d="M238.484 785.973C238.485 785.96 238.487 785.947 238.493 785.934C238.516 785.882 238.577 785.859 238.629 785.882C240.951 786.914 248.22 786.442 248.293 786.437C248.3 786.437 248.308 786.437 248.315 786.438L249.367 786.598C249.37 786.598 249.373 786.599 249.376 786.599C249.546 786.64 249.774 786.7 250.064 786.777C251.874 787.255 255.641 788.251 257.834 787.74C257.889 787.727 257.945 787.761 257.958 787.817C257.971 787.873 257.936 787.928 257.88 787.941C255.638 788.463 251.837 787.459 250.011 786.976C249.725 786.901 249.5 786.841 249.332 786.801L248.295 786.644C247.862 786.672 240.889 787.112 238.545 786.071C238.506 786.053 238.483 786.013 238.484 785.973Z" fill="white"/>
<path d="M249.652 785.157C249.653 785.12 249.674 785.085 249.71 785.068C249.764 785.042 255.161 782.399 255.777 780.867C255.798 780.814 255.858 780.788 255.911 780.81C255.964 780.831 255.989 780.891 255.968 780.944C255.323 782.549 250.025 785.144 249.8 785.253C249.749 785.278 249.687 785.257 249.662 785.206C249.655 785.19 249.651 785.174 249.652 785.157Z" fill="white"/>
<path d="M249.475 784.881C249.476 784.847 249.494 784.814 249.526 784.796C249.587 784.76 255.632 781.188 255.876 779.25C255.884 779.193 255.935 779.153 255.992 779.16C256.048 779.167 256.088 779.218 256.081 779.275C255.824 781.314 249.883 784.825 249.63 784.974C249.581 785.003 249.518 784.986 249.489 784.937C249.479 784.92 249.474 784.9 249.475 784.881Z" fill="white"/>
<path d="M249.378 784.357C249.379 784.327 249.393 784.298 249.419 784.278C249.478 784.234 255.317 779.829 255.468 778.278C255.474 778.222 255.524 778.18 255.581 778.186C255.638 778.191 255.679 778.24 255.673 778.299C255.513 779.939 249.786 784.26 249.543 784.443C249.497 784.478 249.433 784.468 249.398 784.423C249.384 784.403 249.377 784.38 249.378 784.357Z" fill="white"/>
<path d="M249.041 783.987C249.042 783.964 249.051 783.941 249.067 783.922C249.273 783.691 254.128 778.257 254.888 777.669C254.933 777.635 254.998 777.643 255.033 777.688C255.067 777.733 255.059 777.798 255.014 777.833C254.269 778.408 249.272 784.003 249.221 784.059C249.183 784.102 249.118 784.106 249.076 784.068C249.052 784.046 249.04 784.016 249.041 783.987Z" fill="white"/>
<path d="M248.665 778.492C248.667 778.452 248.691 778.415 248.731 778.399C248.784 778.378 248.844 778.404 248.864 778.457C249.552 780.197 248.995 784.036 248.971 784.199C248.963 784.255 248.91 784.294 248.854 784.286C248.797 784.277 248.758 784.224 248.767 784.169C248.773 784.129 249.34 780.222 248.673 778.533C248.667 778.52 248.665 778.505 248.665 778.492Z" fill="white"/>
<path d="M246.898 777.865C246.898 777.84 246.908 777.816 246.926 777.797C246.966 777.755 247.031 777.754 247.072 777.794C248.17 778.849 248.843 784.335 248.871 784.568C248.877 784.624 248.837 784.676 248.78 784.682C248.724 784.689 248.672 784.649 248.666 784.592C248.659 784.536 247.974 778.947 246.929 777.942C246.907 777.921 246.897 777.893 246.898 777.865Z" fill="white"/>
<path d="M245.465 777.942C245.467 777.9 245.494 777.862 245.535 777.847C245.589 777.829 245.648 777.858 245.666 777.912C246.489 780.334 248.776 784.763 248.799 784.807C248.825 784.858 248.805 784.92 248.755 784.947C248.704 784.973 248.642 784.953 248.616 784.902C248.593 784.858 246.298 780.415 245.471 777.978C245.467 777.966 245.465 777.954 245.465 777.942Z" fill="white"/>
<path d="M244.042 778.853C244.044 778.797 244.09 778.752 244.146 778.753C244.203 778.754 244.249 778.8 244.248 778.857C244.231 780.569 248.583 784.933 248.627 784.977C248.667 785.018 248.668 785.083 248.627 785.123C248.587 785.163 248.522 785.163 248.481 785.123C248.299 784.942 244.023 780.653 244.042 778.855C244.042 778.854 244.042 778.853 244.042 778.853Z" fill="white"/>
<path d="M249.232 787.167C249.233 787.141 249.244 787.116 249.264 787.097C249.305 787.057 249.37 787.058 249.41 787.098C249.585 787.279 253.717 791.552 254.389 794.764C254.401 794.82 254.365 794.875 254.309 794.886C254.253 794.898 254.198 794.862 254.187 794.806C253.527 791.652 249.304 787.286 249.262 787.242C249.241 787.222 249.232 787.194 249.232 787.167Z" fill="white"/>
<path d="M248.916 787.629C248.917 787.593 248.937 787.559 248.972 787.541C249.022 787.515 249.084 787.534 249.111 787.585L253.185 795.451C253.211 795.502 253.191 795.564 253.141 795.59C253.09 795.616 253.028 795.597 253.002 795.546L248.927 787.68C248.919 787.664 248.916 787.646 248.916 787.629Z" fill="white"/>
<path d="M248.522 787.255C248.524 787.199 248.571 787.154 248.628 787.156C248.685 787.157 248.73 787.205 248.728 787.261C248.727 787.31 248.635 792.122 251.285 795.624C251.319 795.67 251.31 795.735 251.265 795.769C251.219 795.803 251.154 795.794 251.12 795.749C248.425 792.187 248.52 787.305 248.522 787.256C248.522 787.256 248.522 787.256 248.522 787.255Z" fill="white"/>
<path d="M240.987 792.991C240.987 792.984 240.988 792.976 240.99 792.969C241.302 791.701 248.142 786.987 248.433 786.787C248.47 786.762 248.519 786.763 248.554 786.79C248.59 786.817 248.604 786.864 248.589 786.906C248.588 786.909 248.488 787.194 248.354 787.65C248.005 788.841 247.256 791.806 247.845 793.617C247.863 793.671 247.833 793.729 247.779 793.747C247.725 793.764 247.666 793.735 247.649 793.68C247.063 791.882 247.715 789.094 248.156 787.592C248.209 787.409 248.258 787.254 248.297 787.132C245.798 788.864 241.417 792.097 241.19 793.019C241.176 793.074 241.12 793.108 241.065 793.094C241.017 793.082 240.985 793.038 240.987 792.991Z" fill="white"/>
<path d="M241.536 790.592C241.537 790.574 241.542 790.556 241.553 790.539C243.211 788.003 248.062 786.603 248.267 786.544C248.322 786.529 248.379 786.561 248.395 786.616C248.41 786.671 248.378 786.727 248.323 786.743C248.274 786.757 243.342 788.181 241.726 790.653C241.695 790.7 241.631 790.714 241.583 790.683C241.552 790.662 241.535 790.627 241.536 790.592Z" fill="white"/>
<path d="M241.408 794.343C241.409 794.319 241.418 794.296 241.435 794.277C242.12 793.533 248.134 786.998 248.432 786.788C248.479 786.755 248.543 786.766 248.576 786.812C248.609 786.859 248.598 786.923 248.551 786.956C248.334 787.111 244.268 791.502 241.587 794.417C241.548 794.458 241.483 794.461 241.441 794.423C241.418 794.402 241.407 794.372 241.408 794.343Z" fill="white"/>
<path d="M243.164 796.039C243.164 796.023 243.168 796.008 243.176 795.993C243.356 795.663 247.575 787.911 248.2 787.368C248.243 787.331 248.308 787.335 248.346 787.378C248.383 787.421 248.379 787.487 248.335 787.524C247.857 787.939 244.87 793.31 243.358 796.092C243.33 796.142 243.268 796.16 243.218 796.133C243.182 796.114 243.163 796.077 243.164 796.039Z" fill="white"/>
<path d="M249.043 787.943C248.528 787.925 248.597 787.077 248.254 786.745C247.862 786.366 247.094 786.466 247.114 785.877C247.135 785.29 248.1 785.575 248.517 785.223C248.882 784.915 248.665 783.931 249.18 783.949C249.723 783.968 249.492 784.981 249.84 785.345C250.198 785.72 251.128 785.455 251.109 786.015C251.095 786.428 249.754 786.324 249.527 786.636C249.15 787.155 249.732 787.967 249.043 787.943Z" fill="#D9714B"/>
<path d="M249.067 787.232C248.727 787.22 249.046 786.305 248.82 786.085C248.56 785.835 247.779 786.255 247.792 785.866C247.806 785.478 248.644 786.008 248.919 785.776C249.161 785.572 248.817 784.58 249.158 784.592C249.517 784.604 249.019 785.512 249.249 785.753C249.486 786.001 250.445 785.587 250.433 785.957C250.423 786.23 249.296 785.979 249.147 786.185C248.897 786.528 249.523 787.248 249.067 787.232Z" fill="#75593E"/>
</svg>
