<svg width="201" height="235" viewBox="0 0 201 235" fill="none" xmlns="http://www.w3.org/2000/svg">
<path d="M155.813 176.127C155.813 176.127 66.1348 176.17 66.0365 176.127H44.5537C44.3165 177.504 44.2358 178.908 44.3141 180.31V180.312C44.322 180.426 44.3293 180.539 44.3365 180.653C44.3444 180.764 44.3517 180.839 44.3541 180.869C44.6289 182.743 45.0427 184.596 45.5923 186.406C46.3615 188.94 47.428 191.439 48.8525 193.688C50.5444 196.374 52.7429 198.703 55.5396 200.324C58.255 201.898 61.2609 203.019 64.3342 203.544C69.4229 204.419 74.6977 203.663 79.1505 200.629C81.8283 198.806 84.304 195.99 87.6782 195.551C92.8372 194.88 94.1961 200.558 94.6147 204.489C95.7443 215.077 96.6422 231.572 109.554 234.618C111.836 235.158 113.775 234.714 115.407 233.688C118.616 231.668 120.649 227.386 121.809 223.874C123.682 218.201 124.711 212.054 127.048 206.56C128.78 202.493 132.218 200.027 136.733 200.632C138.248 200.836 139.716 200.702 141.107 200.314C144.322 199.416 147.144 197.145 149.267 194.441C150.026 193.473 150.697 192.449 151.264 191.416C153.745 186.891 154.804 181.19 155.813 176.127Z" fill="#FFF2E5"/>
<circle cx="100.048" cy="100.047" r="96.4995" transform="rotate(2.14733 100.048 100.047)" fill="#FFF2E5"/>
</svg>
