<svg width="100" height="149" viewBox="0 0 100 149" fill="none" xmlns="http://www.w3.org/2000/svg">
<path d="M22.8335 59.8193C22.8335 55.8643 22.8332 51.9094 22.8335 47.9545C22.8344 37.7092 22.8235 27.4638 22.841 17.2186C22.8512 11.2578 26.6654 6.61268 32.5103 5.45858C35.4743 4.87334 38.246 5.50416 40.7879 7.09838C41.3939 7.47849 41.6374 7.63657 42.0248 6.78543C44.214 1.97638 48.7743 -0.515993 54.0685 0.0895038C58.8932 0.641307 63.0506 4.50867 64.0225 9.4251C64.3458 11.0603 64.2153 12.7353 64.1851 14.5238C65.752 13.8863 67.2628 13.2889 68.8984 13.029C74.9223 12.0717 81.3777 17.156 81.6971 23.2445C81.8193 25.5724 81.7514 27.9106 81.7592 30.2441C81.767 32.5375 81.7609 34.831 81.7609 37.2573C83.2321 36.5863 84.6247 35.8977 86.1897 35.6258C92.7659 34.4834 99.422 39.7375 99.4888 46.4092C99.5937 56.8906 99.604 67.3752 99.4623 77.8559C99.3788 84.0346 97.4792 89.8066 94.6538 95.2764C90.7245 102.883 86.8044 110.495 82.8468 118.088C82.3932 118.958 82.4466 119.84 82.4295 120.737C82.3145 126.779 80.7496 132.36 77.1034 137.251C72.8631 142.939 67.0859 146.238 60.2247 147.58C51.4024 149.305 42.8287 148.391 34.7277 144.352C30.1179 142.054 26.1394 138.768 24.2954 133.923C21.2066 125.807 16.1656 118.814 12.0983 111.268C9.89009 107.171 7.39475 103.229 5.13259 99.1605C1.77014 93.1124 0.0302406 86.6089 0.0168679 79.6728C0.00450839 73.2646 -0.0260866 66.8558 0.0478681 60.4484C0.103506 55.6269 3.733 51.1458 8.37051 49.9535C13.6704 48.5909 18.9658 51.1809 21.3866 56.3256C21.9203 57.4598 22.3274 58.6432 22.8335 59.8193Z" fill="#2C2C2C"/>
<path d="M7.87891 56.5795C9.88184 54.4883 12.7901 54.4243 14.8041 56.4269C15.66 57.2779 16.2211 58.3084 16.6775 59.4146C18.7218 64.3687 19.6899 69.533 19.7223 74.8808C19.7391 77.6476 19.7261 80.4145 19.7461 83.1812C19.7593 85.0113 20.7147 85.9632 22.5098 86.2555C34.9284 88.2779 43.8039 94.879 48.6801 106.609C48.9069 107.154 49.0674 107.734 49.3502 108.248C50.0904 109.593 51.7281 109.597 52.4773 108.269C52.6692 107.929 52.8038 107.549 52.9202 107.174C54.7193 101.376 58.1103 96.6743 62.7723 92.845C62.9554 92.6945 63.1435 92.549 63.317 92.3881C64.2314 91.5401 64.4052 90.4689 63.7647 89.6633C63.1088 88.8383 62.0154 88.687 61.0152 89.4009C58.9781 90.8549 57.2371 92.634 55.6074 94.525C55.2996 94.8821 54.976 95.2255 54.6597 95.5753C53.9149 95.5987 53.6911 94.9618 53.3697 94.5018C48.9867 88.2306 43.2096 83.6275 36.39 80.266C35.0056 79.5836 33.5383 79.0972 32.1241 78.4855C30.9859 77.9933 30.839 77.7344 31.1897 76.576C32.5077 72.2237 32.9506 67.7772 32.9338 63.2369C32.879 48.3784 32.8916 33.5195 32.9394 18.661C32.9457 16.7059 32.4691 15.008 31.3359 13.4544C31.0822 13.1065 30.8039 12.756 30.8647 12.2766C34.3699 9.19543 39.6315 11.1311 40.6249 15.864C40.8297 16.8398 40.8226 17.8263 40.8225 18.8146C40.8213 32.7688 40.8218 46.7231 40.8226 60.6774C40.8226 61.1517 40.8097 61.6273 40.8384 62.1001C40.9214 63.4686 41.8235 64.3601 43.205 64.3918C44.1921 64.4145 45.1811 64.3643 46.1692 64.3466C47.1779 63.8323 48.264 64.0899 49.3171 64.0424C50.5841 63.9853 50.687 63.9218 50.6865 62.696C50.6783 45.993 50.6873 29.2899 50.6876 12.5869C50.6876 11.0685 50.2408 9.71761 49.3822 8.48117C49.0938 8.06581 48.7013 7.69758 48.6855 7.13815C50.2508 5.45883 52.1989 5.06645 54.3059 5.69346C56.6325 6.38584 57.9684 8.08907 58.422 10.4413C58.5849 11.2863 58.5845 12.1714 58.5837 13.0382C58.5699 29.5548 58.5448 46.0715 58.5223 62.5881C58.5199 64.3114 58.52 64.3165 60.1961 64.4891C61.4512 64.6183 62.7079 64.7325 63.9638 64.8534C65.0776 64.5263 66.1612 64.8662 67.2424 65.0396C68.1089 65.1786 68.5283 64.9286 68.4928 64.0187C68.4774 63.6246 68.496 63.2285 68.496 62.8332C68.4963 50.818 68.4743 38.8027 68.5169 26.7875C68.5244 24.6911 68.0925 22.7999 66.877 21.0914C66.626 20.7385 66.3756 20.3726 66.4324 19.8991C68.2366 18.3058 70.2991 17.964 72.4834 18.8689C74.8093 19.8325 76.0459 21.6913 76.2057 24.1913C76.2962 25.6085 76.2217 27.0361 76.2217 28.4591C76.2215 40.5543 76.221 52.6494 76.2215 64.7445C76.2215 67.1047 76.5217 67.5024 78.7615 68.188C79.7408 68.4877 80.7132 68.81 81.6887 69.1221C82.8234 68.9465 83.7385 69.5905 84.7182 69.9616C86.1562 70.5064 86.3112 70.4463 86.3132 68.964C86.3227 62.0919 86.3164 55.2198 86.3188 48.3478C86.3193 46.8721 85.8176 45.5717 85.0446 44.3427C84.6928 43.7834 84.177 43.3014 84.1284 42.5818C85.6555 41.0402 87.4916 40.5904 89.5443 41.1796C91.8935 41.854 93.214 43.5488 93.7832 45.848C93.9611 46.5663 93.9907 47.3353 93.9918 48.0813C94.006 57.6059 94.0437 67.1307 93.9876 76.655C93.9571 81.8267 92.684 86.7419 90.3418 91.3472C86.1377 99.6138 81.8787 107.853 77.6255 116.094C77.2166 116.886 76.9868 117.674 76.999 118.576C77.0633 123.347 76.3524 127.947 73.8155 132.105C72.8473 133.692 71.779 135.207 70.3048 136.385C67.8324 137.587 65.132 137.787 62.471 138.085C58.1791 138.565 53.8591 138.426 49.5577 138.312C44.7989 138.185 40.3177 136.933 36.5478 133.863C34.65 132.317 33.1725 130.428 32.8712 127.851C32.7542 126.851 32.2571 125.975 31.7575 125.122C26.8631 116.764 22.04 108.364 17.2461 99.9473C15.2543 96.4505 12.9951 93.0808 11.7703 89.1881C10.7431 85.9237 10.1443 82.5912 10.1399 79.1634C10.133 73.8255 10.0991 68.4873 10.1578 63.1501C10.1805 61.079 9.64924 59.2562 8.39918 57.6226C8.1616 57.312 7.89556 57.005 7.87891 56.5795Z" fill="#F3D4CA"/>
<path d="M7.87748 56.5795C9.51959 58.1509 10.4589 60.0514 10.4681 62.3431C10.4872 67.0864 10.6168 71.8352 10.4404 76.5719C10.1543 84.2557 12.311 91.131 16.2709 97.6804C21.7664 106.77 26.9265 116.061 32.2281 125.268C32.8037 126.267 33.0549 127.348 33.3059 128.482C33.858 130.976 35.5296 132.78 37.5736 134.244C40.8888 136.618 44.6866 137.748 48.6616 137.939C54.8109 138.235 60.9811 138.291 67.0726 137.067C68.1518 136.85 69.2268 136.612 70.3035 136.384C67.9454 138.919 64.9713 140.492 61.7225 141.426C53.8298 143.695 46.0005 143.362 38.4217 140.125C34.0364 138.251 30.3099 135.366 28.8409 130.662C27.0523 124.936 23.4555 120.243 20.6524 115.103C16.9635 108.34 12.9315 101.764 9.23954 95.0019C7.04031 90.974 6.01382 86.5249 5.71844 81.939C5.2859 75.2233 5.5589 68.4981 5.54468 61.7777C5.54047 59.774 6.10199 57.8633 7.87748 56.5795Z" fill="#F64554"/>
<path d="M30.8636 12.2766C32.5615 14.1823 33.3529 16.336 33.3384 18.9622C33.2513 34.7346 33.295 50.5078 33.2461 66.2805C33.2353 69.7665 32.622 73.1919 31.5513 76.5098C31.2476 77.4509 31.3148 77.879 32.3161 78.2283C37.4785 80.0294 42.1199 82.7606 46.3166 86.2585C49.1866 88.6507 51.6619 91.3976 53.7734 94.4778C54.0383 94.8642 54.3621 95.2103 54.6586 95.5752C53.7219 97.0254 52.7852 98.4756 51.7776 100.036C50.7976 98.6377 49.9235 97.3002 48.9595 96.0309C43.0789 88.2878 35.3215 83.46 25.8728 81.3259C24.9493 81.1173 25.1804 80.7076 25.3581 80.1596C26.2106 77.531 27.1314 74.9277 27.619 72.1885C28.5327 67.0555 28.4541 61.8809 28.4117 56.7037C28.3877 53.7779 28.3617 50.8519 28.3594 47.926C28.3522 38.5923 28.3374 29.2586 28.3711 19.9251C28.3775 18.1599 28.2775 16.3588 29.0144 14.6677C29.4316 13.7103 29.936 12.8333 30.8636 12.2766Z" fill="#F24456"/>
<path d="M48.6855 7.13809C50.4553 8.71894 51.1274 10.7194 51.1237 13.0615C51.0992 28.8818 51.108 44.702 51.1065 60.5223C51.1064 61.3925 51.0119 62.277 51.137 63.1291C51.3028 64.259 50.8238 64.4621 49.842 64.3975C48.6211 64.3171 47.3922 64.3583 46.168 64.3468C46.3627 63.9333 46.294 63.4934 46.2942 63.0621C46.3011 46.7089 46.3109 30.3556 46.3052 14.0024C46.3045 12.1273 46.4101 10.288 47.3812 8.61905C47.7158 8.04419 48.0241 7.43168 48.6855 7.13809Z" fill="#F54756"/>
<path d="M66.4324 19.8991C68.2462 21.9458 68.9459 24.3048 68.9279 27.063C68.8473 39.4617 68.891 51.8613 68.8881 64.2606C68.8878 65.6787 68.883 65.6776 67.4506 65.4228C66.2905 65.2165 65.0959 65.2212 63.9629 64.8536C63.9923 63.437 64.0443 62.0207 64.0456 60.6043C64.0563 49.0014 64.0697 37.3985 64.0487 25.7956C64.0454 24.0029 64.3726 22.3531 65.4398 20.8851C65.7192 20.5009 65.9869 20.1126 66.4324 19.8991Z" fill="#F54655"/>
<path d="M84.1274 42.5817C85.6873 44.2448 86.6975 46.1337 86.6928 48.4894C86.6786 55.5563 86.6908 62.6233 86.6871 69.6903C86.6865 70.9347 86.466 71.0734 85.2941 70.5991C84.0898 70.1118 82.8894 69.6149 81.6875 69.1222C81.7016 62.2807 81.721 55.4394 81.7243 48.598C81.7249 47.3588 81.8789 46.1479 82.3174 44.9936C82.6843 44.0276 83.1725 43.1213 84.1274 42.5817Z" fill="#F34454"/>
<path d="M39.3569 72.76C42.9423 73.376 46.6005 73.9955 50.2554 74.6341C57.4476 75.8909 64.6467 77.1117 71.8255 78.4413C75.2925 79.0834 78.5704 80.3784 81.7608 81.865C82.9726 82.4297 83.3644 83.4517 82.8865 84.4737C82.4189 85.4736 81.4306 85.8661 80.2864 85.2981C74.6378 82.4941 68.493 81.6154 62.3844 80.5665C54.6427 79.2372 46.9077 77.8691 39.1714 76.5093C37.8113 76.2703 37.1682 75.5111 37.295 74.365C37.4059 73.3631 38.2281 72.698 39.3569 72.76Z" fill="#2C2C2C"/>
</svg>
