<svg width="27" height="27" viewBox="0 0 27 27" fill="none" xmlns="http://www.w3.org/2000/svg">
<path fill-rule="evenodd" clip-rule="evenodd" d="M12.3875 0.437994C12.6681 0.157546 13.0485 0 13.4452 0C13.8418 0 14.2223 0.157546 14.5028 0.437994L23.4785 9.4137L26.4704 12.4056C26.7429 12.6877 26.8937 13.0656 26.8903 13.4579C26.8869 13.8501 26.7296 14.2253 26.4522 14.5027C26.1748 14.78 25.7996 14.9373 25.4074 14.9407C25.0152 14.9442 24.6373 14.7934 24.3551 14.5209L23.9168 14.0826V23.9349C23.9168 24.7284 23.6016 25.4894 23.0405 26.0505C22.4794 26.6116 21.7184 26.9268 20.9249 26.9268H16.4371C16.0403 26.9268 15.6598 26.7692 15.3793 26.4886C15.0987 26.2081 14.9411 25.8276 14.9411 25.4308V20.943H11.9492V25.4308C11.9492 25.8276 11.7916 26.2081 11.5111 26.4886C11.2305 26.7692 10.85 26.9268 10.4533 26.9268H5.96542C5.17192 26.9268 4.41092 26.6116 3.84983 26.0505C3.28874 25.4894 2.97352 24.7284 2.97352 23.9349V14.0826L2.5352 14.5209C2.25307 14.7934 1.87518 14.9442 1.48295 14.9407C1.09072 14.9373 0.715515 14.78 0.438154 14.5027C0.160793 14.2253 0.00346495 13.8501 5.65509e-05 13.4579C-0.00335185 13.0656 0.147431 12.6877 0.419931 12.4056L3.41183 9.4137L12.3875 0.437994Z" fill="#352B26"/>
</svg>
