<svg width="296" height="299" viewBox="0 0 296 299" fill="none" xmlns="http://www.w3.org/2000/svg">
<path d="M62.8936 279.248L66.1386 285.376L72.0718 288.727L66.1386 292.079L62.8936 298.207L59.6491 292.079L53.7159 288.727L59.6491 285.376L62.8936 279.248Z" fill="#9C4B1E"/>
<path d="M285.883 143.063L289.128 149.191L295.061 152.542L289.128 155.894L285.883 162.022L282.638 155.894L276.705 152.542L282.638 149.191L285.883 143.063Z" fill="#C77924"/>
<path d="M129.777 68.2276C129.777 68.2276 25.583 68.1776 25.4688 68.2276H0.508502C0.232904 66.6283 0.139166 64.9966 0.230092 63.3676V63.3648C0.239255 63.233 0.247705 63.1012 0.256163 62.9694C0.265326 62.8404 0.273778 62.753 0.276598 62.7178C0.595897 60.5412 1.07662 58.3878 1.71522 56.2846C2.60897 53.3404 3.8481 50.4371 5.5031 47.8242C7.46894 44.7038 10.0233 41.9972 13.2727 40.1138C16.4276 38.2854 19.9202 36.9821 23.491 36.3724C29.4033 35.356 35.532 36.235 40.7056 39.7592C43.8168 41.8773 46.6933 45.15 50.6137 45.6596C56.6078 46.4392 58.1867 39.8417 58.6731 35.2743C59.9855 22.9732 61.0287 3.80747 76.0308 0.268401C78.6824 -0.358214 80.9352 0.157032 82.8305 1.34964C86.5599 3.6961 88.9212 8.67098 90.2688 12.7514C92.4454 19.3432 93.6409 26.4854 96.3567 32.8686C98.369 37.5939 102.363 40.4592 107.609 39.7565C109.37 39.5189 111.075 39.6747 112.692 40.1258C116.427 41.169 119.705 43.8079 122.172 46.9488C123.054 48.0737 123.833 49.2635 124.492 50.4639C127.374 55.7214 128.605 62.3449 129.777 68.2276Z" fill="url(#paint0_linear_23_835)" fill-opacity="0.66"/>
<path d="M199.739 52.837H255.213C254.84 48.191 251.801 40.2674 251.235 39.354C251.005 38.9846 250.805 38.6412 250.638 38.3758C248.048 34.2662 240.904 31.5266 237.678 36.4548C235.425 39.8998 237.3 46.6115 232.607 48.3265C227.226 50.294 225.872 43.2185 225.393 39.5897C224.804 35.1313 224.902 30.5633 223.588 26.2238C223.032 24.9245 222.103 23.4395 220.618 23.2539C219.134 23.2539 217.834 24.3677 217.276 25.6687C215.629 29.6669 215.176 33.9804 214.575 38.2253C214.085 41.6684 213.417 49.2655 208.838 49.6925C206.406 49.917 204.207 45.5776 201.953 47.5004C200.524 48.7201 200.6 51.2704 199.739 52.837Z" fill="url(#paint1_linear_23_835)"/>
<path d="M33.3648 120.808C32.8062 120.808 32.2388 120.704 31.6884 120.484L10.9658 112.192C8.65022 111.266 7.52402 108.637 8.45048 106.322C9.37694 104.006 12.0055 102.879 14.321 103.807L35.0437 112.098C37.3593 113.025 38.4852 115.653 37.5588 117.969C36.8525 119.734 35.1567 120.808 33.3648 120.808Z" fill="#FC346C"/>
<path d="M29.046 123.121C28.8378 123.121 28.6272 123.106 28.4149 123.077L3.8917 119.648C1.42145 119.303 -0.300872 117.02 0.0444132 114.55C0.389699 112.08 2.67128 110.357 5.14225 110.703L29.6655 114.132C32.1355 114.477 33.8578 116.759 33.5128 119.23C33.1973 121.488 31.2627 123.121 29.046 123.121Z" fill="#FC346C"/>
<path d="M25.0403 129.726C24.8048 129.726 24.5665 129.707 24.3266 129.67L8.22873 127.114C5.76547 126.722 4.08556 124.409 4.47662 121.945C4.86769 119.482 7.1806 117.803 9.64507 118.193L25.7429 120.749C28.2061 121.14 29.8861 123.454 29.495 125.917C29.1418 128.141 27.2221 129.726 25.0403 129.726Z" fill="#FC346C"/>
<path d="M34.663 119.135C32.9969 119.135 31.3948 118.209 30.6085 116.613L26.9933 109.275C25.8912 107.037 26.8114 104.33 29.0486 103.228C31.2863 102.125 33.9934 103.046 35.0956 105.283L38.7108 112.622C39.8129 114.859 38.8927 117.566 36.6552 118.669C36.0138 118.985 35.3334 119.135 34.663 119.135Z" fill="#FC346C"/>
<path d="M28.9087 131.127C26.6835 131.127 24.6629 130.577 24.494 130.53C24.0186 130.397 23.7407 129.904 23.8733 129.429C24.006 128.953 24.4993 128.675 24.9744 128.808C25.0744 128.835 31.8931 130.623 33.008 127.465C33.1724 126.999 33.6837 126.755 34.1482 126.919C34.6137 127.083 34.8578 127.594 34.6937 128.059C33.8273 130.515 31.2544 131.127 28.9087 131.127Z" fill="#240448"/>
<path d="M72.0528 173.229C67.84 173.229 63.7547 171.003 61.567 167.057C58.3597 161.272 60.4493 153.983 66.2343 150.775L105.396 129.063C111.181 125.856 118.471 127.945 121.678 133.73C124.886 139.515 122.796 146.805 117.011 150.013L77.8494 171.725C76.01 172.745 74.0173 173.229 72.0528 173.229Z" fill="#FC346C"/>
<path d="M81.7368 139.085L99.0352 164.535L120.126 150.821C127.572 146.809 130.355 137.52 126.343 130.074C122.332 122.628 113.043 119.845 105.597 123.856L81.7368 139.085Z" fill="#FFA846"/>
<path d="M97.1939 166.628C95.7392 166.628 94.302 165.97 93.357 164.72L77.9458 144.34C76.3449 142.222 76.7635 139.208 78.8805 137.608C80.9975 136.007 84.0118 136.426 85.6125 138.542L101.024 158.923C102.624 161.04 102.206 164.054 100.089 165.655C99.2217 166.311 98.2037 166.628 97.1939 166.628Z" fill="#FFA846"/>
<path d="M19.8215 116.829C18.8662 119.913 19.7201 123.474 22.419 126.187L58.4195 170.429C63.14 175.743 71.2751 176.225 76.5898 171.505C81.905 166.784 82.3864 158.649 77.6656 153.334L38.0111 113.931C33.906 109.804 27.0877 109.203 22.7824 112.587C21.3077 113.746 20.3189 115.223 19.8215 116.829Z" fill="#FC346C"/>
<path d="M182.512 168.127C180.548 168.127 178.556 167.643 176.716 166.623L137.554 144.911C131.769 141.703 129.679 134.413 132.887 128.628C136.094 122.843 143.384 120.753 149.169 123.961L188.331 145.673C194.116 148.88 196.205 156.17 192.998 161.955C190.811 165.9 186.725 168.127 182.512 168.127Z" fill="#FC346C"/>
<path d="M172.829 133.983L155.531 159.433L134.441 145.718C126.995 141.707 124.211 132.418 128.223 124.972C132.235 117.526 141.523 114.743 148.969 118.754L172.829 133.983Z" fill="#FFA846"/>
<path d="M157.372 161.525C156.362 161.525 155.344 161.209 154.476 160.553C152.359 158.952 151.941 155.938 153.542 153.82L168.953 133.44C170.554 131.323 173.568 130.905 175.685 132.506C177.802 134.106 178.22 137.12 176.619 139.238L161.208 159.618C160.264 160.868 158.826 161.525 157.372 161.525Z" fill="#FFA846"/>
<path d="M234.744 111.727C235.699 114.811 234.845 118.372 232.146 121.085L196.146 165.327C191.425 170.641 183.29 171.123 177.976 166.403C172.661 161.682 172.179 153.547 176.9 148.232L216.554 108.829C220.66 104.702 227.478 104.101 231.783 107.485C233.258 108.644 234.247 110.121 234.744 111.727Z" fill="#FC346C"/>
<path d="M221.201 115.706C219.409 115.706 217.714 114.632 217.007 112.866C216.081 110.55 217.207 107.922 219.522 106.996L240.245 98.704C242.561 97.7778 245.189 98.9037 246.115 101.219C247.042 103.535 245.916 106.163 243.6 107.09L222.878 115.381C222.328 115.602 221.76 115.706 221.201 115.706Z" fill="#FC346C"/>
<path d="M225.519 118.019C223.302 118.019 221.368 116.386 221.053 114.128C220.707 111.657 222.43 109.375 224.9 109.03L249.423 105.601C251.891 105.255 254.175 106.979 254.521 109.449C254.866 111.919 253.144 114.201 250.673 114.546L226.15 117.975C225.938 118.004 225.727 118.019 225.519 118.019Z" fill="#FC346C"/>
<path d="M229.525 124.624C227.343 124.624 225.424 123.039 225.071 120.815C224.68 118.352 226.36 116.038 228.823 115.647L244.921 113.091C247.382 112.701 249.698 114.38 250.089 116.843C250.48 119.306 248.8 121.62 246.337 122.011L230.239 124.567C229.999 124.605 229.761 124.624 229.525 124.624Z" fill="#FC346C"/>
<path d="M163.506 175.012L162.274 179.648L143.205 180.561H138.381L119.312 179.648L114.455 179.414L103.983 145.548C102.53 138.218 103.86 130.553 107.939 124.291C108.086 124.065 108.236 123.841 108.39 123.619C109.176 122.474 110.038 121.402 110.956 120.412C115.436 115.586 121.375 112.672 127.842 112.672C135.753 112.672 142.88 117.036 147.509 123.93C150.444 128.303 161.732 143.088 162.226 149.023L163.424 173.308L163.506 175.012Z" fill="#FFA846"/>
<path d="M164.187 188.838L159.761 189.103L122.42 191.339L118.218 191.589L114.454 179.414L119.312 179.648L138.381 180.561L140.793 179.862L143.205 180.561L162.274 179.648L163.505 175.012L163.732 179.578L164.187 188.838Z" fill="#FFA846"/>
<path d="M169.06 85.6972C170.043 80.5831 166.694 75.6406 161.579 74.6578C156.465 73.6751 151.523 77.0243 150.54 82.1384C149.557 87.2526 152.906 92.195 158.021 93.1778C163.135 94.1605 168.077 90.8113 169.06 85.6972Z" fill="#240448"/>
<path d="M150.835 88.6969C148.489 89.0169 146.328 87.374 146.008 85.0274L145.995 84.9337C145.675 82.5873 147.318 80.4259 149.664 80.1059C152.011 79.7859 154.172 81.4288 154.492 83.7752L154.505 83.8689C154.825 86.2155 153.182 88.3769 150.835 88.6969Z" fill="white"/>
<path d="M119.438 141.898C118.237 148.285 112.086 152.489 105.699 151.289C99.3121 150.088 95.1078 143.937 96.3084 137.55C97.5091 131.163 113.173 118.68 113.173 118.68C118.952 121.653 120.638 135.511 119.438 141.898Z" fill="#FFA846"/>
<path d="M111.203 173.375C110.802 173.375 110.438 173.104 110.337 172.697L105.212 152.004C100.6 151.134 96.7989 147.744 95.4308 143.228C94.0109 138.542 95.5113 133.617 99.8904 128.59C101.524 126.715 103.336 125.041 105.254 123.27C106.675 121.958 108.144 120.601 109.529 119.159C109.87 118.803 110.435 118.791 110.791 119.133C111.147 119.474 111.159 120.04 110.817 120.396C109.395 121.877 107.906 123.252 106.465 124.582C104.584 126.32 102.806 127.961 101.237 129.763C97.2886 134.295 95.9103 138.652 97.1399 142.71C98.3627 146.746 101.848 149.735 106.022 150.328C106.042 150.33 106.061 150.333 106.079 150.336C106.433 150.393 106.717 150.655 106.804 151.003L112.071 172.268C112.189 172.746 111.897 173.23 111.418 173.349C111.346 173.367 111.274 173.375 111.203 173.375Z" fill="white"/>
<path d="M140.217 94.3147L137.064 116.919L115.574 125.32L120.235 112.28L123.027 100.779L137.467 95.3479L140.217 94.3147Z" fill="#FC346C"/>
<path d="M115.573 126.212C115.355 126.212 115.14 126.132 114.973 125.98C114.718 125.749 114.619 125.391 114.718 125.061L118.244 113.353C118.386 112.881 118.884 112.613 119.356 112.755C119.829 112.897 120.096 113.395 119.954 113.868L116.969 123.781L138.36 115.004C138.817 114.817 139.338 115.035 139.525 115.491C139.712 115.948 139.494 116.469 139.038 116.656L115.912 126.145C115.803 126.19 115.688 126.212 115.573 126.212Z" fill="white"/>
<path d="M114.862 99.7277C110.506 96.0349 109.969 89.5101 113.662 85.1544L119.206 78.6145C124.073 72.8742 132.671 72.1661 138.411 77.0326C144.152 81.8991 144.86 90.4975 139.993 96.2378L138.699 97.7644C132.659 104.889 121.987 105.768 114.862 99.7277Z" fill="#FC346C"/>
<path d="M119.932 71.3353C122.892 69.013 126.258 67.3523 130.026 67.247C134.248 67.129 138.362 68.9638 141.669 71.4837C141.974 71.716 142.273 71.9557 142.566 72.2025C142.737 72.3456 142.905 72.4911 143.071 72.6393C150.702 79.4385 152.087 92.1534 144.882 99.8202C143.434 101.362 137.214 106.271 135.078 106.563C133.396 106.792 134.639 97.6331 133.082 96.9584C131.525 96.2838 130.191 95.0075 129.658 93.3964C128.927 91.184 129.76 88.7904 130.597 86.6158C127.768 84.9995 125.018 83.1894 122.718 80.8813C121.289 79.447 120.039 77.8143 119.117 76.0071C118.713 75.2158 117.97 73.0738 117.97 73.0738C117.97 73.0738 119.576 71.6145 119.932 71.3353Z" fill="#240448"/>
<path d="M120.086 108.411C119.594 108.158 119.37 107.574 119.567 107.057L128.03 82.7424L134.44 86.0425L121.543 107.96C121.261 108.482 120.614 108.683 120.086 108.411Z" fill="#240448"/>
<path d="M140.087 98.7376C138.462 101.894 134.585 103.136 131.429 101.511C128.272 99.8857 127.031 96.0095 128.656 92.8528C130.28 89.6961 134.157 88.4547 137.313 90.0797C140.47 91.7046 141.712 95.5809 140.087 98.7376Z" fill="#FC346C"/>
<path d="M134.939 103.318C134.121 104.905 132.172 105.529 130.585 104.712C128.997 103.895 128.373 101.946 129.19 100.358C130.007 98.7709 131.957 98.1465 133.544 98.9636C135.131 99.7807 135.756 101.73 134.939 103.318Z" fill="white"/>
<path d="M118.904 79.277C115.955 81.7605 113.052 84.0086 110.431 84.8141C109.722 85.032 109.23 85.724 109.383 86.4492C109.479 86.9027 109.789 87.3135 110.294 87.5L115.866 89.5578L118.904 79.277Z" fill="#FC346C"/>
<path d="M72.0423 119.979L73.6516 123.018L76.5942 124.68L73.6516 126.342L72.0423 129.381L70.433 126.342L67.4907 124.68L70.433 123.018L72.0423 119.979Z" fill="#9E4A21"/>
<path d="M177.999 215.658L169.968 226.523L157.66 243.175L140.793 237.074L111.621 226.523L74.6613 213.155C71.0567 211.851 68.052 209.487 65.9509 206.49C63.8498 203.495 62.6474 199.866 62.6474 196.033C62.6474 185.635 71.341 177.349 81.7261 177.845L114.455 179.414L119.312 179.648H162.274L159.761 189.103L154.385 209.331L177.999 215.658Z" fill="#240448"/>
<path d="M218.939 196.032C218.939 198.635 218.387 201.141 217.375 203.418C216.896 204.497 216.313 205.526 215.636 206.49C213.532 209.487 210.53 211.849 206.925 213.155L169.968 226.523L140.793 237.074L123.929 243.175L111.621 226.523L103.59 215.658L127.204 209.331L122.421 191.339L119.312 179.648L138.381 180.561H143.205L162.274 179.648L163.732 179.578L199.861 177.848C200.991 177.792 202.101 177.843 203.183 177.99C212.036 179.178 218.939 186.768 218.939 196.032Z" fill="#240448"/>
<path d="M102.459 216.214C102.23 216.214 102.015 216.071 101.934 215.842C101.833 215.553 101.986 215.235 102.275 215.134L151.013 198.06C151.303 197.959 151.62 198.111 151.721 198.401C151.822 198.69 151.67 199.007 151.38 199.109L102.643 216.183C102.582 216.204 102.52 216.214 102.459 216.214Z" fill="white"/>
<path d="M138.201 203.693C138.137 203.693 138.073 203.682 138.009 203.658L114.214 194.91C113.926 194.804 113.779 194.485 113.885 194.197C113.991 193.909 114.31 193.761 114.598 193.867L138.393 202.615C138.681 202.721 138.829 203.041 138.723 203.329C138.64 203.553 138.428 203.693 138.201 203.693Z" fill="white"/>
<path d="M75.0253 230.271L78.1209 236.634L86.1289 235.796L88.2638 240.185L82.9888 246.64L95.9441 273.271L100.315 271.195L100.403 271.152C103.626 269.584 105.74 266.376 105.907 262.789L106.111 258.386L106.455 250.943L114.333 243.032L114.815 242.545L109.844 233.573L109.218 232.443L101.142 217.871L95.7104 220.45L83.8886 226.062L79.3962 228.194L75.0253 230.271Z" fill="#240448"/>
<path d="M204.896 230.271L201.8 236.634L193.792 235.796L191.658 240.185L196.933 246.64L183.977 273.271L179.607 271.195L179.518 271.152C176.295 269.584 174.182 266.376 174.015 262.789L173.811 258.386L173.466 250.943L165.589 243.032L165.106 242.545L170.078 233.573L170.704 232.443L178.78 217.871L184.211 220.45L196.033 226.062L200.525 228.194L204.896 230.271Z" fill="#240448"/>
<path d="M160.13 248.684C159.352 248.684 158.566 248.462 157.869 247.999C155.99 246.748 155.48 244.211 156.731 242.331L175.07 214.77C176.321 212.891 178.859 212.381 180.738 213.631C182.618 214.882 183.127 217.42 181.877 219.299L163.537 246.86C162.75 248.043 161.452 248.684 160.13 248.684Z" fill="#FFA846"/>
<path d="M123.516 243.879C123.289 243.879 123.075 243.738 122.994 243.512C122.889 243.224 123.038 242.905 123.327 242.801L161.979 228.82C162.267 228.715 162.586 228.865 162.691 229.154C162.795 229.442 162.646 229.761 162.357 229.865L123.705 243.846C123.643 243.868 123.579 243.879 123.516 243.879Z" fill="white"/>
<path d="M218.939 196.032C218.939 198.634 218.387 201.14 217.375 203.417C216.431 203.599 215.458 203.695 214.461 203.695C205.997 203.695 199.134 196.832 199.134 188.368C199.134 184.366 200.667 180.721 203.183 177.991C212.037 179.178 218.939 186.767 218.939 196.032Z" fill="#FFA846"/>
<path d="M62.6474 195.923C62.6474 198.525 63.1992 201.031 64.2109 203.308C65.1552 203.49 66.1282 203.586 67.1255 203.586C75.5892 203.586 82.4528 196.723 82.4528 188.259C82.4528 184.257 80.9198 180.613 78.4038 177.882C69.5497 179.069 62.6474 186.658 62.6474 195.923Z" fill="#FFA846"/>
<path d="M244.635 131.727C244.316 131.727 244.027 131.508 243.951 131.184C241.303 119.899 229.689 107.053 210.363 94.0364C195.695 84.1564 181.653 77.6085 181.513 77.5437C181.161 77.3801 181.007 76.9615 181.171 76.609C181.335 76.2565 181.753 76.103 182.105 76.2666C182.247 76.3319 196.39 82.927 211.15 92.869C219.832 98.7172 227.032 104.566 232.55 110.252C239.495 117.409 243.791 124.343 245.321 130.862C245.41 131.241 245.175 131.62 244.796 131.708C244.743 131.721 244.689 131.727 244.635 131.727Z" fill="#240448"/>
<path d="M184.989 87.2039C188.916 85.2713 193.493 86.5372 193.493 86.5372C193.493 86.5372 191.704 90.9365 187.777 92.869C183.85 94.8017 179.273 93.5357 179.273 93.5357C179.273 93.5357 181.062 89.1364 184.989 87.2039Z" fill="#7DA483"/>
<path d="M193.185 73.4116C193.365 77.7844 196.665 81.1996 196.665 81.1996C196.665 81.1996 199.673 77.5251 199.494 73.1523C199.314 68.7795 196.014 65.3642 196.014 65.3642C196.014 65.3642 193.005 69.0388 193.185 73.4116Z" fill="#7DA483"/>
<path d="M197.476 96.1209C201.964 93.912 207.195 95.359 207.195 95.359C207.195 95.359 205.15 100.387 200.662 102.596C196.174 104.805 190.942 103.358 190.942 103.358C190.942 103.358 192.987 98.3297 197.476 96.1209Z" fill="#7DA483"/>
<path d="M206.843 80.3568C207.048 85.3548 210.82 89.2583 210.82 89.2583C210.82 89.2583 214.259 85.0585 214.054 80.0604C213.848 75.0623 210.076 71.1589 210.076 71.1589C210.076 71.1589 206.637 75.3587 206.843 80.3568Z" fill="#7DA483"/>
<path d="M209.686 105.33C214.872 102.777 220.918 104.449 220.918 104.449C220.918 104.449 218.555 110.26 213.368 112.813C208.182 115.365 202.136 113.693 202.136 113.693C202.136 113.693 204.499 107.883 209.686 105.33Z" fill="#7DA483"/>
<path d="M220.512 87.1131C220.749 92.889 225.108 97.3999 225.108 97.3999C225.108 97.3999 229.082 92.5463 228.844 86.7707C228.607 80.9948 224.248 76.4839 224.248 76.4839C224.248 76.4839 220.274 81.3375 220.512 87.1131Z" fill="#7DA483"/>
<path d="M221.036 116.022C226.445 113.983 232.301 116.231 232.301 116.231C232.301 116.231 229.387 121.786 223.978 123.825C218.569 125.864 212.713 123.615 212.713 123.615C212.713 123.615 215.627 118.061 221.036 116.022Z" fill="#7DA483"/>
<path d="M233.573 98.9366C233.25 104.708 237.152 109.62 237.152 109.62C237.152 109.62 241.577 105.173 241.899 99.4015C242.222 93.6299 238.32 88.7186 238.32 88.7186C238.32 88.7186 233.895 93.1651 233.573 98.9366Z" fill="#7DA483"/>
<path d="M219.902 114.032C219.232 114.032 218.552 113.883 217.91 113.566C215.673 112.464 214.752 109.757 215.855 107.519L219.47 100.181C220.572 97.9433 223.28 97.0236 225.517 98.1254C227.754 99.2276 228.674 101.935 227.572 104.172L223.957 111.511C223.171 113.106 221.568 114.032 219.902 114.032Z" fill="#FC346C"/>
<path d="M119.791 248.684C118.469 248.684 117.171 248.044 116.384 246.86L98.0439 219.299C96.7933 217.42 97.3029 214.882 99.1826 213.632C101.063 212.381 103.6 212.891 104.85 214.77L123.19 242.331C124.441 244.211 123.931 246.748 122.051 247.999C121.355 248.462 120.569 248.684 119.791 248.684Z" fill="#FFA846"/>
<path d="M26.1295 103.013C18.6573 103.013 12.5999 96.9559 12.5999 89.4839V79.8199H39.659V89.4839C39.659 96.9559 33.6017 103.013 26.1295 103.013Z" fill="#9F1EEE"/>
<path d="M35.4658 83.9983C35.2532 83.9983 35.081 83.826 35.081 83.6135V80.2047H22.2883C22.0757 80.2047 21.9034 80.0324 21.9034 79.8199C21.9034 79.6073 22.0757 79.4351 22.2883 79.4351H35.4658C35.6784 79.4351 35.8506 79.6073 35.8506 79.8199V83.6135C35.8506 83.8259 35.6784 83.9983 35.4658 83.9983Z" fill="#240448"/>
<path d="M21.9361 103.398C14.2636 103.398 8.02155 97.1564 8.02155 89.4841V79.82C8.02155 79.6074 8.19379 79.4352 8.40635 79.4352H16.4956C16.7082 79.4352 16.8805 79.6074 16.8805 79.82C16.8805 80.0326 16.7082 80.2048 16.4956 80.2048H8.79116V89.4841C8.79116 96.732 14.688 102.629 21.9359 102.629C26.7605 102.629 31.1893 99.9926 33.4944 95.7492C33.5956 95.5624 33.8296 95.4936 34.0163 95.5947C34.203 95.6961 34.2721 95.9299 34.1708 96.1166C31.7309 100.608 27.043 103.398 21.9361 103.398Z" fill="#240448"/>
<path d="M14.9342 72.9313C14.7217 72.9313 14.5494 72.7591 14.5494 72.5465C14.5494 71.1789 15.8627 70.5224 17.0213 69.9429C18.0738 69.4166 19.0679 68.9196 19.0679 68.0278C19.0679 67.136 18.0738 66.6389 17.0213 66.1127C15.8627 65.5331 14.5494 64.8767 14.5494 63.509C14.5494 62.1416 15.8627 61.4851 17.0213 60.9057C18.0738 60.3796 19.0679 59.8826 19.0679 58.9909C19.0679 58.0991 18.0738 57.6021 17.0213 57.076C15.8627 56.4966 14.5494 55.8401 14.5494 54.4726C14.5494 53.1052 15.8627 52.4487 17.0213 51.8693C18.0738 51.3432 19.0679 50.8462 19.0679 49.9545C19.0679 49.742 19.2401 49.5697 19.4527 49.5697C19.6653 49.5697 19.8375 49.742 19.8375 49.9545C19.8375 51.322 18.5242 51.9785 17.3656 52.5578C16.3131 53.084 15.3191 53.581 15.3191 54.4726C15.3191 55.3643 16.3131 55.8614 17.3655 56.3875C18.5242 56.9668 19.8375 57.6235 19.8375 58.9909C19.8375 60.3584 18.5242 61.0149 17.3656 61.5942C16.3131 62.1204 15.3191 62.6174 15.3191 63.509C15.3191 64.4009 16.3131 64.8979 17.3656 65.4242C18.5242 66.0037 19.8375 66.6602 19.8375 68.0278C19.8375 69.3954 18.5242 70.0519 17.3656 70.6314C16.3131 71.1577 15.3191 71.6547 15.3191 72.5465C15.3191 72.7591 15.1468 72.9313 14.9342 72.9313Z" fill="#44D4F4"/>
<path d="M28.4382 75.4416C28.2256 75.4416 28.0534 75.2694 28.0534 75.0568C28.0534 73.6892 29.3667 73.0327 30.5254 72.4532C31.578 71.9269 32.572 71.4299 32.572 70.5381C32.572 69.6463 31.578 69.1492 30.5254 68.623C29.3668 68.0434 28.0534 67.387 28.0534 66.0193C28.0534 64.6519 29.3667 63.9954 30.5254 63.416C31.578 62.8899 32.572 62.3929 32.572 61.5011C32.572 60.6094 31.578 60.1124 30.5256 59.5863C29.3668 59.0069 28.0536 58.3503 28.0536 56.9828C28.0536 56.7702 28.2258 56.598 28.4384 56.598C28.6509 56.598 28.8232 56.7702 28.8232 56.9828C28.8232 57.8746 29.8172 58.3717 30.8697 58.8978C32.0283 59.4771 33.3418 60.1336 33.3418 61.5011C33.3418 62.8685 32.0285 63.5252 30.8696 64.1045C29.8172 64.6307 28.8232 65.1277 28.8232 66.0193C28.8232 66.9112 29.8172 67.4082 30.8697 67.9345C32.0283 68.514 33.3418 69.1705 33.3418 70.5381C33.3418 71.9057 32.0285 72.5622 30.8697 73.1417C29.8172 73.668 28.8232 74.165 28.8232 75.0568C28.823 75.2694 28.6506 75.4416 28.4382 75.4416Z" fill="#44D4F4"/>
<defs>
<linearGradient id="paint0_linear_23_835" x1="64.9869" y1="0" x2="64.9869" y2="68.2276" gradientUnits="userSpaceOnUse">
<stop stop-color="#FBCCB4"/>
<stop offset="1" stop-color="#FBCCB4" stop-opacity="0.2"/>
</linearGradient>
<linearGradient id="paint1_linear_23_835" x1="227.476" y1="23.2539" x2="227.476" y2="52.837" gradientUnits="userSpaceOnUse">
<stop stop-color="#FBCCB4"/>
<stop offset="1" stop-color="#FBCCB4" stop-opacity="0.4"/>
</linearGradient>
</defs>
</svg>
