<svg width="167" height="111" viewBox="0 0 167 111" fill="none" xmlns="http://www.w3.org/2000/svg">
<path d="M72.3486 50.8399C73.7374 44.6463 73.7661 38.2363 73.6633 31.8898C73.5884 27.2628 73.4365 22.5701 72.0775 18.1465C68.4501 6.33934 58.9845 3.39294 47.4011 7.38977C42.0525 9.2353 37.033 12.0445 31.5319 13.3681C27.2013 14.4101 22.4075 14.6139 18.937 17.4059C15.7947 19.9339 14.4592 24.0284 13.2799 27.885C10.7975 36.0028 8.32325 44.825 11.2411 52.7967C13.1687 58.0627 17.3137 62.3127 22.1156 65.2092C29.9149 69.9137 44.0008 73.1039 51.8297 72.3657C63.3761 71.2771 69.9661 61.4653 72.3486 50.8399Z" fill="#2C2C2C"/>
<path d="M12.1973 34.2536C13.1917 34.5908 14.2433 34.8649 15.2831 34.7186C16.3229 34.5723 17.3925 34.0583 17.6977 33.0536C17.9396 33.8543 18.6901 34.419 19.4899 34.6642C20.2896 34.9093 21.1434 34.8871 21.9795 34.8626C24.4896 34.7891 26.6589 34.686 28.3544 32.8274C28.9566 33.7557 30.1841 34.0107 31.2841 34.1298C34.5284 34.4811 37.8236 34.3578 41.0325 33.7651C41.5483 33.6698 42.0766 33.5564 42.5115 33.2632C42.9463 32.97 43.281 32.4522 43.1969 31.9345C43.8815 33.1928 45.4771 33.2263 46.7929 33.155C48.4186 33.0668 55.2397 32.536 56.4649 31.4353C56.8926 31.051 57.0567 30.3591 56.7316 29.8849C58.3762 29.8775 60.0828 29.8566 61.5674 29.149C63.052 28.4415 64.2457 26.8368 63.9275 25.2233C64.2634 26.3648 65.6236 26.9435 66.805 26.8007C67.9864 26.6579 69.0245 25.9785 70.0139 25.3174C68.3224 17.3609 62.3507 12.6979 55.4758 12.4821C47.1234 12.2199 39.9364 18.8918 31.6016 19.4951C28.3746 19.7286 24.9796 19.0551 21.9919 20.297C16.327 22.6519 15.0752 30.088 12.1973 34.2536Z" fill="white"/>
<path d="M77.7375 36.1117C79.1396 32.7278 80.6592 30.2449 80.8211 24.7448C81.1281 11.849 72.077 1.88351 60.9895 0.237553C53.8147 -0.850848 46.1158 1.84987 41.3393 7.33168C27.4619 -2.82957 7.91555 8.24794 5.48536 24.2813C5.0419 27.1028 5.14266 29.8237 5.10245 32.5042C4.8976 43.7598 0.741176 42.3685 2.92578 45.6445C12.1672 59.8718 20.3919 74.2854 35.1521 80.1482C50.2676 86.134 66.9954 79.9669 75.4601 66.3226C80.7202 57.8579 83.5822 44.9795 77.7375 36.1117ZM64.1738 53.545C54.1811 65.1653 34.7939 66.1418 19.3109 52.6783C17.0537 50.7032 12.9825 47.5592 11.9346 44.6772C10.3222 40.2029 16.2073 31.2949 18.7667 28.0098C27.5435 16.7465 36.1933 23.9351 44.1205 22.3868C46.5592 21.9032 48.7761 20.6334 51.1946 20.0087C59.079 17.9008 64.9972 22.9937 68.0635 30.3879C68.6915 31.9129 69.549 33.009 69.696 35.2855C69.7162 35.7691 69.5347 36.4543 69.6557 36.8978C71.2378 43.0672 68.3245 48.7389 64.1738 53.545Z" fill="#EDAEA0"/>
<path d="M75.4613 66.3226C66.9966 79.9669 50.2687 86.134 35.1532 80.1482C25.056 76.1376 18.1432 68.2171 12.1172 59.5912C22.5847 62.5456 30.9952 62.9034 37.8338 61.9492C48.4295 63.9849 58.2227 60.4669 64.1751 53.545C67.2384 49.9978 69.6771 45.9671 70.0399 41.4726C72.529 38.6035 75.7116 35.1145 78.9883 33.1893C78.4038 34.6001 77.7589 36.1117 77.7387 36.1117C83.5834 44.9795 80.7215 57.8579 75.4613 66.3226Z" fill="#FFD1C7"/>
<path d="M45.3867 84.0357C22.4987 82.6661 12.3576 63.111 0.196072 45.7123C-0.0698854 45.333 -0.064585 44.8286 0.20774 44.4535C5.79311 36.7691 3.67352 25.4929 7.79761 16.3086C13.6064 3.38128 29.7741 -1.3072 41.6124 6.65575C42.1093 6.99059 42.2407 7.66447 41.9059 8.16251C41.5711 8.66055 40.8982 8.78978 40.4002 8.45707C29.7189 1.26272 15.055 5.45469 9.7769 17.1987C5.85796 25.9205 7.90173 36.8227 2.40638 45.0914C14.1331 61.9697 24.0036 80.5843 45.5159 81.8699C46.1146 81.9059 46.5702 82.4187 46.5342 83.0185C46.4971 83.6464 45.9316 84.0876 45.3867 84.0357Z" fill="#2C2C2C"/>
<path d="M28.3556 33.5143C28.0664 33.5143 27.8258 33.2876 27.8131 32.9951C27.7453 31.4121 27.7231 29.8015 27.7485 28.2057C27.7614 27.484 28.8437 27.5003 28.8335 28.2227C28.8081 29.7973 28.8293 31.3867 28.8982 32.9485C28.9109 33.2473 28.6788 33.5016 28.379 33.5143C28.3716 33.5143 28.363 33.5143 28.3556 33.5143Z" fill="#2C2C2C"/>
<path d="M42.1172 34.2158C42.6046 32.9718 42.7265 31.5647 42.4616 30.2571C42.3183 29.5459 43.3827 29.3497 43.5254 30.041C43.8317 31.552 43.6897 33.1753 43.1281 34.6099C42.8665 35.2788 41.855 34.8827 42.1172 34.2158Z" fill="#2C2C2C"/>
<path d="M56.7687 32.2492C56.7677 32.2492 56.7666 32.2492 56.7656 32.2492C55.7555 32.2421 56.7182 30.9992 55.4961 28.4749C55.1849 27.8271 56.1582 27.3552 56.4731 28.0002C57.0294 29.1509 57.3186 30.433 57.3112 31.7109C57.3091 32.0076 57.0664 32.2492 56.7687 32.2492Z" fill="#2C2C2C"/>
<path d="M44.4148 79.7349C43.3548 76.5372 42.8389 73.0709 40.9238 70.2994C39.0769 67.6265 36.1618 65.9384 33.5628 63.9888C29.6216 61.0322 26.1576 56.3619 29.7501 51.7512C33.519 46.9142 43.3339 44.6771 47.4253 50.3606C48.695 47.801 51.0933 45.8058 53.8544 45.0399C60.4911 43.1819 69.6249 48.7347 72.1683 55.7694C73.4804 59.3983 74.0487 63.3885 76.2802 66.5366C79.4951 71.0717 85.4601 72.807 91.0168 72.9675C96.5735 73.128 121.649 77.4578 127.201 77.736C132.753 78.0143 138.683 80.0301 141.603 84.7605C144.235 89.0234 143.77 94.7541 141.173 99.0375C138.575 103.321 134.132 106.254 129.39 107.868C124.647 109.482 119.584 109.893 114.577 110.048C111.436 110.146 53.862 108.233 44.4148 79.7349Z" fill="#FD625D"/>
<path d="M48.9435 57.389C48.9021 55.3822 46.1727 46.8397 45.0315 45.6615C44.6151 45.2313 44.6267 44.5447 45.0569 44.1272C45.4882 43.7118 46.1748 43.7224 46.5912 44.1526C48.348 45.9687 51.0701 55.2614 51.1136 57.3424C51.1441 58.7869 48.9745 58.8322 48.9435 57.389Z" fill="#2C2C2C"/>
<path d="M147.543 98.6125C127.913 102.424 108.039 98.616 89.5141 90.4669C87.1408 89.4227 84.6395 88.2846 82.0659 88.6019C75.9936 89.3506 75.6263 98.2605 83.6183 103.524C86.842 105.647 90.6485 106.685 94.4186 107.514C106.062 110.074 118.176 110.934 129.937 108.986C135.293 108.098 140.561 106.576 145.566 104.468C146.929 102.783 147.219 100.808 147.543 98.6125Z" fill="#EA431C"/>
<path d="M162.522 67.8342C161.317 71.2915 159.992 74.7132 158.522 78.0969C157.418 80.7212 156.244 83.2898 154.95 85.8227C152.828 90.1134 150.445 94.2814 147.809 98.2284C147.436 98.7891 146.856 99.1823 146.22 99.3723C125.231 104.977 102.014 105.923 82.0127 97.5993L81.9883 97.5971C81.2001 97.2528 80.6587 96.5885 80.4378 95.8471C77.1291 84.9251 74.992 72.9545 74.3378 60.6224C74.3039 59.901 74.7369 59.222 75.4045 58.9605C96.745 50.5641 118.162 44.0567 140.831 40.4117C151.015 46.6878 158.427 56.4912 162.522 67.8342Z" fill="#FFD55F"/>
<path d="M80.582 96.1821C80.8457 96.8251 81.3461 97.3161 81.9895 97.5971L82.0139 97.5994C102.015 105.923 125.232 104.977 146.221 99.3724C146.857 99.1824 147.438 98.7891 147.81 98.2285C150.446 94.2815 152.829 90.1134 154.951 85.8228C143.074 88.9281 130.754 90.284 118.477 89.9501C106.74 97.9684 92.9517 99.5793 80.582 96.1821Z" fill="#FFCC21"/>
<path d="M155.498 54.3202C153.072 53.4816 150.547 53.2034 148.061 53.8455C144.131 54.852 141.047 58.0154 138.974 61.4932C135.029 68.0684 134.546 74.2742 126.588 82.9705C137.318 82.1098 147.946 80.2277 158.522 78.097C159.993 74.7133 161.318 71.2916 162.522 67.8343C160.631 62.5948 158.074 57.8637 155.498 54.3202Z" fill="#FFCC21"/>
<path d="M126.59 82.9705C109.279 84.3595 91.68 82.9782 75.9609 76.0995C76.2521 78.0823 76.617 80.0718 77.0086 82.0391C90.2799 86.9369 104.351 89.5659 118.478 89.9501C121.431 87.9331 124.175 85.6092 126.59 82.9705Z" fill="white"/>
<path d="M118.475 89.9501C130.752 90.284 143.072 88.9281 154.949 85.8227C156.243 83.2898 157.416 80.7212 158.521 78.097C147.944 80.2277 137.316 82.1098 126.586 82.9705C124.171 85.6092 121.427 87.933 118.475 89.9501Z" fill="#F9EAEF"/>
<path d="M166.095 72.9621C165.95 74.014 165.607 75.0726 164.779 75.7406C163.975 76.4108 162.633 76.4628 161.963 75.6592C161.427 75.0163 161.484 74.1051 161.486 73.2632C161.488 72.4213 161.327 71.4657 160.621 71.0551C159.821 70.5864 158.758 71.1094 158.243 71.8801C157.705 72.624 157.473 73.5441 157.052 74.3727C156.608 75.1746 155.773 75.9164 154.868 75.785C153.843 75.6179 153.302 74.4792 153.096 73.47C152.89 72.4607 152.821 71.3152 152.068 70.6031C151.181 69.7304 149.582 69.8829 148.687 70.743C146.604 72.6844 146.745 77.4274 146.563 79.9867C146.267 84.0711 144.818 88.0512 142.439 91.3527C140.709 93.7717 137.564 95.9638 134.97 94.5156C133.487 93.6632 132.79 91.7923 132.871 90.066C132.953 88.3398 133.669 86.7205 134.357 85.148C138.664 75.3587 139.375 74.0737 139.291 71.9485C139.196 70.2557 138.095 68.4719 136.384 68.2181C132.668 67.6837 131.192 74.138 127.421 74.2177C125.261 74.2699 123.766 72.1782 122.461 70.4503C121.13 68.7448 118.829 67.0754 116.969 68.195C115.764 68.9279 115.367 70.576 114.184 71.3359C112.344 72.5067 109.987 70.9066 108.683 69.1788C107.378 67.4509 106.111 65.3054 103.989 64.9401C101.693 64.5837 99.6308 66.5765 98.792 68.7297C97.9287 70.8804 97.8359 73.2744 97.0441 75.4564C96.2769 77.6408 94.4019 79.7496 92.0883 79.5899C89.1808 79.4258 87.6474 75.8445 88.0794 72.986C88.4156 70.6388 89.5645 68.0681 88.3601 66.0521C87.4773 64.5853 85.5767 63.9675 83.9133 64.2876C79.7877 65.0812 78.773 69.4592 76.3684 71.5795C74.9665 72.8396 72.6152 73.3698 71.2481 72.0574C68.9505 69.7746 70.8768 62.1071 73.0296 60.306C75.2524 57.6987 79.5509 57.0819 82.6548 56.0255C93.6134 52.2274 94.2894 51.4502 131.768 41.4988C135.166 40.6175 138.69 39.7227 142.12 40.4046C146.886 41.3806 150.53 45.1777 153.472 49.0599C157.215 53.9875 160.649 59.2418 163.814 65.0534L163.839 65.0557C165.197 67.5561 166.516 69.9539 166.095 72.9621Z" fill="#FC95CE"/>
<path d="M161.851 61.5818C154.299 65.8313 141.298 62.9296 116.676 62.4225C103.91 62.1922 89.8278 60.2212 76.0469 58.1766C78.1411 57.202 80.5863 56.7299 82.6561 56.0255C113.977 45.1702 107.575 47.9228 131.769 41.4987C135.168 40.6175 138.691 39.7227 142.121 40.4046C146.887 41.3806 150.531 45.1776 153.474 49.0598C156.483 53.0224 159.321 57.2417 161.851 61.5818Z" fill="#FEADD6"/>
<path d="M101.081 55.6492C100.79 54.2056 97.4449 54.2554 97.3308 55.8504C97.209 57.5533 101.359 57.0285 101.081 55.6492Z" fill="white"/>
<path d="M147.956 51.0117C147.727 49.8757 145.094 49.9148 145.005 51.17C144.933 52.1653 146.346 52.0445 146.95 51.9075C147.194 51.8521 147.445 51.7939 147.65 51.6507C147.855 51.5075 148.005 51.2569 147.956 51.0117Z" fill="white"/>
<path d="M157.018 60.8488C156.756 60.0743 154.132 60.0235 154.079 60.8692C154.023 61.7663 157.269 61.5911 157.018 60.8488Z" fill="white"/>
<path d="M128.037 60.9973C127.776 60.2227 125.151 60.172 125.098 61.0177C125.042 61.9148 128.288 61.7395 128.037 60.9973Z" fill="white"/>
<path d="M86.7068 57.6351C86.5189 56.8673 84.4793 56.8694 84.4212 57.7147C84.3669 58.5057 86.0505 58.3182 86.4753 58.063C86.6329 57.9683 86.7474 57.8008 86.7068 57.6351Z" fill="white"/>
<path d="M123.558 33.8674C120.934 32.2263 118.953 29.7057 117.981 26.7679C117.712 25.9549 118.152 25.0814 118.964 24.8125C119.778 24.5344 120.652 24.9847 120.919 25.7947C121.655 28.0161 123.215 30.0018 125.199 31.244C125.923 31.6973 126.143 32.6524 125.69 33.3778C125.236 34.1033 124.278 34.3191 123.558 33.8674Z" fill="#2C2C2C"/>
<path d="M131.259 30.552C130.41 30.4644 129.792 29.7027 129.879 28.8534L130.961 18.4021C131.049 17.5529 131.799 16.9302 132.661 17.024C133.511 17.1116 134.129 17.8732 134.041 18.7225L132.959 29.1738C132.869 30.0348 132.091 30.6445 131.259 30.552Z" fill="#2C2C2C"/>
<path d="M139.713 32.169C139.078 31.5977 139.03 30.6185 139.604 29.9838L147.325 21.4578C147.896 20.8261 148.875 20.7777 149.51 21.352C150.144 21.9232 150.193 22.9024 149.619 23.5371L141.898 32.0632C141.324 32.6941 140.348 32.7459 139.713 32.169Z" fill="#2C2C2C"/>
<path d="M87.8392 72.206L87.9646 71.4474C88.4648 68.4908 88.8355 65.4646 85.6737 65.0279C84.436 64.8647 83.0805 65.2667 82.2192 66.0525C79.8981 68.1873 78.5621 74.4467 73.3803 74.6057C69.4421 74.6951 66.831 70.4183 67.4262 66.669C67.9642 63.2689 70.438 60.582 72.2439 58.6175C72.8257 57.9918 73.8064 57.9525 74.4305 58.5268C75.0607 59.1071 75.1 60.0863 74.5227 60.715C72.5265 62.882 70.8461 64.8647 70.4819 67.1526C70.1791 69.0775 71.5337 71.6272 73.2851 71.5108C76.2811 71.4199 77.429 66.2465 80.1277 63.7736C83.062 61.0798 88.2721 61.2177 90.4067 64.6078C92.0903 67.2758 91.2404 70.6498 90.8948 72.6956C90.7498 73.6084 90.4007 76.6549 92.0282 77.5495C92.8518 78.0059 94.1318 77.7157 95.0037 76.8785C97.4112 74.5708 96.596 70.182 98.3722 66.8473C99.6582 64.4355 102.596 62.6583 105.299 63.8522C108.458 65.2595 108.804 69.7485 110.505 70.0691C111.807 70.2935 113.666 67.9877 116.19 67.751C120.1 67.3455 122.007 71.363 124.304 72.2271C124.992 72.478 125.924 72.2966 126.086 71.8705C126.388 71.0695 127.275 70.6766 128.079 70.9698C130.788 71.9921 127.638 76.7773 123.217 75.1225C121.662 74.5423 120.515 73.3944 119.22 72.1908C117.042 70.2431 116.263 70.6363 114.385 71.7979C106.843 76.4653 106.331 67.6999 104.044 66.6811C103.079 66.2519 101.698 67.1828 101.104 68.3011C99.6354 71.0607 100.493 75.9082 97.1436 79.115C93.1798 82.9126 86.4946 80.6242 87.8392 72.206Z" fill="#2C2C2C"/>
<path d="M85.7619 101.662C76.0986 98.4338 78.6802 94.8313 73.9536 76.5764C73.7722 75.7422 74.3012 74.9171 75.1369 74.7358C75.9605 74.5514 76.7962 75.0803 76.979 75.9175C81.679 95.6872 79.6853 96.3587 86.7457 98.7302C97.8619 102.463 109.496 103.844 120.381 102.72C121.238 102.62 121.991 103.249 122.08 104.098C122.168 104.95 121.55 105.709 120.699 105.796C109.662 106.941 97.5496 105.624 85.7619 101.662Z" fill="#2C2C2C"/>
<path d="M125.422 105.316L123.875 104.735C123.075 104.436 122.67 103.545 122.97 102.744C123.272 101.943 124.159 101.529 124.963 101.84L126.51 102.42C127.31 102.72 127.715 103.611 127.416 104.412C127.109 105.224 126.2 105.616 125.422 105.316Z" fill="#2C2C2C"/>
</svg>
