<svg width="137" height="172" viewBox="0 0 137 172" fill="none" xmlns="http://www.w3.org/2000/svg">
<path d="M83.3737 6.65249L83.7502 11.1124C84.1962 14.9513 84.647 18.795 85.1002 22.6435C85.2992 24.3364 85.5102 25.9214 85.7308 27.396C87.1095 36.5773 88.7305 45.6914 90.5888 54.7431C91.3944 58.666 92.356 62.5313 93.3031 66.4972C94.6986 72.3335 96.31 77.8365 98.1347 83.0038C99.9547 88.1471 102.388 92.974 105.441 97.489C105.462 97.5178 105.486 97.5226 105.515 97.5034H105.518C105.549 97.4843 105.554 97.4603 105.537 97.4291C104.602 95.7554 103.736 94.0458 102.942 92.3002C103.367 92.4536 103.628 92.5783 103.726 92.6742C104.076 93.0195 104.501 93.2401 104.997 93.3336C105.184 93.5231 105.395 93.6501 105.628 93.7149C107.4 94.5949 109.148 95.5108 110.872 96.4628C117.842 100.318 124.307 105.515 128.589 112.051C132.934 118.681 134.701 125.966 133.889 133.905C133.728 135.471 133.435 137.022 133.011 138.554C130.973 145.875 126.635 151.603 120 155.739C118.813 156.478 117.509 157.144 116.087 157.739C109.114 160.648 101.811 161.353 94.7082 159.113C92.8667 158.533 91.4903 157.945 90.5792 157.348C89.9869 156.962 89.3803 156.59 88.7568 156.236L88.1646 155.883C88.1574 155.782 88.2173 155.73 88.3396 155.725C88.4092 155.722 88.4763 155.739 88.5386 155.78C89.4402 156.353 90.2315 156.78 90.9125 157.06C96.8759 159.525 103.024 160.031 109.354 158.576C113.569 157.61 117.36 155.883 120.727 153.397C121.727 152.658 122.895 151.689 124.23 150.493C124.712 150.088 125.033 149.79 125.196 149.601C126.398 148.198 127.388 146.894 128.165 145.685C129.064 144.287 129.913 142.496 130.711 140.307C130.987 139.554 131.184 138.799 131.301 138.043C131.316 137.95 131.277 137.89 131.184 137.868C128.676 137.262 126.398 135.732 124.132 134.475C121.163 132.826 118.214 132.241 114.838 132.473C113.584 132.56 112.325 132.66 111.061 132.773C110.57 132.818 110.09 132.814 109.623 132.763C109.131 132.711 108.767 132.231 109.078 131.773C109.91 130.553 110.891 129.43 111.483 128.073C112.049 126.769 112.327 125.397 112.32 123.956C112.313 122.395 112.186 120.779 111.939 119.108C111.584 116.684 111.181 114.262 110.73 111.845C110.721 111.794 110.692 111.758 110.642 111.742C110.589 111.725 110.536 111.763 110.531 111.818C110.416 113.703 110.236 115.403 109.992 116.921C109.174 121.971 106.824 126.611 102.974 130.049C97.6719 134.787 90.9844 137.173 83.8485 138.302C78.5397 139.142 72.9384 139.341 67.047 138.897C60.9829 138.439 55.2929 137.415 49.9769 135.823C47.2818 135.015 44.5051 133.933 41.6469 132.581C38.6544 131.166 36.0552 129.514 33.8516 127.627C32.5903 126.546 31.5689 125.335 30.7896 123.992C29.9983 122.63 29.7705 121.239 30.1086 119.818C30.1302 119.734 30.1829 119.678 30.2668 119.657C30.8183 119.508 31.3842 119.532 31.9501 119.369C34.4439 118.65 35.789 117.281 37.1486 115.293C38.2444 113.691 39.6279 112.456 40.8844 111.034C47.1427 103.956 51.5139 95.0696 53.6528 85.8788C56.1105 75.3284 56.5373 64.3296 55.5063 53.549C55.2929 51.3119 54.8589 48.7582 54.6886 46.8999C53.8638 37.98 53.3267 30.2087 53.0797 23.5835C52.9382 19.7782 52.8591 14.8626 52.8447 8.83691C52.8423 8.70982 52.7872 8.58993 52.6769 8.47484L52.7608 6.55658C52.8999 5.86841 53.1876 5.35287 53.624 5.00999C57.6308 1.85925 62.2394 0.19517 67.4546 0.0153335C72.9744 -0.174094 77.9067 1.39168 82.254 4.70786C82.9493 5.23778 83.3234 5.88759 83.3737 6.65249Z" fill="#F3D4CA"/>
<path d="M52.7604 6.55655L52.6765 8.4748C52.583 8.82489 52.5446 9.06467 52.559 9.19655C52.5949 9.56101 52.4319 9.84156 52.3959 10.1653C51.8468 14.9633 51.3457 18.9173 50.8901 22.0249C49.286 32.9565 47.3509 43.9265 45.0874 54.9325C44.603 57.2944 43.6295 61.5481 42.1668 67.6913C40.8456 73.2375 39.2535 78.1027 37.2729 83.5841C36.5224 85.3609 36.1195 86.32 36.0644 86.4591C35.6136 87.5716 35.1364 88.6794 34.6329 89.7705C34.2468 90.6097 33.7529 91.5448 33.1486 92.5783C32.6523 93.4295 32.1008 94.3191 31.4941 95.2471C31.8226 94.415 32.1511 93.6621 32.4796 92.9931C32.5636 92.8229 32.6019 92.6406 32.5899 92.4488C32.5828 92.3625 32.5372 92.3241 32.4509 92.3313L32.1847 92.3577C32.6427 92.293 32.9616 91.9237 33.1462 91.2451C33.1918 91.0725 33.2469 90.9286 33.3093 90.8159C33.3836 90.684 33.458 90.5521 33.5347 90.4202C33.633 90.2548 33.7169 90.0438 33.7889 89.792C33.8872 89.4467 34.0119 89.1278 34.1677 88.8329C34.3859 88.4229 34.561 87.9937 34.6952 87.5405C34.7192 87.4613 34.76 87.3918 34.8175 87.3319C34.8703 87.2791 34.8919 87.2144 34.8847 87.14C34.8751 87.0561 34.8871 86.9722 34.9182 86.8931C36.9276 81.8025 38.5293 76.5561 39.7259 71.149C39.8433 70.8133 39.968 70.4536 40.0951 70.0724C40.2126 69.7247 40.3157 69.3602 40.4068 68.979C43.09 57.7955 45.5358 46.5594 47.7442 35.2728C48.3748 32.0502 49.5305 25.7199 51.2138 16.2845C51.2258 16.215 51.2713 15.8841 51.3505 15.287C51.3864 15.0208 51.4392 14.6899 51.5111 14.2895C51.7389 13.0211 52.1561 10.4434 52.7604 6.55655Z" fill="#2C2C2C"/>
<path d="M83.373 6.6525L83.9653 10.1629C83.7855 9.68574 83.7135 10.0023 83.7495 11.1124L83.373 6.6525Z" fill="#D57257"/>
<path d="M52.6766 8.47479C52.7869 8.58989 52.8421 8.70978 52.8445 8.83686C52.8589 14.8626 52.938 19.7781 53.0795 23.5834C53.3264 30.2086 53.8636 37.9799 54.6884 46.8998C54.8586 48.7581 55.2927 51.3118 55.5061 53.549C56.5371 64.3296 56.1103 75.3284 53.6525 85.8788C51.5137 95.0696 47.1425 103.956 40.8842 111.034C39.6277 112.456 38.2442 113.691 37.1484 115.293C35.7888 117.281 34.4436 118.65 31.9499 119.369C31.384 119.532 30.8181 119.508 30.2666 119.657C30.1827 119.678 30.1299 119.734 30.1084 119.817C29.7703 121.239 29.9981 122.63 30.7893 123.992C31.5686 125.335 32.5901 126.546 33.8514 127.627C36.055 129.514 38.6542 131.166 41.6467 132.581C44.5049 133.933 47.2815 135.015 49.9767 135.823C55.2927 137.415 60.9827 138.439 67.0468 138.897C72.9382 139.341 78.5395 139.142 83.8483 138.302C90.9842 137.173 97.6717 134.787 102.973 130.049C106.824 126.611 109.174 121.971 109.992 116.921C110.236 115.403 110.416 113.703 110.531 111.818C110.536 111.763 110.589 111.725 110.641 111.742C110.692 111.758 110.721 111.794 110.73 111.845C111.181 114.262 111.584 116.684 111.939 119.108C112.186 120.779 112.313 122.395 112.32 123.956C112.327 125.397 112.049 126.769 111.483 128.073C110.891 129.43 109.91 130.553 109.078 131.773C108.766 132.231 109.131 132.711 109.622 132.763C110.09 132.814 110.57 132.818 111.061 132.773C112.325 132.66 113.584 132.56 114.838 132.473C118.214 132.241 121.163 132.826 124.132 134.475C126.398 135.732 128.675 137.262 131.184 137.868C131.277 137.89 131.315 137.95 131.301 138.043C131.184 138.799 130.987 139.554 130.711 140.307C129.913 142.496 129.064 144.287 128.165 145.685C127.388 146.894 126.398 148.198 125.196 149.601C125.033 149.79 124.712 150.088 124.23 150.493C124.304 150.27 124.475 150.191 124.558 150.011C124.599 149.924 124.534 149.877 124.364 149.865C124.307 149.86 124.249 149.874 124.199 149.905C121.201 151.754 118.178 153.212 114.689 154.078C110.584 155.094 106.536 155.454 102.544 155.154C101.007 155.039 99.5756 154.89 98.2544 154.706C96.8708 154.512 95.4034 154.219 93.8568 153.826C93.78 153.807 93.7656 153.706 93.8328 153.665C93.8879 153.634 93.9479 153.624 94.0126 153.641C98.264 154.476 102.542 154.684 106.843 154.265C108.623 154.092 110.44 153.73 112.298 153.178C114.171 152.622 115.83 151.761 117.274 150.596C118.679 149.462 119.319 147.498 117.979 146.004C118.063 146.05 118.123 146.016 118.159 145.899C118.178 145.836 118.154 145.769 118.099 145.733C117.904 145.608 117.746 145.441 117.626 145.23C117.528 145.057 117.403 144.901 117.257 144.76C116.166 143.726 114.845 142.925 113.296 142.359C112.411 142.036 111.478 141.762 110.495 141.539C109.33 141.273 108.155 141.177 106.973 141.252L108.946 141.115C109.057 141.108 109.064 141.077 108.965 141.021C108.79 140.923 108.62 140.873 108.459 140.868C107.786 140.846 107.102 140.894 106.405 141.007C105.879 140.746 105.225 140.686 104.441 140.827C103.942 140.918 103.316 141 102.566 141.074C101.925 141.139 101.304 141.24 100.703 141.376C99.801 141.582 98.8874 141.772 97.9618 141.945C98.3215 141.642 98.662 141.35 98.9833 141.067C99.753 140.384 100.611 139.657 101.554 138.885C102.352 138.228 103.263 137.334 104.282 136.202C106.275 133.991 107.644 131.437 108.388 128.541C108.452 128.289 108.388 128.251 108.193 128.421C107.735 128.826 107.28 129.262 106.831 129.725C105.371 131.233 103.829 132.679 102.307 134.142C99.5252 136.808 96.3169 139.36 92.6794 141.794C89.0875 144.196 85.3541 145.728 81.4768 146.39C80.0142 146.642 78.4004 146.786 76.6356 146.822C69.1137 146.98 61.5366 146.071 54.6428 143.424C48.9456 141.24 43.4882 138.549 37.8365 135.804C34.494 134.18 30.9764 132.425 27.5307 131.305C27.1303 131.174 27.0967 131.238 27.43 131.497C28.4611 132.301 29.5401 133.092 30.6695 133.871C35.4435 137.159 40.4861 140.307 45.8021 143.314C48.3102 144.731 50.8639 146.038 53.4655 147.234C59.1603 149.853 65.0086 151.385 71.0104 151.833C73.9908 152.056 76.9018 151.91 79.7408 151.399C81.2538 151.126 82.6709 150.687 84.1192 150.174C84.2943 150.112 84.4094 150.097 84.4645 150.128C84.5868 150.2 84.5988 150.289 84.5053 150.394C82.2993 152.867 79.8655 155.104 76.7915 156.226C74.6359 157.01 72.3987 157.427 70.0776 157.475C64.3348 157.595 58.6472 156.286 54.0122 153.313C52.95 152.632 51.8806 151.984 50.8231 151.258C48.5164 149.678 46.3176 148.337 44.2267 147.241C42.4979 146.335 40.4502 145.407 38.0835 144.455C38.0451 144.441 37.9636 144.402 37.8413 144.342C37.6135 144.23 37.52 144.263 37.556 144.438C36.8798 144.107 35.8128 143.616 34.3525 142.961C33.4533 142.556 32.5421 142.347 31.6214 142.331C30.3961 141.844 29.1301 141.511 27.828 141.328C27.8232 141.326 27.8208 141.328 27.8184 141.333L27.8113 141.393C27.8065 141.434 27.8232 141.455 27.8616 141.46C28.8927 141.597 29.8782 141.885 30.8205 142.323C29.7415 142.096 28.6529 141.971 27.5547 141.947C27.2214 141.94 26.9456 141.741 26.6147 141.767C25.483 141.856 24.3056 141.966 23.1955 142.259C22.7351 142.381 22.2723 142.501 21.8071 142.618C20.5243 142.94 19.3086 143.544 18.16 144.429C17.8147 144.695 17.5126 145.09 17.2537 145.613C16.8556 146.016 16.6206 146.443 16.5463 146.891C16.3832 147.872 16.683 148.802 17.4455 149.682C17.3855 149.857 17.2848 149.862 17.1458 149.697C17.093 149.637 17.0283 149.591 16.9539 149.565C15.9708 149.21 15.0669 148.759 14.242 148.215C12.4628 147.038 10.6477 145.757 9.15622 144.21C7.62402 142.621 6.34598 140.887 5.32211 139.01C5.29814 138.964 5.26217 138.938 5.21182 138.93C5.14708 138.921 5.11111 138.947 5.10152 139.012C5.09672 139.046 5.09192 139.079 5.08713 139.113C4.49966 137.358 4.15198 135.914 4.04408 134.78C3.95056 133.79 3.74915 132.797 3.73956 131.835C3.71318 128.855 3.78751 126.678 3.96255 125.306C4.1304 123.999 4.39176 122.817 4.74424 121.76C5.1207 120.63 5.50915 119.508 5.90479 118.398C5.9983 118.132 6.1134 117.88 6.24528 117.643C6.40113 117.367 6.52102 117.106 6.60495 116.861C6.73923 116.477 6.9886 116.156 7.12288 115.782C7.5401 114.626 8.01247 113.631 8.53759 112.797C8.97639 112.099 9.44157 111.384 9.93312 110.653C10.8563 109.279 11.8945 107.972 13.0479 106.737C13.3236 106.44 13.585 106.14 13.8296 105.838C14.0742 105.534 14.3379 105.258 14.6209 105.009C15.1028 104.584 15.5704 104.143 16.0188 103.69C16.4768 103.225 16.9611 102.776 17.4671 102.347C18.8218 101.196 20.179 100.105 21.541 99.074C23.1619 97.8463 24.9291 96.6929 26.8449 95.6115C27.2957 95.3549 27.7993 94.9425 28.358 94.3695C28.557 94.156 28.9095 93.9306 29.413 93.6957L32.1849 92.3577L32.451 92.3313C32.5374 92.3241 32.5829 92.3625 32.5901 92.4488C32.6021 92.6406 32.5637 92.8228 32.4798 92.9931C32.1513 93.6621 31.8228 94.415 31.4943 95.247C31.2857 95.5036 31.1202 95.8609 31.0004 96.3165C30.8877 96.7409 30.7606 97.1221 30.6167 97.4554C29.823 99.3018 28.8879 101.285 27.8113 103.407C26.8497 105.299 25.9386 107.308 25.0825 109.435C24.5478 110.763 24.1618 112.025 23.9196 113.219C23.3058 116.242 24.7205 119.081 27.9575 119.551C28.6649 119.652 29.2787 119.676 29.8038 119.621C30.1659 119.585 30.2882 119.393 30.1707 119.048C29.9213 118.312 29.6504 117.585 29.3602 116.866C28.9047 115.739 28.9502 114.075 29.1756 112.78C29.4969 110.931 30.0724 108.826 30.8996 106.464C32.264 102.57 33.7554 98.9852 35.7912 95.3909C36.9493 93.348 37.9396 91.3002 38.7621 89.2477C40.3758 85.2218 41.7714 81.0136 42.9511 76.6208C43.915 73.0289 44.6631 69.9668 45.193 67.4324C45.922 63.9555 46.6245 60.3492 47.3007 56.611C47.6892 54.4721 48.0392 52.2374 48.3486 49.9067C48.5764 48.2138 48.8089 46.6337 49.0511 45.1638C49.3413 43.3966 49.6122 41.6606 49.8688 39.9605C49.8712 39.951 49.8664 39.9462 49.8568 39.9438V39.9414C49.8376 39.939 49.8256 39.9462 49.8232 39.9653C48.6363 46.4922 47.1209 53.0886 45.2746 59.7521C44.8981 61.1093 44.4401 62.6415 43.8958 64.3488C43.2412 66.4109 42.6346 68.449 42.0783 70.4632C41.9512 70.9212 41.7066 71.547 41.3421 72.3359C41.5579 71.4319 41.7857 70.5471 42.0231 69.6767C42.0495 69.5832 42.0927 69.5041 42.1574 69.4393C42.2006 69.3938 42.2269 69.341 42.2341 69.2811L42.4212 67.768C42.4355 67.6553 42.3061 67.581 42.2173 67.6506L42.167 67.6913C43.6297 61.5481 44.6032 57.2944 45.0875 54.9325C47.3511 43.9265 49.2861 32.9565 50.8903 22.0249C51.3458 18.9173 51.847 14.9633 52.3961 10.1653C52.4321 9.84155 52.5951 9.561 52.5591 9.19653C52.5448 9.06465 52.5831 8.82487 52.6766 8.47479Z" fill="#EDAEA0"/>
<path d="M83.967 10.1629C85.2234 19.4065 86.6453 27.4464 88.3742 36.8722C88.6763 38.5171 88.9784 40.0877 89.2781 41.5815C90.7528 48.95 92.3282 56.2993 94.0019 63.6246C94.7763 67.0224 95.5964 70.4081 96.462 73.7818C97.4163 77.5104 98.5313 81.1911 99.8046 84.8238C100.713 87.4182 101.761 89.9095 102.943 92.3002C103.737 94.0458 104.603 95.7554 105.538 97.4291C105.555 97.4603 105.55 97.4842 105.519 97.5034H105.516C105.487 97.5226 105.463 97.5178 105.442 97.489C102.389 92.9739 99.9556 88.1471 98.1357 83.0038C96.311 77.8365 94.6996 72.3335 93.3041 66.4972C92.3569 62.5312 91.3954 58.666 90.5897 54.7431C88.7314 45.6914 87.1105 36.5772 85.7318 27.396C85.5112 25.9213 85.3002 24.3364 85.1012 22.6435C84.648 18.795 84.1972 14.9513 83.7512 11.1124C83.7152 10.0022 83.7871 9.68571 83.967 10.1629Z" fill="#2C2C2C"/>
<path d="M100.892 99.2491C101.163 99.6735 101.436 100.088 101.714 100.494C101.741 100.534 101.736 100.568 101.698 100.594C101.652 100.628 101.607 100.625 101.563 100.589C99.9713 99.2251 98.8491 98.1916 98.1945 97.4843C94.6289 93.6286 91.73 89.2478 89.5 84.3394C87.6465 80.2607 86.1382 75.8847 84.9753 71.209C83.2705 64.3704 82.3401 57.6565 81.7478 50.7628C81.4625 47.449 81.2731 43.3247 81.1748 38.39C81.0621 32.6473 81.1148 27.0651 81.333 21.6437C81.3594 20.9507 81.4577 20.9387 81.6256 21.6125C82.0739 23.3965 82.5871 25.1685 83.1697 26.9285C84.196 30.0336 84.8842 32.4099 85.757 35.117C86.2869 36.7619 86.6562 38.1622 86.8648 39.3156C87.2101 41.2458 87.3779 43.1449 87.7328 45.044C88.186 47.4778 88.608 49.866 88.9988 52.2135C89.1451 53.0887 89.1571 53.9854 89.3153 54.8606C89.6151 56.5032 90.0539 58.4598 90.6341 60.7305C90.7708 61.2748 90.8452 61.8455 90.8572 62.4449C90.8667 62.9365 90.8859 63.4352 90.9147 63.9436C91.0034 65.5429 91.1113 67.1111 91.2432 68.6529C91.6292 73.1584 92.2815 77.3354 93.2046 81.1863C94.4107 86.2121 96.1635 91.1492 98.7771 95.7315C99.5085 97.0143 100.213 98.1868 100.892 99.2491Z" fill="#EDAEA0"/>
<path d="M31.494 95.2471C32.1007 94.3191 32.6522 93.4295 33.1485 92.5783C33.7528 91.5448 34.2467 90.6097 34.6328 89.7705C35.1363 88.6795 35.6135 87.5717 36.0643 86.4591C36.1194 86.32 36.5223 85.3609 37.2728 83.5841C37.2824 83.6296 37.292 83.656 37.2992 83.6632C37.3423 83.704 37.4119 83.6896 37.431 83.6344L41.3419 72.3359C41.7064 71.547 41.9509 70.9212 42.078 70.4632C42.6343 68.4491 43.241 66.4109 43.8956 64.3488C44.4399 62.6415 44.8978 61.1093 45.2743 59.7522C47.1206 53.0886 48.636 46.4922 49.823 39.9654C49.8254 39.9462 49.8374 39.939 49.8565 39.9414V39.9438C49.8661 39.9462 49.8709 39.951 49.8685 39.9606C49.612 41.6606 49.341 43.3966 49.0509 45.1638C48.8087 46.6337 48.5761 48.2139 48.3483 49.9067C48.039 52.2374 47.6889 54.4722 47.3005 56.611C46.6243 60.3492 45.9217 63.9555 45.1928 67.4324C44.6629 69.9669 43.9147 73.0289 42.9508 76.6208C41.7711 81.0136 40.3756 85.2218 38.7618 89.2477C37.9394 91.3003 36.9491 93.348 35.7909 95.3909C33.7552 98.9853 32.2637 102.57 30.8994 106.464C30.0721 108.826 29.4967 110.931 29.1754 112.78C28.95 114.075 28.9044 115.739 29.36 116.866C29.6501 117.585 29.9211 118.312 30.1704 119.048C30.2879 119.393 30.1657 119.585 29.8036 119.621C29.2785 119.676 28.6646 119.652 27.9573 119.551C24.7202 119.081 23.3055 116.242 23.9193 113.219C24.1615 112.025 24.5476 110.763 25.0823 109.435C25.9383 107.308 26.8495 105.299 27.811 103.407C28.8876 101.285 29.8228 99.3018 30.6164 97.4555C30.7603 97.1222 30.8874 96.7409 31.0001 96.3165C31.12 95.8609 31.2854 95.5036 31.494 95.2471Z" fill="#D57257"/>
<path d="M41.3425 72.3359L37.4317 83.6345C37.4125 83.6896 37.343 83.704 37.2998 83.6632C37.2926 83.656 37.283 83.6297 37.2734 83.5841C39.254 78.1027 40.8462 73.2375 42.1674 67.6914L42.2177 67.6506C42.3065 67.5811 42.4359 67.6554 42.4216 67.7681L42.2345 69.2811C42.2273 69.3411 42.201 69.3938 42.1578 69.4394C42.0931 69.5041 42.0499 69.5832 42.0235 69.6768C41.7861 70.5472 41.5583 71.432 41.3425 72.3359Z" fill="#FBBD94"/>
<path d="M39.7272 71.149C38.5307 76.5561 36.9289 81.8025 34.9195 86.8931C34.8884 86.9722 34.8764 87.0561 34.886 87.14C34.8932 87.2144 34.8716 87.2791 34.8188 87.3319C34.7613 87.3918 34.7205 87.4613 34.6966 87.5405C34.5623 87.9937 34.3872 88.4229 34.169 88.8329C34.0132 89.1278 33.8885 89.4467 33.7902 89.792C33.7182 90.0438 33.6343 90.2548 33.536 90.4203C33.4593 90.5521 33.3849 90.684 33.3106 90.8159C33.2483 90.9286 33.1931 91.0725 33.1476 91.2451C32.9629 91.9237 32.644 92.293 32.186 92.3577L29.4142 93.6957C28.8219 93.9211 28.2488 94.1728 27.6901 94.4534C27.1818 94.7076 26.767 94.8922 26.4433 95.0073C26.0165 95.1583 25.5848 95.3022 25.1484 95.4341C25.1556 95.307 25.182 95.2063 25.2276 95.1368C26.4337 93.1969 27.9107 91.1636 29.0209 89.418C29.8817 88.0632 30.7617 86.6844 31.6633 85.2769C32.6128 83.7975 33.4545 82.4379 34.1858 81.2006C35.5502 78.8915 36.4374 77.3354 36.8474 76.5321C38.2213 73.8441 39.1805 72.0506 39.7272 71.149Z" fill="#FFE5CA"/>
<path d="M105.866 93.6645C105.691 93.6357 105.612 93.6525 105.629 93.7149C105.396 93.6501 105.185 93.523 104.998 93.3336L105.866 93.6645Z" fill="#D57257"/>
<path d="M29.4143 93.6957C28.9107 93.9307 28.5583 94.1561 28.3593 94.3695C27.6135 94.6381 26.9397 94.9738 26.3379 95.3742C25.5586 95.8945 25.1678 96.1535 25.1654 96.1559C21.2521 98.5441 17.7081 100.976 14.2169 104.124C12.4186 105.747 10.7904 107.524 9.33016 109.459C6.68777 112.965 4.61845 116.686 3.47469 120.722C3.17976 121.762 2.90641 122.803 2.65704 123.846C2.20385 125.743 1.97845 127.879 1.98565 130.25C2.00003 136.454 3.86314 142.645 7.60614 147.565C9.25104 149.728 10.8456 151.476 12.3874 152.807C16.9025 156.71 22.3 159.137 28.5751 160.089C31.3973 160.516 34.0445 160.525 36.5142 160.12C37.2456 160 37.9865 159.861 38.737 159.7C41.1109 159.199 43.3624 158.31 45.4917 157.027C45.0505 157.602 44.475 158.053 43.7676 158.379C42.8013 158.828 41.6576 159.307 40.334 159.818C38.1975 160.643 35.6318 161.132 32.6322 161.283C30.7595 161.379 29.1122 161.353 27.6903 161.206C22.264 160.504 17.3173 158.528 12.8454 155.281C5.60875 150.03 1.08886 142.208 0.132135 133.293C0.0050508 132.104 -0.0309171 130.874 0.0266306 129.605C0.304778 123.39 1.98085 117.76 5.05486 112.715C7.37594 108.905 10.2917 105.572 13.8045 102.719C17.1063 100.04 20.9044 97.7337 24.8944 95.6356C24.952 95.6044 24.9999 95.5636 25.0407 95.5133C25.0814 95.4581 25.1174 95.4318 25.1486 95.4342C25.585 95.3023 26.0166 95.1584 26.4434 95.0073C26.7671 94.8922 27.1819 94.7076 27.6903 94.4534C28.249 94.1729 28.822 93.9211 29.4143 93.6957Z" fill="#2C2C2C"/>
<path d="M105.866 93.6645C108.758 94.8299 111.573 96.1583 114.314 97.6473C123.162 102.455 131.108 109.9 134.302 119.659C136.932 127.692 136.64 135.564 133.424 143.275C133.055 144.16 132.578 145.119 131.99 146.15C131.458 147.083 130.923 147.915 130.386 148.647C127.586 152.454 124.207 155.406 120.251 157.502C118.939 158.197 117.397 158.88 115.63 159.554C114.863 159.847 114.144 160.127 113.472 160.398C111.724 160.724 110.014 161.007 108.343 161.245C107.406 161.379 106.492 161.189 105.54 161.257C105.14 161.283 104.737 161.283 104.327 161.254C103.286 161.182 102.246 161.142 101.202 161.13C101.123 161.13 101.051 161.103 100.989 161.053C100.932 161.007 100.864 160.99 100.79 161.002C100.709 161.017 100.627 161.022 100.545 161.014C99.572 160.931 98.6368 160.77 97.7424 160.533C94.7452 159.734 91.9637 158.511 89.4004 156.869C89.3021 156.804 89.2206 156.722 89.1582 156.622C89.1223 156.559 89.0695 156.514 89.0048 156.487C88.8585 156.427 88.7746 156.344 88.7578 156.236C89.3812 156.59 89.9879 156.962 90.5801 157.348C91.4913 157.945 92.8677 158.533 94.7092 159.113C101.812 161.353 109.115 160.648 116.088 157.739C117.51 157.144 118.814 156.478 120.001 155.739C126.636 151.603 130.974 145.875 133.012 138.554C133.436 137.022 133.729 135.471 133.89 133.905C134.702 125.966 132.935 118.681 128.59 112.051C124.308 105.515 117.843 100.318 110.873 96.4628C109.149 95.5109 107.401 94.5949 105.629 93.7149C105.612 93.6525 105.691 93.6358 105.866 93.6645Z" fill="#2C2C2C"/>
<path d="M28.3581 94.3695C27.7995 94.9426 27.2959 95.355 26.8451 95.6115C24.9293 96.693 23.1621 97.8463 21.5412 99.074C20.1792 100.105 18.822 101.196 17.4673 102.347C16.9613 102.776 16.477 103.225 16.019 103.69C15.5706 104.143 15.103 104.584 14.621 105.009C14.3381 105.258 14.0743 105.534 13.8298 105.838C13.5852 106.14 13.3238 106.44 13.0481 106.737C11.8947 107.972 10.8565 109.279 9.93331 110.653C9.44176 111.384 8.97658 112.099 8.53778 112.797C8.01266 113.631 7.54029 114.626 7.12307 115.782C6.98879 116.156 6.73942 116.477 6.60514 116.861C6.52121 117.106 6.40132 117.367 6.24547 117.643C6.11359 117.88 5.99849 118.132 5.90498 118.398C5.50934 119.508 5.12089 120.63 4.74443 121.76C4.39195 122.817 4.13059 123.999 3.96274 125.306C3.7877 126.678 3.71337 128.855 3.73975 131.835C3.74934 132.797 3.95075 133.79 4.04427 134.78C4.15217 135.914 4.49985 137.358 5.08732 139.113C6.538 143.326 8.79674 146.997 11.8636 150.124C14.2614 152.572 16.8606 154.562 19.9178 156.073C25.6222 158.89 31.5688 159.892 37.7576 159.077C39.4529 158.854 41.3639 158.346 43.4932 157.547C44.9702 156.993 46.2723 156.161 47.6174 155.377C47.6726 155.346 47.7397 155.394 47.7277 155.456C47.7157 155.511 47.6822 155.583 47.627 155.674L45.4906 157.027C43.3613 158.31 41.1097 159.199 38.7359 159.7C37.9854 159.861 37.2445 160 36.5131 160.12C34.0434 160.525 31.3962 160.516 28.5739 160.089C22.2989 159.137 16.9014 156.71 12.3863 152.807C10.8445 151.476 9.24994 149.728 7.60503 147.565C3.86204 142.645 1.99893 136.454 1.98454 130.25C1.97735 127.879 2.20274 125.743 2.65593 123.846C2.9053 122.803 3.17866 121.762 3.47359 120.721C4.61735 116.686 6.68666 112.965 9.32906 109.459C10.7893 107.524 12.4174 105.747 14.2158 104.124C17.707 100.975 21.251 98.5441 25.1642 96.1558C25.1666 96.1534 25.5575 95.8945 26.3368 95.3742C26.9386 94.9737 27.6124 94.638 28.3581 94.3695Z" fill="#FBBD94"/>
<path d="M85.3456 111.082C86.8106 111.255 88.1534 111.483 89.3739 111.763C90.64 112.053 92.0331 112.507 93.5533 113.12C94.5412 113.518 95.4979 114.108 96.4211 114.888C97.8958 116.13 98.2602 117.966 96.7328 119.343C96.2077 119.818 95.6562 120.184 95.0807 120.443C92.3065 121.688 89.5322 122.419 86.7531 122.635C86.3047 122.671 85.3168 122.733 84.9787 122.383C84.8516 122.251 84.8708 122.038 85.0195 121.932C85.2569 121.762 85.5254 121.64 85.8251 121.566C87.2758 121.203 88.5659 120.803 89.7 120.364C90.2779 120.141 90.7934 119.837 91.249 119.446C91.3665 119.343 91.3833 119.165 91.285 119.045C91.1627 118.894 90.9181 118.777 90.7263 118.76C88.9399 118.595 87.1823 118.532 85.4535 118.568C80.9384 118.669 76.4017 118.559 71.8962 118.523C67.5322 118.489 63.2617 118.141 59.0847 117.482C57.5405 117.24 55.3153 116.664 54.2914 115.422C52.7329 113.53 56.4039 111.924 57.598 111.483C58.8809 111.008 60.3771 110.579 62.0915 110.197C67.2421 109.047 72.4885 108.481 77.8332 108.497C79.7251 108.505 81.4923 108.615 83.13 108.828C84.058 108.951 85.0171 109.178 86.0074 109.512C86.5373 109.689 86.5493 110.262 86.0721 110.516C85.8467 110.636 85.595 110.744 85.3192 110.842C84.9859 110.96 84.9931 111.042 85.3456 111.082Z" fill="#FDF0D8"/>
<path d="M97.9621 141.945C97.552 142.249 96.672 142.995 95.3221 144.184C93.0921 146.148 91.2817 147.779 89.8886 149.078C88.1694 150.685 86.6156 152.493 84.9467 154.128C80.0048 158.969 74.1253 161.23 67.3059 160.914C64.8865 160.801 62.5487 160.365 60.2875 159.605C55.0243 157.837 50.936 154.099 46.7998 150.586C44.1382 148.328 41.057 146.277 37.5562 144.438C37.5202 144.263 37.6138 144.23 37.8416 144.342C37.9638 144.402 38.0454 144.441 38.0837 144.455C40.4504 145.407 42.4981 146.335 44.2269 147.241C46.3178 148.337 48.5166 149.678 50.8233 151.258C51.8808 151.984 52.9502 152.632 54.0124 153.313C58.6474 156.286 64.335 157.595 70.0778 157.475C72.3989 157.427 74.6361 157.01 76.7917 156.226C79.8657 155.104 82.2995 152.867 84.5055 150.395C84.599 150.289 84.587 150.2 84.4647 150.128C84.4096 150.097 84.2945 150.112 84.1194 150.174C82.6712 150.687 81.2541 151.126 79.741 151.399C76.902 151.91 73.9911 152.056 71.0106 151.833C65.0088 151.385 59.1606 149.853 53.4657 147.234C50.8641 146.038 48.3104 144.731 45.8023 143.314C40.4863 140.307 35.4437 137.159 30.6697 133.871C29.5403 133.092 28.4613 132.301 27.4302 131.497C27.0969 131.238 27.1305 131.174 27.5309 131.306C30.9766 132.425 34.4942 134.18 37.8368 135.804C43.4884 138.549 48.9458 141.24 54.6431 143.424C61.5368 146.071 69.1139 146.98 76.6359 146.822C78.4007 146.786 80.0144 146.642 81.477 146.39C85.3543 145.728 89.0877 144.196 92.6797 141.794C96.3172 139.36 99.5254 136.809 102.307 134.142C103.83 132.679 105.371 131.234 106.832 129.725C107.28 129.263 107.736 128.826 108.194 128.421C108.388 128.251 108.453 128.289 108.388 128.541C107.644 131.437 106.275 133.991 104.283 136.202C103.264 137.334 102.352 138.228 101.554 138.885C100.612 139.657 99.7532 140.384 98.9835 141.067C98.6622 141.35 98.3217 141.643 97.9621 141.945Z" fill="#D57257"/>
<path d="M13.7861 131.965C14.7092 130.313 17.5938 131.111 18.8934 131.682C22.7923 133.399 25.732 136.557 29.5901 138.374C29.8635 138.504 29.8491 138.559 29.5469 138.542C27.4369 138.427 25.3963 137.811 23.4277 136.693C21.6773 135.701 19.9581 134.703 18.2724 133.703C16.908 132.895 15.4502 132.387 13.8964 132.183C13.7933 132.169 13.7357 132.056 13.7861 131.965Z" fill="#D57257"/>
<path d="M17.4462 149.682C18.6356 150.764 20.0335 151.596 21.6424 152.183C24.8387 153.351 28.1429 153.986 31.5502 154.094C34.8664 154.197 38.161 153.991 41.4388 153.481C42.6018 153.298 43.8774 153.011 45.2633 152.615C46.3208 153.375 47.2391 154.339 48.0184 155.502L47.6276 155.675C47.6827 155.583 47.7163 155.511 47.7283 155.456C47.7403 155.394 47.6731 155.346 47.618 155.377C46.2728 156.161 44.9708 156.993 43.4938 157.547C41.3645 158.346 39.4534 158.854 37.7582 159.077C31.5694 159.892 25.6228 158.89 19.9184 156.073C16.8612 154.562 14.2619 152.572 11.8641 150.124C8.79731 146.997 6.53857 143.326 5.08789 139.113C5.09269 139.079 5.09748 139.046 5.10228 139.012C5.11187 138.947 5.14784 138.921 5.21258 138.931C5.26293 138.938 5.2989 138.964 5.32288 139.01C6.34674 140.887 7.62478 142.621 9.15699 144.211C10.6484 145.757 12.4636 147.038 14.2428 148.215C15.0676 148.759 15.9716 149.21 16.9547 149.565C17.029 149.591 17.0938 149.637 17.1465 149.697C17.2856 149.862 17.3863 149.857 17.4462 149.682Z" fill="#EDAEA0"/>
<path d="M106.404 141.007L104.985 141.283C100.254 142.1 96.2639 144.196 93.0172 147.57C91.6721 148.97 90.3509 150.524 89.0776 152.035C87.6509 153.725 86.1427 155.214 84.529 156.655C80.9706 159.835 76.6593 161.837 71.9524 162.42C66.9266 163.043 61.6178 162.257 57.0356 159.983C54.3476 158.648 51.8395 156.948 49.516 154.878C47.3915 152.987 45.8833 151.658 44.9913 150.891C41.4665 147.853 37.4454 144.992 32.8632 143.016L31.6211 142.331C32.5419 142.347 33.453 142.556 34.3522 142.961C35.8125 143.616 36.8795 144.107 37.5557 144.438C41.0565 146.277 44.1377 148.328 46.7993 150.586C50.9355 154.099 55.0238 157.837 60.287 159.605C62.5482 160.365 64.886 160.801 67.3054 160.914C74.1248 161.23 80.0043 158.969 84.9462 154.128C86.6151 152.493 88.1688 150.685 89.8881 149.078C91.2812 147.778 93.0916 146.148 95.3215 144.184C96.6715 142.995 97.5515 142.249 97.9615 141.945C98.8871 141.772 99.8007 141.583 100.702 141.376C101.304 141.24 101.925 141.139 102.565 141.074C103.316 141 103.942 140.918 104.44 140.827C105.225 140.686 105.879 140.746 106.404 141.007Z" fill="#FBBD94"/>
<path d="M106.974 141.252C106.447 141.273 106.032 141.326 105.732 141.405C105.643 141.432 105.61 141.499 105.627 141.611C105.567 141.609 105.533 141.547 105.526 141.427C105.519 141.348 105.475 141.304 105.396 141.302L104.986 141.283L106.406 141.007C107.104 140.894 107.787 140.846 108.461 140.868C108.621 140.873 108.792 140.923 108.967 141.021C109.065 141.077 109.058 141.108 108.948 141.115L106.974 141.252Z" fill="#D57257"/>
<path d="M106.973 141.252C108.155 141.177 109.33 141.273 110.495 141.539C111.478 141.762 112.411 142.036 113.296 142.359C114.845 142.925 116.166 143.726 117.257 144.76C117.403 144.901 117.528 145.057 117.626 145.23C117.746 145.441 117.905 145.608 118.099 145.733C118.154 145.769 118.178 145.836 118.159 145.899C118.123 146.016 118.063 146.05 117.979 146.004C117.348 145.431 116.634 144.944 115.835 144.544C112.862 143.052 109.63 142.266 106.354 141.77C106.098 141.758 105.855 141.705 105.625 141.611C105.608 141.499 105.642 141.431 105.731 141.405C106.03 141.326 106.445 141.273 106.973 141.252Z" fill="#FBBD94"/>
<path d="M31.6215 142.331L32.8636 143.016C32.7365 143.263 32.6406 143.345 32.571 143.259C32.5974 143.251 32.6166 143.239 32.6286 143.218C32.6429 143.194 32.6334 143.165 32.6094 143.153L30.8206 142.323C29.8783 141.885 28.8928 141.597 27.8617 141.46C27.8233 141.455 27.8066 141.434 27.8113 141.393L27.8185 141.333C27.8209 141.328 27.8233 141.326 27.8281 141.328C29.1301 141.511 30.3962 141.844 31.6215 142.331Z" fill="#D57257"/>
<path d="M104.985 141.283L105.395 141.302C105.475 141.304 105.518 141.348 105.525 141.427C105.532 141.547 105.566 141.609 105.626 141.611C105.856 141.705 106.098 141.758 106.355 141.77C106.062 141.779 105.77 141.774 105.477 141.753C105.156 141.726 104.87 141.741 104.619 141.796C104.185 141.889 103.765 141.985 103.362 142.084C102.935 142.189 102.525 142.323 102.132 142.489C101.513 142.75 100.904 142.985 100.303 143.196C99.739 143.395 99.1372 143.702 98.5018 144.122C97.4371 144.824 96.4828 145.525 95.6388 146.22C94.6437 147.042 93.6846 148.049 92.7638 149.239C92.042 150.172 91.3083 151.099 90.565 152.018C90.4307 152.183 90.3804 152.418 90.4163 152.718C89.7353 153.289 89.0951 153.943 88.4933 154.679C88.2631 154.962 88.0689 155.272 87.9106 155.605C87.8746 155.679 87.8914 155.742 87.961 155.79L88.0737 155.866C87.8579 155.821 87.7092 155.838 87.6301 155.917C86.4383 157.099 85.4648 158.008 84.7047 158.643C79.6861 162.842 73.6748 164.721 66.6659 164.283C63.6639 164.093 60.7889 163.405 58.0434 162.213C55.2715 161.012 52.526 159.302 50.1354 157.293C49.4256 156.696 48.7207 156.099 48.0181 155.502C47.2388 154.339 46.3204 153.375 45.263 152.615C44.8722 151.936 44.3446 151.344 43.6757 150.841C43.3615 150.603 43.093 150.375 42.8724 150.162C42.6254 149.92 42.3616 149.687 42.0787 149.459C41.9372 149.344 41.803 149.208 41.6807 149.047C41.5632 148.896 41.4385 148.752 41.3018 148.611C41.1939 148.498 41.0764 148.412 40.9445 148.347C40.8079 148.277 40.6832 148.186 40.5681 148.071C40.4146 147.918 40.242 147.771 40.0478 147.632C39.326 147.119 38.5923 146.594 37.8442 146.054C37.2183 145.606 36.041 144.935 34.3098 144.043C33.871 143.815 33.2284 143.554 32.3867 143.259H32.5714C32.6409 143.345 32.7368 143.263 32.8639 143.016C37.4461 144.992 41.4673 147.853 44.9921 150.891C45.884 151.658 47.3923 152.987 49.5167 154.878C51.8402 156.948 54.3483 158.648 57.0363 159.983C61.6185 162.257 66.9273 163.043 71.9531 162.42C76.66 161.837 80.9713 159.835 84.5297 156.655C86.1434 155.214 87.6516 153.725 89.0783 152.035C90.3516 150.524 91.6728 148.97 93.018 147.57C96.2646 144.196 100.255 142.1 104.985 141.283Z" fill="#2C2C2C"/>
<path d="M106.356 141.77C109.631 142.266 112.863 143.052 115.837 144.544C116.635 144.944 117.35 145.431 117.98 146.004C119.321 147.498 118.681 149.462 117.275 150.596C115.832 151.761 114.173 152.622 112.3 153.178C110.442 153.73 108.624 154.092 106.845 154.265C102.543 154.684 98.2656 154.476 94.0142 153.641L90.4175 152.718C90.3815 152.418 90.4319 152.183 90.5662 152.018C91.3095 151.099 92.0432 150.172 92.765 149.239C93.6857 148.049 94.6449 147.042 95.64 146.22C96.484 145.525 97.4383 144.824 98.5029 144.122C99.1384 143.702 99.7402 143.395 100.304 143.196C100.906 142.985 101.515 142.75 102.133 142.489C102.526 142.323 102.937 142.189 103.363 142.084C103.766 141.985 104.186 141.889 104.62 141.796C104.872 141.741 105.157 141.726 105.478 141.753C105.771 141.774 106.063 141.779 106.356 141.77Z" fill="#5E2F19"/>
<path d="M30.8208 142.323L32.6095 143.153C32.6335 143.165 32.6431 143.194 32.6287 143.218C32.6167 143.239 32.5975 143.251 32.5712 143.259H32.3865C31.7008 143.22 31.0222 143.17 30.3484 143.11C28.1736 142.913 26.0107 142.961 23.8575 143.256C21.546 143.57 19.3448 144.354 17.2539 145.613C17.5129 145.091 17.815 144.695 18.1603 144.429C19.3088 143.544 20.5245 142.94 21.8074 142.618C22.2725 142.501 22.7353 142.381 23.1957 142.259C24.3059 141.966 25.4832 141.856 26.615 141.767C26.9459 141.741 27.2216 141.94 27.5549 141.947C28.6531 141.971 29.7417 142.096 30.8208 142.323Z" fill="#FBBD94"/>
<path d="M32.387 143.259C33.2286 143.554 33.8712 143.815 34.31 144.043C36.0413 144.935 37.2186 145.606 37.8444 146.054C38.5925 146.594 39.3263 147.119 40.048 147.632C40.2422 147.771 40.4149 147.918 40.5683 148.071C40.6834 148.186 40.8081 148.277 40.9448 148.347C41.0767 148.412 41.1942 148.498 41.3021 148.611C41.4387 148.752 41.5634 148.896 41.6809 149.047C41.8032 149.208 41.9375 149.344 42.079 149.459C42.3619 149.687 42.6257 149.92 42.8726 150.162C43.0932 150.375 43.3618 150.603 43.6759 150.841C44.3449 151.344 44.8724 151.936 45.2633 152.615C43.8773 153.011 42.6017 153.298 41.4387 153.481C38.1609 153.991 34.8663 154.197 31.5501 154.094C28.1428 153.986 24.8386 153.351 21.6424 152.183C20.0334 151.596 18.6355 150.764 17.4462 149.682C16.6837 148.802 16.3839 147.872 16.547 146.891C16.6213 146.443 16.8563 146.016 17.2544 145.613C19.3452 144.354 21.5464 143.57 23.8579 143.256C26.0112 142.961 28.174 142.913 30.3488 143.11C31.0226 143.17 31.7012 143.22 32.387 143.259Z" fill="#5E2F19"/>
<path d="M124.231 150.493C122.895 151.689 121.727 152.658 120.728 153.397C117.361 155.883 113.57 157.61 109.355 158.576C103.024 160.031 96.8764 159.525 90.913 157.06C90.2321 156.78 89.4408 156.353 88.5392 155.78C88.4769 155.739 88.4097 155.722 88.3402 155.725C88.2179 155.73 88.1579 155.782 88.1651 155.883C88.134 155.914 88.1052 155.91 88.074 155.866L87.9613 155.79C87.8918 155.742 87.875 155.679 87.911 155.605C88.0692 155.272 88.2634 154.962 88.4936 154.679C89.0955 153.943 89.7357 153.289 90.4167 152.718L94.0134 153.641C93.9487 153.624 93.8887 153.634 93.8336 153.665C93.7664 153.706 93.7808 153.807 93.8576 153.826C95.4041 154.219 96.8716 154.512 98.2552 154.706C99.5764 154.89 101.008 155.039 102.545 155.154C106.537 155.454 110.585 155.094 114.69 154.078C118.179 153.212 121.202 151.754 124.2 149.905C124.25 149.874 124.307 149.86 124.365 149.865C124.535 149.877 124.6 149.925 124.559 150.011C124.475 150.191 124.305 150.27 124.231 150.493Z" fill="#EDAEA0"/>
<path d="M48.0182 155.502C48.7207 156.099 49.4257 156.696 50.1354 157.293C52.5261 159.302 55.2716 161.012 58.0434 162.213C60.7889 163.405 63.6639 164.093 66.666 164.283C73.6748 164.721 79.6861 162.842 84.7048 158.643C85.4649 158.008 86.4384 157.099 87.6301 155.917C87.7092 155.838 87.8579 155.821 88.0737 155.866C88.1049 155.909 88.1337 155.914 88.1648 155.883L88.7571 156.236C88.7739 156.343 88.8578 156.427 89.0041 156.487C89.0688 156.514 89.1216 156.559 89.1575 156.622C89.2199 156.722 89.3014 156.804 89.3997 156.869C91.963 158.511 94.7444 159.734 97.7417 160.532C98.6361 160.77 99.5713 160.931 100.545 161.014C100.626 161.022 100.708 161.017 100.789 161.002C100.864 160.99 100.931 161.007 100.988 161.053C101.051 161.103 101.123 161.13 101.202 161.13C102.245 161.142 103.285 161.182 104.326 161.254C104.736 161.283 105.139 161.283 105.539 161.257C106.491 161.189 107.405 161.379 108.342 161.245C110.014 161.007 111.723 160.724 113.471 160.398C112.814 160.856 112.179 161.254 111.568 161.592C109.292 162.851 106.947 163.969 104.535 164.947C94.7085 168.937 84.5082 171.08 73.9314 171.38C72.3728 171.426 70.7735 171.445 69.1357 171.438C60.8393 171.411 52.7275 170.313 44.8027 168.143C38.9232 166.534 33.2188 164.22 27.6895 161.206C29.1114 161.353 30.7587 161.379 32.6314 161.283C35.631 161.132 38.1967 160.643 40.3332 159.818C41.6567 159.307 42.8005 158.828 43.7668 158.379C44.4742 158.053 45.0497 157.602 45.4909 157.027L47.6273 155.674L48.0182 155.502Z" fill="#FFE5CA"/>
</svg>
