<svg width="16" height="18" viewBox="0 0 16 18" fill="none" xmlns="http://www.w3.org/2000/svg">
<path d="M4.7411 16.1596C5.12657 16.647 5.61777 17.0405 6.17759 17.3103C6.73741 17.58 7.35122 17.7191 7.97266 17.7169C8.59409 17.7191 9.2079 17.58 9.76772 17.3103C10.3275 17.0405 10.8187 16.647 11.2042 16.1596C9.05962 16.4498 6.88569 16.4498 4.7411 16.1596ZM13.9521 6.20091V6.82455C13.9521 7.57309 14.1647 8.30479 14.5651 8.92754L15.5466 10.4539C16.4422 11.8482 15.7583 13.743 14.2001 14.1833C10.1285 15.3363 5.81677 15.3363 1.74517 14.1833C0.186968 13.743 -0.496904 11.8482 0.398685 10.4539L1.3802 8.92754C1.78168 8.29965 1.99472 7.56982 1.99409 6.82455V6.20091C1.99409 2.77624 4.67111 0 7.97266 0C11.2742 0 13.9521 2.77624 13.9521 6.20091Z" fill="#5F311A"/>
</svg>
