<svg width="105" height="72" viewBox="0 0 105 72" fill="none" xmlns="http://www.w3.org/2000/svg">
<path d="M64.271 56.3766C56.8985 60.9435 48.0224 61.0297 40.81 57.3878C36.997 55.4647 33.6424 52.4941 31.2333 48.5974C24.2574 37.3282 27.7433 22.5357 39.0125 15.5598C46.6931 10.822 55.9988 10.9103 63.3521 15.0166C66.8085 16.9399 69.8231 19.7483 72.0495 23.3402C79.0264 34.6092 75.5405 49.4017 64.271 56.3766Z" fill="#FFC741"/>
<path d="M64.2708 56.3766C56.8983 60.9435 48.0223 61.0297 40.8098 57.3878C42.1658 56.4827 43.4984 55.5351 44.8074 54.545C52.4091 48.773 58.9944 41.2831 62.1465 32.2669C64.0568 26.7763 64.5567 20.6706 63.3526 15.0153C66.809 16.9386 69.8236 19.747 72.05 23.339C79.0262 34.6092 75.5403 49.4017 64.2708 56.3766Z" fill="#FFAA41"/>
<path d="M69.2966 19.7041C69.5616 19.9988 69.8277 20.2932 70.0799 20.6107C83.6969 13.1715 92.0032 9.89518 93.1378 10.6253C93.286 11.9661 86.623 17.9668 73.8498 26.859C68.4447 30.6212 61.9389 34.897 54.3956 39.5657C46.5006 44.4514 39.4972 48.5079 33.5391 51.736C20.2578 58.9541 12.2112 62.1114 11.2031 61.3578C10.966 60.0993 17.3565 54.3095 29.6843 45.6647C29.5229 45.2911 29.3678 44.9286 29.2325 44.5531C18.3175 52.1556 8.81852 59.7317 10.1944 61.9535C11.5764 64.1863 22.6377 59.0239 34.352 52.6226C41.7453 48.5898 49.3957 44.05 55.018 40.5713C60.4385 37.2169 67.5694 32.6234 74.2647 27.9797C85.5241 20.191 95.5655 12.2798 94.1534 9.99682C92.7461 7.72313 81.2557 13.1379 69.2966 19.7041Z" fill="#49C3DC"/>
</svg>
