<svg width="18" height="20" viewBox="0 0 18 20" fill="none" xmlns="http://www.w3.org/2000/svg">
<path d="M2 11.5C2 12.9834 2.43986 14.4334 3.26397 15.6668C4.08808 16.9001 5.25942 17.8614 6.62987 18.4291C8.00032 18.9968 9.50832 19.1453 10.9632 18.8559C12.418 18.5665 13.7544 17.8522 14.8033 16.8033C15.8522 15.7544 16.5665 14.418 16.8559 12.9632C17.1453 11.5083 16.9968 10.0003 16.4291 8.62987C15.8614 7.25943 14.9001 6.08809 13.6668 5.26398C12.4334 4.43987 10.9834 4 9.5 4H0.999996M0.999996 4L4 1M0.999996 4L4 7" stroke="#444343" stroke-width="2" stroke-linecap="round" stroke-linejoin="round"/>
</svg>
