<svg width="19" height="20" viewBox="0 0 19 20" fill="none" xmlns="http://www.w3.org/2000/svg">
<path d="M9.24412 7.09952C8.59207 7.09952 7.98145 7.35249 7.51912 7.81481C7.05898 8.27714 6.80383 8.88776 6.80383 9.53981C6.80383 10.1919 7.05898 10.8025 7.51912 11.2648C7.98145 11.7249 8.59207 11.9801 9.24412 11.9801C9.89617 11.9801 10.5068 11.7249 10.9691 11.2648C11.4293 10.8025 11.6844 10.1919 11.6844 9.53981C11.6844 8.88776 11.4293 8.27714 10.9691 7.81481C10.7433 7.58726 10.4745 7.40685 10.1784 7.28406C9.88227 7.16127 9.56469 7.09854 9.24412 7.09952ZM18.2355 12.2352L16.8092 11.0162C16.8768 10.6018 16.9117 10.1788 16.9117 9.75788C16.9117 9.337 16.8768 8.91174 16.8092 8.49958L18.2355 7.28052C18.3432 7.18829 18.4203 7.06545 18.4565 6.92832C18.4928 6.7912 18.4864 6.6463 18.4383 6.51289L18.4186 6.45619C18.0261 5.35858 17.438 4.34118 16.6827 3.45326L16.6435 3.40746C16.5518 3.29963 16.4296 3.22211 16.2929 3.18513C16.1563 3.14814 16.0116 3.15343 15.878 3.20029L14.1073 3.83053C13.453 3.29406 12.7246 2.87099 11.9352 2.57659L11.5928 0.725108C11.567 0.585631 11.4993 0.457314 11.3988 0.357206C11.2983 0.257099 11.1698 0.189938 11.0302 0.164649L10.9713 0.153745C9.83729 -0.0512482 8.64222 -0.0512482 7.50822 0.153745L7.44934 0.164649C7.30976 0.189938 7.18118 0.257099 7.08069 0.357206C6.98019 0.457314 6.91253 0.585631 6.8867 0.725108L6.54214 2.58531C5.76016 2.88205 5.03171 3.30409 4.38535 3.8349L2.60147 3.20029C2.46793 3.15306 2.32319 3.14758 2.18646 3.18459C2.04973 3.22159 1.92751 3.29933 1.83602 3.40746L1.79677 3.45326C1.04284 4.34211 0.454859 5.35927 0.0608679 6.45619L0.0412408 6.51289C-0.0568941 6.78549 0.0237947 7.0908 0.244053 7.28052L1.68773 8.51266C1.62012 8.92265 1.58741 9.34136 1.58741 9.7557C1.58741 10.1744 1.62012 10.5931 1.68773 10.9987L0.248415 12.2309C0.140675 12.3231 0.0635642 12.446 0.0273361 12.5831C-0.00889195 12.7202 -0.00252089 12.8651 0.0456023 12.9985L0.0652294 13.0552C0.45995 14.1522 1.04222 15.1662 1.80113 16.0581L1.84038 16.1039C1.93209 16.2118 2.05432 16.2893 2.19097 16.3263C2.32761 16.3633 2.47225 16.358 2.60583 16.3111L4.38971 15.6765C5.03958 16.2108 5.7636 16.6339 6.5465 16.9261L6.89106 18.7863C6.91689 18.9258 6.98455 19.0541 7.08505 19.1542C7.18555 19.2543 7.31412 19.3215 7.4537 19.3468L7.51258 19.3577C8.65774 19.5637 9.83049 19.5637 10.9757 19.3577L11.0345 19.3468C11.1741 19.3215 11.3027 19.2543 11.4032 19.1542C11.5037 19.0541 11.5713 18.9258 11.5972 18.7863L11.9396 16.9348C12.729 16.6382 13.4574 16.2173 14.1116 15.6809L15.8824 16.3111C16.0159 16.3583 16.1607 16.3638 16.2974 16.3268C16.4341 16.2898 16.5564 16.2121 16.6479 16.1039L16.6871 16.0581C17.446 15.1618 18.0283 14.1522 18.423 13.0552L18.4426 12.9985C18.5364 12.7281 18.4557 12.425 18.2355 12.2352ZM9.24412 13.3736C7.12658 13.3736 5.41031 11.6573 5.41031 9.53981C5.41031 7.42227 7.12658 5.706 9.24412 5.706C11.3617 5.706 13.0779 7.42227 13.0779 9.53981C13.0779 11.6573 11.3617 13.3736 9.24412 13.3736Z" fill="#BF735A"/>
</svg>
