<svg width="17" height="17" viewBox="0 0 17 17" fill="none" xmlns="http://www.w3.org/2000/svg">
<path d="M11.9993 10.3518C13.462 9.40724 13.462 6.96318 11.9993 6.01863L3.16762 0.315272C1.74751 -0.602274 0 0.592746 0 2.48268V13.8877C0 15.7785 1.74669 16.9727 3.16762 16.0552L11.9993 10.3518ZM16.984 2.45567C16.984 2.29286 16.9193 2.13671 16.8042 2.02159C16.6891 1.90646 16.5329 1.84179 16.3701 1.84179C16.2073 1.84179 16.0512 1.90646 15.936 2.02159C15.8209 2.13671 15.7562 2.29286 15.7562 2.45567V13.9148C15.7562 14.0776 15.8209 14.2337 15.936 14.3488C16.0512 14.464 16.2073 14.5286 16.3701 14.5286C16.5329 14.5286 16.6891 14.464 16.8042 14.3488C16.9193 14.2337 16.984 14.0776 16.984 13.9148V2.45567Z" fill="#462E2E"/>
</svg>
