<svg width="116" height="139" viewBox="0 0 116 139" fill="none" xmlns="http://www.w3.org/2000/svg">
<path d="M39.2542 44.9181C39.264 44.9181 39.274 44.9161 39.2835 44.9119C39.3207 44.8957 39.3377 44.8525 39.3215 44.8153C38.978 44.0262 38.8074 43.2707 38.6268 42.4708C38.5615 42.1815 38.4939 41.8824 38.4177 41.5822C35.6365 30.6374 32.204 21.9803 23.6979 12.6524C23.6706 12.6224 23.6242 12.6203 23.5941 12.6476C23.5642 12.6749 23.562 12.7213 23.5893 12.7514C32.0748 22.0567 35.4997 30.6957 38.2752 41.6183C38.351 41.9166 38.4183 42.2147 38.4835 42.5031C38.6656 43.31 38.8377 44.0721 39.1868 44.8739C39.1988 44.9015 39.2259 44.918 39.2541 44.918L39.2542 44.9181Z" fill="#1A0C54"/>
<path d="M26.1729 11.2881C26.7587 11.1611 27.2345 11.8014 27.7192 12.1539C25.5051 12.6245 26.5585 14.1607 25.8964 15.237C24.6502 16.2687 22.5549 13.5945 22.6852 16.6381C22.613 16.6314 22.031 15.6736 22.3164 14.5918C24.4189 14.3971 25.889 13.5115 26.1729 11.2881Z" fill="#1A0C54"/>
<path d="M21.0208 10.5357C21.0428 10.5357 21.0645 10.5259 21.079 10.507C21.1038 10.4749 21.0977 10.4288 21.0655 10.404L14.3641 5.25245C14.3319 5.22777 14.2858 5.23372 14.2611 5.26597C14.2364 5.29814 14.2424 5.3442 14.2746 5.36895L20.976 10.5205C20.9894 10.5308 21.0051 10.5357 21.0208 10.5357Z" fill="#1A0C54"/>
<path d="M22.3269 10.6716C22.3339 10.6716 22.3411 10.6705 22.3483 10.6684C22.3871 10.6566 22.409 10.6156 22.3972 10.5767L19.9412 2.48865C19.9294 2.44987 19.8883 2.42798 19.8496 2.43973C19.8109 2.45155 19.7889 2.49254 19.8006 2.5314L22.2566 10.6195C22.2662 10.6512 22.2954 10.6716 22.3269 10.6716V10.6716Z" fill="#1A0C54"/>
<path d="M20.5233 8.81344C20.5377 8.81344 20.5523 8.80918 20.565 8.80036C20.5984 8.7773 20.6067 8.73154 20.5836 8.69819L16.5782 2.90712C16.5552 2.87369 16.5093 2.8654 16.476 2.88853C16.4426 2.9116 16.4343 2.95736 16.4574 2.9907L20.4628 8.78178C20.4771 8.80242 20.5 8.81344 20.5233 8.81344Z" fill="#1A0C54"/>
<path d="M24.6968 14.1055C29.5255 9.31657 30.8011 4.01234 28.3893 0.525184C27.3604 -0.962377 24.7099 0.999908 24.7517 2.8078C22.8353 1.70028 21.524 4.05142 21.7128 5.79181C19.6469 4.51505 16.7639 6.16634 16.8192 8.5938C15.4564 7.45418 13.2209 8.54084 13.2746 10.3161C11.6178 9.64975 10.0313 11.5945 11.0205 13.0836C14.0608 16.6182 19.3816 16.723 24.6968 14.1055V14.1055Z" fill="#FFB86B"/>
<path d="M24.6956 13.9914C24.7283 13.9914 24.7573 13.9697 24.7663 13.9379C24.7772 13.8993 25.8544 10.0511 25.8791 7.88692C25.8993 6.12223 25.5263 4.33902 24.8006 2.73026C24.7838 2.69324 24.7403 2.67686 24.7034 2.69346C24.6665 2.71013 24.65 2.75362 24.6666 2.79064C25.3837 4.38008 25.7521 6.14176 25.7321 7.88531C25.7117 9.66925 24.9667 12.6188 24.7103 13.5828C24.4762 12.327 23.5278 7.75133 21.8192 5.78126C21.7926 5.75056 21.7463 5.74732 21.7156 5.77391C21.685 5.8005 21.6817 5.84685 21.7082 5.87755C23.6612 8.12946 24.6137 13.8721 24.6231 13.9298C24.6286 13.9638 24.657 13.9894 24.6914 13.9913C24.6928 13.9913 24.6942 13.9914 24.6956 13.9914H24.6956Z" fill="#1A0C54"/>
<path d="M24.697 14.1791C24.7278 14.1791 24.7565 14.1595 24.7667 14.1287C24.7795 14.0902 24.7587 14.0486 24.7201 14.0358C22.2318 13.2113 18.8388 11.5929 16.8052 8.56604C16.7826 8.5324 16.7368 8.52351 16.7033 8.54606C16.6696 8.56868 16.6606 8.6143 16.6833 8.64801C18.74 11.7094 22.1639 13.3435 24.674 14.1753C24.6816 14.1779 24.6894 14.1791 24.697 14.1791Z" fill="#1A0C54"/>
<path d="M22.023 14.5005C23.3518 14.5005 24.3651 14.3266 24.7258 14.1732C24.7631 14.1573 24.7805 14.1141 24.7646 14.0768C24.7488 14.0395 24.7057 14.0222 24.6683 14.038C24.0776 14.2893 21.8423 14.5394 19.4911 14.1436C17.406 13.7925 14.6335 12.8372 13.266 10.28C13.2468 10.2442 13.2023 10.2308 13.1666 10.2499C13.1309 10.269 13.1174 10.3135 13.1365 10.3493C14.5321 12.9591 17.3492 13.9319 19.4668 14.2884C20.3808 14.4423 21.2546 14.5005 22.023 14.5005Z" fill="#1A0C54"/>
<path d="M13.8434 6.52333C13.534 6.076 13.6458 5.4626 14.0931 5.15322C14.5405 4.84384 15.1539 4.95563 15.4632 5.40296C15.7726 5.85028 15.6608 6.46368 15.2135 6.77307C14.7662 7.08245 14.1528 6.97065 13.8434 6.52333Z" fill="#2E42FF"/>
<path d="M15.3458 2.9853C15.0364 2.53798 15.1482 1.92458 15.5956 1.61519C16.0429 1.30581 16.6563 1.41761 16.9657 1.86493C17.2751 2.31226 17.1633 2.92566 16.7159 3.23504C16.2686 3.54443 15.6552 3.43263 15.3458 2.9853Z" fill="#2E42FF"/>
<path d="M19.3712 2.59575C19.0618 2.14842 19.1736 1.53502 19.621 1.22564C20.0683 0.916254 20.6817 1.02805 20.9911 1.47538C21.3005 1.9227 21.1887 2.5361 20.7413 2.84549C20.294 3.15487 19.6806 3.04307 19.3712 2.59575Z" fill="#2E42FF"/>
<path opacity="0.5" d="M48.0271 106.626C68.418 106.626 84.9482 90.0963 84.9482 69.7054C84.9482 49.3144 68.418 32.7843 48.0271 32.7843C27.6361 32.7843 11.106 49.3144 11.106 69.7054C11.106 90.0963 27.6361 106.626 48.0271 106.626Z" fill="#FFEADF"/>
<path d="M98.3075 96.8539C98.3075 96.8539 76.3445 69.8148 76.3074 69.7957L71.043 63.3209C71.3997 62.9121 71.8032 62.5436 72.2449 62.2236L72.2457 62.223C72.2818 62.1976 72.3178 62.172 72.3538 62.1464C72.3891 62.1215 72.4136 62.1053 72.4233 62.0986C73.0553 61.7224 73.7153 61.3929 74.3956 61.1149C75.3478 60.7258 76.3623 60.4349 77.3892 60.3131C78.6132 60.1649 79.8541 60.2567 81.028 60.7024C82.1677 61.1352 83.2424 61.7663 84.1537 62.564C85.6643 63.8833 86.729 65.6585 86.9059 67.7439C87.0127 68.9977 86.7704 70.4341 87.4651 71.5585C88.5271 73.2779 90.5715 72.2959 91.8589 71.4588C95.3267 69.2047 100.518 65.433 104.601 68.5782C105.322 69.1339 105.664 69.827 105.754 70.5702C105.932 72.0325 105.14 73.6943 104.365 74.9045C103.115 76.8594 101.514 78.6759 100.431 80.7267C99.6296 82.2454 99.7287 83.8857 101.017 85.0984C101.45 85.505 101.77 85.9802 101.994 86.4947C102.511 87.6837 102.518 89.0907 102.223 90.393C102.117 90.859 101.973 91.3122 101.801 91.7363C101.045 93.5929 99.5863 95.3091 98.3075 96.8539Z" fill="url(#paint0_linear_50_2815)" fill-opacity="0.66"/>
<path fill-rule="evenodd" clip-rule="evenodd" d="M96.1641 7.2679C97.3153 6.2979 97.5146 7.81049 102.914 4.75714C110.31 0.57414 102.957 -0.588377 100.065 0.926193C98.9188 1.5265 97.7973 2.49795 96.9021 3.91113C95.7999 5.6513 94.7587 5.04527 95.004 7.50526C95.1564 9.03549 95.2753 8.01674 96.1641 7.2679Z" fill="#FC346C"/>
<path fill-rule="evenodd" clip-rule="evenodd" d="M94.8554 17.1857C98.7908 16.0722 103.094 12.1143 105.424 8.84858C109.855 2.63931 105.619 3.75351 101.574 6.30329C99.4148 7.66495 97.7963 7.34069 96.8493 7.85356C95.4596 8.6062 95.7093 11.9177 93.3737 10.173C91.7564 8.96493 90.4309 8.93666 88.8195 10.026C84.8185 12.7307 86.9099 19.4341 94.8554 17.1857Z" fill="#FFE946"/>
<path fill-rule="evenodd" clip-rule="evenodd" d="M58.7541 24.2101C58.6778 24.2017 58.6228 24.1331 58.6312 24.0567C58.6396 23.9804 58.7083 23.9254 58.7846 23.9337C64.1787 24.5374 65.332 25.5596 66.5275 26.6192C67.4426 27.4304 68.3834 28.2642 71.4082 28.9431C75.0905 29.7697 76.7768 28.3173 78.2894 27.0146C79.4226 26.0384 80.4622 25.1431 82.1453 25.2795C84.5854 25.4773 86.2007 25.2354 87.3553 24.6881C88.5 24.1456 89.1978 23.2962 89.8041 22.2756C89.9086 22.0996 89.9644 22.0048 90.0245 21.9027C90.6653 20.814 91.541 19.3263 92.6133 18.1271C88.9435 18.0588 87.6147 16.2682 87.5657 14.3161C87.5414 13.3488 87.8365 12.3428 88.3182 11.4911C88.8018 10.6363 89.4757 9.93341 90.2066 9.57628C90.5168 9.4247 90.8363 9.33379 91.1552 9.31754C91.4898 8.98751 91.8604 8.74086 92.2544 8.61264C92.8737 8.41109 93.5461 8.49708 94.2215 9.00226C94.5092 6.88332 95.7533 5.71749 97.0804 4.4741C97.7535 3.84349 98.4484 3.19235 99.0423 2.38552C100.22 0.785487 101.195 0.0741123 101.943 0.00580749C102.605 -0.0547475 103.084 0.361495 103.368 1.1028C103.54 1.55127 103.64 2.12326 103.665 2.78102C104.97 2.11331 106.166 1.70835 106.806 2.02539C107.564 2.40091 107.571 3.69662 106.147 6.56894C104.987 8.90991 103.737 10.6479 102.313 12.1792C100.891 13.7088 99.3005 15.0277 97.4563 16.5349L97.4561 16.5345C97.4191 16.5647 97.3677 16.575 97.3198 16.5572C95.8081 15.9908 94.4375 16.6964 93.2672 17.8438C94.3245 17.8028 95.4233 17.5818 96.3954 17.2877C97.6254 16.9155 98.6449 16.4293 99.1137 16.0462C99.4617 15.7618 99.7856 15.3849 100.106 15.0119C100.992 13.9817 101.854 12.9784 103.192 13.7773C103.258 13.8166 103.279 13.9019 103.24 13.9677C103.2 14.0334 103.115 14.0548 103.049 14.0156C101.912 13.3367 101.125 14.2523 100.317 15.1926C99.9876 15.576 99.6545 15.9636 99.2899 16.2616C98.7962 16.6651 97.7399 17.1717 96.4759 17.5543C95.4462 17.8658 94.2733 18.097 93.1481 18.1253C93.0947 18.1266 93.042 18.1274 92.9896 18.1281C91.8586 19.334 90.9302 20.9108 90.2638 22.0431L90.0433 22.417C89.4116 23.4806 88.681 24.3673 87.4738 24.9395C86.2766 25.5069 84.6161 25.7589 82.1235 25.5569C80.5547 25.4297 79.5578 26.2883 78.4709 27.2245C76.9081 28.5706 75.1658 30.0712 71.3472 29.214C68.2529 28.5194 67.2851 27.6615 66.3435 26.827C65.1819 25.7973 64.0611 24.804 58.7541 24.2101ZM92.8682 17.8514C94.1258 16.5399 95.6354 15.6735 97.3402 16.2705C99.1522 14.7892 100.717 13.4878 102.11 11.99C103.516 10.4773 104.752 8.75988 105.898 6.44612C107.231 3.75637 107.293 2.57686 106.683 2.27456C106.103 1.98718 104.946 2.40738 103.671 3.07893C103.672 3.35883 103.661 3.65226 103.637 3.95653C103.353 7.50752 101.313 12.5946 97.1948 15.0527C93.0109 17.5502 90.8142 17.09 89.9269 15.6036C89.2973 14.549 89.3444 12.9751 89.8138 11.5819C90.0588 10.855 90.4197 10.1751 90.8603 9.6409C90.681 9.67836 90.5029 9.74127 90.3285 9.82652C89.6482 10.159 89.0167 10.8205 88.5598 11.6283C88.1011 12.4391 87.8201 13.3941 87.8431 14.3096C87.8896 16.1643 89.2059 17.8615 92.8682 17.8514ZM103.393 3.22853C101.912 4.03878 100.32 5.1369 99.3112 5.83234C98.7741 6.20278 98.3987 6.46178 98.2713 6.51432C97.4009 6.87396 96.8324 7.69549 96.4656 8.68287C96.1661 9.48889 96.001 10.4042 95.916 11.2734C96.2157 11.8834 96.5069 12.6081 96.7845 13.4613C96.9903 14.0938 96.9229 14.6361 96.749 14.9332C96.7281 14.9689 96.7054 15.0016 96.6813 15.0311C96.8029 14.9617 96.9266 14.8894 97.0521 14.8145C101.083 12.4085 103.08 7.41923 103.359 3.93477C103.379 3.69127 103.39 3.45541 103.393 3.22853ZM99.1535 5.60391C100.195 4.88532 101.847 3.74632 103.391 2.92399C103.376 2.24121 103.281 1.65271 103.108 1.20178C102.871 0.583352 102.487 0.234666 101.968 0.282127C101.296 0.343537 100.392 1.02081 99.2665 2.54981C98.6573 3.37738 97.9529 4.03734 97.2708 4.67651C95.9519 5.91219 94.7176 7.06894 94.481 9.21717C94.8877 9.5874 95.2932 10.1158 95.6866 10.8315C95.783 10.0689 95.9446 9.28852 96.2056 8.58602C96.5972 7.532 97.2126 6.65147 98.1658 6.25762C98.2651 6.21662 98.6307 5.96452 99.1535 5.60391ZM95.8715 11.8311C95.8412 12.3121 95.8333 12.767 95.8375 13.1669C95.8475 14.1244 96.0065 14.6454 96.1933 14.8543C96.2514 14.9193 96.3066 14.9442 96.353 14.9354C96.4066 14.9253 96.4616 14.8751 96.5097 14.7929C96.6503 14.5528 96.6993 14.0974 96.5203 13.5473C96.3097 12.9004 96.0927 12.3307 95.8715 11.8311ZM95.5601 13.1691C95.5544 12.6296 95.5706 11.9914 95.6328 11.3224C95.246 10.5454 94.8486 9.97189 94.4519 9.56885C94.4167 10.1915 94.4608 10.8936 94.6039 11.6983C94.6593 12.0093 94.6546 12.238 94.6007 12.3717C94.5558 12.4831 94.4803 12.5451 94.3769 12.555C94.2937 12.5631 94.2018 12.5301 94.1041 12.454C93.902 12.2966 93.6282 11.9126 93.3165 11.2747C92.7392 10.0936 92.0035 9.61118 91.263 9.60108C90.7602 10.1301 90.347 10.869 90.0771 11.67C89.6308 12.9945 89.5795 14.4802 90.165 15.461C90.928 16.7391 92.803 17.1556 96.3525 15.2147C96.2272 15.2215 96.1006 15.1668 95.9865 15.0392C95.7618 14.7878 95.5709 14.2036 95.5601 13.1691ZM94.1861 9.32374C93.5466 8.79339 92.9156 8.68987 92.3403 8.87704C92.0611 8.9679 91.7939 9.12588 91.5441 9.33572C92.2836 9.44496 92.999 9.99129 93.5667 11.1528C93.8592 11.7514 94.1036 12.1018 94.2749 12.2354C94.3137 12.2656 94.339 12.2798 94.3508 12.2786C94.3591 12.2778 94.3398 12.2759 94.3428 12.2683C94.3778 12.1815 94.3758 12.0054 94.3298 11.7462C94.1646 10.8177 94.126 10.0211 94.1861 9.32374Z" fill="black"/>
<path d="M47.6769 44.3223C54.9556 44.3223 60.8562 38.4217 60.8562 31.143C60.8562 23.8642 54.9556 17.9637 47.6769 17.9637C40.3981 17.9637 34.4976 23.8642 34.4976 31.143C34.4976 38.4217 40.3981 44.3223 47.6769 44.3223Z" fill="#FF219F"/>
<path d="M43.4219 127.995C47.5891 129.764 52.3536 130.088 56.722 128.9L57.171 134.653C52.9763 134.869 47.9988 135.237 44.3241 132.947C43.0354 131.662 43.1921 129.663 43.4217 127.995L43.4219 127.995Z" fill="#FFB8E9"/>
<path d="M37.1564 94.7764C37.1564 94.7764 28.4441 107.484 29.9117 111.574C31.3793 115.664 43.9128 126.615 51.4875 124.893C59.0622 123.172 70.8572 118.335 71.0536 112.092C71.2501 105.849 65.4003 95.4245 65.4003 95.4245L37.1564 94.7764Z" fill="#FF9900"/>
<path d="M65.9871 100.989C76.1339 103.644 102.156 109.401 102.311 122.828C102.426 132.839 80.2855 134.304 64.3384 119.118L65.9871 100.989V100.989Z" fill="#FF9900"/>
<path d="M33.6407 101.58C31.4547 101.233 2.98232 110.027 3.40505 120.031C3.82779 130.034 21.9494 133.685 38.496 119.154L33.6407 101.58Z" fill="#FF9900"/>
<path d="M34.91 103.32C31.1141 105.937 28.9515 110.986 29.7453 112.263C30.539 113.54 51.4982 121.217 51.4982 121.217C46.908 123.721 17.1098 114.747 16.3787 114.501C13.5355 113.544 16.6805 110.037 20.3774 108.76C24.0743 107.483 34.91 103.32 34.91 103.32Z" fill="#F06400"/>
<path d="M68.928 103.657C72.4568 107.757 76.6687 112.726 75.8749 114.003C75.0811 115.28 52.9199 122.92 52.9199 122.92C57.5101 125.424 93.0821 115.715 93.0821 115.715C93.0821 115.715 87.7378 111.74 84.0408 110.463C80.3439 109.186 68.928 103.657 68.928 103.657Z" fill="#F06400"/>
<path d="M60.0854 116.898C65.1883 118.042 69.7186 114.169 74.9455 118.093C76.3979 118.883 77.0451 121.284 75.8154 122.129C68.6803 128.156 59.3188 129.796 49.9786 129.712L47.9922 121.13C53.9725 121.474 52.6766 115.237 60.0854 116.898V116.898Z" fill="#FFB8E9"/>
<path d="M46.9697 58.3488C36.3604 60.2847 29.182 59.964 29.5967 68.4287C29.9472 75.585 34.1212 103.32 34.1212 103.32C41.8723 106.148 55.1803 107.227 69.8484 102.923C69.8484 102.923 74.096 72.1916 74.4801 68.2992C75.3044 59.9448 56.7518 58.349 56.7518 58.349H46.9699L46.9697 58.3488Z" fill="#2E42FF"/>
<path d="M36.9312 69.6058L33.2157 77.1239L32.3428 91.0755L30.2334 76.467L36.9312 69.6058Z" fill="#0415B3"/>
<path d="M66.5791 71.2085L70.2946 78.7263L71.1675 92.6781L73.2769 78.0695L66.5791 71.2085Z" fill="#0415B3"/>
<path d="M45.3457 58.6094C49.9381 62.9661 54.3813 62.7524 58.6307 58.6094V46.3164H45.3457V58.6094Z" fill="#FFB8E9"/>
<path d="M45.1289 52.1281C45.1289 52.1281 47.0069 56.9005 51.7403 56.9005C56.073 56.9005 59.1398 51.9091 59.1398 51.9091L45.1291 52.1279L45.1289 52.1281Z" fill="#EB7AC9"/>
<path d="M64.1509 31.6315C65.0836 26.9204 62.7954 16.9169 51.9884 18.7114C41.1815 16.9169 38.8931 26.9206 39.826 31.6315C40.7587 36.3426 35.4925 40.2219 37.7711 46.3025C40.0516 52.3833 46.2246 53.7767 50.7998 53.7767C51.2028 53.7767 51.5996 53.7731 51.9884 53.764C52.3773 53.7731 52.7741 53.7767 53.1771 53.7767C57.7523 53.7767 63.9253 52.3833 66.2058 46.3025C68.4844 40.2217 63.2182 36.3424 64.1509 31.6315Z" fill="#FFB8E9"/>
<path d="M69.737 21.8414C66.3001 16.6606 61.4348 20.5066 61.4135 19.8342C61.0466 8.20998 53.4054 7.96469 51.9883 10.8745C50.2831 14.3758 55.209 17.047 55.5835 17.2025C50.151 18.7565 48.783 10.0943 43.6691 8.8866C39.9834 8.01605 34.7991 9.05373 32.926 12.6189C30.0014 18.1856 33.9103 22.8569 36.5494 25.5526C43.2185 30.594 53.166 28.9975 60.5304 26.2405C58.74 31.0086 64.7586 36.8819 68.6036 33.6416C71.688 31.0423 71.4307 24.3947 69.737 21.8414Z" fill="#FF219F"/>
<path d="M54.0845 44.7749C54.424 45.7944 55.3077 46.4183 56.0584 46.1684C56.809 45.9184 57.1423 44.8893 56.8029 43.8699C56.4634 42.8504 55.5797 42.2265 54.829 42.4764C54.0784 42.7264 53.7451 43.7555 54.0845 44.7749Z" fill="#1A0C54"/>
<path d="M56.713 34.8242C56.6742 34.8242 56.6355 34.8233 56.5967 34.8216C55.6392 34.7782 54.7045 34.1948 54.0962 33.2614C54.0445 33.1819 54.0668 33.0756 54.1464 33.0237C54.2259 32.9718 54.3322 32.9943 54.3841 33.0738C54.9321 33.9148 55.765 34.44 56.6123 34.4784C57.4597 34.5174 58.3162 34.0698 58.9079 33.2825C58.965 33.2068 59.0727 33.1915 59.1484 33.2485C59.2242 33.3056 59.2394 33.4133 59.1824 33.489C58.5493 34.3314 57.6335 34.8242 56.713 34.8242Z" fill="#1A0C54"/>
<path d="M47.2992 34.5132C47.262 34.5132 47.2249 34.5125 47.1876 34.5108C46.2693 34.4702 45.3726 33.9247 44.7888 33.0516C44.736 32.9727 44.7572 32.866 44.8362 32.8133C44.9149 32.7606 45.0217 32.7817 45.0744 32.8607C45.5975 33.6432 46.3933 34.1317 47.2027 34.1676C48.0112 34.2036 48.8308 33.7876 49.3957 33.0548C49.4538 32.9796 49.5615 32.9658 49.6367 33.0237C49.7118 33.0816 49.7257 33.1895 49.6678 33.2647C49.0601 34.0525 48.1818 34.5132 47.2992 34.5132Z" fill="#1A0C54"/>
<path d="M51.3696 40.8422C50.23 40.8422 49.019 40.3421 48.3063 39.5336C47.784 38.941 47.6105 38.2576 47.8176 37.6097C47.8202 37.6018 47.8233 37.5941 47.8269 37.5867C48.0045 37.2234 48.5949 37.2571 49.2191 37.2923C49.6704 37.3179 50.1817 37.3469 50.3798 37.2016C51.35 36.4903 51.3302 35.2561 51.3074 33.8269L51.307 33.8073C51.3055 33.7125 51.3812 33.6344 51.4761 33.6328C51.5716 33.6362 51.649 33.707 51.6506 33.8018V33.8214C51.6741 35.2825 51.6963 36.6626 50.583 37.4788C50.2857 37.6968 49.7578 37.6669 49.1997 37.6355C48.7907 37.6123 48.2333 37.5807 48.14 37.7294C47.9329 38.3999 48.2553 38.9566 48.5638 39.3067C49.3284 40.1741 50.7886 40.6639 51.9611 40.4462C52.0539 40.4289 52.1441 40.4904 52.1614 40.5838C52.1788 40.6771 52.1171 40.7667 52.0239 40.7841C51.8112 40.8236 51.5915 40.8425 51.3694 40.8425L51.3696 40.8422Z" fill="#1A0C54"/>
<path d="M2.7496 120.4C-0.900592 134.405 14.7322 147.641 50.8899 129.73L49.7123 120.823C35.4046 121.146 6.99705 104.103 2.7496 120.4Z" fill="#FF9900"/>
<path d="M32.3205 32.1762C30.4195 34.4711 30.1795 38.833 32.2485 41.0311C34.0436 42.844 37.2209 42.8102 38.9757 40.9581L40.8869 37.3889C40.5888 33.2316 35.3088 28.5686 32.3205 32.1762Z" fill="#FFB8E9"/>
<path d="M37.9227 37.5225C37.8989 37.5225 37.8748 37.5175 37.8521 37.5073C36.9878 37.1179 35.9798 37.0858 35.0141 37.417C34.9242 37.4481 34.8265 37.4 34.7959 37.3101C34.7652 37.2203 34.8129 37.1227 34.9026 37.092C35.829 36.7744 36.7935 36.7656 37.6565 37.0609C37.4938 36.5281 37.3088 35.9839 37.0637 35.4876C36.7392 34.8311 36.3455 34.3354 35.8936 34.0147C35.3791 33.6495 34.7858 33.5244 34.2645 33.6718C33.6937 33.8333 33.2232 34.3441 33.0937 34.9429C33.0736 35.0357 32.9818 35.0939 32.8894 35.0745C32.7967 35.0544 32.7377 34.963 32.7578 34.8703C32.9135 34.1507 33.4815 33.5363 34.171 33.3413C34.7923 33.1658 35.4928 33.309 36.0927 33.7347C36.5915 34.0887 37.0218 34.6274 37.3719 35.3356C37.6814 35.9621 37.8951 36.6505 38.0875 37.3021C38.1065 37.3665 38.0863 37.4361 38.0356 37.4802C38.0036 37.508 37.9634 37.5225 37.9227 37.5225Z" fill="#1A0C54"/>
<path d="M71.1489 32.1762C73.0499 34.4711 73.2899 38.833 71.2208 41.0311C69.4258 42.844 66.2485 42.8102 64.4937 40.9581L62.5825 37.3889C62.8805 33.2316 68.1605 28.5686 71.1489 32.1762Z" fill="#FFB8E9"/>
<path d="M65.5463 37.5225C65.5056 37.5225 65.4652 37.508 65.4334 37.48C65.3829 37.4359 65.3625 37.3663 65.3816 37.3019C65.5739 36.6504 65.7876 35.9617 66.0972 35.3355C66.4472 34.6272 66.8775 34.0885 67.3764 33.7345C67.976 33.3087 68.6769 33.1656 69.2978 33.3412C69.9875 33.5363 70.5554 34.1507 70.711 34.8701C70.7311 34.9629 70.6722 35.0543 70.5794 35.0744C70.4868 35.0941 70.3953 35.0355 70.3752 34.9428C70.2457 34.344 69.775 33.8331 69.2044 33.6717C68.6834 33.5243 68.0896 33.6492 67.5753 34.0145C67.1233 34.3354 66.7296 34.831 66.4051 35.4875C66.16 35.9837 65.9752 36.5279 65.8124 37.0607C66.6754 36.7653 67.6399 36.7742 68.5662 37.0918C68.6559 37.1226 68.7038 37.2203 68.6731 37.31C68.6423 37.3997 68.5446 37.4479 68.4549 37.4168C67.4889 37.0858 66.4811 37.1178 65.6169 37.5072C65.5944 37.5175 65.5703 37.5223 65.5463 37.5223V37.5225Z" fill="#1A0C54"/>
<path d="M6.41396 108.538C13.3313 116.859 29.2604 97.023 21.9365 92.0517C14.6807 87.1265 31.428 74.0024 33.7835 70.1205C35.482 67.3216 37.0058 60.3437 33.3553 61.2809C16.5692 65.5905 -7.459 91.8497 6.41396 108.538Z" fill="#FFB8E9"/>
<path d="M37.1456 88.7914C33.7313 90.6231 30.0426 94.5101 19.7238 90.981C10.0107 87.6591 -0.215301 104.31 8.75008 110.412C20.8613 118.655 38.6243 100.52 41.9419 93.3831C43.2103 90.6545 39.6075 87.4708 37.1456 88.7914Z" fill="#FFB8E9"/>
<path d="M36.3843 80.8508C36.5042 79.8283 37.6702 78.569 38.6943 79.0996C41.2682 80.6402 40.6678 83.148 39.9397 85.476C40.9372 86.8737 52.1459 78.059 53.4507 84.9557C55.5323 84.8697 56.0843 88.33 54.3828 89.4759C55.242 89.7576 56.2511 90.2231 55.606 92.0482C53.624 97.6536 41.088 102.476 35.8872 99.0647L32.6675 92.303C33.1801 86.1052 35.8771 85.1763 36.3843 80.851V80.8508Z" fill="#FFB8E9"/>
<path d="M39.8395 85.6317C39.801 85.6317 39.7625 85.6188 39.7306 85.5925C39.6572 85.5322 39.6467 85.4242 39.7069 85.3508C40.4355 84.4641 40.7612 83.2583 40.5779 82.1254C40.3948 80.9924 39.7058 79.9506 38.735 79.3386C38.6548 79.2879 38.6307 79.1819 38.6812 79.1017C38.7319 79.0215 38.8379 78.9976 38.9181 79.0479C39.9711 79.7117 40.7183 80.8416 40.917 82.0706C41.1156 83.2995 40.7624 84.6074 39.9721 85.569C39.9381 85.6104 39.8891 85.6317 39.8395 85.6317Z" fill="#1A0C54"/>
<path d="M45.2431 90.0296C45.1698 90.0296 45.1017 89.9822 45.0789 89.9081C45.0511 89.8174 45.1019 89.7214 45.1926 89.6934C45.7741 89.5146 50.9297 87.8742 52.8934 85.3542C53.2727 84.8674 53.2059 84.3664 53.083 84.0317C52.8 83.2601 51.922 82.5402 51.0412 82.357C50.9482 82.3377 50.8886 82.2467 50.908 82.1538C50.9273 82.0608 51.018 82.001 51.1112 82.0206C52.1147 82.2293 53.0796 83.0255 53.4056 83.9134C53.6248 84.5105 53.5415 85.0818 53.1645 85.5655C51.1781 88.1145 46.2595 89.7248 45.2938 90.0218C45.277 90.027 45.2599 90.0294 45.2433 90.0294L45.2431 90.0296Z" fill="#1A0C54"/>
<path d="M47.1943 94.1341C47.1226 94.1341 47.0558 94.0889 47.0316 94.0173C47.0012 93.9275 47.0493 93.8301 47.1393 93.7995C50.3666 92.7055 53.6052 89.9396 54.186 89.2945C54.8335 88.5755 55.1541 87.672 55.0433 86.8779C54.9186 85.984 54.1913 85.2391 53.3875 85.1821C53.2929 85.1754 53.2216 85.0931 53.2283 84.9987C53.2352 84.904 53.3176 84.8344 53.4118 84.8394C54.371 84.9074 55.237 85.7819 55.3834 86.8303C55.51 87.7369 55.1666 88.7189 54.4412 89.5244C53.823 90.2108 50.587 92.9935 47.2494 94.1248C47.2312 94.131 47.2126 94.1341 47.1943 94.1341Z" fill="#1A0C54"/>
<path d="M48.2246 98.5987C48.1598 98.5987 48.098 98.5619 48.0688 98.4994C48.0288 98.4133 48.0661 98.3113 48.1521 98.2711C52.3985 96.2938 55.437 93.5085 55.541 91.4977C55.5827 90.6895 55.1598 90.0141 54.2839 89.4902C54.2025 89.4414 54.1761 89.3359 54.2247 89.2545C54.2735 89.1729 54.3789 89.1466 54.4603 89.1952C55.454 89.7898 55.9331 90.5703 55.8843 91.5154C55.755 94.0171 51.9804 96.8675 48.2973 98.5825C48.2739 98.5933 48.2492 98.5985 48.225 98.5985L48.2246 98.5987Z" fill="#1A0C54"/>
<path d="M96.1573 108.538C89.24 116.859 73.3109 97.023 80.6348 92.0517C87.8905 87.1265 71.1433 74.0024 68.7878 70.1205C67.0893 67.3216 65.5655 60.3437 69.216 61.2809C86.0021 65.5905 110.03 91.8497 96.1573 108.538Z" fill="#FFB8E9"/>
<path d="M65.4254 88.7914C68.8397 90.6231 72.5284 94.5101 82.8472 90.981C92.5603 87.6591 102.786 104.31 93.8209 110.412C81.7097 118.655 63.9467 100.52 60.6291 93.3831C59.3607 90.6545 62.9635 87.4708 65.4254 88.7914Z" fill="#FFB8E9"/>
<path d="M63.9743 80.6054C63.8544 79.5828 62.6884 78.3235 61.6643 78.8542C59.0905 80.3948 59.6908 82.9025 60.419 85.2304C59.4215 86.6281 48.2127 77.8134 46.9079 84.7101C44.8264 84.624 44.2743 88.0844 45.9759 89.2303C45.1167 89.512 44.1075 89.9775 44.7527 91.8026C46.7346 97.4079 59.2706 102.23 64.4714 98.8191L67.6912 92.0574C67.1786 85.8596 64.4816 84.9305 63.9743 80.6054Z" fill="#FFB8E9"/>
<path d="M60.5187 85.3862C60.4691 85.3862 60.4199 85.3649 60.3859 85.3235C59.5956 84.3615 59.2424 83.0538 59.441 81.825C59.6396 80.5963 60.387 79.4663 61.4399 78.8024C61.5201 78.7519 61.6263 78.7758 61.6768 78.8562C61.7275 78.9364 61.7034 79.0424 61.623 79.0931C60.6522 79.7051 59.9632 80.7469 59.7801 81.8799C59.597 83.0128 59.9227 84.2186 60.6511 85.1055C60.7114 85.1788 60.7008 85.2871 60.6274 85.3472C60.5955 85.3735 60.5568 85.3864 60.5185 85.3864L60.5187 85.3862Z" fill="#1A0C54"/>
<path d="M55.1153 89.7841C55.0985 89.7841 55.0817 89.7815 55.0648 89.7766C54.0989 89.4796 49.1802 87.8688 47.1942 85.3202C46.8171 84.8365 46.7338 84.2652 46.9532 83.6679C47.2792 82.78 48.244 81.9842 49.2474 81.7753C49.3401 81.7559 49.4312 81.8155 49.4506 81.9085C49.4698 82.0014 49.4102 82.0923 49.3175 82.1117C48.4368 82.2948 47.559 83.0149 47.2758 83.7863C47.1529 84.1211 47.0859 84.6223 47.4652 85.1089C49.4288 87.6285 54.5845 89.2693 55.166 89.4481C55.2567 89.4761 55.3075 89.5721 55.2797 89.6628C55.257 89.7367 55.189 89.7843 55.1155 89.7843L55.1153 89.7841Z" fill="#1A0C54"/>
<path d="M53.1645 93.8886C53.1463 93.8886 53.1275 93.8857 53.1093 93.8795C49.7719 92.7482 46.5357 89.9655 45.9175 89.2791C45.1923 88.4736 44.8489 87.4916 44.9755 86.585C45.1219 85.5365 45.9879 84.6622 46.9469 84.5941C47.0404 84.589 47.1237 84.6587 47.1304 84.7534C47.1371 84.848 47.0658 84.9301 46.9712 84.9368C46.1676 84.9939 45.4403 85.7387 45.3156 86.6326C45.2048 87.4267 45.5252 88.3302 46.1728 89.0493C46.7537 89.6943 49.9923 92.4603 53.2194 93.5542C53.3093 93.5848 53.3575 93.6822 53.327 93.772C53.3026 93.8436 53.2359 93.8888 53.1643 93.8888L53.1645 93.8886Z" fill="#1A0C54"/>
<path d="M52.134 98.353C52.1096 98.353 52.085 98.3479 52.0617 98.3371C48.3783 96.6221 44.6039 93.7717 44.4746 91.2698C44.4256 90.3247 44.9047 89.5441 45.8984 88.9496C45.98 88.901 46.0853 88.9275 46.1341 89.0089C46.1827 89.0903 46.1563 89.1958 46.0748 89.2446C45.1988 89.7685 44.7759 90.4439 44.8178 91.2521C44.9217 93.263 47.9602 96.0484 52.2066 98.0256C52.2927 98.0657 52.33 98.1679 52.29 98.2539C52.2608 98.3165 52.1987 98.3532 52.1342 98.3532L52.134 98.353Z" fill="#1A0C54"/>
<path d="M48.2482 120.954C44.0311 120.954 39.9208 119.639 35.9387 118.365C35.5782 118.25 35.2178 118.135 34.8579 118.02C30.7527 116.718 25.8807 115.302 20.8695 114.671C20.7754 114.659 20.7088 114.573 20.7206 114.479C20.7323 114.385 20.8187 114.318 20.9125 114.33C25.9509 114.965 30.8419 116.386 34.9617 117.693C35.3219 117.807 35.6824 117.923 36.0433 118.038C40.213 119.372 44.5245 120.751 48.9226 120.599C49.0136 120.593 49.0969 120.67 49.1002 120.765C49.1034 120.86 49.0292 120.939 48.9344 120.943C48.7055 120.951 48.4765 120.954 48.248 120.954L48.2482 120.954Z" fill="#1A0C54"/>
<path d="M80.3509 117.293C85.2033 115.536 89.9434 115.046 93.771 115.692C99.1895 116.606 102.78 119.796 102.272 124.885C101.437 133.251 86.4196 143.282 54.3516 135.076L55.3578 129.41C67.4871 126.646 72.0836 120.288 80.3509 117.293Z" fill="#FF9900"/>
<path d="M55.3577 129.582C55.2794 129.582 55.2086 129.528 55.1904 129.449C55.1693 129.356 55.2271 129.264 55.3197 129.243C62.5164 127.603 66.9773 124.739 71.2912 121.97C74.1922 120.108 76.9323 118.349 80.2925 117.132C85.0153 115.422 89.8122 114.85 93.7998 115.523C93.8932 115.539 93.9564 115.627 93.9404 115.721C93.9248 115.814 93.8369 115.877 93.7426 115.861C89.8122 115.198 85.0774 115.764 80.4095 117.455C77.0855 118.659 74.3612 120.408 71.4769 122.259C67.1379 125.044 62.6514 127.924 55.396 129.578C55.3831 129.581 55.3704 129.582 55.3577 129.582Z" fill="#1A0C54"/>
<path d="M94.4545 125.863C93.7752 127.043 93.6939 128.508 92.6032 129.802C92.0602 130.447 92.7079 131.404 93.5072 131.137C95.468 130.482 97.4869 128.575 98.0041 126.931C98.6501 124.877 95.6649 123.76 94.4547 125.863H94.4545Z" fill="white"/>
<path d="M96.6502 121.605C96.6646 120.894 97.2526 120.329 97.9635 120.343C98.6745 120.358 99.2393 120.946 99.2251 121.657C99.2106 122.368 98.6226 122.932 97.9117 122.918C97.2007 122.904 96.6359 122.316 96.6502 121.605Z" fill="white"/>
<path d="M37.005 15.6387C36.5264 16.6609 35.5703 17.4124 35.2101 18.7682C35.0308 19.4431 34.073 19.4584 33.8744 18.7889C33.3873 17.1462 33.7226 14.8692 34.5931 13.7365C35.6808 12.3216 37.8575 13.8177 37.005 15.6387Z" fill="white"/>
<path d="M38.8902 12.4337C39.3662 12.0861 39.4701 11.4184 39.1225 10.9424C38.7748 10.4664 38.1071 10.3625 37.6311 10.7102C37.1551 11.0578 37.0512 11.7255 37.3989 12.2015C37.7466 12.6775 38.4142 12.7814 38.8902 12.4337Z" fill="white"/>
<path d="M11.7693 105.241C11.3538 104.285 10.2655 104.388 9.46793 103.693C8.2193 102.891 8.45171 101.309 7.6272 101.607C6.59673 101.98 6.8391 104.978 8.07897 106.294C9.06941 107.727 12.6317 107.225 11.7695 105.241H11.7693Z" fill="white"/>
<path d="M24.7706 81.189C21.1273 78.934 17.7335 76.1259 14.8711 72.1398C14.8711 72.1398 25.3622 59.9577 36.4593 60.217C37.7089 60.1858 38.7081 69.4993 33.641 73.6386C28.5738 77.778 24.7706 81.189 24.7706 81.189Z" fill="#2E42FF"/>
<path d="M77.8288 81.9433C81.654 79.464 85.0534 76.384 87.7283 72.2826C87.7283 72.2826 77.2372 60.7119 66.1401 60.9713C64.8904 60.94 63.8912 70.2534 68.9584 74.3928C74.0255 78.5322 77.8288 81.9433 77.8288 81.9433Z" fill="#2E42FF"/>
<path d="M48.5379 29.0673C47.5669 29.0673 46.5932 29.0181 45.6255 28.9168C40.3264 28.3625 36.1652 26.3086 34.2087 23.2821C34.1572 23.2024 34.18 23.0961 34.2597 23.0445C34.3396 22.9932 34.4458 23.0159 34.4973 23.0956C36.3971 26.0343 40.4662 28.0316 45.6612 28.5751C52.5497 29.295 59.7946 27.3509 63.2792 23.8452C63.3463 23.778 63.4549 23.7775 63.5222 23.8445C63.5896 23.9113 63.5899 24.0202 63.5229 24.0874C60.4622 27.1664 54.5754 29.0671 48.5379 29.0671V29.0673Z" fill="#1A0C54"/>
<path d="M67.7853 29.4654C67.771 29.4654 67.7566 29.4637 67.742 29.4599C67.6501 29.4361 67.5949 29.3423 67.619 29.2505C68.2205 26.9343 67.34 24.2672 65.4775 22.7645C65.4036 22.7049 65.3921 22.5967 65.4517 22.523C65.5113 22.4492 65.6195 22.4375 65.6932 22.4973C67.6573 24.0819 68.5859 26.8945 67.9515 29.3371C67.9314 29.4144 67.8619 29.4656 67.7854 29.4656L67.7853 29.4654Z" fill="#1A0C54"/>
<path d="M50.9336 24.5503C47.4597 24.5503 43.9623 23.5623 41.0616 21.6918C40.9819 21.6405 40.9589 21.5341 41.0104 21.4544C41.0616 21.3747 41.1681 21.3515 41.2478 21.4033C45.2261 23.9685 50.3494 24.8418 54.9529 23.7395C55.0452 23.7177 55.1379 23.7744 55.1601 23.8667C55.1823 23.9589 55.1252 24.0517 55.033 24.0738C53.6966 24.3938 52.3167 24.5505 50.9336 24.5505V24.5503Z" fill="#1A0C54"/>
<path d="M52.5714 21.526C51.4858 21.526 50.3983 21.2629 49.4548 20.7436C49.3716 20.6979 49.3412 20.5935 49.3871 20.5103C49.433 20.4272 49.5372 20.3968 49.6204 20.4427C51.2222 21.3239 53.262 21.4261 54.9436 20.7094C55.0309 20.6723 55.1317 20.7129 55.169 20.8001C55.2061 20.8874 55.1656 20.9884 55.0783 21.0255C54.2924 21.3605 53.4324 21.526 52.5714 21.526Z" fill="#1A0C54"/>
<path d="M77.8285 82.1151C77.7936 82.1151 77.7585 82.1046 77.728 82.0826C77.2016 81.7027 64.847 72.721 65.66 67.9946C65.676 67.9012 65.7644 67.8371 65.8584 67.8544C65.9518 67.8704 66.0147 67.9592 65.9986 68.0528C65.2216 72.57 77.802 81.7123 77.9291 81.8042C78.0061 81.8597 78.0234 81.967 77.9678 82.044C77.9343 82.0905 77.8817 82.1151 77.8285 82.1151Z" fill="#1A0C54"/>
<path d="M24.6789 81.2882C24.6279 81.2882 24.5772 81.266 24.5437 81.2233C24.4869 81.1508 24.4954 81.0477 24.5657 80.9879C24.5691 80.985 24.5767 80.9793 24.5805 80.9766C29.1825 77.6541 37.7636 70.5863 37.3008 67.6169C37.2862 67.5233 37.3505 67.4353 37.4441 67.4207C37.5365 67.4068 37.6256 67.4704 37.6402 67.564C38.2404 71.415 26.1608 80.2594 24.7815 81.2552C24.7507 81.2774 24.7146 81.2882 24.6789 81.2882Z" fill="#1A0C54"/>
<path d="M75.788 68.0152C74.7498 67.9233 74.5035 66.8582 73.5915 66.3212C72.4362 65.39 71.0082 66.1109 71.0305 65.2344C71.0584 64.139 73.7191 63.9086 75.3599 64.6687C77.0323 65.1554 77.9425 68.2061 75.788 68.0152Z" fill="white"/>
<path d="M13.8291 108.156C13.8291 107.581 14.2956 107.115 14.8709 107.115C15.4462 107.115 15.9127 107.581 15.9127 108.156C15.9127 108.732 15.4464 109.198 14.8709 109.198C14.2955 109.198 13.8291 108.732 13.8291 108.156Z" fill="white"/>
<path d="M51.9154 66.2956C50.076 66.2956 48.2719 65.3965 46.6821 63.6838C46.6175 63.6142 46.6216 63.5055 46.6912 63.441C46.7604 63.3764 46.8693 63.3804 46.9339 63.4501C48.524 65.1634 50.3265 66.0295 52.1478 65.947C54.0332 65.8644 55.8426 64.7747 57.3805 62.7955C57.4386 62.7206 57.5466 62.707 57.6215 62.7653C57.6964 62.8235 57.71 62.9314 57.6518 63.0063C56.0501 65.0674 54.152 66.203 52.1627 66.2902C52.0803 66.2939 51.9976 66.2957 51.9154 66.2957V66.2956Z" fill="#1A0C54"/>
<path d="M32.3243 48.1535C31.5256 46.4121 31.4681 43.9781 32.8709 42.592C34.9671 40.5208 38.318 41.5116 39.4901 43.9314C38.2359 41.0251 43.3794 39.4766 45.3338 41.7895C46.5092 43.1805 47.2941 47.4551 51.8487 44.4972C51.0362 46.163 49.5297 47.6217 48.2753 48.3092C46.1046 49.4987 48.6537 53.2997 43.9881 54.4269C42.5749 54.7682 40.777 52.9189 40.777 52.9189C40.777 52.9189 39.9616 55.0719 37.9922 55.2679C35.8466 55.4814 34.3509 52.8294 35.6511 51.1081C34.2034 50.6295 32.9707 49.535 32.3243 48.1541V48.1535Z" fill="white"/>
<path d="M35.7496 51.1196C35.4733 51.1196 35.1926 51.0785 34.9201 50.9933C34.1152 50.7417 33.375 50.1329 32.836 49.2789C32.3466 48.5038 32.0665 47.6281 31.8368 46.7974C31.8116 46.706 31.8651 46.6114 31.9565 46.5861C32.0483 46.5607 32.1426 46.6145 32.1678 46.7059C32.3904 47.5113 32.6608 48.3582 33.1265 49.0956C33.6221 49.8806 34.2954 50.4382 35.0227 50.6654C35.8491 50.9239 36.759 50.7228 37.2862 50.1656C37.3514 50.0967 37.46 50.0938 37.529 50.1589C37.5979 50.224 37.601 50.3329 37.5359 50.4017C37.097 50.8657 36.4367 51.1198 35.7498 51.1198L35.7496 51.1196Z" fill="#1A0C54"/>
<path d="M37.5979 55.337C37.3327 55.337 37.0851 55.3162 36.868 55.287C36.7741 55.2743 36.7081 55.1877 36.7208 55.0937C36.7335 54.9996 36.8203 54.9341 36.9141 54.9465C37.5824 55.0367 38.5571 55.0415 39.4056 54.5518C40.1699 54.1112 40.6644 53.2947 40.6362 52.5206C40.6328 52.4257 40.7068 52.346 40.8016 52.3426C40.899 52.3407 40.9762 52.4132 40.9796 52.508C41.0127 53.4201 40.4624 54.3391 39.5772 54.8495C38.9255 55.2253 38.2137 55.3371 37.5981 55.3371L37.5979 55.337Z" fill="#1A0C54"/>
<path d="M70.3003 46.5991C71.7034 46.1793 72.7993 44.6917 73.1084 42.7871L73.2771 41.7476L73.4459 42.7871C73.7552 44.6918 74.851 46.1793 76.254 46.5991L77.0196 46.8282L76.254 47.0574C74.8509 47.4772 73.755 48.9648 73.4459 50.8695L73.2771 51.909L73.1084 50.8695C72.7991 48.9648 71.7033 47.4773 70.3003 47.0574L69.5347 46.8282L70.3003 46.5991Z" fill="#FDEFE5"/>
<path d="M2.27022 117.642C2.18967 117.642 2.12079 117.583 2.10797 117.504L2.01294 116.919C1.84953 115.913 1.27461 115.122 0.548114 114.905L0.117221 114.776C0.0476787 114.755 0 114.691 0 114.619C0 114.546 0.0476787 114.482 0.117221 114.461L0.548114 114.332C1.27461 114.115 1.84953 113.324 2.01294 112.319L2.10797 111.734C2.12096 111.654 2.18967 111.596 2.27022 111.596C2.35094 111.596 2.41967 111.654 2.4325 111.734L2.52734 112.319C2.69059 113.324 3.26568 114.115 3.99217 114.332L4.42306 114.461C4.49261 114.482 4.54028 114.546 4.54028 114.619C4.54028 114.691 4.49261 114.755 4.42306 114.776L3.99217 114.905C3.26568 115.122 2.69076 115.913 2.52734 116.919L2.4325 117.504C2.41951 117.583 2.35078 117.642 2.27022 117.642ZM0.729775 114.619C1.45282 114.876 2.03184 115.606 2.27038 116.542C2.50877 115.606 3.08779 114.876 3.81083 114.619C3.08779 114.361 2.50877 113.632 2.27022 112.696C2.03184 113.632 1.45282 114.361 0.729775 114.619Z" fill="#1A0C54"/>
<defs>
<linearGradient id="paint0_linear_50_2815" x1="102.341" y1="65.6568" x2="84.6423" y2="80.0469" gradientUnits="userSpaceOnUse">
<stop stop-color="#FBCCB4"/>
<stop offset="1" stop-color="#FBCCB4" stop-opacity="0"/>
</linearGradient>
</defs>
</svg>
