<svg width="101" height="112" viewBox="0 0 101 112" fill="none" xmlns="http://www.w3.org/2000/svg">
<path d="M69.8332 63.4027C70.4192 63.4847 69.9592 59.8727 71.1312 59.3547C72.3042 58.8367 75.2402 59.0927 75.2402 58.5787C75.2402 58.0637 71.7172 58.2867 71.1312 57.7557C70.5452 57.2247 70.3572 53.4067 69.7712 53.2937C69.1852 53.1807 69.2982 57.2407 68.4192 57.8107C67.5402 58.3807 64.6752 58.0907 64.6762 58.6617C64.6762 59.2337 67.1922 58.6687 68.5112 59.4697C69.8312 60.2717 69.2462 63.3207 69.8332 63.4027Z" fill="#F0CB9B"/>
<path d="M46.6944 7.47672C47.1284 7.53772 46.7874 4.86573 47.6544 4.48373C48.5214 4.10073 50.6934 4.29072 50.6934 3.90972C50.6934 3.52872 48.0884 3.69372 47.6544 3.30172C47.2204 2.90872 47.0824 0.0857339 46.6484 0.00173378C46.2144 -0.0822663 46.2984 2.92073 45.6484 3.34173C44.9984 3.76273 42.8804 3.54873 42.8804 3.97073C42.8804 4.39373 44.7414 3.97573 45.7164 4.56873C46.6934 5.16173 46.2614 7.41672 46.6944 7.47672Z" fill="#F0CB9B"/>
<path d="M25.8628 86.8358C26.2968 86.8968 25.9558 84.2248 26.8228 83.8428C27.6898 83.4598 29.8618 83.6498 29.8618 83.2688C29.8618 82.8878 27.2568 83.0528 26.8228 82.6608C26.3888 82.2678 26.2508 79.4448 25.8168 79.3608C25.3828 79.2768 25.4678 82.2788 24.8168 82.7008C24.1668 83.1228 22.0488 82.9078 22.0488 83.3298C22.0488 83.7528 23.9098 83.3348 24.8848 83.9278C25.8608 84.5208 25.4288 86.7748 25.8628 86.8358Z" fill="#F0CB9B"/>
<path d="M37.3701 73.4517C37.3701 70.4077 39.8381 67.9406 42.8811 67.9406C45.9251 67.9406 48.3921 70.4077 48.3921 73.4517C48.3921 76.4957 45.9251 78.9626 42.8811 78.9626C39.8371 78.9626 37.3701 76.4957 37.3701 73.4517Z" fill="#F0CB9B"/>
<path d="M92.6224 58.3476C90.8346 58.3476 89.3854 59.7969 89.3854 61.5846C89.3854 63.3724 90.8346 64.8216 92.6224 64.8216C94.4101 64.8216 95.8594 63.3724 95.8594 61.5846C95.8594 59.7969 94.4101 58.3476 92.6224 58.3476Z" fill="#F0CB9B"/>
<path d="M75.0202 25.8017C75.0202 25.1647 75.5362 24.6487 76.1732 24.6487C76.8102 24.6487 77.3262 25.1647 77.3262 25.8017C77.3262 26.4387 76.8102 26.9547 76.1732 26.9547C75.5372 26.9547 75.0202 26.4377 75.0202 25.8017Z" fill="#F0CB9B"/>
<path d="M65.9553 70.8216C65.3268 70.8216 64.8173 71.3311 64.8173 71.9596C64.8173 72.5881 65.3268 73.0976 65.9553 73.0976C66.5838 73.0976 67.0933 72.5881 67.0933 71.9596C67.0933 71.3311 66.5838 70.8216 65.9553 70.8216Z" fill="#F0CB9B"/>
<path d="M53.9093 76.5986C53.5907 76.5986 53.3323 76.857 53.3323 77.1756C53.3323 77.4943 53.5907 77.7526 53.9093 77.7526C54.228 77.7526 54.4863 77.4943 54.4863 77.1756C54.4863 76.857 54.228 76.5986 53.9093 76.5986Z" fill="#F0CB9B"/>
<path d="M56.2231 90.2908C56.2231 89.9628 56.4891 89.6968 56.8171 89.6968C57.1451 89.6968 57.4111 89.9628 57.4111 90.2908C57.4111 90.6188 57.1451 90.8848 56.8171 90.8848C56.4891 90.8848 56.2231 90.6188 56.2231 90.2908Z" fill="#F0CB9B"/>
<path d="M48.3924 85.9357C47.802 85.9357 47.3234 86.4144 47.3234 87.0047C47.3234 87.5951 47.802 88.0737 48.3924 88.0737C48.9828 88.0737 49.4614 87.5951 49.4614 87.0047C49.4614 86.4144 48.9828 85.9357 48.3924 85.9357Z" fill="#F0CB9B"/>
<path d="M45.9831 101.291C45.9831 101.069 46.1631 100.889 46.3851 100.889C46.6071 100.889 46.7871 101.069 46.7871 101.291C46.7871 101.513 46.6071 101.693 46.3851 101.693C46.1631 101.693 45.9831 101.513 45.9831 101.291Z" fill="#F0CB9B"/>
<path d="M32.9162 95.2027C32.9162 94.5437 33.4502 94.0097 34.1092 94.0097C34.7682 94.0097 35.3022 94.5437 35.3022 95.2027C35.3022 95.8617 34.7682 96.3957 34.1092 96.3957C33.4502 96.3957 32.9162 95.8617 32.9162 95.2027Z" fill="#F0CB9B"/>
<path d="M100.009 45.5417C99.468 45.5417 99.0293 45.9804 99.0293 46.5217C99.0293 47.0629 99.468 47.5017 100.009 47.5017C100.551 47.5017 100.989 47.0629 100.989 46.5217C100.989 45.9804 100.551 45.5417 100.009 45.5417Z" fill="#F0CB9B"/>
<path d="M0.000152111 110.292C0.000152111 109.408 0.71715 108.691 1.60115 108.691C2.48515 108.691 3.20215 109.408 3.20215 110.292C3.20215 111.176 2.48515 111.893 1.60115 111.893C0.71715 111.893 0.000152111 111.176 0.000152111 110.292Z" fill="#F0CB9B"/>
<path d="M55.0744 16.6357C55.0744 16.1547 55.4644 15.7637 55.9464 15.7637C56.4274 15.7637 56.8174 16.1537 56.8174 16.6357C56.8174 17.1167 56.4274 17.5067 55.9464 17.5067C55.4654 17.5067 55.0744 17.1167 55.0744 16.6357Z" fill="#F0CB9B"/>
<path d="M58.7192 11.7996C58.7192 11.4316 59.0182 11.1326 59.3862 11.1326C59.7542 11.1326 60.0532 11.4306 60.0532 11.7996C60.0532 12.1676 59.7542 12.4666 59.3862 12.4666C59.0182 12.4666 58.7192 12.1676 58.7192 11.7996Z" fill="#F0CB9B"/>
<path d="M57.8162 1.93274C57.3175 1.93274 56.9132 2.33703 56.9132 2.83574C56.9132 3.33445 57.3175 3.73874 57.8162 3.73874C58.315 3.73874 58.7192 3.33445 58.7192 2.83574C58.7192 2.33703 58.315 1.93274 57.8162 1.93274Z" fill="#F0CB9B"/>
</svg>
