<svg width="22" height="23" viewBox="0 0 22 23" fill="none" xmlns="http://www.w3.org/2000/svg">
<path d="M8.95676 0.962975C9.17724 0.664347 9.46474 0.421641 9.79612 0.254387C10.1275 0.0871325 10.4935 0 10.8647 0C11.2359 0 11.6019 0.0871325 11.9333 0.254387C12.2647 0.421641 12.5522 0.664347 12.7727 0.962975C13.0669 1.36083 13.4781 1.65683 13.9488 1.80961C14.4195 1.9624 14.9261 1.96434 15.3979 1.81517C15.7519 1.70311 16.1273 1.67574 16.4938 1.73525C16.8603 1.79476 17.2077 1.9395 17.5081 2.1578C17.8084 2.37611 18.0533 2.66189 18.223 2.99214C18.3927 3.32238 18.4826 3.68786 18.4852 4.05916C18.4895 4.55376 18.6481 5.03468 18.9389 5.4348C19.2297 5.83491 19.6381 6.13425 20.1072 6.29103C20.4595 6.40837 20.7794 6.6068 21.041 6.87034C21.3026 7.13389 21.4987 7.45518 21.6134 7.80835C21.7281 8.16151 21.7583 8.53669 21.7016 8.90366C21.6448 9.27064 21.5027 9.61915 21.2866 9.92115C20.9992 10.3238 20.8447 10.8061 20.8447 11.3008C20.8447 11.7955 20.9992 12.2779 21.2866 12.6805C21.5027 12.9825 21.6448 13.331 21.7016 13.698C21.7583 14.065 21.7281 14.4401 21.6134 14.7933C21.4987 15.1465 21.3026 15.4678 21.041 15.7313C20.7794 15.9948 20.4595 16.1933 20.1072 16.3106C19.6381 16.4674 19.2297 16.7667 18.9389 17.1669C18.6481 17.567 18.4895 18.0479 18.4852 18.5425C18.4826 18.9139 18.3928 19.2795 18.223 19.6098C18.0532 19.9401 17.8083 20.2259 17.5078 20.4443C17.2074 20.6626 16.8598 20.8073 16.4932 20.8667C16.1266 20.9262 15.7512 20.8987 15.3971 20.7865C14.9254 20.6375 14.4189 20.6395 13.9484 20.7923C13.4779 20.9451 13.0669 21.241 12.7727 21.6387C12.5522 21.9373 12.2647 22.18 11.9333 22.3473C11.6019 22.5145 11.2359 22.6016 10.8647 22.6016C10.4935 22.6016 10.1275 22.5145 9.79612 22.3473C9.46474 22.18 9.17724 21.9373 8.95676 21.6387C8.66251 21.2408 8.25132 20.9448 7.78065 20.792C7.30998 20.6392 6.80334 20.6373 6.33151 20.7865C5.97752 20.8985 5.60216 20.9259 5.23565 20.8664C4.86915 20.8069 4.52173 20.6622 4.22138 20.4438C3.92103 20.2255 3.67614 19.9398 3.50641 19.6095C3.33669 19.2793 3.24688 18.9138 3.24421 18.5425C3.23994 18.0479 3.08134 17.567 2.79056 17.1669C2.49977 16.7667 2.09132 16.4674 1.62221 16.3106C1.26989 16.1933 0.950059 15.9948 0.688454 15.7313C0.426848 15.4678 0.230784 15.1465 0.116047 14.7933C0.00131103 14.4401 -0.028891 14.065 0.0278734 13.698C0.0846377 13.331 0.226782 12.9825 0.442861 12.6805C0.730251 12.2779 0.88473 11.7955 0.88473 11.3008C0.88473 10.8061 0.730251 10.3238 0.442861 9.92115C0.226782 9.61915 0.0846377 9.27064 0.0278734 8.90366C-0.028891 8.53669 0.00131103 8.16151 0.116047 7.80835C0.230784 7.45518 0.426848 7.13389 0.688454 6.87034C0.950059 6.6068 1.26989 6.40837 1.62221 6.29103C2.09132 6.13425 2.49977 5.83491 2.79056 5.4348C3.08134 5.03468 3.23994 4.55376 3.24421 4.05916C3.24684 3.68777 3.33666 3.32219 3.50643 2.99186C3.6762 2.66154 3.92117 2.3757 4.22162 2.15737C4.52208 1.93905 4.8696 1.79434 5.23622 1.7349C5.60283 1.67546 5.97828 1.70296 6.33232 1.81517C6.80404 1.96416 7.3105 1.96212 7.78101 1.80934C8.25151 1.65656 8.66256 1.36067 8.95676 0.962975Z" fill="#FF822D"/>
<path d="M18.185 15.5271C15.8506 19.57 10.6808 20.9553 6.63876 18.6209C2.59667 16.2864 1.21054 11.1167 3.54499 7.07458C5.87945 3.03249 11.0492 1.64636 15.0913 3.98082C19.1334 6.31527 20.5195 11.485 18.185 15.5271Z" fill="#FCD53F"/>
</svg>
