<svg width="16" height="16" viewBox="0 0 16 16" fill="none" xmlns="http://www.w3.org/2000/svg">
<path d="M9 6H13.0566C13.0689 5.99994 13.0809 5.99625 13.0911 5.98938C13.1014 5.98251 13.1093 5.97277 13.1141 5.96138C13.1188 5.94999 13.12 5.93746 13.1176 5.92537C13.1152 5.91329 13.1093 5.90217 13.1006 5.89343L8.60656 1.39937C8.59782 1.39068 8.58671 1.38477 8.57462 1.38238C8.56253 1.37999 8.55001 1.38123 8.53862 1.38594C8.52723 1.39065 8.51749 1.39862 8.51062 1.40885C8.50375 1.41908 8.50005 1.43111 8.5 1.44343V5.5C8.5 5.6326 8.55268 5.75978 8.64645 5.85355C8.74021 5.94732 8.86739 6 9 6ZM8 8.5C7.72438 8.5 7.5 8.69625 7.5 8.9375V9.5H8.5V8.9375C8.5 8.69625 8.27562 8.5 8 8.5Z" fill="#BF735A"/>
<path d="M13.375 7H9C8.60218 7 8.22064 6.84196 7.93934 6.56066C7.65804 6.27936 7.5 5.89782 7.5 5.5V1.125C7.5 1.09185 7.48683 1.06005 7.46339 1.03661C7.43995 1.01317 7.40815 1 7.375 1H4.5C3.96957 1 3.46086 1.21071 3.08579 1.58579C2.71071 1.96086 2.5 2.46957 2.5 3V13C2.5 13.5304 2.71071 14.0391 3.08579 14.4142C3.46086 14.7893 3.96957 15 4.5 15H11.5C12.0304 15 12.5391 14.7893 12.9142 14.4142C13.2893 14.0391 13.5 13.5304 13.5 13V7.125C13.5 7.09185 13.4868 7.06005 13.4634 7.03661C13.4399 7.01317 13.4082 7 13.375 7ZM10.5 12C10.5 12.2652 10.3946 12.5196 10.2071 12.7071C10.0196 12.8946 9.76522 13 9.5 13H6.5C6.23478 13 5.98043 12.8946 5.79289 12.7071C5.60536 12.5196 5.5 12.2652 5.5 12V10.5C5.5 10.2348 5.60536 9.98043 5.79289 9.79289C5.98043 9.60536 6.23478 9.5 6.5 9.5V8.9375C6.5 8.145 7.17281 7.5 8 7.5C8.82719 7.5 9.5 8.145 9.5 8.9375V9.5C9.76522 9.5 10.0196 9.60536 10.2071 9.79289C10.3946 9.98043 10.5 10.2348 10.5 10.5V12Z" fill="#BF735A"/>
</svg>
