<svg width="252" height="133" viewBox="0 0 252 133" fill="none" xmlns="http://www.w3.org/2000/svg">
<path d="M251.55 132.447C251.55 132.447 49.2817 132.35 49.06 132.447H0.60573C0.0707234 129.343 -0.111246 126.175 0.0652652 123.013V123.007C0.0830532 122.752 0.0994554 122.496 0.115875 122.24C0.133663 121.989 0.150071 121.82 0.155544 121.751C0.775385 117.526 1.70859 113.346 2.94827 109.263C4.68328 103.547 7.08874 97.9113 10.3015 92.839C14.1177 86.7815 19.0765 81.5273 25.3843 77.8712C31.5088 74.3218 38.2888 71.7918 45.2206 70.6082C56.6979 68.6351 68.5953 70.3414 78.6386 77.1829C84.6783 81.2946 90.2623 87.6477 97.8728 88.637C109.509 90.1503 112.574 77.343 113.518 68.4764C116.066 44.5968 118.091 7.39128 147.214 0.521035C152.361 -0.695386 156.734 0.304838 160.414 2.62001C167.654 7.17508 172.237 16.8326 174.854 24.7537C179.079 37.5501 181.399 51.415 186.672 63.8064C190.578 72.9795 198.331 78.5416 208.515 77.1775C211.933 76.7163 215.243 77.0187 218.382 77.8944C225.633 79.9195 231.997 85.0424 236.786 91.1396C238.497 93.3234 240.011 95.6331 241.29 97.9633C246.885 108.169 249.274 121.027 251.55 132.447Z" fill="url(#paint0_linear_33_60713)" fill-opacity="0.66"/>
<defs>
<linearGradient id="paint0_linear_33_60713" x1="125.775" y1="0" x2="125.775" y2="132.447" gradientUnits="userSpaceOnUse">
<stop stop-color="#FBCCB4"/>
<stop offset="1" stop-color="#FBCCB4" stop-opacity="0"/>
</linearGradient>
</defs>
</svg>
