<svg width="13" height="11" viewBox="0 0 13 11" fill="none" xmlns="http://www.w3.org/2000/svg">
<path fill-rule="evenodd" clip-rule="evenodd" d="M11.7436 3.07666C11.7087 3.07461 11.6716 3.07379 11.6323 3.0742H10.0798C8.80835 3.0742 7.7207 4.07515 7.7207 5.37983C7.7207 6.68452 8.80896 7.68547 10.0798 7.68547H11.6323C11.6716 7.68588 11.7089 7.68506 11.7442 7.68301C12.0055 7.66725 12.2522 7.55703 12.4383 7.37288C12.6243 7.18872 12.7371 6.9432 12.7556 6.68206C12.7581 6.64517 12.7581 6.6052 12.7581 6.56831V4.19136C12.7581 4.15447 12.7581 4.1145 12.7556 4.07761C12.7371 3.81647 12.6243 3.57095 12.4383 3.38679C12.2522 3.20264 12.0049 3.09241 11.7436 3.07666ZM9.94395 5.99467C10.271 5.99467 10.536 5.71922 10.536 5.37983C10.536 5.04044 10.271 4.765 9.94395 4.765C9.61624 4.765 9.35125 5.04044 9.35125 5.37983C9.35125 5.71922 9.61624 5.99467 9.94395 5.99467Z" fill="#BF735A"/>
<path fill-rule="evenodd" clip-rule="evenodd" d="M11.6315 8.6077C11.6527 8.60685 11.6739 8.61102 11.6932 8.61988C11.7126 8.62874 11.7295 8.64203 11.7428 8.65869C11.756 8.67534 11.7651 8.69488 11.7694 8.71572C11.7737 8.73656 11.773 8.75811 11.7673 8.77863C11.6444 9.21639 11.4482 9.59021 11.1341 9.90378C10.6736 10.3649 10.0901 10.5684 9.36949 10.6656C8.66857 10.7596 7.77399 10.7596 6.64392 10.7596H5.34538C4.21532 10.7596 3.32011 10.7596 2.61982 10.6656C1.89923 10.5684 1.31575 10.3643 0.855237 9.90439C0.39534 9.44388 0.191214 8.8604 0.09407 8.13981C7.32942e-08 7.4389 0 6.54431 0 5.41425V5.34538C0 4.21532 7.32942e-08 3.32011 0.09407 2.6192C0.191214 1.89861 0.39534 1.31513 0.855237 0.854622C1.31575 0.394725 1.89923 0.190599 2.61982 0.093455C3.32073 -2.74853e-08 4.21532 0 5.34538 0H6.64392C7.77399 0 8.66919 7.32942e-08 9.36949 0.09407C10.0901 0.191214 10.6736 0.395339 11.1341 0.855237C11.4482 1.17003 11.6444 1.54324 11.7673 1.981C11.773 2.00152 11.7737 2.02307 11.7694 2.04391C11.7651 2.06475 11.756 2.08429 11.7428 2.10094C11.7295 2.1176 11.7126 2.13089 11.6932 2.13975C11.6739 2.14861 11.6527 2.15278 11.6315 2.15193H10.0796C8.33533 2.15193 6.79824 3.52916 6.79824 5.37982C6.79824 7.23047 8.33533 8.6077 10.0796 8.6077H11.6315ZM2.30564 2.45934C2.18334 2.45934 2.06605 2.50793 1.97957 2.59441C1.89309 2.68088 1.84451 2.79817 1.84451 2.92047C1.84451 3.04277 1.89309 3.16006 1.97957 3.24654C2.06605 3.33301 2.18334 3.3816 2.30564 3.3816H4.76498C4.88728 3.3816 5.00457 3.33301 5.09104 3.24654C5.17752 3.16006 5.22611 3.04277 5.22611 2.92047C5.22611 2.79817 5.17752 2.68088 5.09104 2.59441C5.00457 2.50793 4.88728 2.45934 4.76498 2.45934H2.30564Z" fill="#BF735A"/>
</svg>
