<svg width="17" height="17" viewBox="0 0 17 17" fill="none" xmlns="http://www.w3.org/2000/svg">
<path d="M5.32381 11.9003L9.5411 10.6894C9.81947 10.6059 10.0597 10.4631 10.2618 10.261C10.4639 10.0589 10.6064 9.81891 10.6894 9.5411L11.9003 5.32381C11.942 5.1707 11.9039 5.03486 11.7859 4.91627C11.6678 4.79769 11.532 4.75955 11.3783 4.80186L7.16104 6.01277C6.88267 6.09628 6.64272 6.23908 6.44118 6.44118C6.23964 6.64328 6.09684 6.88323 6.01277 7.16104L4.80187 11.3783C4.76011 11.5314 4.79853 11.6673 4.91711 11.7859C5.0357 11.9044 5.17126 11.9426 5.32381 11.9003ZM8.35107 9.60373C8.00311 9.60373 7.70748 9.48208 7.46419 9.23879C7.22089 8.99549 7.09897 8.69959 7.09841 8.35107C7.09785 8.00255 7.21978 7.70692 7.46419 7.46419C7.70859 7.22145 8.00422 7.09952 8.35107 7.09841C8.69792 7.0973 8.99382 7.21922 9.23879 7.46419C9.48375 7.70915 9.6054 8.00478 9.60373 8.35107C9.60206 8.69736 9.48041 8.99327 9.23879 9.23879C8.99716 9.48431 8.70126 9.60596 8.35107 9.60373ZM8.35107 16.7021C7.19584 16.7021 6.1102 16.4828 5.09415 16.0441C4.07811 15.6054 3.19428 15.0105 2.44269 14.2595C1.69109 13.5084 1.09622 12.6246 0.658065 11.608C0.219913 10.5914 0.000557795 9.50574 1.0571e-06 8.35107C-0.000555681 7.19639 0.218799 6.11076 0.658065 5.09415C1.09733 4.07755 1.69221 3.19373 2.44269 2.44269C3.19317 1.69165 4.07699 1.09677 5.09415 0.658064C6.11131 0.219355 7.19695 0 8.35107 0C9.50519 0 10.5908 0.219355 11.608 0.658064C12.6251 1.09677 13.509 1.69165 14.2595 2.44269C15.0099 3.19373 15.6051 4.07755 16.0449 5.09415C16.4847 6.11076 16.7038 7.19639 16.7021 8.35107C16.7005 9.50574 16.4811 10.5914 16.0441 11.608C15.607 12.6246 15.0122 13.5084 14.2595 14.2595C13.5067 15.0105 12.6229 15.6056 11.608 16.0449C10.5931 16.4842 9.50741 16.7033 8.35107 16.7021Z" fill="#5F311A"/>
</svg>
