<svg width="193" height="232" viewBox="0 0 193 232" fill="none" xmlns="http://www.w3.org/2000/svg">
<path d="M152.266 172.58C152.266 172.58 62.5877 172.624 62.4894 172.58H41.0066C40.7694 173.957 40.6887 175.361 40.767 176.763V176.766C40.7749 176.879 40.7821 176.993 40.7894 177.106C40.7973 177.217 40.8046 177.292 40.807 177.323C41.0818 179.196 41.4956 181.049 42.0452 182.86C42.8144 185.394 43.8809 187.892 45.3053 190.141C46.9973 192.827 49.1958 195.156 51.9925 196.777C54.7079 198.351 57.7138 199.473 60.7871 199.998C65.8757 200.872 71.1506 200.116 75.6034 197.083C78.2812 195.26 80.7569 192.443 84.1311 192.004C89.2901 191.333 90.649 197.012 91.0676 200.943C92.1972 211.53 93.095 228.026 106.007 231.072C108.289 231.611 110.228 231.167 111.859 230.141C115.069 228.121 117.102 223.84 118.261 220.328C120.135 214.654 121.164 208.507 123.501 203.013C125.233 198.946 128.67 196.48 133.186 197.085C134.701 197.289 136.169 197.155 137.56 196.767C140.775 195.869 143.597 193.598 145.72 190.895C146.479 189.927 147.15 188.902 147.717 187.869C150.198 183.344 151.257 177.644 152.266 172.58Z" fill="#C5FFC9" fill-opacity="0.31"/>
<path d="M192.932 100.117C190.936 153.374 146.143 194.929 92.885 192.932C39.6273 190.936 -1.92787 146.143 0.0690605 92.885C2.06599 39.6273 46.8588 -1.92787 100.117 0.0690605C153.374 2.06599 194.929 46.8588 192.932 100.117Z" fill="#C5FFC9" fill-opacity="0.31"/>
<path d="M119.049 99.3C115.753 103.342 112.457 107.385 109.161 111.427C106.795 114.026 104.484 116.677 102.051 119.212C98.1591 123.268 94.214 127.276 89.7465 130.72C88.7756 131.469 87.7634 132.145 86.6641 132.702C84.3047 133.896 82.1689 133.55 80.1675 131.893C78.924 130.863 77.8049 129.712 76.8092 128.451C71.3933 121.593 67.2557 113.971 63.6337 106.064C62.1685 102.866 62.6101 101.531 65.2793 99.2386C66.5552 98.1429 67.825 97.0372 69.1452 95.9965C71.9431 93.7909 74.1219 93.7572 76.9143 95.9988C79.9395 98.4274 82.4736 101.347 84.9298 104.337C85.594 105.146 86.1265 106.579 87.0235 106.527C87.7054 106.487 88.3143 105.064 88.9423 104.246C90.9197 101.672 92.8908 99.0919 94.864 96.5143C97.7502 93.0956 100.637 89.6773 103.519 86.255C103.586 86.1759 103.6 86.0526 103.639 85.9499C104.729 85.0419 105.515 83.8614 106.435 82.8029C107.911 81.1068 109.354 79.3819 110.81 77.6692C110.917 77.2951 111.086 76.9715 111.483 76.8305C112.777 75.5358 114.059 74.2284 115.372 72.9531C115.836 72.503 116.356 72.1041 116.884 71.7293C118.503 70.5809 120.203 70.4123 121.926 71.4698C123.878 72.668 125.846 73.849 127.728 75.1514C129.977 76.707 130.647 78.7115 129.925 81.3607C129.059 84.54 127.287 87.278 125.561 90.0246C123.73 92.9366 121.678 95.6969 119.607 98.442C119.402 98.7137 119.234 99.0134 119.049 99.3Z" fill="#2B6C2F"/>
</svg>
